G75*
G70*
%OFA0B0*%
%FSLAX24Y24*%
%IPPOS*%
%LPD*%
%AMOC8*
5,1,8,0,0,1.08239X$1,22.5*
%
%ADD10C,0.0000*%
D10*
X000100Y000100D02*
X000100Y028096D01*
X036470Y028096D01*
X036470Y000100D01*
X000100Y000100D01*
X010960Y024100D02*
X010962Y024150D01*
X010968Y024200D01*
X010978Y024249D01*
X010991Y024298D01*
X011009Y024345D01*
X011030Y024391D01*
X011054Y024434D01*
X011082Y024476D01*
X011113Y024516D01*
X011147Y024553D01*
X011184Y024587D01*
X011224Y024618D01*
X011266Y024646D01*
X011309Y024670D01*
X011355Y024691D01*
X011402Y024709D01*
X011451Y024722D01*
X011500Y024732D01*
X011550Y024738D01*
X011600Y024740D01*
X011650Y024738D01*
X011700Y024732D01*
X011749Y024722D01*
X011798Y024709D01*
X011845Y024691D01*
X011891Y024670D01*
X011934Y024646D01*
X011976Y024618D01*
X012016Y024587D01*
X012053Y024553D01*
X012087Y024516D01*
X012118Y024476D01*
X012146Y024434D01*
X012170Y024391D01*
X012191Y024345D01*
X012209Y024298D01*
X012222Y024249D01*
X012232Y024200D01*
X012238Y024150D01*
X012240Y024100D01*
X012238Y024050D01*
X012232Y024000D01*
X012222Y023951D01*
X012209Y023902D01*
X012191Y023855D01*
X012170Y023809D01*
X012146Y023766D01*
X012118Y023724D01*
X012087Y023684D01*
X012053Y023647D01*
X012016Y023613D01*
X011976Y023582D01*
X011934Y023554D01*
X011891Y023530D01*
X011845Y023509D01*
X011798Y023491D01*
X011749Y023478D01*
X011700Y023468D01*
X011650Y023462D01*
X011600Y023460D01*
X011550Y023462D01*
X011500Y023468D01*
X011451Y023478D01*
X011402Y023491D01*
X011355Y023509D01*
X011309Y023530D01*
X011266Y023554D01*
X011224Y023582D01*
X011184Y023613D01*
X011147Y023647D01*
X011113Y023684D01*
X011082Y023724D01*
X011054Y023766D01*
X011030Y023809D01*
X011009Y023855D01*
X010991Y023902D01*
X010978Y023951D01*
X010968Y024000D01*
X010962Y024050D01*
X010960Y024100D01*
X014960Y024100D02*
X014962Y024150D01*
X014968Y024200D01*
X014978Y024249D01*
X014991Y024298D01*
X015009Y024345D01*
X015030Y024391D01*
X015054Y024434D01*
X015082Y024476D01*
X015113Y024516D01*
X015147Y024553D01*
X015184Y024587D01*
X015224Y024618D01*
X015266Y024646D01*
X015309Y024670D01*
X015355Y024691D01*
X015402Y024709D01*
X015451Y024722D01*
X015500Y024732D01*
X015550Y024738D01*
X015600Y024740D01*
X015650Y024738D01*
X015700Y024732D01*
X015749Y024722D01*
X015798Y024709D01*
X015845Y024691D01*
X015891Y024670D01*
X015934Y024646D01*
X015976Y024618D01*
X016016Y024587D01*
X016053Y024553D01*
X016087Y024516D01*
X016118Y024476D01*
X016146Y024434D01*
X016170Y024391D01*
X016191Y024345D01*
X016209Y024298D01*
X016222Y024249D01*
X016232Y024200D01*
X016238Y024150D01*
X016240Y024100D01*
X016238Y024050D01*
X016232Y024000D01*
X016222Y023951D01*
X016209Y023902D01*
X016191Y023855D01*
X016170Y023809D01*
X016146Y023766D01*
X016118Y023724D01*
X016087Y023684D01*
X016053Y023647D01*
X016016Y023613D01*
X015976Y023582D01*
X015934Y023554D01*
X015891Y023530D01*
X015845Y023509D01*
X015798Y023491D01*
X015749Y023478D01*
X015700Y023468D01*
X015650Y023462D01*
X015600Y023460D01*
X015550Y023462D01*
X015500Y023468D01*
X015451Y023478D01*
X015402Y023491D01*
X015355Y023509D01*
X015309Y023530D01*
X015266Y023554D01*
X015224Y023582D01*
X015184Y023613D01*
X015147Y023647D01*
X015113Y023684D01*
X015082Y023724D01*
X015054Y023766D01*
X015030Y023809D01*
X015009Y023855D01*
X014991Y023902D01*
X014978Y023951D01*
X014968Y024000D01*
X014962Y024050D01*
X014960Y024100D01*
M02*
