G75*
G70*
%OFA0B0*%
%FSLAX24Y24*%
%IPPOS*%
%LPD*%
%AMOC8*
5,1,8,0,0,1.08239X$1,22.5*
%
%ADD10C,0.0600*%
%ADD11C,0.0630*%
%ADD12C,0.1360*%
%ADD13OC8,0.0600*%
%ADD14C,0.0680*%
%ADD15C,0.0600*%
%ADD16OC8,0.0710*%
%ADD17C,0.0710*%
%ADD18C,0.2620*%
%ADD19R,0.0556X0.0556*%
%ADD20C,0.0730*%
%ADD21C,0.0640*%
%ADD22C,0.0480*%
D10*
X005100Y012840D02*
X005100Y013360D01*
X006100Y013360D02*
X006100Y012840D01*
X007100Y012840D02*
X007100Y013360D01*
X008100Y013360D02*
X008100Y012840D01*
X009100Y012840D02*
X009100Y013360D01*
X010100Y013360D02*
X010100Y012840D01*
X011100Y012840D02*
X011100Y013360D01*
X012100Y013360D02*
X012100Y012840D01*
X013100Y012840D02*
X013100Y013360D01*
X014100Y013360D02*
X014100Y012840D01*
X015100Y012840D02*
X015100Y013360D01*
X016100Y013360D02*
X016100Y012840D01*
X017100Y012840D02*
X017100Y013360D01*
X018100Y013360D02*
X018100Y012840D01*
X019600Y012360D02*
X019600Y011840D01*
X020600Y011840D02*
X020600Y012360D01*
X021600Y012360D02*
X021600Y011840D01*
X022600Y011840D02*
X022600Y012360D01*
X023600Y012360D02*
X023600Y011840D01*
X024600Y011840D02*
X024600Y012360D01*
X025600Y012360D02*
X025600Y011840D01*
X026600Y011840D02*
X026600Y012360D01*
X029600Y012590D02*
X029600Y013110D01*
X030600Y013110D02*
X030600Y012590D01*
X031600Y012590D02*
X031600Y013110D01*
X032600Y013110D02*
X032600Y012590D01*
X033600Y012590D02*
X033600Y013110D01*
X034600Y013110D02*
X034600Y012590D01*
X035600Y012590D02*
X035600Y013110D01*
X035600Y015340D02*
X035600Y015860D01*
X034600Y015860D02*
X034600Y015340D01*
X033600Y015340D02*
X033600Y015860D01*
X032600Y015860D02*
X032600Y015340D01*
X031600Y015340D02*
X031600Y015860D01*
X030600Y015860D02*
X030600Y015340D01*
X029600Y015340D02*
X029600Y015860D01*
X026600Y015860D02*
X026600Y015340D01*
X025600Y015340D02*
X025600Y015860D01*
X024600Y015860D02*
X024600Y015340D01*
X023600Y015340D02*
X023600Y015860D01*
X022600Y015860D02*
X022600Y015340D01*
X021600Y015340D02*
X021600Y015860D01*
X020600Y015860D02*
X020600Y015340D01*
X019600Y015340D02*
X019600Y015860D01*
X018100Y015840D02*
X018100Y016360D01*
X017100Y016360D02*
X017100Y015840D01*
X016100Y015840D02*
X016100Y016360D01*
X015100Y016360D02*
X015100Y015840D01*
X014100Y015840D02*
X014100Y016360D01*
X013100Y016360D02*
X013100Y015840D01*
X012100Y015840D02*
X012100Y016360D01*
X011100Y016360D02*
X011100Y015840D01*
X010100Y015840D02*
X010100Y016360D01*
X009100Y016360D02*
X009100Y015840D01*
X008100Y015840D02*
X008100Y016360D01*
X007100Y016360D02*
X007100Y015840D01*
X006100Y015840D02*
X006100Y016360D01*
X005100Y016360D02*
X005100Y015840D01*
X019350Y020840D02*
X019350Y021360D01*
X020350Y021360D02*
X020350Y020840D01*
X021350Y020840D02*
X021350Y021360D01*
X022350Y021360D02*
X022350Y020840D01*
X023350Y020840D02*
X023350Y021360D01*
X024350Y021360D02*
X024350Y020840D01*
X025350Y020840D02*
X025350Y021360D01*
X026350Y021360D02*
X026350Y020840D01*
X026600Y018860D02*
X026600Y018340D01*
X025600Y018340D02*
X025600Y018860D01*
X024600Y018860D02*
X024600Y018340D01*
X023600Y018340D02*
X023600Y018860D01*
X022600Y018860D02*
X022600Y018340D01*
X021600Y018340D02*
X021600Y018860D01*
X020600Y018860D02*
X020600Y018340D01*
X019600Y018340D02*
X019600Y018860D01*
X019350Y023840D02*
X019350Y024360D01*
X020350Y024360D02*
X020350Y023840D01*
X021350Y023840D02*
X021350Y024360D01*
X022350Y024360D02*
X022350Y023840D01*
X023350Y023840D02*
X023350Y024360D01*
X024350Y024360D02*
X024350Y023840D01*
X025350Y023840D02*
X025350Y024360D01*
X026350Y024360D02*
X026350Y023840D01*
X029600Y023840D02*
X029600Y024360D01*
X030600Y024360D02*
X030600Y023840D01*
X031600Y023840D02*
X031600Y024360D01*
X032600Y024360D02*
X032600Y023840D01*
X033600Y023840D02*
X033600Y024360D01*
X034600Y024360D02*
X034600Y023840D01*
X035600Y023840D02*
X035600Y024360D01*
X035600Y021360D02*
X035600Y020840D01*
X034600Y020840D02*
X034600Y021360D01*
X033600Y021360D02*
X033600Y020840D01*
X032600Y020840D02*
X032600Y021360D01*
X031600Y021360D02*
X031600Y020840D01*
X030600Y020840D02*
X030600Y021360D01*
X029600Y021360D02*
X029600Y020840D01*
X029600Y018860D02*
X029600Y018340D01*
X030600Y018340D02*
X030600Y018860D01*
X031600Y018860D02*
X031600Y018340D01*
X032600Y018340D02*
X032600Y018860D01*
X033600Y018860D02*
X033600Y018340D01*
X034600Y018340D02*
X034600Y018860D01*
X035600Y018860D02*
X035600Y018340D01*
X035600Y010110D02*
X035600Y009590D01*
X034600Y009590D02*
X034600Y010110D01*
X033600Y010110D02*
X033600Y009590D01*
X032600Y009590D02*
X032600Y010110D01*
X031600Y010110D02*
X031600Y009590D01*
X030600Y009590D02*
X030600Y010110D01*
X029600Y010110D02*
X029600Y009590D01*
X029600Y007360D02*
X029600Y006840D01*
X030600Y006840D02*
X030600Y007360D01*
X031600Y007360D02*
X031600Y006840D01*
X032600Y006840D02*
X032600Y007360D01*
X033600Y007360D02*
X033600Y006840D01*
X034600Y006840D02*
X034600Y007360D01*
X035600Y007360D02*
X035600Y006840D01*
X035600Y004360D02*
X035600Y003840D01*
X034600Y003840D02*
X034600Y004360D01*
X033600Y004360D02*
X033600Y003840D01*
X032600Y003840D02*
X032600Y004360D01*
X031600Y004360D02*
X031600Y003840D01*
X030600Y003840D02*
X030600Y004360D01*
X029600Y004360D02*
X029600Y003840D01*
X026600Y002860D02*
X026600Y002340D01*
X025600Y001860D02*
X025600Y001340D01*
X024600Y002340D02*
X024600Y002860D01*
X019600Y002860D02*
X019600Y002340D01*
X018600Y001860D02*
X018600Y001340D01*
X017600Y002340D02*
X017600Y002860D01*
X019600Y008840D02*
X019600Y009360D01*
X020600Y009360D02*
X020600Y008840D01*
X021600Y008840D02*
X021600Y009360D01*
X022600Y009360D02*
X022600Y008840D01*
X023600Y008840D02*
X023600Y009360D01*
X024600Y009360D02*
X024600Y008840D01*
X025600Y008840D02*
X025600Y009360D01*
X026600Y009360D02*
X026600Y008840D01*
D11*
X014850Y020600D03*
X013850Y020600D03*
X012850Y020600D03*
X012350Y021600D03*
X013350Y021600D03*
X014350Y021600D03*
D12*
X015600Y024100D03*
X011600Y024100D03*
D13*
X017600Y023600D03*
X017600Y022600D03*
X009100Y018100D03*
X008100Y018100D03*
X007100Y012100D03*
X007100Y011100D03*
X007100Y009600D03*
X007100Y008600D03*
X005100Y008600D03*
X005100Y009600D03*
X005100Y011100D03*
X005100Y012100D03*
X010100Y012100D03*
X010100Y011100D03*
X011600Y011100D03*
X011600Y012100D03*
X013100Y012100D03*
X013100Y011100D03*
X014600Y011100D03*
X014600Y012100D03*
X016600Y012100D03*
X016600Y011100D03*
X016600Y009100D03*
X016600Y008100D03*
X019600Y007100D03*
X019600Y006100D03*
X021600Y006100D03*
X021600Y007100D03*
X023600Y007100D03*
X023600Y006100D03*
X025600Y006100D03*
X025600Y007100D03*
X027600Y007100D03*
X027600Y008100D03*
X027600Y013100D03*
X026600Y013600D03*
X025600Y013600D03*
X024600Y013600D03*
X023600Y013600D03*
X022600Y013600D03*
X021600Y013600D03*
X020600Y013600D03*
X019600Y013600D03*
X027600Y014100D03*
X027600Y017600D03*
X027600Y018600D03*
X027600Y024100D03*
X027600Y025100D03*
X005100Y006600D03*
X005100Y005600D03*
D14*
X008550Y022600D02*
X009150Y022600D01*
X009150Y023600D02*
X008550Y023600D01*
X008550Y024600D02*
X009150Y024600D01*
D15*
X009650Y008600D03*
X011550Y008600D03*
D16*
X006300Y023600D03*
D17*
X004900Y023600D03*
D18*
X002100Y002100D03*
X002100Y026100D03*
X034600Y026100D03*
X034600Y002100D03*
D19*
X014600Y008009D03*
X014600Y009191D03*
D20*
X014600Y002425D02*
X014600Y001775D01*
X015600Y001775D02*
X015600Y002425D01*
X013100Y002425D02*
X013100Y001775D01*
X012100Y001775D02*
X012100Y002425D01*
X010600Y002425D02*
X010600Y001775D01*
X009600Y001775D02*
X009600Y002425D01*
X008600Y002425D02*
X008600Y001775D01*
X006600Y001775D02*
X006600Y002425D01*
X005600Y002425D02*
X005600Y001775D01*
X004600Y001775D02*
X004600Y002425D01*
X003100Y004775D02*
X003100Y005425D01*
X002100Y005425D02*
X002100Y004775D01*
X001100Y004775D02*
X001100Y005425D01*
X001100Y009275D02*
X001100Y009925D01*
X002100Y009925D02*
X002100Y009275D01*
X003100Y009275D02*
X003100Y009925D01*
X002425Y015100D02*
X001775Y015100D01*
X001775Y016100D02*
X002425Y016100D01*
X002425Y019100D02*
X001775Y019100D01*
X001775Y020100D02*
X002425Y020100D01*
X021600Y002425D02*
X021600Y001775D01*
X022600Y001775D02*
X022600Y002425D01*
X028600Y002425D02*
X028600Y001775D01*
X029600Y001775D02*
X029600Y002425D01*
D21*
X014100Y005320D02*
X014100Y005880D01*
X013100Y005880D02*
X013100Y005320D01*
X012100Y005320D02*
X012100Y005880D01*
X010100Y005880D02*
X010100Y005320D01*
X009100Y005320D02*
X009100Y005880D01*
X008100Y005880D02*
X008100Y005320D01*
D22*
X013100Y009600D03*
X012100Y010600D03*
X007100Y014100D03*
X005600Y010100D03*
X014600Y015100D03*
X018100Y010600D03*
X018600Y007600D03*
X022600Y008100D03*
X021100Y014600D03*
X024100Y017100D03*
X021600Y017600D03*
X019600Y022600D03*
X018600Y024600D03*
X020600Y025600D03*
X021600Y026600D03*
X022100Y026100D03*
X022600Y026100D03*
X024600Y026100D03*
X028600Y027100D03*
X029100Y025600D03*
X032100Y026600D03*
X030600Y022600D03*
X010100Y024600D03*
X007100Y019100D03*
M02*
