G75*
G70*
%OFA0B0*%
%FSLAX24Y24*%
%IPPOS*%
%LPD*%
%AMOC8*
5,1,8,0,0,1.08239X$1,22.5*
%
%ADD10C,0.0000*%
%ADD11C,0.0060*%
%ADD12C,0.0030*%
%ADD13C,0.0070*%
%ADD14C,0.0080*%
%ADD15C,0.0020*%
%ADD16R,0.0300X0.0450*%
%ADD17C,0.0040*%
%ADD18R,0.1000X0.0100*%
%ADD19C,0.0050*%
%ADD20R,0.0300X0.4200*%
%ADD21R,0.0200X0.0750*%
%ADD22R,0.0200X0.0300*%
%ADD23C,0.0160*%
%ADD24C,0.0120*%
%ADD25C,0.0200*%
%ADD26R,0.0030X0.0010*%
%ADD27R,0.0130X0.0010*%
%ADD28R,0.0150X0.0010*%
%ADD29R,0.0280X0.0010*%
%ADD30R,0.0300X0.0010*%
%ADD31R,0.0470X0.0010*%
%ADD32R,0.0480X0.0010*%
%ADD33R,0.0680X0.0010*%
%ADD34R,0.0700X0.0010*%
%ADD35R,0.0040X0.0010*%
%ADD36R,0.0080X0.0010*%
%ADD37R,0.0200X0.0010*%
%ADD38R,0.0120X0.0010*%
%ADD39R,0.0220X0.0010*%
%ADD40R,0.0340X0.0010*%
%ADD41R,0.0290X0.0010*%
%ADD42R,0.0380X0.0010*%
%ADD43R,0.0350X0.0010*%
%ADD44R,0.0430X0.0010*%
%ADD45R,0.0390X0.0010*%
%ADD46R,0.0460X0.0010*%
%ADD47R,0.0190X0.0010*%
%ADD48R,0.0180X0.0010*%
%ADD49R,0.0490X0.0010*%
%ADD50R,0.0160X0.0010*%
%ADD51R,0.0520X0.0010*%
%ADD52R,0.0140X0.0010*%
%ADD53R,0.0540X0.0010*%
%ADD54R,0.0110X0.0010*%
%ADD55R,0.0560X0.0010*%
%ADD56R,0.0100X0.0010*%
%ADD57R,0.0570X0.0010*%
%ADD58R,0.0590X0.0010*%
%ADD59R,0.0610X0.0010*%
%ADD60R,0.0630X0.0010*%
%ADD61R,0.0640X0.0010*%
%ADD62R,0.1050X0.0010*%
%ADD63R,0.1060X0.0010*%
%ADD64R,0.0010X0.0010*%
%ADD65R,0.0020X0.0010*%
%ADD66R,0.0690X0.0010*%
%ADD67R,0.0090X0.0010*%
%ADD68R,0.0050X0.0010*%
%ADD69R,0.0710X0.0010*%
%ADD70R,0.0720X0.0010*%
%ADD71R,0.0060X0.0010*%
%ADD72R,0.0730X0.0010*%
%ADD73R,0.0750X0.0010*%
%ADD74R,0.0070X0.0010*%
%ADD75R,0.0210X0.0010*%
%ADD76R,0.0550X0.0010*%
%ADD77R,0.0370X0.0010*%
%ADD78R,0.0530X0.0010*%
%ADD79R,0.0500X0.0010*%
%ADD80R,0.0260X0.0010*%
%ADD81R,0.0440X0.0010*%
%ADD82R,0.0310X0.0010*%
%ADD83R,0.0420X0.0010*%
%ADD84R,0.0270X0.0010*%
%ADD85R,0.0170X0.0010*%
%ADD86R,0.0230X0.0010*%
%ADD87R,0.0330X0.0010*%
%ADD88R,0.0360X0.0010*%
%ADD89R,0.0250X0.0010*%
%ADD90R,0.0400X0.0010*%
%ADD91R,0.0320X0.0010*%
%ADD92R,0.0410X0.0010*%
%ADD93C,0.0100*%
D10*
X000100Y000100D02*
X000100Y028096D01*
X036470Y028096D01*
X036470Y000100D01*
X000100Y000100D01*
X010960Y024100D02*
X010962Y024150D01*
X010968Y024200D01*
X010978Y024249D01*
X010991Y024298D01*
X011009Y024345D01*
X011030Y024391D01*
X011054Y024434D01*
X011082Y024476D01*
X011113Y024516D01*
X011147Y024553D01*
X011184Y024587D01*
X011224Y024618D01*
X011266Y024646D01*
X011309Y024670D01*
X011355Y024691D01*
X011402Y024709D01*
X011451Y024722D01*
X011500Y024732D01*
X011550Y024738D01*
X011600Y024740D01*
X011650Y024738D01*
X011700Y024732D01*
X011749Y024722D01*
X011798Y024709D01*
X011845Y024691D01*
X011891Y024670D01*
X011934Y024646D01*
X011976Y024618D01*
X012016Y024587D01*
X012053Y024553D01*
X012087Y024516D01*
X012118Y024476D01*
X012146Y024434D01*
X012170Y024391D01*
X012191Y024345D01*
X012209Y024298D01*
X012222Y024249D01*
X012232Y024200D01*
X012238Y024150D01*
X012240Y024100D01*
X012238Y024050D01*
X012232Y024000D01*
X012222Y023951D01*
X012209Y023902D01*
X012191Y023855D01*
X012170Y023809D01*
X012146Y023766D01*
X012118Y023724D01*
X012087Y023684D01*
X012053Y023647D01*
X012016Y023613D01*
X011976Y023582D01*
X011934Y023554D01*
X011891Y023530D01*
X011845Y023509D01*
X011798Y023491D01*
X011749Y023478D01*
X011700Y023468D01*
X011650Y023462D01*
X011600Y023460D01*
X011550Y023462D01*
X011500Y023468D01*
X011451Y023478D01*
X011402Y023491D01*
X011355Y023509D01*
X011309Y023530D01*
X011266Y023554D01*
X011224Y023582D01*
X011184Y023613D01*
X011147Y023647D01*
X011113Y023684D01*
X011082Y023724D01*
X011054Y023766D01*
X011030Y023809D01*
X011009Y023855D01*
X010991Y023902D01*
X010978Y023951D01*
X010968Y024000D01*
X010962Y024050D01*
X010960Y024100D01*
X014960Y024100D02*
X014962Y024150D01*
X014968Y024200D01*
X014978Y024249D01*
X014991Y024298D01*
X015009Y024345D01*
X015030Y024391D01*
X015054Y024434D01*
X015082Y024476D01*
X015113Y024516D01*
X015147Y024553D01*
X015184Y024587D01*
X015224Y024618D01*
X015266Y024646D01*
X015309Y024670D01*
X015355Y024691D01*
X015402Y024709D01*
X015451Y024722D01*
X015500Y024732D01*
X015550Y024738D01*
X015600Y024740D01*
X015650Y024738D01*
X015700Y024732D01*
X015749Y024722D01*
X015798Y024709D01*
X015845Y024691D01*
X015891Y024670D01*
X015934Y024646D01*
X015976Y024618D01*
X016016Y024587D01*
X016053Y024553D01*
X016087Y024516D01*
X016118Y024476D01*
X016146Y024434D01*
X016170Y024391D01*
X016191Y024345D01*
X016209Y024298D01*
X016222Y024249D01*
X016232Y024200D01*
X016238Y024150D01*
X016240Y024100D01*
X016238Y024050D01*
X016232Y024000D01*
X016222Y023951D01*
X016209Y023902D01*
X016191Y023855D01*
X016170Y023809D01*
X016146Y023766D01*
X016118Y023724D01*
X016087Y023684D01*
X016053Y023647D01*
X016016Y023613D01*
X015976Y023582D01*
X015934Y023554D01*
X015891Y023530D01*
X015845Y023509D01*
X015798Y023491D01*
X015749Y023478D01*
X015700Y023468D01*
X015650Y023462D01*
X015600Y023460D01*
X015550Y023462D01*
X015500Y023468D01*
X015451Y023478D01*
X015402Y023491D01*
X015355Y023509D01*
X015309Y023530D01*
X015266Y023554D01*
X015224Y023582D01*
X015184Y023613D01*
X015147Y023647D01*
X015113Y023684D01*
X015082Y023724D01*
X015054Y023766D01*
X015030Y023809D01*
X015009Y023855D01*
X014991Y023902D01*
X014978Y023951D01*
X014968Y024000D01*
X014962Y024050D01*
X014960Y024100D01*
D11*
X016529Y024704D02*
X016529Y024918D01*
X016529Y024811D02*
X017063Y024811D01*
X017170Y024704D01*
X017170Y024598D01*
X017063Y024491D01*
X017350Y023950D02*
X017850Y023950D01*
X017876Y023948D01*
X017902Y023943D01*
X017927Y023935D01*
X017950Y023923D01*
X017972Y023909D01*
X017991Y023891D01*
X018009Y023872D01*
X018023Y023850D01*
X018035Y023827D01*
X018043Y023802D01*
X018048Y023776D01*
X018050Y023750D01*
X018050Y022450D01*
X018048Y022424D01*
X018043Y022398D01*
X018035Y022373D01*
X018023Y022350D01*
X018009Y022328D01*
X017991Y022309D01*
X017972Y022291D01*
X017950Y022277D01*
X017927Y022265D01*
X017902Y022257D01*
X017876Y022252D01*
X017850Y022250D01*
X017350Y022250D01*
X017324Y022252D01*
X017298Y022257D01*
X017273Y022265D01*
X017250Y022277D01*
X017228Y022291D01*
X017209Y022309D01*
X017191Y022328D01*
X017177Y022350D01*
X017165Y022373D01*
X017157Y022398D01*
X017152Y022424D01*
X017150Y022450D01*
X017150Y023750D01*
X017152Y023776D01*
X017157Y023802D01*
X017165Y023827D01*
X017177Y023850D01*
X017191Y023872D01*
X017209Y023891D01*
X017228Y023909D01*
X017250Y023923D01*
X017273Y023935D01*
X017298Y023943D01*
X017324Y023948D01*
X017350Y023950D01*
X018850Y023750D02*
X018850Y023000D01*
X018889Y022998D01*
X018928Y022992D01*
X018966Y022983D01*
X019003Y022970D01*
X019039Y022953D01*
X019072Y022933D01*
X019104Y022909D01*
X019133Y022883D01*
X019159Y022854D01*
X019183Y022822D01*
X019203Y022789D01*
X019220Y022753D01*
X019233Y022716D01*
X019242Y022678D01*
X019248Y022639D01*
X019250Y022600D01*
X019248Y022561D01*
X019242Y022522D01*
X019233Y022484D01*
X019220Y022447D01*
X019203Y022411D01*
X019183Y022378D01*
X019159Y022346D01*
X019133Y022317D01*
X019104Y022291D01*
X019072Y022267D01*
X019039Y022247D01*
X019003Y022230D01*
X018966Y022217D01*
X018928Y022208D01*
X018889Y022202D01*
X018850Y022200D01*
X018850Y021450D01*
X026850Y021450D01*
X026850Y023750D01*
X018850Y023750D01*
X017170Y025135D02*
X017170Y025562D01*
X017170Y025349D02*
X016529Y025349D01*
X016743Y025135D01*
X009450Y018350D02*
X009450Y017850D01*
X009448Y017824D01*
X009443Y017798D01*
X009435Y017773D01*
X009423Y017750D01*
X009409Y017728D01*
X009391Y017709D01*
X009372Y017691D01*
X009350Y017677D01*
X009327Y017665D01*
X009302Y017657D01*
X009276Y017652D01*
X009250Y017650D01*
X007950Y017650D01*
X007924Y017652D01*
X007898Y017657D01*
X007873Y017665D01*
X007850Y017677D01*
X007828Y017691D01*
X007809Y017709D01*
X007791Y017728D01*
X007777Y017750D01*
X007765Y017773D01*
X007757Y017798D01*
X007752Y017824D01*
X007750Y017850D01*
X007750Y018350D01*
X007752Y018376D01*
X007757Y018402D01*
X007765Y018427D01*
X007777Y018450D01*
X007791Y018472D01*
X007809Y018491D01*
X007828Y018509D01*
X007850Y018523D01*
X007873Y018535D01*
X007898Y018543D01*
X007924Y018548D01*
X007950Y018550D01*
X009250Y018550D01*
X009276Y018548D01*
X009302Y018543D01*
X009327Y018535D01*
X009350Y018523D01*
X009372Y018509D01*
X009391Y018491D01*
X009409Y018472D01*
X009423Y018450D01*
X009435Y018427D01*
X009443Y018402D01*
X009448Y018376D01*
X009450Y018350D01*
X004600Y015600D02*
X004600Y015100D01*
X004644Y015098D01*
X004687Y015092D01*
X004729Y015083D01*
X004771Y015070D01*
X004811Y015053D01*
X004850Y015033D01*
X004887Y015010D01*
X004921Y014983D01*
X004954Y014954D01*
X004983Y014921D01*
X005010Y014887D01*
X005033Y014850D01*
X005053Y014811D01*
X005070Y014771D01*
X005083Y014729D01*
X005092Y014687D01*
X005098Y014644D01*
X005100Y014600D01*
X005098Y014556D01*
X005092Y014513D01*
X005083Y014471D01*
X005070Y014429D01*
X005053Y014389D01*
X005033Y014350D01*
X005010Y014313D01*
X004983Y014279D01*
X004954Y014246D01*
X004921Y014217D01*
X004887Y014190D01*
X004850Y014167D01*
X004811Y014147D01*
X004771Y014130D01*
X004729Y014117D01*
X004687Y014108D01*
X004644Y014102D01*
X004600Y014100D01*
X004600Y013600D01*
X004650Y013600D02*
X018600Y013600D01*
X018600Y015600D01*
X004600Y015600D01*
X003970Y015893D02*
X003630Y016120D01*
X003743Y016262D02*
X003630Y016375D01*
X003970Y016375D01*
X003970Y016262D02*
X003970Y016489D01*
X003970Y016120D02*
X003630Y015893D01*
X002418Y017130D02*
X002631Y017344D01*
X002631Y017771D01*
X002204Y017771D02*
X002204Y017344D01*
X002418Y017130D01*
X001988Y017130D02*
X001775Y017130D01*
X001881Y017130D02*
X001881Y017771D01*
X001775Y017771D02*
X001988Y017771D01*
X001557Y017771D02*
X001557Y017130D01*
X001557Y017450D02*
X001130Y017450D01*
X001130Y017130D02*
X001130Y017771D01*
X003630Y019893D02*
X003970Y020120D01*
X003970Y020262D02*
X003743Y020489D01*
X003686Y020489D01*
X003630Y020432D01*
X003630Y020318D01*
X003686Y020262D01*
X003630Y020120D02*
X003970Y019893D01*
X003970Y020262D02*
X003970Y020489D01*
X002633Y021630D02*
X002846Y021844D01*
X002846Y022271D01*
X002419Y022271D02*
X002419Y021844D01*
X002633Y021630D01*
X002202Y021630D02*
X001775Y021630D01*
X002202Y022057D01*
X002202Y022164D01*
X002095Y022271D01*
X001881Y022271D01*
X001775Y022164D01*
X001344Y022271D02*
X001344Y021630D01*
X001557Y021630D02*
X001130Y021630D01*
X001130Y022057D02*
X001344Y022271D01*
X004250Y024050D02*
X004550Y024050D01*
X004400Y023900D02*
X004400Y024200D01*
X003600Y023600D02*
X003602Y023698D01*
X003610Y023796D01*
X003622Y023893D01*
X003638Y023990D01*
X003660Y024086D01*
X003686Y024181D01*
X003717Y024274D01*
X003752Y024365D01*
X003792Y024455D01*
X003836Y024543D01*
X003885Y024628D01*
X003937Y024711D01*
X003994Y024791D01*
X004054Y024869D01*
X004118Y024943D01*
X004186Y025014D01*
X004257Y025082D01*
X004331Y025146D01*
X004409Y025206D01*
X004489Y025263D01*
X004572Y025315D01*
X004657Y025364D01*
X004745Y025408D01*
X004835Y025448D01*
X004926Y025483D01*
X005019Y025514D01*
X005114Y025540D01*
X005210Y025562D01*
X005307Y025578D01*
X005404Y025590D01*
X005502Y025598D01*
X005600Y025600D01*
X005698Y025598D01*
X005796Y025590D01*
X005893Y025578D01*
X005990Y025562D01*
X006086Y025540D01*
X006181Y025514D01*
X006274Y025483D01*
X006365Y025448D01*
X006455Y025408D01*
X006543Y025364D01*
X006628Y025315D01*
X006711Y025263D01*
X006791Y025206D01*
X006869Y025146D01*
X006943Y025082D01*
X007014Y025014D01*
X007082Y024943D01*
X007146Y024869D01*
X007206Y024791D01*
X007263Y024711D01*
X007315Y024628D01*
X007364Y024543D01*
X007408Y024455D01*
X007448Y024365D01*
X007483Y024274D01*
X007514Y024181D01*
X007540Y024086D01*
X007562Y023990D01*
X007578Y023893D01*
X007590Y023796D01*
X007598Y023698D01*
X007600Y023600D01*
X007598Y023502D01*
X007590Y023404D01*
X007578Y023307D01*
X007562Y023210D01*
X007540Y023114D01*
X007514Y023019D01*
X007483Y022926D01*
X007448Y022835D01*
X007408Y022745D01*
X007364Y022657D01*
X007315Y022572D01*
X007263Y022489D01*
X007206Y022409D01*
X007146Y022331D01*
X007082Y022257D01*
X007014Y022186D01*
X006943Y022118D01*
X006869Y022054D01*
X006791Y021994D01*
X006711Y021937D01*
X006628Y021885D01*
X006543Y021836D01*
X006455Y021792D01*
X006365Y021752D01*
X006274Y021717D01*
X006181Y021686D01*
X006086Y021660D01*
X005990Y021638D01*
X005893Y021622D01*
X005796Y021610D01*
X005698Y021602D01*
X005600Y021600D01*
X005502Y021602D01*
X005404Y021610D01*
X005307Y021622D01*
X005210Y021638D01*
X005114Y021660D01*
X005019Y021686D01*
X004926Y021717D01*
X004835Y021752D01*
X004745Y021792D01*
X004657Y021836D01*
X004572Y021885D01*
X004489Y021937D01*
X004409Y021994D01*
X004331Y022054D01*
X004257Y022118D01*
X004186Y022186D01*
X004118Y022257D01*
X004054Y022331D01*
X003994Y022409D01*
X003937Y022489D01*
X003885Y022572D01*
X003836Y022657D01*
X003792Y022745D01*
X003752Y022835D01*
X003717Y022926D01*
X003686Y023019D01*
X003660Y023114D01*
X003638Y023210D01*
X003622Y023307D01*
X003610Y023404D01*
X003602Y023502D01*
X003600Y023600D01*
X011350Y012450D02*
X011850Y012450D01*
X011876Y012448D01*
X011902Y012443D01*
X011927Y012435D01*
X011950Y012423D01*
X011972Y012409D01*
X011991Y012391D01*
X012009Y012372D01*
X012023Y012350D01*
X012035Y012327D01*
X012043Y012302D01*
X012048Y012276D01*
X012050Y012250D01*
X012050Y010950D01*
X012048Y010924D01*
X012043Y010898D01*
X012035Y010873D01*
X012023Y010850D01*
X012009Y010828D01*
X011991Y010809D01*
X011972Y010791D01*
X011950Y010777D01*
X011927Y010765D01*
X011902Y010757D01*
X011876Y010752D01*
X011850Y010750D01*
X011350Y010750D01*
X011324Y010752D01*
X011298Y010757D01*
X011273Y010765D01*
X011250Y010777D01*
X011228Y010791D01*
X011209Y010809D01*
X011191Y010828D01*
X011177Y010850D01*
X011165Y010873D01*
X011157Y010898D01*
X011152Y010924D01*
X011150Y010950D01*
X011150Y012250D01*
X011152Y012276D01*
X011157Y012302D01*
X011165Y012327D01*
X011177Y012350D01*
X011191Y012372D01*
X011209Y012391D01*
X011228Y012409D01*
X011250Y012423D01*
X011273Y012435D01*
X011298Y012443D01*
X011324Y012448D01*
X011350Y012450D01*
X012650Y012250D02*
X012650Y010950D01*
X012652Y010924D01*
X012657Y010898D01*
X012665Y010873D01*
X012677Y010850D01*
X012691Y010828D01*
X012709Y010809D01*
X012728Y010791D01*
X012750Y010777D01*
X012773Y010765D01*
X012798Y010757D01*
X012824Y010752D01*
X012850Y010750D01*
X013350Y010750D01*
X013376Y010752D01*
X013402Y010757D01*
X013427Y010765D01*
X013450Y010777D01*
X013472Y010791D01*
X013491Y010809D01*
X013509Y010828D01*
X013523Y010850D01*
X013535Y010873D01*
X013543Y010898D01*
X013548Y010924D01*
X013550Y010950D01*
X013550Y012250D01*
X013548Y012276D01*
X013543Y012302D01*
X013535Y012327D01*
X013523Y012350D01*
X013509Y012372D01*
X013491Y012391D01*
X013472Y012409D01*
X013450Y012423D01*
X013427Y012435D01*
X013402Y012443D01*
X013376Y012448D01*
X013350Y012450D01*
X012850Y012450D01*
X012824Y012448D01*
X012798Y012443D01*
X012773Y012435D01*
X012750Y012423D01*
X012728Y012409D01*
X012709Y012391D01*
X012691Y012372D01*
X012677Y012350D01*
X012665Y012327D01*
X012657Y012302D01*
X012652Y012276D01*
X012650Y012250D01*
X014150Y012250D02*
X014150Y010950D01*
X014152Y010924D01*
X014157Y010898D01*
X014165Y010873D01*
X014177Y010850D01*
X014191Y010828D01*
X014209Y010809D01*
X014228Y010791D01*
X014250Y010777D01*
X014273Y010765D01*
X014298Y010757D01*
X014324Y010752D01*
X014350Y010750D01*
X014850Y010750D01*
X014876Y010752D01*
X014902Y010757D01*
X014927Y010765D01*
X014950Y010777D01*
X014972Y010791D01*
X014991Y010809D01*
X015009Y010828D01*
X015023Y010850D01*
X015035Y010873D01*
X015043Y010898D01*
X015048Y010924D01*
X015050Y010950D01*
X015050Y012250D01*
X015048Y012276D01*
X015043Y012302D01*
X015035Y012327D01*
X015023Y012350D01*
X015009Y012372D01*
X014991Y012391D01*
X014972Y012409D01*
X014950Y012423D01*
X014927Y012435D01*
X014902Y012443D01*
X014876Y012448D01*
X014850Y012450D01*
X014350Y012450D01*
X014324Y012448D01*
X014298Y012443D01*
X014273Y012435D01*
X014250Y012423D01*
X014228Y012409D01*
X014209Y012391D01*
X014191Y012372D01*
X014177Y012350D01*
X014165Y012327D01*
X014157Y012302D01*
X014152Y012276D01*
X014150Y012250D01*
X016150Y012250D02*
X016150Y010950D01*
X016152Y010924D01*
X016157Y010898D01*
X016165Y010873D01*
X016177Y010850D01*
X016191Y010828D01*
X016209Y010809D01*
X016228Y010791D01*
X016250Y010777D01*
X016273Y010765D01*
X016298Y010757D01*
X016324Y010752D01*
X016350Y010750D01*
X016850Y010750D01*
X016876Y010752D01*
X016902Y010757D01*
X016927Y010765D01*
X016950Y010777D01*
X016972Y010791D01*
X016991Y010809D01*
X017009Y010828D01*
X017023Y010850D01*
X017035Y010873D01*
X017043Y010898D01*
X017048Y010924D01*
X017050Y010950D01*
X017050Y012250D01*
X017048Y012276D01*
X017043Y012302D01*
X017035Y012327D01*
X017023Y012350D01*
X017009Y012372D01*
X016991Y012391D01*
X016972Y012409D01*
X016950Y012423D01*
X016927Y012435D01*
X016902Y012443D01*
X016876Y012448D01*
X016850Y012450D01*
X016350Y012450D01*
X016324Y012448D01*
X016298Y012443D01*
X016273Y012435D01*
X016250Y012423D01*
X016228Y012409D01*
X016209Y012391D01*
X016191Y012372D01*
X016177Y012350D01*
X016165Y012327D01*
X016157Y012302D01*
X016152Y012276D01*
X016150Y012250D01*
X019100Y011750D02*
X019100Y011000D01*
X019139Y010998D01*
X019178Y010992D01*
X019216Y010983D01*
X019253Y010970D01*
X019289Y010953D01*
X019322Y010933D01*
X019354Y010909D01*
X019383Y010883D01*
X019409Y010854D01*
X019433Y010822D01*
X019453Y010789D01*
X019470Y010753D01*
X019483Y010716D01*
X019492Y010678D01*
X019498Y010639D01*
X019500Y010600D01*
X019498Y010561D01*
X019492Y010522D01*
X019483Y010484D01*
X019470Y010447D01*
X019453Y010411D01*
X019433Y010378D01*
X019409Y010346D01*
X019383Y010317D01*
X019354Y010291D01*
X019322Y010267D01*
X019289Y010247D01*
X019253Y010230D01*
X019216Y010217D01*
X019178Y010208D01*
X019139Y010202D01*
X019100Y010200D01*
X019100Y009450D01*
X027100Y009450D01*
X027100Y011750D01*
X019100Y011750D01*
X019100Y015950D02*
X019100Y016700D01*
X019139Y016702D01*
X019178Y016708D01*
X019216Y016717D01*
X019253Y016730D01*
X019289Y016747D01*
X019322Y016767D01*
X019354Y016791D01*
X019383Y016817D01*
X019409Y016846D01*
X019433Y016878D01*
X019453Y016911D01*
X019470Y016947D01*
X019483Y016984D01*
X019492Y017022D01*
X019498Y017061D01*
X019500Y017100D01*
X019498Y017139D01*
X019492Y017178D01*
X019483Y017216D01*
X019470Y017253D01*
X019453Y017289D01*
X019433Y017322D01*
X019409Y017354D01*
X019383Y017383D01*
X019354Y017409D01*
X019322Y017433D01*
X019289Y017453D01*
X019253Y017470D01*
X019216Y017483D01*
X019178Y017492D01*
X019139Y017498D01*
X019100Y017500D01*
X019100Y018250D01*
X027100Y018250D01*
X027100Y015950D01*
X019100Y015950D01*
X011800Y009250D02*
X009400Y009250D01*
X009350Y009248D01*
X009301Y009242D01*
X009252Y009233D01*
X009204Y009220D01*
X009157Y009203D01*
X009112Y009183D01*
X009068Y009159D01*
X009026Y009132D01*
X008986Y009101D01*
X008949Y009068D01*
X008915Y009032D01*
X008883Y008994D01*
X008854Y008953D01*
X008829Y008911D01*
X008807Y008866D01*
X008788Y008820D01*
X008773Y008772D01*
X008762Y008724D01*
X008754Y008675D01*
X008750Y008625D01*
X008750Y008575D01*
X008754Y008525D01*
X008762Y008476D01*
X008773Y008428D01*
X008788Y008380D01*
X008807Y008334D01*
X008829Y008289D01*
X008854Y008247D01*
X008883Y008206D01*
X008915Y008168D01*
X008949Y008132D01*
X008986Y008099D01*
X009026Y008068D01*
X009068Y008041D01*
X009112Y008017D01*
X009157Y007997D01*
X009204Y007980D01*
X009252Y007967D01*
X009301Y007958D01*
X009350Y007952D01*
X009400Y007950D01*
X011800Y007950D01*
X011850Y007952D01*
X011899Y007958D01*
X011948Y007967D01*
X011996Y007980D01*
X012043Y007997D01*
X012088Y008017D01*
X012132Y008041D01*
X012174Y008068D01*
X012214Y008099D01*
X012251Y008132D01*
X012285Y008168D01*
X012317Y008206D01*
X012346Y008247D01*
X012371Y008289D01*
X012393Y008334D01*
X012412Y008380D01*
X012427Y008428D01*
X012438Y008476D01*
X012446Y008525D01*
X012450Y008575D01*
X012450Y008625D01*
X012446Y008675D01*
X012438Y008724D01*
X012427Y008772D01*
X012412Y008820D01*
X012393Y008866D01*
X012371Y008911D01*
X012346Y008953D01*
X012317Y008994D01*
X012285Y009032D01*
X012251Y009068D01*
X012214Y009101D01*
X012174Y009132D01*
X012132Y009159D01*
X012088Y009183D01*
X012043Y009203D01*
X011996Y009220D01*
X011948Y009233D01*
X011899Y009242D01*
X011850Y009248D01*
X011800Y009250D01*
X011100Y008600D02*
X010850Y008600D01*
X010850Y008900D01*
X010700Y008900D02*
X010700Y008300D01*
X010500Y008300D01*
X010500Y008900D01*
X010700Y008900D01*
X010850Y008600D02*
X010850Y008300D01*
X010350Y008300D02*
X010350Y008600D01*
X010100Y008600D01*
X010350Y008600D02*
X010350Y008900D01*
X010500Y006100D02*
X009700Y006100D01*
X009600Y006000D01*
X009500Y006100D01*
X008700Y006100D01*
X008600Y006000D01*
X008500Y006100D01*
X007700Y006100D01*
X007600Y006000D01*
X007600Y005200D01*
X007700Y005100D01*
X008500Y005100D01*
X008600Y005200D01*
X008700Y005100D01*
X009500Y005100D01*
X009600Y005200D01*
X009700Y005100D01*
X010500Y005100D01*
X010600Y005200D01*
X010600Y006000D01*
X010500Y006100D01*
X011600Y006000D02*
X011600Y005200D01*
X011700Y005100D01*
X012500Y005100D01*
X012600Y005200D01*
X012700Y005100D01*
X013500Y005100D01*
X013600Y005200D01*
X013700Y005100D01*
X014500Y005100D01*
X014600Y005200D01*
X014600Y006000D01*
X014500Y006100D01*
X013700Y006100D01*
X013600Y006000D01*
X013500Y006100D01*
X012700Y006100D01*
X012600Y006000D01*
X012500Y006100D01*
X011700Y006100D01*
X011600Y006000D01*
X011630Y003970D02*
X011857Y003630D01*
X011998Y003687D02*
X012055Y003630D01*
X012168Y003630D01*
X012225Y003687D01*
X012225Y003914D01*
X012168Y003970D01*
X012055Y003970D01*
X011998Y003914D01*
X011998Y003857D01*
X012055Y003800D01*
X012225Y003800D01*
X011857Y003970D02*
X011630Y003630D01*
X014130Y003630D02*
X014357Y003970D01*
X014498Y003857D02*
X014612Y003970D01*
X014612Y003630D01*
X014725Y003630D02*
X014498Y003630D01*
X014357Y003630D02*
X014130Y003970D01*
X014867Y003914D02*
X014923Y003970D01*
X015037Y003970D01*
X015093Y003914D01*
X014867Y003687D01*
X014923Y003630D01*
X015037Y003630D01*
X015093Y003687D01*
X015093Y003914D01*
X014867Y003914D02*
X014867Y003687D01*
X016700Y004750D02*
X020500Y004750D01*
X020500Y000650D01*
X016700Y000650D01*
X016700Y004750D01*
X021130Y003970D02*
X021357Y003630D01*
X021498Y003687D02*
X021555Y003630D01*
X021668Y003630D01*
X021725Y003687D01*
X021725Y003743D01*
X021668Y003800D01*
X021555Y003800D01*
X021498Y003857D01*
X021498Y003914D01*
X021555Y003970D01*
X021668Y003970D01*
X021725Y003914D01*
X021725Y003857D01*
X021668Y003800D01*
X021555Y003800D02*
X021498Y003743D01*
X021498Y003687D01*
X021357Y003970D02*
X021130Y003630D01*
X023700Y004750D02*
X027500Y004750D01*
X027500Y000650D01*
X023700Y000650D01*
X023700Y004750D01*
X028130Y003970D02*
X028357Y003630D01*
X028498Y003630D02*
X028498Y003687D01*
X028725Y003914D01*
X028725Y003970D01*
X028498Y003970D01*
X028357Y003970D02*
X028130Y003630D01*
X029100Y004450D02*
X029100Y005200D01*
X029139Y005202D01*
X029178Y005208D01*
X029216Y005217D01*
X029253Y005230D01*
X029289Y005247D01*
X029322Y005267D01*
X029354Y005291D01*
X029383Y005317D01*
X029409Y005346D01*
X029433Y005378D01*
X029453Y005411D01*
X029470Y005447D01*
X029483Y005484D01*
X029492Y005522D01*
X029498Y005561D01*
X029500Y005600D01*
X029498Y005639D01*
X029492Y005678D01*
X029483Y005716D01*
X029470Y005753D01*
X029453Y005789D01*
X029433Y005822D01*
X029409Y005854D01*
X029383Y005883D01*
X029354Y005909D01*
X029322Y005933D01*
X029289Y005953D01*
X029253Y005970D01*
X029216Y005983D01*
X029178Y005992D01*
X029139Y005998D01*
X029100Y006000D01*
X029100Y006750D01*
X036100Y006750D01*
X036100Y004450D01*
X029100Y004450D01*
X029100Y010200D02*
X029100Y010950D01*
X029139Y010952D01*
X029178Y010958D01*
X029216Y010967D01*
X029253Y010980D01*
X029289Y010997D01*
X029322Y011017D01*
X029354Y011041D01*
X029383Y011067D01*
X029409Y011096D01*
X029433Y011128D01*
X029453Y011161D01*
X029470Y011197D01*
X029483Y011234D01*
X029492Y011272D01*
X029498Y011311D01*
X029500Y011350D01*
X029498Y011389D01*
X029492Y011428D01*
X029483Y011466D01*
X029470Y011503D01*
X029453Y011539D01*
X029433Y011572D01*
X029409Y011604D01*
X029383Y011633D01*
X029354Y011659D01*
X029322Y011683D01*
X029289Y011703D01*
X029253Y011720D01*
X029216Y011733D01*
X029178Y011742D01*
X029139Y011748D01*
X029100Y011750D01*
X029100Y012500D01*
X036100Y012500D01*
X036100Y010200D01*
X029100Y010200D01*
X029100Y015950D02*
X029100Y016700D01*
X029139Y016702D01*
X029178Y016708D01*
X029216Y016717D01*
X029253Y016730D01*
X029289Y016747D01*
X029322Y016767D01*
X029354Y016791D01*
X029383Y016817D01*
X029409Y016846D01*
X029433Y016878D01*
X029453Y016911D01*
X029470Y016947D01*
X029483Y016984D01*
X029492Y017022D01*
X029498Y017061D01*
X029500Y017100D01*
X029498Y017139D01*
X029492Y017178D01*
X029483Y017216D01*
X029470Y017253D01*
X029453Y017289D01*
X029433Y017322D01*
X029409Y017354D01*
X029383Y017383D01*
X029354Y017409D01*
X029322Y017433D01*
X029289Y017453D01*
X029253Y017470D01*
X029216Y017483D01*
X029178Y017492D01*
X029139Y017498D01*
X029100Y017500D01*
X029100Y018250D01*
X036100Y018250D01*
X036100Y015950D01*
X029100Y015950D01*
X029100Y021450D02*
X029100Y022200D01*
X029139Y022202D01*
X029178Y022208D01*
X029216Y022217D01*
X029253Y022230D01*
X029289Y022247D01*
X029322Y022267D01*
X029354Y022291D01*
X029383Y022317D01*
X029409Y022346D01*
X029433Y022378D01*
X029453Y022411D01*
X029470Y022447D01*
X029483Y022484D01*
X029492Y022522D01*
X029498Y022561D01*
X029500Y022600D01*
X029498Y022639D01*
X029492Y022678D01*
X029483Y022716D01*
X029470Y022753D01*
X029453Y022789D01*
X029433Y022822D01*
X029409Y022854D01*
X029383Y022883D01*
X029354Y022909D01*
X029322Y022933D01*
X029289Y022953D01*
X029253Y022970D01*
X029216Y022983D01*
X029178Y022992D01*
X029139Y022998D01*
X029100Y023000D01*
X029100Y023750D01*
X036100Y023750D01*
X036100Y021450D01*
X029100Y021450D01*
X008725Y003970D02*
X008612Y003914D01*
X008498Y003800D01*
X008668Y003800D01*
X008725Y003743D01*
X008725Y003687D01*
X008668Y003630D01*
X008555Y003630D01*
X008498Y003687D01*
X008498Y003800D01*
X008357Y003630D02*
X008130Y003970D01*
X008357Y003970D02*
X008130Y003630D01*
X005600Y005100D02*
X004600Y005100D01*
X004600Y007100D01*
X005600Y007100D01*
X005600Y005100D01*
X004725Y003970D02*
X004498Y003970D01*
X004498Y003800D01*
X004612Y003857D01*
X004668Y003857D01*
X004725Y003800D01*
X004725Y003687D01*
X004668Y003630D01*
X004555Y003630D01*
X004498Y003687D01*
X004357Y003630D02*
X004130Y003970D01*
X004357Y003970D02*
X004130Y003630D01*
X001168Y006630D02*
X001055Y006630D01*
X000998Y006687D01*
X000857Y006630D02*
X000630Y006970D01*
X000857Y006970D02*
X000630Y006630D01*
X000998Y006914D02*
X001055Y006970D01*
X001168Y006970D01*
X001225Y006914D01*
X001225Y006857D01*
X001168Y006800D01*
X001225Y006743D01*
X001225Y006687D01*
X001168Y006630D01*
X001168Y006800D02*
X001112Y006800D01*
X001168Y011130D02*
X001168Y011470D01*
X000998Y011300D01*
X001225Y011300D01*
X000857Y011130D02*
X000630Y011470D01*
X000857Y011470D02*
X000630Y011130D01*
D12*
X002115Y011362D02*
X002238Y011362D01*
X002177Y011424D02*
X002177Y011177D01*
X002238Y011115D01*
X002361Y011177D02*
X002361Y011300D01*
X002422Y011362D01*
X002546Y011362D01*
X002607Y011300D01*
X002607Y011238D01*
X002361Y011238D01*
X002361Y011177D02*
X002422Y011115D01*
X002546Y011115D01*
X002729Y011115D02*
X002729Y011362D01*
X002791Y011362D01*
X002852Y011300D01*
X002914Y011362D01*
X002976Y011300D01*
X002976Y011115D01*
X003097Y011115D02*
X003282Y011115D01*
X003344Y011177D01*
X003344Y011300D01*
X003282Y011362D01*
X003097Y011362D01*
X003097Y010992D01*
X002852Y011115D02*
X002852Y011300D01*
X003352Y007047D02*
X003352Y006985D01*
X003352Y006862D02*
X003352Y006615D01*
X003290Y006615D02*
X003414Y006615D01*
X003536Y006677D02*
X003598Y006615D01*
X003783Y006615D01*
X003783Y006553D02*
X003783Y006862D01*
X003598Y006862D01*
X003536Y006800D01*
X003536Y006677D01*
X003659Y006492D02*
X003721Y006492D01*
X003783Y006553D01*
X003904Y006615D02*
X003904Y006985D01*
X003966Y006862D02*
X004089Y006862D01*
X004151Y006800D01*
X004151Y006615D01*
X004334Y006677D02*
X004396Y006615D01*
X004334Y006677D02*
X004334Y006924D01*
X004272Y006862D02*
X004396Y006862D01*
X003966Y006862D02*
X003904Y006800D01*
X003352Y006862D02*
X003290Y006862D01*
X003168Y006862D02*
X003107Y006862D01*
X002983Y006738D01*
X002983Y006615D02*
X002983Y006862D01*
X002862Y006800D02*
X002862Y006677D01*
X002800Y006615D01*
X002615Y006615D01*
X002615Y006985D01*
X002615Y006862D02*
X002800Y006862D01*
X002862Y006800D01*
X005115Y004485D02*
X005115Y004115D01*
X005115Y004300D02*
X005177Y004362D01*
X005300Y004362D01*
X005362Y004300D01*
X005362Y004115D01*
X005483Y004177D02*
X005545Y004115D01*
X005668Y004115D01*
X005730Y004177D01*
X005730Y004300D01*
X005668Y004362D01*
X005545Y004362D01*
X005483Y004300D01*
X005483Y004177D01*
X005852Y004177D02*
X005913Y004115D01*
X006099Y004115D01*
X006099Y004362D01*
X006220Y004362D02*
X006220Y004115D01*
X006220Y004238D02*
X006343Y004362D01*
X006405Y004362D01*
X006527Y004300D02*
X006589Y004362D01*
X006774Y004362D01*
X006712Y004238D02*
X006589Y004238D01*
X006527Y004300D01*
X006527Y004115D02*
X006712Y004115D01*
X006774Y004177D01*
X006712Y004238D01*
X005852Y004177D02*
X005852Y004362D01*
X009115Y004362D02*
X009115Y004115D01*
X009238Y004115D02*
X009238Y004300D01*
X009300Y004362D01*
X009362Y004300D01*
X009362Y004115D01*
X009483Y004115D02*
X009607Y004115D01*
X009545Y004115D02*
X009545Y004362D01*
X009483Y004362D01*
X009545Y004485D02*
X009545Y004547D01*
X009729Y004362D02*
X009914Y004362D01*
X009976Y004300D01*
X009976Y004115D01*
X010097Y004177D02*
X010159Y004115D01*
X010344Y004115D01*
X010344Y004362D01*
X010465Y004362D02*
X010589Y004362D01*
X010527Y004424D02*
X010527Y004177D01*
X010589Y004115D01*
X010711Y004177D02*
X010711Y004300D01*
X010773Y004362D01*
X010896Y004362D01*
X010958Y004300D01*
X010958Y004238D01*
X010711Y004238D01*
X010711Y004177D02*
X010773Y004115D01*
X010896Y004115D01*
X011079Y004115D02*
X011265Y004115D01*
X011326Y004177D01*
X011265Y004238D01*
X011141Y004238D01*
X011079Y004300D01*
X011141Y004362D01*
X011326Y004362D01*
X010097Y004362D02*
X010097Y004177D01*
X009729Y004115D02*
X009729Y004362D01*
X009238Y004300D02*
X009177Y004362D01*
X009115Y004362D01*
X010238Y006677D02*
X010238Y006924D01*
X010115Y006800D02*
X010362Y006800D01*
X010483Y006862D02*
X010607Y006985D01*
X010607Y006615D01*
X010730Y006615D02*
X010483Y006615D01*
X010852Y006615D02*
X011099Y006862D01*
X011099Y006924D01*
X011037Y006985D01*
X010913Y006985D01*
X010852Y006924D01*
X010852Y006615D02*
X011099Y006615D01*
X014115Y006800D02*
X014362Y006800D01*
X014483Y006862D02*
X014607Y006985D01*
X014607Y006615D01*
X014730Y006615D02*
X014483Y006615D01*
X014238Y006677D02*
X014238Y006924D01*
X014852Y006924D02*
X014913Y006985D01*
X015037Y006985D01*
X015099Y006924D01*
X015099Y006862D01*
X014852Y006615D01*
X015099Y006615D01*
X019115Y005300D02*
X019177Y005362D01*
X019362Y005362D01*
X019483Y005300D02*
X019545Y005362D01*
X019668Y005362D01*
X019730Y005300D01*
X019730Y005238D01*
X019483Y005238D01*
X019483Y005177D02*
X019483Y005300D01*
X019483Y005177D02*
X019545Y005115D01*
X019668Y005115D01*
X019852Y005177D02*
X019913Y005115D01*
X020099Y005115D01*
X020220Y005177D02*
X020282Y005115D01*
X020405Y005115D01*
X020467Y005177D01*
X020467Y005300D01*
X020405Y005362D01*
X020282Y005362D01*
X020220Y005300D01*
X020220Y005177D01*
X020099Y005362D02*
X019913Y005362D01*
X019852Y005300D01*
X019852Y005177D01*
X019362Y005177D02*
X019300Y005238D01*
X019177Y005238D01*
X019115Y005300D01*
X019115Y005115D02*
X019300Y005115D01*
X019362Y005177D01*
X020588Y005115D02*
X020588Y005362D01*
X020773Y005362D01*
X020835Y005300D01*
X020835Y005115D01*
X020957Y005177D02*
X020957Y005300D01*
X021018Y005362D01*
X021203Y005362D01*
X021203Y005485D02*
X021203Y005115D01*
X021018Y005115D01*
X020957Y005177D01*
X021325Y005115D02*
X021510Y005115D01*
X021572Y005177D01*
X021510Y005238D01*
X021387Y005238D01*
X021325Y005300D01*
X021387Y005362D01*
X021572Y005362D01*
X026615Y005362D02*
X026738Y005362D01*
X026677Y005424D02*
X026677Y005177D01*
X026738Y005115D01*
X026861Y005115D02*
X026984Y005115D01*
X026922Y005115D02*
X026922Y005362D01*
X026861Y005362D01*
X026922Y005485D02*
X026922Y005547D01*
X027168Y005362D02*
X027106Y005300D01*
X027106Y005177D01*
X027168Y005115D01*
X027353Y005115D01*
X027474Y005115D02*
X027474Y005485D01*
X027353Y005362D02*
X027168Y005362D01*
X027474Y005238D02*
X027660Y005362D01*
X027474Y005238D02*
X027660Y005115D01*
X027953Y025615D02*
X028076Y025862D01*
X028198Y025862D02*
X028321Y025985D01*
X028321Y025615D01*
X028198Y025615D02*
X028445Y025615D01*
X027953Y025615D02*
X027829Y025862D01*
X027340Y025800D02*
X027340Y025738D01*
X027093Y025738D01*
X027093Y025677D02*
X027093Y025800D01*
X027154Y025862D01*
X027278Y025862D01*
X027340Y025800D01*
X027278Y025615D02*
X027154Y025615D01*
X027093Y025677D01*
X026971Y025615D02*
X026847Y025615D01*
X026909Y025615D02*
X026909Y025862D01*
X026847Y025862D01*
X026726Y025862D02*
X026479Y025615D01*
X026357Y025615D02*
X026233Y025615D01*
X026295Y025615D02*
X026295Y025862D01*
X026233Y025862D01*
X026295Y025985D02*
X026295Y026047D01*
X026112Y025985D02*
X026112Y025615D01*
X025865Y025985D01*
X025865Y025615D01*
X026479Y025862D02*
X026726Y025615D01*
X026909Y025985D02*
X026909Y026047D01*
X028934Y025924D02*
X028996Y025985D01*
X029119Y025985D01*
X029181Y025924D01*
X029181Y025862D01*
X028934Y025615D01*
X029181Y025615D01*
X029303Y025677D02*
X029549Y025924D01*
X029549Y025677D01*
X029488Y025615D01*
X029364Y025615D01*
X029303Y025677D01*
X029303Y025924D01*
X029364Y025985D01*
X029488Y025985D01*
X029549Y025924D01*
X029671Y025862D02*
X029794Y025985D01*
X029794Y025615D01*
X029671Y025615D02*
X029918Y025615D01*
X030039Y025615D02*
X030286Y025615D01*
X030163Y025615D02*
X030163Y025985D01*
X030039Y025862D01*
D13*
X012086Y014790D02*
X012086Y014580D01*
X011981Y014475D01*
X011666Y014475D01*
X011666Y014265D02*
X011666Y014896D01*
X011981Y014896D01*
X012086Y014790D01*
X011441Y014790D02*
X011336Y014896D01*
X011126Y014896D01*
X011021Y014790D01*
X011021Y014685D01*
X011126Y014580D01*
X011336Y014580D01*
X011441Y014475D01*
X011441Y014370D01*
X011336Y014265D01*
X011126Y014265D01*
X011021Y014370D01*
X010797Y014370D02*
X010797Y014475D01*
X010692Y014580D01*
X010377Y014580D01*
X010377Y014370D01*
X010482Y014265D01*
X010692Y014265D01*
X010797Y014370D01*
X010587Y014790D02*
X010377Y014580D01*
X010587Y014790D02*
X010797Y014896D01*
X010152Y014896D02*
X010152Y014790D01*
X009732Y014370D01*
X009732Y014265D01*
X009508Y014370D02*
X009508Y014475D01*
X009403Y014580D01*
X009193Y014580D01*
X009087Y014685D01*
X009087Y014790D01*
X009193Y014896D01*
X009403Y014896D01*
X009508Y014790D01*
X009508Y014685D01*
X009403Y014580D01*
X009193Y014580D02*
X009087Y014475D01*
X009087Y014370D01*
X009193Y014265D01*
X009403Y014265D01*
X009508Y014370D01*
X009732Y014896D02*
X010152Y014896D01*
X008863Y014896D02*
X008443Y014896D01*
X008443Y014265D01*
X008219Y014370D02*
X008219Y014475D01*
X008114Y014580D01*
X007798Y014580D01*
X007798Y014370D01*
X007903Y014265D01*
X008114Y014265D01*
X008219Y014370D01*
X008443Y014580D02*
X008653Y014580D01*
X008219Y014896D02*
X008009Y014790D01*
X007798Y014580D01*
X007574Y014265D02*
X007154Y014265D01*
X007364Y014265D02*
X007364Y014896D01*
X007154Y014685D01*
X006930Y014790D02*
X006825Y014896D01*
X006614Y014896D01*
X006509Y014790D01*
X006509Y014370D01*
X006614Y014265D01*
X006825Y014265D01*
X006930Y014370D01*
X006290Y014265D02*
X006080Y014265D01*
X006185Y014265D02*
X006185Y014896D01*
X006080Y014896D02*
X006290Y014896D01*
X005855Y014790D02*
X005855Y014580D01*
X005750Y014475D01*
X005435Y014475D01*
X005435Y014265D02*
X005435Y014896D01*
X005750Y014896D01*
X005855Y014790D01*
X004515Y014814D02*
X004410Y014709D01*
X004515Y014814D02*
X004515Y015025D01*
X004410Y015130D01*
X004305Y015130D01*
X004200Y015025D01*
X004200Y014919D01*
X004200Y015025D02*
X004095Y015130D01*
X003990Y015130D01*
X003884Y015025D01*
X003884Y014814D01*
X003990Y014709D01*
X003990Y014485D02*
X003884Y014380D01*
X003884Y014170D01*
X003990Y014065D01*
X004410Y014065D01*
X004515Y014170D01*
X004515Y014380D01*
X004410Y014485D01*
X004515Y013845D02*
X004515Y013635D01*
X004515Y013740D02*
X003884Y013740D01*
X003884Y013635D02*
X003884Y013845D01*
D14*
X011017Y019752D02*
X012250Y019750D01*
X012250Y021250D01*
X012450Y021250D01*
X012450Y019750D01*
X012450Y019752D02*
X012750Y019752D01*
X012750Y020250D01*
X012950Y020250D01*
X012950Y019750D01*
X013250Y019750D01*
X013250Y021250D01*
X013450Y021250D01*
X013450Y019750D01*
X013750Y019750D01*
X013750Y020250D01*
X013950Y020250D01*
X013950Y019750D01*
X014250Y019750D01*
X014250Y021250D01*
X014450Y021250D01*
X014450Y019752D01*
X014450Y019750D01*
X014450Y019752D02*
X014750Y019752D01*
X014750Y020250D01*
X014950Y020250D01*
X014950Y019750D01*
X016183Y019752D01*
X016183Y027855D01*
X016150Y027900D02*
X011050Y027900D01*
X011017Y027855D02*
X011017Y019752D01*
X012750Y019750D02*
X012750Y019752D01*
X014750Y019750D02*
X014750Y019752D01*
D15*
X016175Y026825D02*
X011025Y026825D01*
D16*
X010850Y026625D03*
X016350Y026625D03*
D17*
X013813Y007830D02*
X013813Y007370D01*
X013660Y007370D02*
X013967Y007370D01*
X013660Y007677D02*
X013813Y007830D01*
X013506Y007754D02*
X013506Y007447D01*
X013429Y007370D01*
X013276Y007370D01*
X013199Y007447D01*
X013199Y007754D01*
X013276Y007830D01*
X013429Y007830D01*
X013506Y007754D01*
X013353Y007523D02*
X013506Y007370D01*
X004530Y006465D02*
X004530Y006225D01*
X004530Y006345D02*
X004170Y006345D01*
X004290Y006225D01*
X004230Y006097D02*
X004170Y006037D01*
X004170Y005857D01*
X004530Y005857D01*
X004530Y006037D01*
X004470Y006097D01*
X004230Y006097D01*
X004170Y005729D02*
X004170Y005488D01*
X004530Y005488D01*
X004530Y005729D01*
X004350Y005608D02*
X004350Y005488D01*
X004530Y005360D02*
X004530Y005120D01*
X004170Y005120D01*
D18*
X005100Y007000D03*
D19*
X004590Y008584D02*
X004665Y008659D01*
X004665Y008809D01*
X004590Y008884D01*
X004515Y008884D01*
X004440Y008809D01*
X004440Y008734D01*
X004440Y008809D02*
X004365Y008884D01*
X004290Y008884D01*
X004215Y008809D01*
X004215Y008659D01*
X004290Y008584D01*
X004290Y009044D02*
X004215Y009119D01*
X004215Y009269D01*
X004290Y009344D01*
X004365Y009344D01*
X004440Y009269D01*
X004515Y009344D01*
X004590Y009344D01*
X004665Y009269D01*
X004665Y009119D01*
X004590Y009044D01*
X004440Y009194D02*
X004440Y009269D01*
X004590Y009505D02*
X004290Y009505D01*
X004215Y009580D01*
X004215Y009730D01*
X004290Y009805D01*
X004590Y009505D01*
X004665Y009580D01*
X004665Y009730D01*
X004590Y009805D01*
X004290Y009805D01*
X004165Y010785D02*
X004165Y011010D01*
X004240Y011085D01*
X004390Y011085D01*
X004465Y011010D01*
X004465Y010785D01*
X004615Y010785D02*
X004165Y010785D01*
X004465Y010935D02*
X004615Y011085D01*
X004615Y011245D02*
X004615Y011546D01*
X004615Y011396D02*
X004165Y011396D01*
X004315Y011245D01*
X005535Y011320D02*
X005610Y011245D01*
X005910Y011245D01*
X005610Y011546D01*
X005910Y011546D01*
X005985Y011471D01*
X005985Y011320D01*
X005910Y011245D01*
X005985Y011085D02*
X005985Y010785D01*
X005985Y010935D02*
X005535Y010935D01*
X005685Y010785D01*
X006215Y011079D02*
X006440Y010854D01*
X006440Y011154D01*
X006590Y011314D02*
X006590Y011389D01*
X006665Y011389D01*
X006665Y011314D01*
X006590Y011314D01*
X006590Y011544D02*
X006665Y011544D01*
X006590Y011544D02*
X006290Y011844D01*
X006215Y011844D01*
X006215Y011544D01*
X005985Y011706D02*
X005535Y011706D01*
X005610Y011546D02*
X005535Y011471D01*
X005535Y011320D01*
X005835Y011706D02*
X005535Y012006D01*
X005760Y011781D02*
X005985Y012006D01*
X006215Y012005D02*
X006665Y012005D01*
X006515Y012005D02*
X006215Y012305D01*
X006440Y012080D02*
X006665Y012305D01*
X007585Y012305D02*
X007585Y012005D01*
X007810Y012005D01*
X007735Y012155D01*
X007735Y012230D01*
X007810Y012305D01*
X007960Y012305D01*
X008035Y012230D01*
X008035Y012080D01*
X007960Y012005D01*
X008035Y011844D02*
X008035Y011544D01*
X008035Y011694D02*
X007585Y011694D01*
X007735Y011544D01*
X007810Y011384D02*
X007885Y011309D01*
X007885Y011084D01*
X007885Y011234D02*
X008035Y011384D01*
X007810Y011384D02*
X007660Y011384D01*
X007585Y011309D01*
X007585Y011084D01*
X008035Y011084D01*
X009085Y011194D02*
X009535Y011194D01*
X009535Y011044D02*
X009535Y011344D01*
X009460Y011505D02*
X009535Y011580D01*
X009535Y011730D01*
X009460Y011805D01*
X009385Y011805D01*
X009310Y011730D01*
X009310Y011655D01*
X009310Y011730D02*
X009235Y011805D01*
X009160Y011805D01*
X009085Y011730D01*
X009085Y011580D01*
X009160Y011505D01*
X009085Y011194D02*
X009235Y011044D01*
X009310Y010884D02*
X009385Y010809D01*
X009385Y010584D01*
X009385Y010734D02*
X009535Y010884D01*
X009310Y010884D02*
X009160Y010884D01*
X009085Y010809D01*
X009085Y010584D01*
X009535Y010584D01*
X009785Y010515D02*
X009935Y010665D01*
X009935Y010215D01*
X009785Y010215D02*
X010085Y010215D01*
X010245Y010290D02*
X010546Y010590D01*
X010546Y010290D01*
X010471Y010215D01*
X010320Y010215D01*
X010245Y010290D01*
X010245Y010590D01*
X010320Y010665D01*
X010471Y010665D01*
X010546Y010590D01*
X010637Y010550D02*
X010712Y010625D01*
X010862Y010625D01*
X010937Y010550D01*
X010937Y010475D01*
X010637Y010175D01*
X010937Y010175D01*
X011006Y010215D02*
X010781Y010440D01*
X010706Y010365D02*
X011006Y010665D01*
X011097Y010550D02*
X011172Y010625D01*
X011322Y010625D01*
X011398Y010550D01*
X011398Y010475D01*
X011097Y010175D01*
X011398Y010175D01*
X011544Y010125D02*
X011544Y009675D01*
X011704Y009750D02*
X011704Y009900D01*
X011779Y009975D01*
X011929Y009975D01*
X012004Y009900D01*
X012004Y009825D01*
X011704Y009825D01*
X011704Y009750D02*
X011779Y009675D01*
X011929Y009675D01*
X012165Y009750D02*
X012165Y009900D01*
X012240Y009975D01*
X012465Y009975D01*
X012465Y009600D01*
X012390Y009525D01*
X012315Y009525D01*
X012240Y009675D02*
X012465Y009675D01*
X012240Y009675D02*
X012165Y009750D01*
X012137Y010175D02*
X012437Y010475D01*
X012437Y010550D01*
X012362Y010625D01*
X012212Y010625D01*
X012137Y010550D01*
X012093Y010550D02*
X012168Y010625D01*
X012093Y010550D02*
X012093Y010175D01*
X012137Y010175D02*
X012437Y010175D01*
X012597Y010175D02*
X012898Y010475D01*
X012898Y010550D01*
X012822Y010625D01*
X012672Y010625D01*
X012597Y010550D01*
X012597Y010175D02*
X012898Y010175D01*
X013058Y010175D02*
X013283Y010175D01*
X013358Y010250D01*
X013358Y010400D01*
X013283Y010475D01*
X013058Y010475D01*
X013058Y010025D01*
X013407Y010175D02*
X013482Y010175D01*
X013482Y010250D01*
X013407Y010250D01*
X013407Y010175D01*
X013593Y010175D02*
X013593Y010550D01*
X013668Y010625D01*
X013712Y010625D02*
X013637Y010550D01*
X013712Y010625D02*
X013862Y010625D01*
X013937Y010550D01*
X013937Y010475D01*
X013637Y010175D01*
X013937Y010175D01*
X014097Y010175D02*
X014398Y010475D01*
X014398Y010550D01*
X014322Y010625D01*
X014172Y010625D01*
X014097Y010550D01*
X014097Y010175D02*
X014398Y010175D01*
X014558Y010175D02*
X014783Y010175D01*
X014858Y010250D01*
X014858Y010400D01*
X014783Y010475D01*
X014558Y010475D01*
X014558Y010025D01*
X015093Y010175D02*
X015093Y010550D01*
X015168Y010625D01*
X015168Y010400D02*
X015018Y010400D01*
X015407Y010250D02*
X015482Y010250D01*
X015482Y010175D01*
X015407Y010175D01*
X015407Y010250D01*
X015637Y010175D02*
X015937Y010475D01*
X015937Y010550D01*
X015862Y010625D01*
X015712Y010625D01*
X015637Y010550D01*
X015637Y010175D02*
X015937Y010175D01*
X016097Y010175D02*
X016398Y010475D01*
X016398Y010550D01*
X016322Y010625D01*
X016172Y010625D01*
X016097Y010550D01*
X016097Y010175D02*
X016398Y010175D01*
X016558Y010175D02*
X016783Y010175D01*
X016858Y010250D01*
X016858Y010400D01*
X016783Y010475D01*
X016558Y010475D01*
X016558Y010025D01*
X017035Y009966D02*
X017335Y009666D01*
X017260Y009741D02*
X017485Y009966D01*
X017485Y009666D02*
X017035Y009666D01*
X017110Y009506D02*
X017410Y009206D01*
X017485Y009281D01*
X017485Y009431D01*
X017410Y009506D01*
X017110Y009506D01*
X017035Y009431D01*
X017035Y009281D01*
X017110Y009206D01*
X017410Y009206D01*
X017485Y009046D02*
X017485Y008745D01*
X017185Y009046D01*
X017110Y009046D01*
X017035Y008971D01*
X017035Y008820D01*
X017110Y008745D01*
X017110Y008585D02*
X017035Y008510D01*
X017035Y008360D01*
X017110Y008285D01*
X017110Y008585D02*
X017185Y008585D01*
X017485Y008285D01*
X017485Y008585D01*
X018475Y009475D02*
X018475Y009625D01*
X018475Y009550D02*
X018925Y009550D01*
X018925Y009475D02*
X018925Y009625D01*
X018850Y009782D02*
X018925Y009857D01*
X018925Y010007D01*
X018850Y010082D01*
X018850Y010242D02*
X018925Y010317D01*
X018925Y010468D01*
X018850Y010543D01*
X018700Y010543D01*
X018625Y010468D01*
X018625Y010392D01*
X018700Y010242D01*
X018475Y010242D01*
X018475Y010543D01*
X018550Y010082D02*
X018475Y010007D01*
X018475Y009857D01*
X018550Y009782D01*
X018850Y009782D01*
X020175Y010450D02*
X020175Y010750D01*
X020250Y010825D01*
X020400Y010825D01*
X020475Y010750D01*
X020475Y010450D01*
X020400Y010375D01*
X020250Y010375D01*
X020175Y010450D01*
X020635Y010450D02*
X020710Y010375D01*
X020936Y010375D01*
X020936Y010675D01*
X021096Y010675D02*
X021246Y010675D01*
X021171Y010750D02*
X021171Y010450D01*
X021246Y010375D01*
X021403Y010375D02*
X021628Y010375D01*
X021703Y010450D01*
X021703Y010600D01*
X021628Y010675D01*
X021403Y010675D01*
X021403Y010225D01*
X021863Y010450D02*
X021938Y010375D01*
X022163Y010375D01*
X022163Y010675D01*
X022323Y010675D02*
X022474Y010675D01*
X022399Y010750D02*
X022399Y010450D01*
X022474Y010375D01*
X021863Y010450D02*
X021863Y010675D01*
X020635Y010675D02*
X020635Y010450D01*
X020505Y012665D02*
X020805Y012965D01*
X020805Y013040D01*
X020730Y013115D01*
X020580Y013115D01*
X020505Y013040D01*
X020344Y013040D02*
X020344Y012890D01*
X020269Y012815D01*
X020044Y012815D01*
X020044Y012665D02*
X020044Y013115D01*
X020269Y013115D01*
X020344Y013040D01*
X020194Y012815D02*
X020344Y012665D01*
X020505Y012665D02*
X020805Y012665D01*
X022044Y012665D02*
X022044Y013115D01*
X022269Y013115D01*
X022344Y013040D01*
X022344Y012890D01*
X022269Y012815D01*
X022044Y012815D01*
X022194Y012815D02*
X022344Y012665D01*
X022505Y012740D02*
X022580Y012665D01*
X022730Y012665D01*
X022805Y012740D01*
X022805Y012815D01*
X022730Y012890D01*
X022655Y012890D01*
X022730Y012890D02*
X022805Y012965D01*
X022805Y013040D01*
X022730Y013115D01*
X022580Y013115D01*
X022505Y013040D01*
X022505Y014035D02*
X022505Y014485D01*
X022580Y014260D02*
X022805Y014035D01*
X022505Y014185D02*
X022805Y014485D01*
X022194Y014485D02*
X022194Y014035D01*
X022044Y014035D02*
X022344Y014035D01*
X022044Y014335D02*
X022194Y014485D01*
X020807Y014335D02*
X020581Y014185D01*
X020807Y014035D01*
X020581Y014035D02*
X020581Y014485D01*
X020271Y014485D02*
X020121Y014335D01*
X020271Y014485D02*
X020271Y014035D01*
X020121Y014035D02*
X020421Y014035D01*
X018925Y015975D02*
X018925Y016125D01*
X018925Y016050D02*
X018475Y016050D01*
X018475Y015975D02*
X018475Y016125D01*
X018550Y016282D02*
X018850Y016282D01*
X018925Y016357D01*
X018925Y016507D01*
X018850Y016582D01*
X018700Y016742D02*
X018700Y017043D01*
X018925Y016968D02*
X018475Y016968D01*
X018700Y016742D01*
X018550Y016582D02*
X018475Y016507D01*
X018475Y016357D01*
X018550Y016282D01*
X020175Y016875D02*
X020175Y017175D01*
X020325Y017325D01*
X020475Y017175D01*
X020475Y016875D01*
X020635Y016875D02*
X020635Y017175D01*
X020861Y017175D01*
X020936Y017100D01*
X020936Y016875D01*
X021096Y016950D02*
X021171Y016875D01*
X021321Y016875D01*
X021396Y016950D01*
X021396Y017100D01*
X021321Y017175D01*
X021171Y017175D01*
X021096Y017100D01*
X021096Y016950D01*
X021556Y016950D02*
X021556Y017100D01*
X021631Y017175D01*
X021856Y017175D01*
X021856Y017325D02*
X021856Y016875D01*
X021631Y016875D01*
X021556Y016950D01*
X022017Y016950D02*
X022092Y016875D01*
X022242Y016875D01*
X022317Y017025D02*
X022017Y017025D01*
X022017Y016950D02*
X022017Y017100D01*
X022092Y017175D01*
X022242Y017175D01*
X022317Y017100D01*
X022317Y017025D01*
X022937Y016875D02*
X023163Y016875D01*
X023238Y016950D01*
X023238Y017250D01*
X023163Y017325D01*
X022937Y017325D01*
X022937Y016875D01*
X023398Y016875D02*
X023398Y017175D01*
X023398Y017025D02*
X023548Y017175D01*
X023623Y017175D01*
X023781Y017175D02*
X023856Y017175D01*
X023856Y016875D01*
X023781Y016875D02*
X023932Y016875D01*
X024238Y016875D02*
X024088Y017175D01*
X023856Y017325D02*
X023856Y017400D01*
X024389Y017175D02*
X024238Y016875D01*
X024549Y016950D02*
X024549Y017100D01*
X024624Y017175D01*
X024774Y017175D01*
X024849Y017100D01*
X024849Y017025D01*
X024549Y017025D01*
X024549Y016950D02*
X024624Y016875D01*
X024774Y016875D01*
X025009Y016875D02*
X025009Y017175D01*
X025009Y017025D02*
X025159Y017175D01*
X025234Y017175D01*
X026665Y017285D02*
X026665Y017510D01*
X026740Y017585D01*
X026890Y017585D01*
X026965Y017510D01*
X026965Y017285D01*
X027115Y017285D02*
X026665Y017285D01*
X026965Y017435D02*
X027115Y017585D01*
X027115Y017745D02*
X027115Y018046D01*
X027115Y017896D02*
X026665Y017896D01*
X026815Y017745D01*
X026740Y018206D02*
X026665Y018281D01*
X026665Y018431D01*
X026740Y018506D01*
X027040Y018206D01*
X027115Y018281D01*
X027115Y018431D01*
X027040Y018506D01*
X026740Y018506D01*
X026740Y018206D02*
X027040Y018206D01*
X028035Y018206D02*
X028485Y018206D01*
X028335Y018206D02*
X028035Y018506D01*
X028260Y018281D02*
X028485Y018506D01*
X028410Y018046D02*
X028485Y017971D01*
X028485Y017820D01*
X028410Y017745D01*
X028410Y017585D02*
X028485Y017510D01*
X028485Y017360D01*
X028410Y017285D01*
X028260Y017435D02*
X028260Y017510D01*
X028335Y017585D01*
X028410Y017585D01*
X028260Y017510D02*
X028185Y017585D01*
X028110Y017585D01*
X028035Y017510D01*
X028035Y017360D01*
X028110Y017285D01*
X028110Y017745D02*
X028035Y017820D01*
X028035Y017971D01*
X028110Y018046D01*
X028185Y018046D01*
X028260Y017971D01*
X028335Y018046D01*
X028410Y018046D01*
X028260Y017971D02*
X028260Y017896D01*
X028475Y016996D02*
X028925Y016996D01*
X028925Y016846D02*
X028925Y017146D01*
X028625Y016846D02*
X028475Y016996D01*
X028550Y016686D02*
X028475Y016611D01*
X028475Y016385D01*
X028925Y016385D01*
X028925Y016611D01*
X028850Y016686D01*
X028550Y016686D01*
X028475Y016225D02*
X028925Y016225D01*
X028700Y016225D02*
X028700Y015925D01*
X028925Y015925D02*
X028475Y015925D01*
X029975Y016875D02*
X029975Y017325D01*
X029975Y017100D02*
X030275Y017100D01*
X030275Y017325D02*
X030275Y016875D01*
X030435Y016875D02*
X030736Y016875D01*
X030896Y016950D02*
X030971Y016875D01*
X031121Y016875D01*
X031196Y016950D01*
X031196Y017100D01*
X031121Y017175D01*
X030971Y017175D01*
X030896Y017100D01*
X030896Y016950D01*
X031356Y016875D02*
X031581Y016875D01*
X031656Y016950D01*
X031656Y017250D01*
X031581Y017325D01*
X031356Y017325D01*
X031356Y016875D01*
X030435Y016875D02*
X030435Y017325D01*
X026805Y014485D02*
X026505Y014185D01*
X026580Y014260D02*
X026805Y014035D01*
X026665Y013856D02*
X026815Y013706D01*
X026665Y013856D02*
X027115Y013856D01*
X027115Y013706D02*
X027115Y014006D01*
X027115Y013546D02*
X027115Y013245D01*
X027115Y013396D02*
X026665Y013396D01*
X026815Y013245D01*
X026805Y013115D02*
X026805Y013040D01*
X026505Y012740D01*
X026505Y012665D01*
X026344Y012665D02*
X026194Y012815D01*
X026269Y012815D02*
X026044Y012815D01*
X026044Y012665D02*
X026044Y013115D01*
X026269Y013115D01*
X026344Y013040D01*
X026344Y012890D01*
X026269Y012815D01*
X026505Y013115D02*
X026805Y013115D01*
X026740Y013085D02*
X026890Y013085D01*
X026965Y013010D01*
X026965Y012785D01*
X027115Y012785D02*
X026665Y012785D01*
X026665Y013010D01*
X026740Y013085D01*
X026965Y012935D02*
X027115Y013085D01*
X028035Y013010D02*
X028035Y012860D01*
X028110Y012785D01*
X028260Y012935D02*
X028260Y013010D01*
X028335Y013085D01*
X028410Y013085D01*
X028485Y013010D01*
X028485Y012860D01*
X028410Y012785D01*
X028260Y013010D02*
X028185Y013085D01*
X028110Y013085D01*
X028035Y013010D01*
X028110Y013245D02*
X028035Y013320D01*
X028035Y013471D01*
X028110Y013546D01*
X028185Y013546D01*
X028260Y013471D01*
X028335Y013546D01*
X028410Y013546D01*
X028485Y013471D01*
X028485Y013320D01*
X028410Y013245D01*
X028260Y013396D02*
X028260Y013471D01*
X028335Y013706D02*
X028035Y014006D01*
X028035Y013706D02*
X028485Y013706D01*
X028260Y013781D02*
X028485Y014006D01*
X026505Y014035D02*
X026505Y014485D01*
X026194Y014485D02*
X026044Y014335D01*
X026194Y014485D02*
X026194Y014035D01*
X026044Y014035D02*
X026344Y014035D01*
X024805Y014035D02*
X024580Y014260D01*
X024505Y014185D02*
X024805Y014485D01*
X024505Y014485D02*
X024505Y014035D01*
X024344Y014035D02*
X024044Y014035D01*
X024194Y014035D02*
X024194Y014485D01*
X024044Y014335D01*
X024044Y013115D02*
X024269Y013115D01*
X024344Y013040D01*
X024344Y012890D01*
X024269Y012815D01*
X024044Y012815D01*
X024044Y012665D02*
X024044Y013115D01*
X024194Y012815D02*
X024344Y012665D01*
X024505Y012740D02*
X024580Y012665D01*
X024730Y012665D01*
X024805Y012740D01*
X024805Y012815D01*
X024730Y012890D01*
X024505Y012890D01*
X024505Y012740D01*
X024505Y012890D02*
X024655Y013040D01*
X024805Y013115D01*
X024010Y010900D02*
X024010Y010825D01*
X024010Y010675D02*
X024010Y010375D01*
X023935Y010375D02*
X024085Y010375D01*
X024392Y010375D02*
X024242Y010675D01*
X024010Y010675D02*
X023935Y010675D01*
X023776Y010675D02*
X023701Y010675D01*
X023551Y010525D01*
X023551Y010375D02*
X023551Y010675D01*
X023391Y010675D02*
X023166Y010675D01*
X023091Y010600D01*
X023091Y010450D01*
X023166Y010375D01*
X023391Y010375D01*
X023391Y010825D01*
X024392Y010375D02*
X024542Y010675D01*
X024702Y010600D02*
X024777Y010675D01*
X024927Y010675D01*
X025002Y010600D01*
X025002Y010525D01*
X024702Y010525D01*
X024702Y010450D02*
X024702Y010600D01*
X024702Y010450D02*
X024777Y010375D01*
X024927Y010375D01*
X025163Y010375D02*
X025163Y010675D01*
X025163Y010525D02*
X025313Y010675D01*
X025388Y010675D01*
X028475Y010635D02*
X028475Y010861D01*
X028550Y010936D01*
X028850Y010936D01*
X028925Y010861D01*
X028925Y010635D01*
X028475Y010635D01*
X028475Y010475D02*
X028925Y010475D01*
X028700Y010475D02*
X028700Y010175D01*
X028925Y010175D02*
X028475Y010175D01*
X028550Y011096D02*
X028475Y011171D01*
X028475Y011321D01*
X028550Y011396D01*
X028625Y011396D01*
X028925Y011096D01*
X028925Y011396D01*
X029975Y011575D02*
X029975Y011125D01*
X030275Y011125D02*
X030275Y011575D01*
X030125Y011425D01*
X029975Y011575D01*
X030435Y011575D02*
X030435Y011125D01*
X030435Y011350D02*
X030736Y011350D01*
X030896Y011425D02*
X030971Y011425D01*
X030971Y011125D01*
X030896Y011125D02*
X031046Y011125D01*
X031203Y011125D02*
X031428Y011125D01*
X031503Y011200D01*
X031503Y011500D01*
X031428Y011575D01*
X031203Y011575D01*
X031203Y011125D01*
X030736Y011125D02*
X030736Y011575D01*
X030971Y011575D02*
X030971Y011650D01*
X028485Y008006D02*
X028260Y007781D01*
X028335Y007706D02*
X028035Y008006D01*
X028035Y007706D02*
X028485Y007706D01*
X028410Y007546D02*
X028485Y007471D01*
X028485Y007320D01*
X028410Y007245D01*
X028410Y007085D02*
X028485Y007010D01*
X028485Y006860D01*
X028410Y006785D01*
X028260Y006935D02*
X028260Y007010D01*
X028335Y007085D01*
X028410Y007085D01*
X028260Y007010D02*
X028185Y007085D01*
X028110Y007085D01*
X028035Y007010D01*
X028035Y006860D01*
X028110Y006785D01*
X028110Y007245D02*
X028035Y007320D01*
X028035Y007471D01*
X028110Y007546D01*
X028185Y007546D01*
X028260Y007471D01*
X028335Y007546D01*
X028410Y007546D01*
X028260Y007471D02*
X028260Y007396D01*
X027115Y007396D02*
X026665Y007396D01*
X026815Y007245D01*
X026890Y007085D02*
X026965Y007010D01*
X026965Y006785D01*
X027115Y006785D02*
X026665Y006785D01*
X026665Y007010D01*
X026740Y007085D01*
X026890Y007085D01*
X026965Y006935D02*
X027115Y007085D01*
X027115Y007245D02*
X027115Y007546D01*
X027115Y007706D02*
X026815Y008006D01*
X026740Y008006D01*
X026665Y007931D01*
X026665Y007781D01*
X026740Y007706D01*
X027115Y007706D02*
X027115Y008006D01*
X026460Y007305D02*
X026160Y007305D01*
X026085Y007230D01*
X026085Y007080D01*
X026160Y007005D01*
X026235Y007005D01*
X026310Y007080D01*
X026310Y007305D01*
X026460Y007305D02*
X026535Y007230D01*
X026535Y007080D01*
X026460Y007005D01*
X026535Y006844D02*
X026535Y006544D01*
X026535Y006694D02*
X026085Y006694D01*
X026235Y006544D01*
X026310Y006384D02*
X026385Y006309D01*
X026385Y006084D01*
X026385Y006234D02*
X026535Y006384D01*
X026310Y006384D02*
X026160Y006384D01*
X026085Y006309D01*
X026085Y006084D01*
X026535Y006084D01*
X025386Y005550D02*
X025311Y005625D01*
X025160Y005625D01*
X025085Y005550D01*
X024925Y005550D02*
X024925Y005400D01*
X024850Y005325D01*
X024625Y005325D01*
X024625Y005175D02*
X024625Y005625D01*
X024850Y005625D01*
X024925Y005550D01*
X025085Y005175D02*
X025386Y005475D01*
X025386Y005550D01*
X025386Y005175D02*
X025085Y005175D01*
X024535Y006084D02*
X024085Y006084D01*
X024085Y006309D01*
X024160Y006384D01*
X024310Y006384D01*
X024385Y006309D01*
X024385Y006084D01*
X024385Y006234D02*
X024535Y006384D01*
X024535Y006544D02*
X024535Y006844D01*
X024535Y006694D02*
X024085Y006694D01*
X024235Y006544D01*
X024235Y007005D02*
X024160Y007005D01*
X024085Y007080D01*
X024085Y007230D01*
X024160Y007305D01*
X024235Y007305D01*
X024310Y007230D01*
X024310Y007080D01*
X024235Y007005D01*
X024310Y007080D02*
X024385Y007005D01*
X024460Y007005D01*
X024535Y007080D01*
X024535Y007230D01*
X024460Y007305D01*
X024385Y007305D01*
X024310Y007230D01*
X024715Y007305D02*
X025015Y007005D01*
X024940Y007080D02*
X025165Y007305D01*
X025165Y007005D02*
X024715Y007005D01*
X024715Y006694D02*
X025165Y006694D01*
X025165Y006544D02*
X025165Y006844D01*
X024865Y006544D02*
X024715Y006694D01*
X023165Y006694D02*
X022715Y006694D01*
X022865Y006544D01*
X023165Y006544D02*
X023165Y006844D01*
X023165Y007005D02*
X022715Y007005D01*
X022535Y007005D02*
X022460Y007005D01*
X022160Y007305D01*
X022085Y007305D01*
X022085Y007005D01*
X022085Y006694D02*
X022535Y006694D01*
X022535Y006544D02*
X022535Y006844D01*
X022235Y006544D02*
X022085Y006694D01*
X022160Y006384D02*
X022310Y006384D01*
X022385Y006309D01*
X022385Y006084D01*
X022385Y006234D02*
X022535Y006384D01*
X022535Y006084D02*
X022085Y006084D01*
X022085Y006309D01*
X022160Y006384D01*
X023015Y007005D02*
X022715Y007305D01*
X022940Y007080D02*
X023165Y007305D01*
X021165Y007305D02*
X020940Y007080D01*
X021015Y007005D02*
X020715Y007305D01*
X020535Y007230D02*
X020460Y007305D01*
X020385Y007305D01*
X020310Y007230D01*
X020310Y007005D01*
X020460Y007005D01*
X020535Y007080D01*
X020535Y007230D01*
X020715Y007005D02*
X021165Y007005D01*
X021165Y006844D02*
X021165Y006544D01*
X021165Y006694D02*
X020715Y006694D01*
X020865Y006544D01*
X020535Y006544D02*
X020535Y006844D01*
X020535Y006694D02*
X020085Y006694D01*
X020235Y006544D01*
X020310Y006384D02*
X020385Y006309D01*
X020385Y006084D01*
X020385Y006234D02*
X020535Y006384D01*
X020310Y006384D02*
X020160Y006384D01*
X020085Y006309D01*
X020085Y006084D01*
X020535Y006084D01*
X020310Y007005D02*
X020160Y007155D01*
X020085Y007305D01*
X019165Y007305D02*
X018940Y007080D01*
X019015Y007005D02*
X018715Y007305D01*
X018715Y007005D02*
X019165Y007005D01*
X019165Y006844D02*
X019165Y006544D01*
X019165Y006694D02*
X018715Y006694D01*
X018865Y006544D01*
X018236Y005625D02*
X018236Y005175D01*
X018386Y005175D02*
X018085Y005175D01*
X017925Y005400D02*
X017850Y005325D01*
X017625Y005325D01*
X017625Y005175D02*
X017625Y005625D01*
X017850Y005625D01*
X017925Y005550D01*
X017925Y005400D01*
X018085Y005475D02*
X018236Y005625D01*
X016115Y007785D02*
X015665Y007785D01*
X015665Y008010D01*
X015740Y008085D01*
X015890Y008085D01*
X015965Y008010D01*
X015965Y007785D01*
X015965Y007935D02*
X016115Y008085D01*
X016040Y008245D02*
X016115Y008320D01*
X016115Y008471D01*
X016040Y008546D01*
X015740Y008546D01*
X015665Y008471D01*
X015665Y008320D01*
X015740Y008245D01*
X015815Y008245D01*
X015890Y008320D01*
X015890Y008546D01*
X014994Y008521D02*
X014994Y008679D01*
X014206Y008679D01*
X014206Y008482D01*
X014994Y008482D01*
X014994Y008324D02*
X014600Y008324D01*
X014600Y007773D01*
X014600Y008324D02*
X014206Y008324D01*
X014009Y008600D02*
X014011Y008648D01*
X014017Y008696D01*
X014027Y008743D01*
X014040Y008789D01*
X014058Y008834D01*
X014078Y008878D01*
X014103Y008920D01*
X014131Y008959D01*
X014161Y008996D01*
X014195Y009030D01*
X014232Y009062D01*
X014270Y009091D01*
X014311Y009116D01*
X014354Y009138D01*
X014399Y009156D01*
X014445Y009170D01*
X014492Y009181D01*
X014540Y009188D01*
X014588Y009191D01*
X014636Y009190D01*
X014684Y009185D01*
X014732Y009176D01*
X014778Y009164D01*
X014823Y009147D01*
X014867Y009127D01*
X014909Y009104D01*
X014949Y009077D01*
X014987Y009047D01*
X015022Y009014D01*
X015054Y008978D01*
X015084Y008940D01*
X015110Y008899D01*
X015132Y008856D01*
X015152Y008812D01*
X015167Y008767D01*
X015179Y008720D01*
X015187Y008672D01*
X015191Y008624D01*
X015191Y008576D01*
X015187Y008528D01*
X015179Y008480D01*
X015167Y008433D01*
X015152Y008388D01*
X015132Y008344D01*
X015110Y008301D01*
X015084Y008260D01*
X015054Y008222D01*
X015022Y008186D01*
X014987Y008153D01*
X014949Y008123D01*
X014909Y008096D01*
X014867Y008073D01*
X014823Y008053D01*
X014778Y008036D01*
X014732Y008024D01*
X014684Y008015D01*
X014636Y008010D01*
X014588Y008009D01*
X014540Y008012D01*
X014492Y008019D01*
X014445Y008030D01*
X014399Y008044D01*
X014354Y008062D01*
X014311Y008084D01*
X014270Y008109D01*
X014232Y008138D01*
X014195Y008170D01*
X014161Y008204D01*
X014131Y008241D01*
X014103Y008280D01*
X014078Y008322D01*
X014058Y008366D01*
X014040Y008411D01*
X014027Y008457D01*
X014017Y008504D01*
X014011Y008552D01*
X014009Y008600D01*
X014206Y008876D02*
X014600Y008876D01*
X014600Y009427D01*
X014600Y008876D02*
X014994Y008876D01*
X013668Y010400D02*
X013518Y010400D01*
X013650Y010925D02*
X013950Y010925D01*
X014025Y011000D01*
X014025Y011150D01*
X013950Y011225D01*
X013800Y011385D02*
X013800Y011686D01*
X014025Y011611D02*
X013575Y011611D01*
X013800Y011385D01*
X013650Y011225D02*
X013575Y011150D01*
X013575Y011000D01*
X013650Y010925D01*
X012525Y011000D02*
X012450Y010925D01*
X012150Y010925D01*
X012075Y011000D01*
X012075Y011150D01*
X012150Y011225D01*
X012150Y011385D02*
X012075Y011460D01*
X012075Y011611D01*
X012150Y011686D01*
X012225Y011686D01*
X012525Y011385D01*
X012525Y011686D01*
X012450Y011225D02*
X012525Y011150D01*
X012525Y011000D01*
X011858Y010400D02*
X011783Y010475D01*
X011558Y010475D01*
X011558Y010025D01*
X011544Y010125D02*
X011394Y009975D01*
X011244Y010125D01*
X011244Y009675D01*
X011084Y009750D02*
X011009Y009675D01*
X010858Y009675D01*
X010783Y009750D01*
X011084Y010050D01*
X011084Y009750D01*
X011084Y010050D02*
X011009Y010125D01*
X010858Y010125D01*
X010783Y010050D01*
X010783Y009750D01*
X010623Y009675D02*
X010323Y009675D01*
X010623Y009975D01*
X010623Y010050D01*
X010548Y010125D01*
X010398Y010125D01*
X010323Y010050D01*
X010407Y010175D02*
X010482Y010175D01*
X010482Y010250D01*
X010407Y010250D01*
X010407Y010175D01*
X010706Y010215D02*
X010706Y010665D01*
X010650Y010925D02*
X010950Y010925D01*
X011025Y011000D01*
X011025Y011150D01*
X010950Y011225D01*
X010950Y011385D02*
X011025Y011460D01*
X011025Y011611D01*
X010950Y011686D01*
X010875Y011686D01*
X010800Y011611D01*
X010800Y011536D01*
X010800Y011611D02*
X010725Y011686D01*
X010650Y011686D01*
X010575Y011611D01*
X010575Y011460D01*
X010650Y011385D01*
X010650Y011225D02*
X010575Y011150D01*
X010575Y011000D01*
X010650Y010925D01*
X011558Y010175D02*
X011783Y010175D01*
X011858Y010250D01*
X011858Y010400D01*
X011907Y010250D02*
X011982Y010250D01*
X011982Y010175D01*
X011907Y010175D01*
X011907Y010250D01*
X012018Y010400D02*
X012168Y010400D01*
X015575Y011000D02*
X015650Y010925D01*
X015950Y010925D01*
X016025Y011000D01*
X016025Y011150D01*
X015950Y011225D01*
X015950Y011385D02*
X016025Y011460D01*
X016025Y011611D01*
X015950Y011686D01*
X015800Y011686D01*
X015725Y011611D01*
X015725Y011536D01*
X015800Y011385D01*
X015575Y011385D01*
X015575Y011686D01*
X015650Y011225D02*
X015575Y011150D01*
X015575Y011000D01*
X017018Y010400D02*
X017168Y010400D01*
X017093Y010550D02*
X017093Y010175D01*
X017093Y010550D02*
X017168Y010625D01*
X012465Y007450D02*
X012390Y007525D01*
X012240Y007525D01*
X012165Y007450D01*
X012004Y007450D02*
X012004Y007150D01*
X011929Y007075D01*
X011779Y007075D01*
X011704Y007150D01*
X011704Y007450D01*
X011779Y007525D01*
X011929Y007525D01*
X012004Y007450D01*
X011854Y007225D02*
X012004Y007075D01*
X012165Y007075D02*
X012465Y007375D01*
X012465Y007450D01*
X012465Y007075D02*
X012165Y007075D01*
X012185Y006725D02*
X012411Y006725D01*
X012486Y006650D01*
X012486Y006500D01*
X012411Y006425D01*
X012185Y006425D01*
X012185Y006275D02*
X012185Y006725D01*
X012025Y006725D02*
X011875Y006725D01*
X011950Y006725D02*
X011950Y006350D01*
X011875Y006275D01*
X011800Y006275D01*
X011725Y006350D01*
X012646Y006275D02*
X012946Y006575D01*
X012946Y006650D01*
X012871Y006725D01*
X012721Y006725D01*
X012646Y006650D01*
X012646Y006275D02*
X012946Y006275D01*
X013182Y004915D02*
X013125Y004859D01*
X013182Y004915D02*
X013295Y004915D01*
X013352Y004859D01*
X013352Y004802D01*
X013125Y004575D01*
X013352Y004575D01*
X014125Y004632D02*
X014182Y004575D01*
X014295Y004575D01*
X014352Y004632D01*
X014352Y004688D01*
X014295Y004745D01*
X014238Y004745D01*
X014295Y004745D02*
X014352Y004802D01*
X014352Y004859D01*
X014295Y004915D01*
X014182Y004915D01*
X014125Y004859D01*
X012352Y004575D02*
X012125Y004575D01*
X012238Y004575D02*
X012238Y004915D01*
X012125Y004802D01*
X010352Y004802D02*
X010295Y004745D01*
X010352Y004688D01*
X010352Y004632D01*
X010295Y004575D01*
X010182Y004575D01*
X010125Y004632D01*
X010238Y004745D02*
X010295Y004745D01*
X010352Y004802D02*
X010352Y004859D01*
X010295Y004915D01*
X010182Y004915D01*
X010125Y004859D01*
X009352Y004859D02*
X009295Y004915D01*
X009182Y004915D01*
X009125Y004859D01*
X009352Y004859D02*
X009352Y004802D01*
X009125Y004575D01*
X009352Y004575D01*
X008352Y004575D02*
X008125Y004575D01*
X008238Y004575D02*
X008238Y004915D01*
X008125Y004802D01*
X008185Y006275D02*
X008185Y006725D01*
X008411Y006725D01*
X008486Y006650D01*
X008486Y006500D01*
X008411Y006425D01*
X008185Y006425D01*
X007950Y006350D02*
X007950Y006725D01*
X007875Y006725D02*
X008025Y006725D01*
X007950Y006350D02*
X007875Y006275D01*
X007800Y006275D01*
X007725Y006350D01*
X008646Y006275D02*
X008946Y006275D01*
X008796Y006275D02*
X008796Y006725D01*
X008646Y006575D01*
X006665Y008584D02*
X006665Y008884D01*
X006665Y008734D02*
X006215Y008734D01*
X006365Y008584D01*
X006290Y009044D02*
X006215Y009119D01*
X006215Y009269D01*
X006290Y009344D01*
X006590Y009044D01*
X006665Y009119D01*
X006665Y009269D01*
X006590Y009344D01*
X006290Y009344D01*
X006215Y009505D02*
X006665Y009505D01*
X006515Y009505D02*
X006215Y009805D01*
X006035Y009730D02*
X005585Y009730D01*
X005810Y009505D01*
X005810Y009805D01*
X005810Y009344D02*
X005885Y009269D01*
X005885Y009044D01*
X006035Y009044D02*
X005585Y009044D01*
X005585Y009269D01*
X005660Y009344D01*
X005810Y009344D01*
X005885Y009194D02*
X006035Y009344D01*
X006290Y009044D02*
X006590Y009044D01*
X006440Y009580D02*
X006665Y009805D01*
X007585Y009805D02*
X007585Y009505D01*
X007810Y009505D01*
X007735Y009655D01*
X007735Y009730D01*
X007810Y009805D01*
X007960Y009805D01*
X008035Y009730D01*
X008035Y009580D01*
X007960Y009505D01*
X008035Y009344D02*
X007885Y009194D01*
X007885Y009269D02*
X007885Y009044D01*
X008035Y009044D02*
X007585Y009044D01*
X007585Y009269D01*
X007660Y009344D01*
X007810Y009344D01*
X007885Y009269D01*
X006665Y011079D02*
X006215Y011079D01*
X008479Y017075D02*
X008404Y017150D01*
X008404Y017450D01*
X008479Y017525D01*
X008629Y017525D01*
X008704Y017450D01*
X008865Y017300D02*
X008865Y017150D01*
X008940Y017075D01*
X009090Y017075D01*
X009165Y017150D01*
X009165Y017225D01*
X009090Y017300D01*
X008865Y017300D01*
X009015Y017450D01*
X009165Y017525D01*
X008704Y017150D02*
X008629Y017075D01*
X008479Y017075D01*
X008398Y018675D02*
X008097Y018675D01*
X008247Y018675D02*
X008247Y019125D01*
X008097Y018975D01*
X007942Y018750D02*
X007942Y018675D01*
X007867Y018675D01*
X007867Y018750D01*
X007942Y018750D01*
X008558Y018750D02*
X008633Y018675D01*
X008858Y018675D01*
X008858Y018975D01*
X009018Y018900D02*
X009168Y018900D01*
X009093Y019050D02*
X009168Y019125D01*
X009093Y019050D02*
X009093Y018675D01*
X008558Y018750D02*
X008558Y018975D01*
X008250Y021650D02*
X008150Y021750D01*
X008150Y025450D01*
X008250Y025550D01*
X009400Y025600D01*
X009271Y025875D02*
X009121Y025875D01*
X009046Y025950D01*
X009346Y026250D01*
X009346Y025950D01*
X009271Y025875D01*
X009046Y025950D02*
X009046Y026250D01*
X009121Y026325D01*
X009271Y026325D01*
X009346Y026250D01*
X009506Y026325D02*
X009506Y026100D01*
X009656Y026175D01*
X009731Y026175D01*
X009806Y026100D01*
X009806Y025950D01*
X009731Y025875D01*
X009581Y025875D01*
X009506Y025950D01*
X009506Y026325D02*
X009806Y026325D01*
X008886Y026250D02*
X008886Y026175D01*
X008811Y026100D01*
X008660Y026100D01*
X008585Y026175D01*
X008585Y026250D01*
X008660Y026325D01*
X008811Y026325D01*
X008886Y026250D01*
X008811Y026100D02*
X008886Y026025D01*
X008886Y025950D01*
X008811Y025875D01*
X008660Y025875D01*
X008585Y025950D01*
X008585Y026025D01*
X008660Y026100D01*
X008425Y026250D02*
X008125Y025950D01*
X008125Y025875D01*
X007945Y025465D02*
X007945Y025165D01*
X007645Y025465D01*
X007570Y025465D01*
X007495Y025390D01*
X007495Y025240D01*
X007570Y025165D01*
X007570Y025004D02*
X007495Y024929D01*
X007495Y024779D01*
X007570Y024704D01*
X007870Y024704D01*
X007945Y024779D01*
X007945Y024929D01*
X007870Y025004D01*
X007945Y024547D02*
X007945Y024397D01*
X007945Y024472D02*
X007495Y024472D01*
X007495Y024397D02*
X007495Y024547D01*
X008290Y025370D02*
X008292Y025390D01*
X008298Y025408D01*
X008307Y025426D01*
X008319Y025441D01*
X008334Y025453D01*
X008352Y025462D01*
X008370Y025468D01*
X008390Y025470D01*
X008410Y025468D01*
X008428Y025462D01*
X008446Y025453D01*
X008461Y025441D01*
X008473Y025426D01*
X008482Y025408D01*
X008488Y025390D01*
X008490Y025370D01*
X008488Y025350D01*
X008482Y025332D01*
X008473Y025314D01*
X008461Y025299D01*
X008446Y025287D01*
X008428Y025278D01*
X008410Y025272D01*
X008390Y025270D01*
X008370Y025272D01*
X008352Y025278D01*
X008334Y025287D01*
X008319Y025299D01*
X008307Y025314D01*
X008298Y025332D01*
X008292Y025350D01*
X008290Y025370D01*
X008425Y026250D02*
X008425Y026325D01*
X008125Y026325D01*
X004986Y025475D02*
X004685Y025475D01*
X004836Y025475D02*
X004836Y025925D01*
X004685Y025775D01*
X004525Y025850D02*
X004450Y025925D01*
X004300Y025925D01*
X004225Y025850D01*
X004225Y025550D01*
X004300Y025475D01*
X004450Y025475D01*
X004525Y025550D01*
X004475Y022875D02*
X004475Y022425D01*
X004325Y022425D02*
X004625Y022425D01*
X004785Y022500D02*
X005086Y022800D01*
X005086Y022500D01*
X005011Y022425D01*
X004860Y022425D01*
X004785Y022500D01*
X004785Y022800D01*
X004860Y022875D01*
X005011Y022875D01*
X005086Y022800D01*
X005246Y022800D02*
X005246Y022500D01*
X005546Y022800D01*
X005546Y022500D01*
X005471Y022425D01*
X005321Y022425D01*
X005246Y022500D01*
X005246Y022800D02*
X005321Y022875D01*
X005471Y022875D01*
X005546Y022800D01*
X005706Y022800D02*
X005781Y022875D01*
X005931Y022875D01*
X006006Y022800D01*
X005706Y022500D01*
X005781Y022425D01*
X005931Y022425D01*
X006006Y022500D01*
X006006Y022800D01*
X005706Y022800D02*
X005706Y022500D01*
X006627Y022500D02*
X006702Y022425D01*
X006927Y022425D01*
X006927Y022725D01*
X007087Y022650D02*
X007237Y022650D01*
X007162Y022800D02*
X007237Y022875D01*
X007162Y022800D02*
X007162Y022425D01*
X006627Y022500D02*
X006627Y022725D01*
X008250Y021650D02*
X009400Y021600D01*
X004475Y022875D02*
X004325Y022725D01*
X016575Y022747D02*
X017025Y022747D01*
X017025Y022597D02*
X017025Y022898D01*
X016950Y023058D02*
X017025Y023133D01*
X017025Y023358D01*
X016725Y023358D01*
X016800Y023518D02*
X016800Y023668D01*
X016650Y023593D02*
X016575Y023668D01*
X016650Y023593D02*
X017025Y023593D01*
X016950Y023058D02*
X016725Y023058D01*
X016575Y022747D02*
X016725Y022597D01*
X016950Y022442D02*
X017025Y022442D01*
X017025Y022367D01*
X016950Y022367D01*
X016950Y022442D01*
X018225Y022392D02*
X018675Y022392D01*
X018675Y022242D02*
X018675Y022543D01*
X018375Y022242D02*
X018225Y022392D01*
X018300Y022082D02*
X018225Y022007D01*
X018225Y021857D01*
X018300Y021782D01*
X018600Y021782D01*
X018675Y021857D01*
X018675Y022007D01*
X018600Y022082D01*
X018675Y021625D02*
X018675Y021475D01*
X018675Y021550D02*
X018225Y021550D01*
X018225Y021475D02*
X018225Y021625D01*
X018250Y022904D02*
X018550Y022904D01*
X018625Y022979D01*
X018625Y023129D01*
X018550Y023204D01*
X018550Y023365D02*
X018625Y023365D01*
X018550Y023365D02*
X018250Y023665D01*
X018175Y023665D01*
X018175Y023365D01*
X018250Y023204D02*
X018175Y023129D01*
X018175Y022979D01*
X018250Y022904D01*
X019925Y022825D02*
X020225Y022825D01*
X020225Y022750D01*
X019925Y022450D01*
X019925Y022375D01*
X020385Y022600D02*
X020686Y022600D01*
X020846Y022675D02*
X020996Y022825D01*
X020996Y022375D01*
X020846Y022375D02*
X021146Y022375D01*
X021306Y022600D02*
X021606Y022600D01*
X021767Y022675D02*
X021917Y022825D01*
X021917Y022375D01*
X021767Y022375D02*
X022067Y022375D01*
X021531Y022375D02*
X021531Y022825D01*
X021306Y022600D01*
X020611Y022375D02*
X020611Y022825D01*
X020385Y022600D01*
X026665Y023785D02*
X026665Y024010D01*
X026740Y024085D01*
X026890Y024085D01*
X026965Y024010D01*
X026965Y023785D01*
X027115Y023785D02*
X026665Y023785D01*
X026965Y023935D02*
X027115Y024085D01*
X027040Y024245D02*
X027115Y024320D01*
X027115Y024471D01*
X027040Y024546D01*
X026965Y024546D01*
X026890Y024471D01*
X026890Y024320D01*
X026815Y024245D01*
X026740Y024245D01*
X026665Y024320D01*
X026665Y024471D01*
X026740Y024546D01*
X026815Y024546D01*
X026890Y024471D01*
X026890Y024320D02*
X026965Y024245D01*
X027040Y024245D01*
X028035Y024320D02*
X028110Y024245D01*
X028035Y024320D02*
X028035Y024471D01*
X028110Y024546D01*
X028185Y024546D01*
X028260Y024471D01*
X028335Y024546D01*
X028410Y024546D01*
X028485Y024471D01*
X028485Y024320D01*
X028410Y024245D01*
X028410Y024085D02*
X028485Y024010D01*
X028485Y023860D01*
X028410Y023785D01*
X028260Y023935D02*
X028260Y024010D01*
X028335Y024085D01*
X028410Y024085D01*
X028260Y024010D02*
X028185Y024085D01*
X028110Y024085D01*
X028035Y024010D01*
X028035Y023860D01*
X028110Y023785D01*
X028260Y024396D02*
X028260Y024471D01*
X028335Y024706D02*
X028035Y025006D01*
X028035Y024706D02*
X028485Y024706D01*
X028260Y024781D02*
X028485Y025006D01*
X030971Y022900D02*
X030971Y022825D01*
X030971Y022675D02*
X030971Y022375D01*
X030896Y022375D02*
X031046Y022375D01*
X031203Y022375D02*
X031203Y022825D01*
X031428Y022825D01*
X031503Y022750D01*
X031503Y022450D01*
X031428Y022375D01*
X031203Y022375D01*
X030971Y022675D02*
X030896Y022675D01*
X030736Y022600D02*
X030435Y022600D01*
X030275Y022600D02*
X029975Y022600D01*
X029975Y022375D02*
X029975Y022825D01*
X030275Y022825D02*
X030275Y022375D01*
X030435Y022375D02*
X030435Y022825D01*
X030736Y022825D02*
X030736Y022375D01*
X028925Y022421D02*
X028850Y022346D01*
X028550Y022646D01*
X028850Y022646D01*
X028925Y022571D01*
X028925Y022421D01*
X028850Y022346D02*
X028550Y022346D01*
X028475Y022421D01*
X028475Y022571D01*
X028550Y022646D01*
X028550Y022186D02*
X028475Y022111D01*
X028475Y021885D01*
X028925Y021885D01*
X028925Y022111D01*
X028850Y022186D01*
X028550Y022186D01*
X028475Y021725D02*
X028925Y021725D01*
X028700Y021725D02*
X028700Y021425D01*
X028925Y021425D02*
X028475Y021425D01*
X020475Y017100D02*
X020175Y017100D01*
X028550Y005646D02*
X028625Y005646D01*
X028700Y005571D01*
X028775Y005646D01*
X028850Y005646D01*
X028925Y005571D01*
X028925Y005421D01*
X028850Y005346D01*
X028850Y005186D02*
X028550Y005186D01*
X028475Y005111D01*
X028475Y004885D01*
X028925Y004885D01*
X028925Y005111D01*
X028850Y005186D01*
X028550Y005346D02*
X028475Y005421D01*
X028475Y005571D01*
X028550Y005646D01*
X028700Y005571D02*
X028700Y005496D01*
X028700Y004725D02*
X028700Y004425D01*
X028925Y004425D02*
X028475Y004425D01*
X028475Y004725D02*
X028925Y004725D01*
X029975Y005375D02*
X029975Y005825D01*
X030125Y005675D01*
X030275Y005825D01*
X030275Y005375D01*
X030435Y005375D02*
X030435Y005825D01*
X030435Y005375D02*
X030736Y005375D01*
X030896Y005450D02*
X030971Y005375D01*
X031121Y005375D01*
X031196Y005450D01*
X031196Y005600D01*
X031121Y005675D01*
X030971Y005675D01*
X030896Y005600D01*
X030896Y005450D01*
X031356Y005375D02*
X031356Y005825D01*
X031581Y005825D01*
X031656Y005750D01*
X031656Y005450D01*
X031581Y005375D01*
X031356Y005375D01*
D20*
X009700Y023600D03*
D21*
X009450Y021875D03*
X009450Y025325D03*
D22*
X009450Y024100D03*
X009450Y023100D03*
D23*
X009400Y009450D02*
X011800Y009450D01*
X011857Y009448D01*
X011913Y009442D01*
X011969Y009433D01*
X012025Y009420D01*
X012079Y009403D01*
X012132Y009383D01*
X012183Y009359D01*
X012233Y009331D01*
X012281Y009301D01*
X012327Y009267D01*
X012370Y009230D01*
X012411Y009191D01*
X012449Y009149D01*
X012484Y009104D01*
X012516Y009057D01*
X012545Y009008D01*
X012571Y008958D01*
X012593Y008905D01*
X012612Y008852D01*
X012627Y008797D01*
X012638Y008741D01*
X012646Y008685D01*
X012650Y008628D01*
X012650Y008572D01*
X012646Y008515D01*
X012638Y008459D01*
X012627Y008403D01*
X012612Y008348D01*
X012593Y008295D01*
X012571Y008242D01*
X012545Y008192D01*
X012516Y008143D01*
X012484Y008096D01*
X012449Y008051D01*
X012411Y008009D01*
X012370Y007970D01*
X012327Y007933D01*
X012281Y007899D01*
X012233Y007869D01*
X012183Y007841D01*
X012132Y007817D01*
X012079Y007797D01*
X012025Y007780D01*
X011969Y007767D01*
X011913Y007758D01*
X011857Y007752D01*
X011800Y007750D01*
X009400Y007750D01*
X009343Y007752D01*
X009287Y007758D01*
X009231Y007767D01*
X009175Y007780D01*
X009121Y007797D01*
X009068Y007817D01*
X009017Y007841D01*
X008967Y007869D01*
X008919Y007899D01*
X008873Y007933D01*
X008830Y007970D01*
X008789Y008009D01*
X008751Y008051D01*
X008716Y008096D01*
X008684Y008143D01*
X008655Y008192D01*
X008629Y008242D01*
X008607Y008295D01*
X008588Y008348D01*
X008573Y008403D01*
X008562Y008459D01*
X008554Y008515D01*
X008550Y008572D01*
X008550Y008628D01*
X008554Y008685D01*
X008562Y008741D01*
X008573Y008797D01*
X008588Y008852D01*
X008607Y008905D01*
X008629Y008958D01*
X008655Y009008D01*
X008684Y009057D01*
X008716Y009104D01*
X008751Y009149D01*
X008789Y009191D01*
X008830Y009230D01*
X008873Y009267D01*
X008919Y009301D01*
X008967Y009331D01*
X009017Y009359D01*
X009068Y009383D01*
X009121Y009403D01*
X009175Y009420D01*
X009231Y009433D01*
X009287Y009442D01*
X009343Y009448D01*
X009400Y009450D01*
D24*
X011300Y011480D02*
X011900Y011480D01*
X011900Y011730D02*
X011300Y011730D01*
X012800Y011730D02*
X013400Y011730D01*
X013400Y011480D02*
X012800Y011480D01*
X014300Y011480D02*
X014900Y011480D01*
X014900Y011730D02*
X014300Y011730D01*
X016300Y011730D02*
X016900Y011730D01*
X016900Y011480D02*
X016300Y011480D01*
X008720Y017800D02*
X008720Y018400D01*
X008470Y018400D02*
X008470Y017800D01*
X017300Y022970D02*
X017900Y022970D01*
X017900Y023220D02*
X017300Y023220D01*
D25*
X027600Y024550D02*
X027600Y024650D01*
X027600Y018150D02*
X027600Y018050D01*
X027600Y013650D02*
X027600Y013550D01*
X026150Y013600D02*
X026050Y013600D01*
X024150Y013600D02*
X024050Y013600D01*
X022150Y013600D02*
X022050Y013600D01*
X020150Y013600D02*
X020050Y013600D01*
X016600Y008650D02*
X016600Y008550D01*
X019600Y006650D02*
X019600Y006550D01*
X021600Y006550D02*
X021600Y006650D01*
X023600Y006650D02*
X023600Y006550D01*
X025600Y006550D02*
X025600Y006650D01*
X027600Y007550D02*
X027600Y007650D01*
X010100Y011550D02*
X010100Y011650D01*
X007100Y011650D02*
X007100Y011550D01*
X005100Y011550D02*
X005100Y011650D01*
X005100Y009150D02*
X005100Y009050D01*
X007100Y009050D02*
X007100Y009150D01*
D26*
X023080Y025000D03*
X023080Y025010D03*
X023080Y025020D03*
X021650Y026830D03*
X020330Y025730D03*
X019950Y026340D03*
D27*
X020000Y026230D03*
X020010Y026560D03*
X020300Y026400D03*
X021160Y026440D03*
X021170Y026240D03*
X021540Y026740D03*
X021650Y026820D03*
X021760Y026740D03*
X022120Y026570D03*
X022130Y026560D03*
X022390Y026740D03*
X022410Y026410D03*
X022420Y026230D03*
X022770Y026740D03*
X021670Y025790D03*
X021430Y025620D03*
X021410Y025610D03*
X020970Y025590D03*
X023080Y025110D03*
X023080Y025080D03*
D28*
X023080Y025090D03*
X023080Y025100D03*
X022890Y026140D03*
X022400Y026220D03*
X022400Y026420D03*
X022150Y026550D03*
X022130Y026750D03*
X022250Y026830D03*
X021660Y026140D03*
X021950Y025790D03*
X020990Y025580D03*
X020270Y026420D03*
X020020Y026550D03*
X020130Y026830D03*
X020250Y026750D03*
X020020Y026220D03*
X023620Y026740D03*
D29*
X022885Y026180D03*
X023085Y025200D03*
X023085Y025170D03*
X021655Y026180D03*
X021655Y026780D03*
X020945Y026820D03*
X021175Y025520D03*
D30*
X020955Y026150D03*
X021655Y026190D03*
X021815Y025830D03*
X022375Y025880D03*
X022885Y026190D03*
X023085Y025190D03*
X023085Y025180D03*
X021655Y026770D03*
D31*
X023090Y025290D03*
X023090Y025270D03*
D32*
X023095Y025280D03*
X022385Y025830D03*
D33*
X023095Y025390D03*
X023095Y025360D03*
D34*
X023095Y025370D03*
X023095Y025380D03*
X022355Y025730D03*
D35*
X022075Y026340D03*
X022875Y026830D03*
X023085Y025680D03*
X023085Y025670D03*
X023085Y025660D03*
X023085Y025650D03*
X023085Y025640D03*
X023085Y025630D03*
X023085Y025620D03*
X023085Y025610D03*
X023085Y025600D03*
X023085Y025590D03*
X023085Y025580D03*
X023085Y025570D03*
X023085Y025560D03*
X023085Y025550D03*
X023085Y025540D03*
X023085Y025530D03*
X023085Y025520D03*
X023085Y025510D03*
X023085Y025500D03*
X023085Y025490D03*
X023085Y025480D03*
X023085Y025470D03*
X023085Y025460D03*
X023085Y025450D03*
X023085Y025440D03*
X023085Y025430D03*
X023085Y025420D03*
X023085Y025410D03*
X023085Y025400D03*
X020565Y026820D03*
D36*
X020565Y026800D03*
X020565Y026790D03*
X020565Y026780D03*
X020565Y026770D03*
X020565Y026760D03*
X020565Y026750D03*
X020565Y026740D03*
X020565Y026730D03*
X020565Y026720D03*
X020565Y026710D03*
X020565Y026700D03*
X020565Y026690D03*
X020565Y026680D03*
X020565Y026670D03*
X020565Y026660D03*
X020565Y026650D03*
X020565Y026640D03*
X020565Y026630D03*
X020565Y026620D03*
X020565Y026610D03*
X020565Y026600D03*
X020565Y026590D03*
X020565Y026580D03*
X020565Y026570D03*
X020565Y026560D03*
X020565Y026550D03*
X020565Y026540D03*
X020565Y026530D03*
X020565Y026520D03*
X020565Y026510D03*
X020565Y026500D03*
X020565Y026490D03*
X020565Y026480D03*
X020565Y026470D03*
X020565Y026460D03*
X020565Y026450D03*
X020565Y026440D03*
X020565Y026430D03*
X020565Y026420D03*
X020565Y026410D03*
X020565Y026400D03*
X020565Y026390D03*
X020565Y026380D03*
X020565Y026370D03*
X020565Y026360D03*
X020565Y026350D03*
X020565Y026340D03*
X020565Y026330D03*
X020565Y026320D03*
X020565Y026310D03*
X020565Y026300D03*
X020565Y026290D03*
X020565Y026280D03*
X020565Y026270D03*
X020565Y026260D03*
X020565Y026250D03*
X020565Y026240D03*
X020565Y026230D03*
X020565Y026220D03*
X020565Y026210D03*
X020565Y026200D03*
X020565Y026190D03*
X020565Y026180D03*
X020565Y026170D03*
X020565Y026160D03*
X020335Y026300D03*
X020335Y026310D03*
X020335Y026320D03*
X020335Y026330D03*
X020335Y026340D03*
X020315Y026670D03*
X019955Y026670D03*
X019955Y026680D03*
X019955Y026690D03*
X019955Y026660D03*
X019955Y026650D03*
X019955Y026640D03*
X019955Y026630D03*
X019945Y026310D03*
X020425Y025830D03*
X020845Y026230D03*
X020845Y026240D03*
X020845Y026250D03*
X020845Y026260D03*
X020845Y026270D03*
X020845Y026280D03*
X020845Y026290D03*
X020845Y026300D03*
X020845Y026310D03*
X020845Y026320D03*
X020845Y026330D03*
X020845Y026340D03*
X020845Y026350D03*
X020845Y026360D03*
X020845Y026370D03*
X020845Y026380D03*
X020845Y026390D03*
X020845Y026400D03*
X020845Y026410D03*
X020845Y026420D03*
X020845Y026430D03*
X020845Y026440D03*
X020845Y026540D03*
X020845Y026550D03*
X020845Y026560D03*
X020845Y026570D03*
X020845Y026580D03*
X020845Y026590D03*
X020845Y026600D03*
X020845Y026610D03*
X020845Y026620D03*
X020845Y026630D03*
X020845Y026640D03*
X020845Y026650D03*
X020845Y026660D03*
X020845Y026670D03*
X020845Y026680D03*
X020845Y026690D03*
X020845Y026700D03*
X020845Y026710D03*
X020845Y026720D03*
X020845Y026730D03*
X020845Y026740D03*
X021195Y026670D03*
X021195Y026660D03*
X021195Y026620D03*
X021195Y026610D03*
X021195Y026600D03*
X021205Y026370D03*
X021205Y026360D03*
X021205Y026350D03*
X021205Y026340D03*
X021205Y026330D03*
X021205Y026320D03*
X021205Y026310D03*
X021445Y026390D03*
X021445Y026400D03*
X021445Y026410D03*
X021445Y026420D03*
X021455Y026360D03*
X021455Y026350D03*
X021465Y026330D03*
X021445Y026540D03*
X021445Y026550D03*
X021445Y026560D03*
X021445Y026570D03*
X021455Y026600D03*
X021455Y026610D03*
X021465Y026630D03*
X021855Y026610D03*
X021865Y026570D03*
X021875Y026520D03*
X021875Y026510D03*
X021875Y026500D03*
X021875Y026490D03*
X021875Y026480D03*
X021875Y026470D03*
X021875Y026460D03*
X021875Y026450D03*
X021875Y026440D03*
X021865Y026380D03*
X021855Y026340D03*
X022075Y026310D03*
X022075Y026650D03*
X022075Y026660D03*
X022075Y026670D03*
X022075Y026680D03*
X022435Y026680D03*
X022435Y026670D03*
X022435Y026660D03*
X022675Y026580D03*
X022675Y026570D03*
X022675Y026560D03*
X022665Y026520D03*
X022665Y026510D03*
X022665Y026500D03*
X022665Y026490D03*
X022665Y026480D03*
X022665Y026470D03*
X022665Y026460D03*
X022665Y026450D03*
X022665Y026440D03*
X022675Y026400D03*
X022675Y026390D03*
X022675Y026380D03*
X022685Y026350D03*
X022695Y026320D03*
X022685Y026610D03*
X022685Y026620D03*
X022695Y026640D03*
X023075Y026630D03*
X023085Y026600D03*
X023085Y026590D03*
X023095Y026560D03*
X023095Y026550D03*
X023095Y026540D03*
X023095Y026530D03*
X023095Y026420D03*
X023095Y026410D03*
X023095Y026400D03*
X023095Y026390D03*
X023085Y026360D03*
X023085Y026350D03*
X023075Y026320D03*
X023065Y026300D03*
X023315Y026300D03*
X023315Y026310D03*
X023315Y026320D03*
X023315Y026330D03*
X023315Y026340D03*
X023315Y026350D03*
X023315Y026360D03*
X023315Y026370D03*
X023315Y026380D03*
X023315Y026390D03*
X023315Y026400D03*
X023315Y026410D03*
X023315Y026420D03*
X023315Y026430D03*
X023315Y026440D03*
X023315Y026450D03*
X023315Y026460D03*
X023315Y026560D03*
X023315Y026570D03*
X023315Y026580D03*
X023315Y026590D03*
X023315Y026600D03*
X023315Y026610D03*
X023315Y026620D03*
X023315Y026630D03*
X023315Y026640D03*
X023315Y026650D03*
X023315Y026660D03*
X023315Y026670D03*
X023315Y026680D03*
X023315Y026690D03*
X023315Y026700D03*
X023315Y026710D03*
X023315Y026720D03*
X023315Y026730D03*
X023315Y026740D03*
X023665Y026690D03*
X023665Y026680D03*
X023665Y026610D03*
X023665Y026600D03*
X023315Y026290D03*
X023315Y026280D03*
X023315Y026270D03*
X023315Y026260D03*
X023315Y026250D03*
X023315Y026240D03*
X023315Y026230D03*
X023315Y026220D03*
X023315Y026210D03*
X023315Y026200D03*
X023315Y026190D03*
X023315Y026180D03*
X023315Y026170D03*
X023315Y026160D03*
X021165Y025500D03*
D37*
X021175Y025510D03*
X022205Y026520D03*
X022325Y026460D03*
X022345Y026450D03*
D38*
X022425Y026400D03*
X022435Y026390D03*
X022405Y026730D03*
X022115Y026740D03*
X021775Y026730D03*
X021785Y026230D03*
X021535Y026230D03*
X021155Y026730D03*
X020265Y026740D03*
X019985Y026740D03*
X019985Y026580D03*
X019995Y026570D03*
X020295Y026230D03*
X020665Y025840D03*
X020945Y025600D03*
X021445Y025630D03*
X021455Y025640D03*
X021625Y025760D03*
X021635Y025770D03*
X021655Y025780D03*
X022115Y026240D03*
X022125Y026230D03*
X022755Y026730D03*
X023005Y026730D03*
X023015Y026230D03*
X022365Y025510D03*
D39*
X022365Y025520D03*
X021815Y025850D03*
X021655Y026160D03*
X022245Y026500D03*
X022265Y026490D03*
X022285Y026480D03*
X022305Y026470D03*
X022885Y026160D03*
X022875Y026800D03*
X021655Y026800D03*
X020135Y026490D03*
X020115Y026500D03*
X021315Y025570D03*
D40*
X021175Y025530D03*
X021815Y025820D03*
X021655Y026210D03*
X021655Y026750D03*
X022255Y026780D03*
X022885Y026210D03*
X023445Y026810D03*
X020975Y026800D03*
X020125Y026780D03*
D41*
X020130Y026800D03*
X022250Y026800D03*
X022880Y026770D03*
X022370Y025530D03*
D42*
X022385Y025860D03*
X022275Y026200D03*
X022255Y026760D03*
X020995Y026770D03*
X020995Y026480D03*
X020155Y026200D03*
X021175Y025540D03*
X023465Y026500D03*
X023465Y026790D03*
D43*
X023450Y026480D03*
X022380Y025870D03*
X022370Y025540D03*
D44*
X022380Y025560D03*
X021180Y025550D03*
D45*
X021000Y026190D03*
X021000Y026470D03*
X021000Y026510D03*
X021000Y026520D03*
X021000Y026760D03*
X020150Y026210D03*
X022280Y026210D03*
X022380Y025550D03*
X023470Y026510D03*
X023470Y026780D03*
D46*
X022385Y025570D03*
X021175Y025560D03*
D47*
X021030Y025570D03*
X020560Y025880D03*
X020150Y026140D03*
X020220Y026450D03*
X020080Y026520D03*
X021660Y026150D03*
X022270Y026140D03*
X022880Y026810D03*
D48*
X022365Y026440D03*
X022185Y026530D03*
X021655Y026810D03*
X022885Y026150D03*
X021705Y025800D03*
X021355Y025580D03*
X020235Y026440D03*
X020055Y026530D03*
D49*
X022380Y025580D03*
D50*
X021375Y025590D03*
X020275Y026220D03*
X022165Y026540D03*
D51*
X022385Y025590D03*
D52*
X021975Y025780D03*
X022145Y026220D03*
X021765Y026220D03*
X021555Y026220D03*
X021145Y026540D03*
X020285Y026410D03*
X020005Y026750D03*
X020565Y025890D03*
X021395Y025600D03*
X022375Y026750D03*
X022875Y026820D03*
X022985Y026740D03*
X022995Y026220D03*
X022775Y026220D03*
D53*
X022385Y025600D03*
D54*
X021610Y025750D03*
X021590Y025740D03*
X021580Y025730D03*
X021550Y025710D03*
X021540Y025700D03*
X021510Y025680D03*
X021500Y025670D03*
X021490Y025660D03*
X021470Y025650D03*
X020930Y025610D03*
X020900Y025630D03*
X020700Y025820D03*
X020680Y025830D03*
X020310Y026240D03*
X020310Y026390D03*
X020290Y026720D03*
X020280Y026730D03*
X019970Y026260D03*
X019980Y026250D03*
X019990Y026240D03*
X021180Y026250D03*
X021170Y026430D03*
X021160Y026550D03*
X021170Y026720D03*
X021520Y026720D03*
X021530Y026730D03*
X021790Y026720D03*
X021800Y026710D03*
X022100Y026730D03*
X022100Y026590D03*
X022110Y026580D03*
X022100Y026250D03*
X022430Y026240D03*
X022750Y026240D03*
X022760Y026230D03*
X023020Y026240D03*
X023020Y026720D03*
X023640Y026730D03*
X021520Y026240D03*
X021510Y026250D03*
D55*
X022385Y025610D03*
D56*
X022385Y025900D03*
X022445Y026250D03*
X022445Y026260D03*
X022455Y026360D03*
X022445Y026380D03*
X022705Y026300D03*
X022715Y026280D03*
X022725Y026270D03*
X022735Y026250D03*
X023035Y026250D03*
X023055Y026280D03*
X023055Y026670D03*
X023045Y026690D03*
X023035Y026700D03*
X023025Y026710D03*
X022745Y026720D03*
X022735Y026710D03*
X022725Y026700D03*
X022415Y026720D03*
X022095Y026720D03*
X022095Y026600D03*
X021835Y026660D03*
X021825Y026680D03*
X021815Y026690D03*
X021805Y026700D03*
X021505Y026710D03*
X021495Y026690D03*
X021185Y026700D03*
X021175Y026710D03*
X021175Y026560D03*
X021185Y026420D03*
X021195Y026400D03*
X021195Y026270D03*
X021185Y026260D03*
X021485Y026290D03*
X021495Y026270D03*
X021505Y026260D03*
X021795Y026240D03*
X021805Y026250D03*
X021815Y026260D03*
X021825Y026270D03*
X021835Y026290D03*
X022075Y026290D03*
X022085Y026270D03*
X022095Y026260D03*
X021815Y025870D03*
X021565Y025720D03*
X021525Y025690D03*
X020915Y025620D03*
X020885Y025640D03*
X020875Y025650D03*
X020865Y025660D03*
X020855Y025670D03*
X020845Y025680D03*
X020835Y025690D03*
X020825Y025700D03*
X020815Y025710D03*
X020805Y025720D03*
X020775Y025750D03*
X020765Y025760D03*
X020755Y025770D03*
X020745Y025780D03*
X020735Y025790D03*
X020715Y025810D03*
X020445Y025840D03*
X020315Y026250D03*
X020325Y026260D03*
X020325Y026370D03*
X020315Y026380D03*
X020295Y026710D03*
X019975Y026730D03*
X019965Y026720D03*
X019975Y026590D03*
X019955Y026280D03*
X019965Y026270D03*
X023645Y026560D03*
X023655Y026570D03*
D57*
X022380Y025790D03*
X022390Y025620D03*
D58*
X022390Y025630D03*
X022380Y025780D03*
D59*
X022390Y025650D03*
X022390Y025640D03*
D60*
X022390Y025660D03*
X022390Y025670D03*
D61*
X022385Y025680D03*
D62*
X022580Y025690D03*
D63*
X022575Y025700D03*
X022565Y025710D03*
D64*
X022440Y026640D03*
X020310Y026640D03*
X020320Y025710D03*
D65*
X020325Y025720D03*
D66*
X022360Y025720D03*
D67*
X022270Y026130D03*
X022450Y026270D03*
X022460Y026280D03*
X022460Y026290D03*
X022460Y026300D03*
X022460Y026310D03*
X022460Y026320D03*
X022460Y026330D03*
X022460Y026340D03*
X022460Y026350D03*
X022450Y026370D03*
X022670Y026410D03*
X022670Y026420D03*
X022670Y026430D03*
X022680Y026370D03*
X022680Y026360D03*
X022690Y026340D03*
X022690Y026330D03*
X022700Y026310D03*
X022710Y026290D03*
X022730Y026260D03*
X022670Y026530D03*
X022670Y026540D03*
X022670Y026550D03*
X022680Y026590D03*
X022680Y026600D03*
X022690Y026630D03*
X022700Y026650D03*
X022700Y026660D03*
X022710Y026670D03*
X022710Y026680D03*
X022720Y026690D03*
X022430Y026690D03*
X022430Y026700D03*
X022420Y026710D03*
X022090Y026710D03*
X022080Y026700D03*
X022080Y026690D03*
X022080Y026640D03*
X022080Y026630D03*
X022080Y026620D03*
X022090Y026610D03*
X021870Y026560D03*
X021870Y026550D03*
X021870Y026540D03*
X021870Y026530D03*
X021860Y026580D03*
X021860Y026590D03*
X021860Y026600D03*
X021850Y026620D03*
X021850Y026630D03*
X021840Y026640D03*
X021840Y026650D03*
X021830Y026670D03*
X021870Y026430D03*
X021870Y026420D03*
X021870Y026410D03*
X021870Y026400D03*
X021870Y026390D03*
X021860Y026370D03*
X021860Y026360D03*
X021860Y026350D03*
X021850Y026330D03*
X021850Y026320D03*
X021840Y026310D03*
X021840Y026300D03*
X021830Y026280D03*
X022070Y026300D03*
X022080Y026280D03*
X021490Y026280D03*
X021480Y026300D03*
X021470Y026310D03*
X021470Y026320D03*
X021460Y026340D03*
X021450Y026370D03*
X021450Y026380D03*
X021440Y026430D03*
X021440Y026440D03*
X021440Y026450D03*
X021440Y026460D03*
X021440Y026470D03*
X021440Y026480D03*
X021440Y026490D03*
X021440Y026500D03*
X021440Y026510D03*
X021440Y026520D03*
X021440Y026530D03*
X021450Y026580D03*
X021450Y026590D03*
X021460Y026620D03*
X021470Y026640D03*
X021470Y026650D03*
X021480Y026660D03*
X021480Y026670D03*
X021490Y026680D03*
X021500Y026700D03*
X021200Y026650D03*
X021200Y026640D03*
X021200Y026630D03*
X021190Y026590D03*
X021190Y026580D03*
X021180Y026570D03*
X021190Y026680D03*
X021190Y026690D03*
X021190Y026410D03*
X021200Y026390D03*
X021200Y026380D03*
X021200Y026300D03*
X021200Y026290D03*
X021200Y026280D03*
X020720Y025800D03*
X020780Y025740D03*
X020790Y025730D03*
X020140Y026130D03*
X020330Y026270D03*
X020330Y026280D03*
X020330Y026290D03*
X020330Y026350D03*
X020330Y026360D03*
X020310Y026680D03*
X020310Y026690D03*
X020300Y026700D03*
X019960Y026700D03*
X019960Y026710D03*
X019960Y026620D03*
X019960Y026610D03*
X019970Y026600D03*
X019950Y026300D03*
X019950Y026290D03*
X023040Y026260D03*
X023050Y026270D03*
X023060Y026290D03*
X023070Y026310D03*
X023080Y026330D03*
X023080Y026340D03*
X023090Y026370D03*
X023090Y026380D03*
X023100Y026430D03*
X023100Y026440D03*
X023100Y026450D03*
X023100Y026460D03*
X023100Y026470D03*
X023100Y026480D03*
X023100Y026490D03*
X023100Y026500D03*
X023100Y026510D03*
X023100Y026520D03*
X023090Y026570D03*
X023090Y026580D03*
X023080Y026610D03*
X023080Y026620D03*
X023070Y026640D03*
X023070Y026650D03*
X023060Y026660D03*
X023050Y026680D03*
X023650Y026720D03*
X023660Y026710D03*
X023660Y026700D03*
X023670Y026670D03*
X023670Y026660D03*
X023670Y026650D03*
X023670Y026640D03*
X023670Y026630D03*
X023670Y026620D03*
X023660Y026590D03*
X023660Y026580D03*
D68*
X022260Y026840D03*
X020310Y026650D03*
X020130Y026840D03*
X020350Y025750D03*
X020340Y025740D03*
D69*
X022340Y025740D03*
D70*
X022335Y025750D03*
D71*
X022075Y026330D03*
X022435Y026650D03*
X023315Y026140D03*
X020565Y026140D03*
X020565Y026150D03*
X020575Y025900D03*
X020375Y025780D03*
X020365Y025770D03*
X020355Y025760D03*
X019945Y026330D03*
D72*
X022320Y025760D03*
D73*
X022310Y025770D03*
D74*
X022890Y026130D03*
X023310Y026150D03*
X022070Y026320D03*
X021660Y026130D03*
X020560Y026810D03*
X020310Y026660D03*
X019950Y026320D03*
X020410Y025820D03*
X020400Y025810D03*
X020390Y025800D03*
X020380Y025790D03*
D75*
X020200Y026460D03*
X020180Y026470D03*
X020160Y026480D03*
X020100Y026510D03*
X020130Y026820D03*
X021910Y025800D03*
X022220Y026510D03*
X022250Y026820D03*
D76*
X022380Y025800D03*
D77*
X021820Y025810D03*
X020990Y026180D03*
X020990Y026490D03*
X020990Y026500D03*
X020990Y026780D03*
X020130Y026760D03*
X023460Y026490D03*
D78*
X022380Y025810D03*
D79*
X022385Y025820D03*
D80*
X022885Y026170D03*
X022255Y026810D03*
X021815Y025840D03*
X020125Y026810D03*
D81*
X022385Y025840D03*
D82*
X022280Y026170D03*
X022880Y026760D03*
X023430Y026820D03*
X020560Y025850D03*
X020150Y026170D03*
D83*
X022385Y025850D03*
X023485Y026550D03*
D84*
X022880Y026780D03*
X022280Y026160D03*
X020560Y025860D03*
X020150Y026160D03*
D85*
X020250Y026430D03*
X020040Y026540D03*
X021130Y026740D03*
X021140Y026230D03*
X021820Y025860D03*
X022380Y026430D03*
D86*
X022280Y026150D03*
X022370Y025890D03*
X020560Y025870D03*
X020150Y026150D03*
D87*
X020150Y026180D03*
X020970Y026160D03*
X022280Y026180D03*
X022880Y026750D03*
D88*
X023455Y026800D03*
X022255Y026770D03*
X022275Y026190D03*
X020985Y026170D03*
X020155Y026190D03*
X020125Y026770D03*
X020985Y026790D03*
D89*
X021650Y026790D03*
X021660Y026170D03*
X022880Y026790D03*
D90*
X023475Y026770D03*
X023475Y026520D03*
X021005Y026530D03*
X021005Y026460D03*
X021005Y026200D03*
X021005Y026750D03*
D91*
X020965Y026810D03*
X021655Y026760D03*
X022255Y026790D03*
X021655Y026200D03*
X022885Y026200D03*
X023435Y026470D03*
X020125Y026790D03*
D92*
X021010Y026450D03*
X021010Y026220D03*
X021010Y026210D03*
X023480Y026530D03*
X023480Y026540D03*
X023480Y026750D03*
X023480Y026760D03*
D93*
X003350Y020600D02*
X003350Y018600D01*
X002600Y018600D01*
X002600Y020600D01*
X003350Y020600D01*
X002600Y020600D02*
X000850Y020600D01*
X000850Y018600D01*
X002600Y018600D01*
X002600Y016600D02*
X000850Y016600D01*
X000850Y014600D01*
X002600Y014600D01*
X002600Y016600D01*
X003350Y016600D01*
X003350Y014600D01*
X002600Y014600D01*
X003600Y010850D02*
X000600Y010850D01*
X000600Y010100D01*
X003600Y010100D01*
X003600Y008350D01*
X000600Y008350D01*
X000600Y010100D01*
X003600Y010100D02*
X003600Y010850D01*
X003600Y006350D02*
X000600Y006350D01*
X000600Y005600D01*
X003600Y005600D01*
X003600Y003850D01*
X000600Y003850D01*
X000600Y005600D01*
X003600Y005600D02*
X003600Y006350D01*
X004100Y003350D02*
X004100Y002600D01*
X007100Y002600D01*
X007100Y000850D01*
X004100Y000850D01*
X004100Y002600D01*
X004100Y003350D02*
X007100Y003350D01*
X007100Y002600D01*
X008100Y002600D02*
X011100Y002600D01*
X011100Y000850D01*
X008100Y000850D01*
X008100Y002600D01*
X008100Y003350D01*
X011100Y003350D01*
X011100Y002600D01*
X011600Y002600D02*
X013600Y002600D01*
X013600Y000850D01*
X011600Y000850D01*
X011600Y002600D01*
X011600Y003350D01*
X013600Y003350D01*
X013600Y002600D01*
X014100Y002600D02*
X016100Y002600D01*
X016100Y000850D01*
X014100Y000850D01*
X014100Y002600D01*
X014100Y003350D01*
X016100Y003350D01*
X016100Y002600D01*
X021100Y002600D02*
X021100Y000850D01*
X023100Y000850D01*
X023100Y002600D01*
X021100Y002600D01*
X021100Y003350D01*
X023100Y003350D01*
X023100Y002600D01*
X028100Y002600D02*
X028100Y000850D01*
X030100Y000850D01*
X030100Y002600D01*
X028100Y002600D01*
X028100Y003350D01*
X030100Y003350D01*
X030100Y002600D01*
M02*
