%
M48
M72
T01C0.0240
T02C0.0276
T03C0.0320
T04C0.0350
T05C0.0360
T06C0.0400
T07C0.0433
T08C0.1260
T09C0.1280
%
T01
X5600Y10100
X7100Y14100
X12100Y10600
X13100Y9600
X18100Y10600
X18600Y7600
X22600Y8100
X21100Y14600
X24100Y17100
X21600Y17600
X19600Y22600
X18600Y24600
X20600Y25600
X21600Y26600
X22100Y26100
X22600Y26100
X24600Y26100
X28600Y27100
X29100Y25600
X32100Y26600
X30600Y22600
X14600Y15100
X7100Y19100
X10100Y24600
T02
X14600Y9191
X14600Y8009
T03
X16600Y8100
X16600Y9100
X16600Y11100
X16600Y12100
X16100Y13100
X17100Y13100
X18100Y13100
X19600Y13600
X20600Y13600
X21600Y13600
X22600Y13600
X23600Y13600
X24600Y13600
X25600Y13600
X26600Y13600
X27600Y13100
X27600Y14100
X26600Y15600
X25600Y15600
X24600Y15600
X23600Y15600
X22600Y15600
X21600Y15600
X20600Y15600
X19600Y15600
X18100Y16100
X17100Y16100
X16100Y16100
X15100Y16100
X14100Y16100
X13100Y16100
X12100Y16100
X11100Y16100
X10100Y16100
X9100Y16100
X8100Y16100
X7100Y16100
X6100Y16100
X5100Y16100
X8100Y18100
X9100Y18100
X9100Y13100
X8100Y13100
X7100Y13100
X6100Y13100
X5100Y13100
X5100Y12100
X5100Y11100
X5100Y9600
X5100Y8600
X7100Y8600
X7100Y9600
X7100Y11100
X7100Y12100
X10100Y12100
X10100Y11100
X11600Y11100
X11600Y12100
X11100Y13100
X10100Y13100
X12100Y13100
X13100Y13100
X14100Y13100
X15100Y13100
X14600Y12100
X14600Y11100
X13100Y11100
X13100Y12100
X11550Y8600
X9650Y8600
X5100Y6600
X5100Y5600
X17600Y2600
X18600Y1600
X19600Y2600
X19600Y6100
X19600Y7100
X21600Y7100
X21600Y6100
X23600Y6100
X23600Y7100
X25600Y7100
X25600Y6100
X27600Y7100
X27600Y8100
X26600Y9100
X25600Y9100
X24600Y9100
X23600Y9100
X22600Y9100
X21600Y9100
X20600Y9100
X19600Y9100
X19600Y12100
X20600Y12100
X21600Y12100
X22600Y12100
X23600Y12100
X24600Y12100
X25600Y12100
X26600Y12100
X29600Y12850
X30600Y12850
X31600Y12850
X32600Y12850
X33600Y12850
X34600Y12850
X35600Y12850
X35600Y15600
X34600Y15600
X33600Y15600
X32600Y15600
X31600Y15600
X30600Y15600
X29600Y15600
X27600Y17600
X27600Y18600
X26600Y18600
X25600Y18600
X24600Y18600
X23600Y18600
X22600Y18600
X21600Y18600
X20600Y18600
X19600Y18600
X19350Y21100
X20350Y21100
X21350Y21100
X22350Y21100
X23350Y21100
X24350Y21100
X25350Y21100
X26350Y21100
X29600Y21100
X30600Y21100
X31600Y21100
X32600Y21100
X33600Y21100
X34600Y21100
X35600Y21100
X35600Y18600
X34600Y18600
X33600Y18600
X32600Y18600
X31600Y18600
X30600Y18600
X29600Y18600
X29600Y24100
X30600Y24100
X31600Y24100
X32600Y24100
X33600Y24100
X34600Y24100
X35600Y24100
X27600Y24100
X26350Y24100
X25350Y24100
X24350Y24100
X23350Y24100
X22350Y24100
X21350Y24100
X20350Y24100
X19350Y24100
X17600Y23600
X17600Y22600
X27600Y25100
X29600Y9850
X30600Y9850
X31600Y9850
X32600Y9850
X33600Y9850
X34600Y9850
X35600Y9850
X35600Y7100
X34600Y7100
X33600Y7100
X32600Y7100
X31600Y7100
X30600Y7100
X29600Y7100
X29600Y4100
X30600Y4100
X31600Y4100
X32600Y4100
X33600Y4100
X34600Y4100
X35600Y4100
X26600Y2600
X25600Y1600
X24600Y2600
X6300Y23600
X4900Y23600
T04
X12350Y21600
X13350Y21600
X14350Y21600
X13850Y20600
X12850Y20600
X14850Y20600
T05
X14100Y5600
X13100Y5600
X12100Y5600
X10100Y5600
X9100Y5600
X8100Y5600
T06
X8850Y22600
X8850Y23600
X8850Y24600
T07
X2100Y20100
X2100Y19100
X2100Y16100
X2100Y15100
X2100Y9600
X1100Y9600
X3100Y9600
X3100Y5100
X2100Y5100
X1100Y5100
X4600Y2100
X5600Y2100
X6600Y2100
X8600Y2100
X9600Y2100
X10600Y2100
X12100Y2100
X13100Y2100
X14600Y2100
X15600Y2100
X21600Y2100
X22600Y2100
X28600Y2100
X29600Y2100
T08
X2100Y2100
X2100Y26100
X34600Y26100
X34600Y2100
T09
X15600Y24100
X11600Y24100
M30
