G75*
G70*
%OFA0B0*%
%FSLAX24Y24*%
%IPPOS*%
%LPD*%
%AMOC8*
5,1,8,0,0,1.08239X$1,22.5*
%
%ADD10C,0.0600*%
%ADD11C,0.0630*%
%ADD12C,0.1360*%
%ADD13OC8,0.0600*%
%ADD14C,0.0680*%
%ADD15C,0.0600*%
%ADD16OC8,0.0710*%
%ADD17C,0.0710*%
%ADD18C,0.2620*%
%ADD19C,0.0730*%
%ADD20C,0.0480*%
D10*
X011080Y001850D02*
X011600Y001850D01*
X011600Y002850D02*
X011080Y002850D01*
X011080Y003850D02*
X011600Y003850D01*
X011600Y004850D02*
X011080Y004850D01*
X011080Y005850D02*
X011600Y005850D01*
X011600Y006850D02*
X011080Y006850D01*
X011080Y007850D02*
X011600Y007850D01*
X011600Y008850D02*
X011080Y008850D01*
X011080Y009850D02*
X011600Y009850D01*
X011600Y010850D02*
X011080Y010850D01*
X011080Y011850D02*
X011600Y011850D01*
X011600Y012850D02*
X011080Y012850D01*
X011080Y013850D02*
X011600Y013850D01*
X011600Y014850D02*
X011080Y014850D01*
X014080Y014850D02*
X014600Y014850D01*
X014600Y013850D02*
X014080Y013850D01*
X014080Y012850D02*
X014600Y012850D01*
X014600Y011850D02*
X014080Y011850D01*
X014080Y010850D02*
X014600Y010850D01*
X014600Y009850D02*
X014080Y009850D01*
X014080Y008850D02*
X014600Y008850D01*
X014600Y007850D02*
X014080Y007850D01*
X014080Y006850D02*
X014600Y006850D01*
X014600Y005850D02*
X014080Y005850D01*
X014080Y004850D02*
X014600Y004850D01*
X014600Y003850D02*
X014080Y003850D01*
X014080Y002850D02*
X014600Y002850D01*
X014600Y001850D02*
X014080Y001850D01*
X019340Y004830D02*
X019340Y005350D01*
X020340Y005350D02*
X020340Y004830D01*
X021340Y004830D02*
X021340Y005350D01*
X022340Y005350D02*
X022340Y004830D01*
X024090Y003860D02*
X024090Y003340D01*
X025090Y002860D02*
X025090Y002340D01*
X026090Y003340D02*
X026090Y003860D01*
X029840Y003840D02*
X029840Y004360D01*
X030840Y004360D02*
X030840Y003840D01*
X031840Y003840D02*
X031840Y004360D01*
X032840Y004360D02*
X032840Y003840D01*
X033840Y003840D02*
X033840Y004360D01*
X034840Y004360D02*
X034840Y003840D01*
X035840Y003840D02*
X035840Y004360D01*
X035840Y006840D02*
X035840Y007360D01*
X034840Y007360D02*
X034840Y006840D01*
X033840Y006840D02*
X033840Y007360D01*
X032840Y007360D02*
X032840Y006840D01*
X031840Y006840D02*
X031840Y007360D01*
X030840Y007360D02*
X030840Y006840D01*
X029840Y006840D02*
X029840Y007360D01*
X029840Y009590D02*
X029840Y010110D01*
X030840Y010110D02*
X030840Y009590D01*
X031840Y009590D02*
X031840Y010110D01*
X032840Y010110D02*
X032840Y009590D01*
X033840Y009590D02*
X033840Y010110D01*
X034840Y010110D02*
X034840Y009590D01*
X035840Y009590D02*
X035840Y010110D01*
X035840Y012590D02*
X035840Y013110D01*
X034840Y013110D02*
X034840Y012590D01*
X033840Y012590D02*
X033840Y013110D01*
X032840Y013110D02*
X032840Y012590D01*
X031840Y012590D02*
X031840Y013110D01*
X030840Y013110D02*
X030840Y012590D01*
X029840Y012590D02*
X029840Y013110D01*
X029840Y015340D02*
X029840Y015860D01*
X030840Y015860D02*
X030840Y015340D01*
X031840Y015340D02*
X031840Y015860D01*
X032840Y015860D02*
X032840Y015340D01*
X033840Y015340D02*
X033840Y015860D01*
X034840Y015860D02*
X034840Y015340D01*
X035840Y015340D02*
X035840Y015860D01*
X035840Y018340D02*
X035840Y018860D01*
X034840Y018860D02*
X034840Y018340D01*
X033840Y018340D02*
X033840Y018860D01*
X032840Y018860D02*
X032840Y018340D01*
X031840Y018340D02*
X031840Y018860D01*
X030840Y018860D02*
X030840Y018340D01*
X029840Y018340D02*
X029840Y018860D01*
X029840Y020840D02*
X029840Y021360D01*
X030840Y021360D02*
X030840Y020840D01*
X031840Y020840D02*
X031840Y021360D01*
X032840Y021360D02*
X032840Y020840D01*
X033840Y020840D02*
X033840Y021360D01*
X034840Y021360D02*
X034840Y020840D01*
X035840Y020840D02*
X035840Y021360D01*
X035840Y023840D02*
X035840Y024360D01*
X034840Y024360D02*
X034840Y023840D01*
X033840Y023840D02*
X033840Y024360D01*
X032840Y024360D02*
X032840Y023840D01*
X031840Y023840D02*
X031840Y024360D01*
X030840Y024360D02*
X030840Y023840D01*
X029840Y023840D02*
X029840Y024360D01*
X026590Y024360D02*
X026590Y023840D01*
X025590Y023840D02*
X025590Y024360D01*
X024590Y024360D02*
X024590Y023840D01*
X023590Y023840D02*
X023590Y024360D01*
X022590Y024360D02*
X022590Y023840D01*
X021590Y023840D02*
X021590Y024360D01*
X020590Y024360D02*
X020590Y023840D01*
X019590Y023840D02*
X019590Y024360D01*
X019590Y026840D02*
X019590Y027360D01*
X020590Y027360D02*
X020590Y026840D01*
X021590Y026840D02*
X021590Y027360D01*
X022590Y027360D02*
X022590Y026840D01*
X023590Y026840D02*
X023590Y027360D01*
X024590Y027360D02*
X024590Y026840D01*
X025590Y026840D02*
X025590Y027360D01*
X026590Y027360D02*
X026590Y026840D01*
X026340Y017860D02*
X026340Y017340D01*
X025340Y017340D02*
X025340Y017860D01*
X024340Y017860D02*
X024340Y017340D01*
X023340Y017340D02*
X023340Y017860D01*
X022340Y017860D02*
X022340Y017340D01*
X021340Y017340D02*
X021340Y017860D01*
X020340Y017860D02*
X020340Y017340D01*
X019340Y017340D02*
X019340Y017860D01*
X019340Y014860D02*
X019340Y014340D01*
X020340Y014340D02*
X020340Y014860D01*
X021340Y014860D02*
X021340Y014340D01*
X022340Y014340D02*
X022340Y014860D01*
X023340Y014860D02*
X023340Y014340D01*
X024340Y014340D02*
X024340Y014860D01*
X025340Y014860D02*
X025340Y014340D01*
X026340Y014340D02*
X026340Y014860D01*
X022340Y008870D02*
X022340Y008350D01*
X021340Y008350D02*
X021340Y008870D01*
X020340Y008870D02*
X020340Y008350D01*
X019340Y008350D02*
X019340Y008870D01*
D11*
X014340Y020600D03*
X013340Y020600D03*
X012340Y020600D03*
X011840Y021600D03*
X012840Y021600D03*
X013840Y021600D03*
D12*
X015090Y024100D03*
X011090Y024100D03*
D13*
X007340Y020600D03*
X007340Y019600D03*
X005590Y019600D03*
X005590Y020600D03*
X011340Y016600D03*
X011340Y015600D03*
X008840Y014350D03*
X008840Y013350D03*
X006840Y013350D03*
X006840Y014350D03*
X002840Y014350D03*
X002840Y013350D03*
X001340Y013350D03*
X001340Y014350D03*
X015590Y004850D03*
X016590Y004850D03*
X015840Y005850D03*
X015840Y006850D03*
X018340Y011850D03*
X019340Y011850D03*
X020340Y012850D03*
X021340Y012850D03*
X022340Y012850D03*
X023340Y012850D03*
X024340Y012850D03*
X025340Y012850D03*
X024340Y019600D03*
X024340Y020600D03*
X026340Y020600D03*
X026340Y019600D03*
X022340Y019600D03*
X022340Y020600D03*
X020340Y020600D03*
X020340Y019600D03*
X017590Y025100D03*
X017590Y026100D03*
D14*
X009140Y026350D02*
X008540Y026350D01*
X008540Y025350D02*
X009140Y025350D01*
X009140Y024350D02*
X008540Y024350D01*
D15*
X008790Y016850D03*
X006890Y016850D03*
D16*
X005840Y024650D03*
D17*
X005840Y026050D03*
D18*
X002340Y002100D03*
X002340Y026100D03*
X034840Y026100D03*
X034840Y002100D03*
D19*
X020340Y002275D02*
X020340Y002925D01*
X019340Y002925D02*
X019340Y002275D01*
X006915Y004350D02*
X006265Y004350D01*
X006265Y005350D02*
X006915Y005350D01*
X006915Y006350D02*
X006265Y006350D01*
X006265Y007350D02*
X006915Y007350D01*
X006915Y008350D02*
X006265Y008350D01*
X006265Y009350D02*
X006915Y009350D01*
X006915Y010350D02*
X006265Y010350D01*
X002415Y009850D02*
X001765Y009850D01*
X001765Y008850D02*
X002415Y008850D01*
X002415Y006850D02*
X001765Y006850D01*
X001765Y005850D02*
X002415Y005850D01*
X002415Y004850D02*
X001765Y004850D01*
X001765Y010850D02*
X002415Y010850D01*
X002665Y019100D02*
X002015Y019100D01*
X002015Y020100D02*
X002665Y020100D01*
X029590Y026275D02*
X029590Y026925D01*
X030590Y026925D02*
X030590Y026275D01*
D20*
X032340Y025600D03*
X032840Y022600D03*
X028340Y024600D03*
X027840Y021100D03*
X027340Y018600D03*
X021340Y020100D03*
X020840Y018600D03*
X016840Y019100D03*
X018340Y022100D03*
X018840Y022100D03*
X017340Y023100D03*
X022840Y025600D03*
X035340Y014600D03*
X024840Y013600D03*
X023840Y010100D03*
X019340Y001100D03*
X012840Y001100D03*
X008340Y001100D03*
M02*
