G75*
G70*
%OFA0B0*%
%FSLAX24Y24*%
%IPPOS*%
%LPD*%
%AMOC8*
5,1,8,0,0,1.08239X$1,22.5*
%
%ADD10C,0.0000*%
%ADD11C,0.0060*%
%ADD12C,0.0030*%
%ADD13C,0.0070*%
%ADD14C,0.0080*%
%ADD15C,0.0020*%
%ADD16R,0.0300X0.0450*%
%ADD17C,0.0040*%
%ADD18R,0.1000X0.0100*%
%ADD19C,0.0050*%
%ADD20R,0.0300X0.4200*%
%ADD21R,0.0200X0.0750*%
%ADD22R,0.0200X0.0300*%
%ADD23C,0.0160*%
%ADD24C,0.0120*%
%ADD25C,0.0200*%
%ADD26R,0.0030X0.0010*%
%ADD27R,0.0130X0.0010*%
%ADD28R,0.0150X0.0010*%
%ADD29R,0.0280X0.0010*%
%ADD30R,0.0300X0.0010*%
%ADD31R,0.0470X0.0010*%
%ADD32R,0.0480X0.0010*%
%ADD33R,0.0680X0.0010*%
%ADD34R,0.0700X0.0010*%
%ADD35R,0.0040X0.0010*%
%ADD36R,0.0080X0.0010*%
%ADD37R,0.0200X0.0010*%
%ADD38R,0.0120X0.0010*%
%ADD39R,0.0220X0.0010*%
%ADD40R,0.0340X0.0010*%
%ADD41R,0.0290X0.0010*%
%ADD42R,0.0380X0.0010*%
%ADD43R,0.0350X0.0010*%
%ADD44R,0.0430X0.0010*%
%ADD45R,0.0390X0.0010*%
%ADD46R,0.0460X0.0010*%
%ADD47R,0.0190X0.0010*%
%ADD48R,0.0180X0.0010*%
%ADD49R,0.0490X0.0010*%
%ADD50R,0.0160X0.0010*%
%ADD51R,0.0520X0.0010*%
%ADD52R,0.0140X0.0010*%
%ADD53R,0.0540X0.0010*%
%ADD54R,0.0110X0.0010*%
%ADD55R,0.0560X0.0010*%
%ADD56R,0.0100X0.0010*%
%ADD57R,0.0570X0.0010*%
%ADD58R,0.0590X0.0010*%
%ADD59R,0.0610X0.0010*%
%ADD60R,0.0630X0.0010*%
%ADD61R,0.0640X0.0010*%
%ADD62R,0.1050X0.0010*%
%ADD63R,0.1060X0.0010*%
%ADD64R,0.0010X0.0010*%
%ADD65R,0.0020X0.0010*%
%ADD66R,0.0690X0.0010*%
%ADD67R,0.0090X0.0010*%
%ADD68R,0.0050X0.0010*%
%ADD69R,0.0710X0.0010*%
%ADD70R,0.0720X0.0010*%
%ADD71R,0.0060X0.0010*%
%ADD72R,0.0730X0.0010*%
%ADD73R,0.0750X0.0010*%
%ADD74R,0.0070X0.0010*%
%ADD75R,0.0210X0.0010*%
%ADD76R,0.0550X0.0010*%
%ADD77R,0.0370X0.0010*%
%ADD78R,0.0530X0.0010*%
%ADD79R,0.0500X0.0010*%
%ADD80R,0.0260X0.0010*%
%ADD81R,0.0440X0.0010*%
%ADD82R,0.0310X0.0010*%
%ADD83R,0.0420X0.0010*%
%ADD84R,0.0270X0.0010*%
%ADD85R,0.0170X0.0010*%
%ADD86R,0.0230X0.0010*%
%ADD87R,0.0330X0.0010*%
%ADD88R,0.0360X0.0010*%
%ADD89R,0.0250X0.0010*%
%ADD90R,0.0400X0.0010*%
%ADD91R,0.0320X0.0010*%
%ADD92R,0.0410X0.0010*%
%ADD93C,0.0100*%
D10*
X000340Y000100D02*
X000340Y028096D01*
X036710Y028096D01*
X036710Y000100D01*
X000340Y000100D01*
X010450Y024100D02*
X010452Y024150D01*
X010458Y024200D01*
X010468Y024249D01*
X010481Y024298D01*
X010499Y024345D01*
X010520Y024391D01*
X010544Y024434D01*
X010572Y024476D01*
X010603Y024516D01*
X010637Y024553D01*
X010674Y024587D01*
X010714Y024618D01*
X010756Y024646D01*
X010799Y024670D01*
X010845Y024691D01*
X010892Y024709D01*
X010941Y024722D01*
X010990Y024732D01*
X011040Y024738D01*
X011090Y024740D01*
X011140Y024738D01*
X011190Y024732D01*
X011239Y024722D01*
X011288Y024709D01*
X011335Y024691D01*
X011381Y024670D01*
X011424Y024646D01*
X011466Y024618D01*
X011506Y024587D01*
X011543Y024553D01*
X011577Y024516D01*
X011608Y024476D01*
X011636Y024434D01*
X011660Y024391D01*
X011681Y024345D01*
X011699Y024298D01*
X011712Y024249D01*
X011722Y024200D01*
X011728Y024150D01*
X011730Y024100D01*
X011728Y024050D01*
X011722Y024000D01*
X011712Y023951D01*
X011699Y023902D01*
X011681Y023855D01*
X011660Y023809D01*
X011636Y023766D01*
X011608Y023724D01*
X011577Y023684D01*
X011543Y023647D01*
X011506Y023613D01*
X011466Y023582D01*
X011424Y023554D01*
X011381Y023530D01*
X011335Y023509D01*
X011288Y023491D01*
X011239Y023478D01*
X011190Y023468D01*
X011140Y023462D01*
X011090Y023460D01*
X011040Y023462D01*
X010990Y023468D01*
X010941Y023478D01*
X010892Y023491D01*
X010845Y023509D01*
X010799Y023530D01*
X010756Y023554D01*
X010714Y023582D01*
X010674Y023613D01*
X010637Y023647D01*
X010603Y023684D01*
X010572Y023724D01*
X010544Y023766D01*
X010520Y023809D01*
X010499Y023855D01*
X010481Y023902D01*
X010468Y023951D01*
X010458Y024000D01*
X010452Y024050D01*
X010450Y024100D01*
X014450Y024100D02*
X014452Y024150D01*
X014458Y024200D01*
X014468Y024249D01*
X014481Y024298D01*
X014499Y024345D01*
X014520Y024391D01*
X014544Y024434D01*
X014572Y024476D01*
X014603Y024516D01*
X014637Y024553D01*
X014674Y024587D01*
X014714Y024618D01*
X014756Y024646D01*
X014799Y024670D01*
X014845Y024691D01*
X014892Y024709D01*
X014941Y024722D01*
X014990Y024732D01*
X015040Y024738D01*
X015090Y024740D01*
X015140Y024738D01*
X015190Y024732D01*
X015239Y024722D01*
X015288Y024709D01*
X015335Y024691D01*
X015381Y024670D01*
X015424Y024646D01*
X015466Y024618D01*
X015506Y024587D01*
X015543Y024553D01*
X015577Y024516D01*
X015608Y024476D01*
X015636Y024434D01*
X015660Y024391D01*
X015681Y024345D01*
X015699Y024298D01*
X015712Y024249D01*
X015722Y024200D01*
X015728Y024150D01*
X015730Y024100D01*
X015728Y024050D01*
X015722Y024000D01*
X015712Y023951D01*
X015699Y023902D01*
X015681Y023855D01*
X015660Y023809D01*
X015636Y023766D01*
X015608Y023724D01*
X015577Y023684D01*
X015543Y023647D01*
X015506Y023613D01*
X015466Y023582D01*
X015424Y023554D01*
X015381Y023530D01*
X015335Y023509D01*
X015288Y023491D01*
X015239Y023478D01*
X015190Y023468D01*
X015140Y023462D01*
X015090Y023460D01*
X015040Y023462D01*
X014990Y023468D01*
X014941Y023478D01*
X014892Y023491D01*
X014845Y023509D01*
X014799Y023530D01*
X014756Y023554D01*
X014714Y023582D01*
X014674Y023613D01*
X014637Y023647D01*
X014603Y023684D01*
X014572Y023724D01*
X014544Y023766D01*
X014520Y023809D01*
X014499Y023855D01*
X014481Y023902D01*
X014468Y023951D01*
X014458Y024000D01*
X014452Y024050D01*
X014450Y024100D01*
D11*
X016019Y024704D02*
X016019Y024918D01*
X016019Y024811D02*
X016553Y024811D01*
X016660Y024704D01*
X016660Y024598D01*
X016553Y024491D01*
X016660Y025135D02*
X016660Y025562D01*
X016660Y025349D02*
X016019Y025349D01*
X016233Y025135D01*
X017140Y024950D02*
X017140Y026250D01*
X017142Y026276D01*
X017147Y026302D01*
X017155Y026327D01*
X017167Y026350D01*
X017181Y026372D01*
X017199Y026391D01*
X017218Y026409D01*
X017240Y026423D01*
X017263Y026435D01*
X017288Y026443D01*
X017314Y026448D01*
X017340Y026450D01*
X017840Y026450D01*
X017866Y026448D01*
X017892Y026443D01*
X017917Y026435D01*
X017940Y026423D01*
X017962Y026409D01*
X017981Y026391D01*
X017999Y026372D01*
X018013Y026350D01*
X018025Y026327D01*
X018033Y026302D01*
X018038Y026276D01*
X018040Y026250D01*
X018040Y024950D01*
X018038Y024924D01*
X018033Y024898D01*
X018025Y024873D01*
X018013Y024850D01*
X017999Y024828D01*
X017981Y024809D01*
X017962Y024791D01*
X017940Y024777D01*
X017917Y024765D01*
X017892Y024757D01*
X017866Y024752D01*
X017840Y024750D01*
X017340Y024750D01*
X017314Y024752D01*
X017288Y024757D01*
X017263Y024765D01*
X017240Y024777D01*
X017218Y024791D01*
X017199Y024809D01*
X017181Y024828D01*
X017167Y024850D01*
X017155Y024873D01*
X017147Y024898D01*
X017142Y024924D01*
X017140Y024950D01*
X019090Y025200D02*
X019090Y024450D01*
X027090Y024450D01*
X027090Y026750D01*
X019090Y026750D01*
X019090Y026000D01*
X019129Y025998D01*
X019168Y025992D01*
X019206Y025983D01*
X019243Y025970D01*
X019279Y025953D01*
X019312Y025933D01*
X019344Y025909D01*
X019373Y025883D01*
X019399Y025854D01*
X019423Y025822D01*
X019443Y025789D01*
X019460Y025753D01*
X019473Y025716D01*
X019482Y025678D01*
X019488Y025639D01*
X019490Y025600D01*
X019488Y025561D01*
X019482Y025522D01*
X019473Y025484D01*
X019460Y025447D01*
X019443Y025411D01*
X019423Y025378D01*
X019399Y025346D01*
X019373Y025317D01*
X019344Y025291D01*
X019312Y025267D01*
X019279Y025247D01*
X019243Y025230D01*
X019206Y025217D01*
X019168Y025208D01*
X019129Y025202D01*
X019090Y025200D01*
X009040Y017500D02*
X006640Y017500D01*
X006590Y017498D01*
X006541Y017492D01*
X006492Y017483D01*
X006444Y017470D01*
X006397Y017453D01*
X006352Y017433D01*
X006308Y017409D01*
X006266Y017382D01*
X006226Y017351D01*
X006189Y017318D01*
X006155Y017282D01*
X006123Y017244D01*
X006094Y017203D01*
X006069Y017161D01*
X006047Y017116D01*
X006028Y017070D01*
X006013Y017022D01*
X006002Y016974D01*
X005994Y016925D01*
X005990Y016875D01*
X005990Y016825D01*
X005994Y016775D01*
X006002Y016726D01*
X006013Y016678D01*
X006028Y016630D01*
X006047Y016584D01*
X006069Y016539D01*
X006094Y016497D01*
X006123Y016456D01*
X006155Y016418D01*
X006189Y016382D01*
X006226Y016349D01*
X006266Y016318D01*
X006308Y016291D01*
X006352Y016267D01*
X006397Y016247D01*
X006444Y016230D01*
X006492Y016217D01*
X006541Y016208D01*
X006590Y016202D01*
X006640Y016200D01*
X009040Y016200D01*
X009090Y016202D01*
X009139Y016208D01*
X009188Y016217D01*
X009236Y016230D01*
X009283Y016247D01*
X009328Y016267D01*
X009372Y016291D01*
X009414Y016318D01*
X009454Y016349D01*
X009491Y016382D01*
X009525Y016418D01*
X009557Y016456D01*
X009586Y016497D01*
X009611Y016539D01*
X009633Y016584D01*
X009652Y016630D01*
X009667Y016678D01*
X009678Y016726D01*
X009686Y016775D01*
X009690Y016825D01*
X009690Y016875D01*
X009686Y016925D01*
X009678Y016974D01*
X009667Y017022D01*
X009652Y017070D01*
X009633Y017116D01*
X009611Y017161D01*
X009586Y017203D01*
X009557Y017244D01*
X009525Y017282D01*
X009491Y017318D01*
X009454Y017351D01*
X009414Y017382D01*
X009372Y017409D01*
X009328Y017433D01*
X009283Y017453D01*
X009236Y017470D01*
X009188Y017483D01*
X009139Y017492D01*
X009090Y017498D01*
X009040Y017500D01*
X008340Y016850D02*
X008090Y016850D01*
X008090Y016550D01*
X007940Y016550D02*
X007740Y016550D01*
X007740Y017150D01*
X007940Y017150D01*
X007940Y016550D01*
X008090Y016850D02*
X008090Y017150D01*
X007590Y017150D02*
X007590Y016850D01*
X007340Y016850D01*
X007590Y016850D02*
X007590Y016550D01*
X007090Y014700D02*
X006590Y014700D01*
X006564Y014698D01*
X006538Y014693D01*
X006513Y014685D01*
X006490Y014673D01*
X006468Y014659D01*
X006449Y014641D01*
X006431Y014622D01*
X006417Y014600D01*
X006405Y014577D01*
X006397Y014552D01*
X006392Y014526D01*
X006390Y014500D01*
X006390Y013200D01*
X006392Y013174D01*
X006397Y013148D01*
X006405Y013123D01*
X006417Y013100D01*
X006431Y013078D01*
X006449Y013059D01*
X006468Y013041D01*
X006490Y013027D01*
X006513Y013015D01*
X006538Y013007D01*
X006564Y013002D01*
X006590Y013000D01*
X007090Y013000D01*
X007116Y013002D01*
X007142Y013007D01*
X007167Y013015D01*
X007190Y013027D01*
X007212Y013041D01*
X007231Y013059D01*
X007249Y013078D01*
X007263Y013100D01*
X007275Y013123D01*
X007283Y013148D01*
X007288Y013174D01*
X007290Y013200D01*
X007290Y014500D01*
X007288Y014526D01*
X007283Y014552D01*
X007275Y014577D01*
X007263Y014600D01*
X007249Y014622D01*
X007231Y014641D01*
X007212Y014659D01*
X007190Y014673D01*
X007167Y014685D01*
X007142Y014693D01*
X007116Y014698D01*
X007090Y014700D01*
X008390Y014500D02*
X008390Y013200D01*
X008392Y013174D01*
X008397Y013148D01*
X008405Y013123D01*
X008417Y013100D01*
X008431Y013078D01*
X008449Y013059D01*
X008468Y013041D01*
X008490Y013027D01*
X008513Y013015D01*
X008538Y013007D01*
X008564Y013002D01*
X008590Y013000D01*
X009090Y013000D01*
X009116Y013002D01*
X009142Y013007D01*
X009167Y013015D01*
X009190Y013027D01*
X009212Y013041D01*
X009231Y013059D01*
X009249Y013078D01*
X009263Y013100D01*
X009275Y013123D01*
X009283Y013148D01*
X009288Y013174D01*
X009290Y013200D01*
X009290Y014500D01*
X009288Y014526D01*
X009283Y014552D01*
X009275Y014577D01*
X009263Y014600D01*
X009249Y014622D01*
X009231Y014641D01*
X009212Y014659D01*
X009190Y014673D01*
X009167Y014685D01*
X009142Y014693D01*
X009116Y014698D01*
X009090Y014700D01*
X008590Y014700D01*
X008564Y014698D01*
X008538Y014693D01*
X008513Y014685D01*
X008490Y014673D01*
X008468Y014659D01*
X008449Y014641D01*
X008431Y014622D01*
X008417Y014600D01*
X008405Y014577D01*
X008397Y014552D01*
X008392Y014526D01*
X008390Y014500D01*
X011840Y015300D02*
X011840Y001350D01*
X013840Y001350D01*
X013840Y015350D01*
X013340Y015350D01*
X013338Y015306D01*
X013332Y015263D01*
X013323Y015221D01*
X013310Y015179D01*
X013293Y015139D01*
X013273Y015100D01*
X013250Y015063D01*
X013223Y015029D01*
X013194Y014996D01*
X013161Y014967D01*
X013127Y014940D01*
X013090Y014917D01*
X013051Y014897D01*
X013011Y014880D01*
X012969Y014867D01*
X012927Y014858D01*
X012884Y014852D01*
X012840Y014850D01*
X012796Y014852D01*
X012753Y014858D01*
X012711Y014867D01*
X012669Y014880D01*
X012629Y014897D01*
X012590Y014917D01*
X012553Y014940D01*
X012519Y014967D01*
X012486Y014996D01*
X012457Y015029D01*
X012430Y015063D01*
X012407Y015100D01*
X012387Y015139D01*
X012370Y015179D01*
X012357Y015221D01*
X012348Y015263D01*
X012342Y015306D01*
X012340Y015350D01*
X011840Y015350D01*
X007840Y019100D02*
X007840Y021100D01*
X006840Y021100D01*
X006840Y019100D01*
X007840Y019100D01*
X004210Y019893D02*
X003870Y020120D01*
X003926Y020262D02*
X003870Y020318D01*
X003870Y020432D01*
X003926Y020489D01*
X003983Y020489D01*
X004210Y020262D01*
X004210Y020489D01*
X004210Y020120D02*
X003870Y019893D01*
X002873Y021630D02*
X003086Y021844D01*
X003086Y022271D01*
X002659Y022271D02*
X002659Y021844D01*
X002873Y021630D01*
X002442Y021630D02*
X002015Y021630D01*
X002442Y022057D01*
X002442Y022164D01*
X002335Y022271D01*
X002121Y022271D01*
X002015Y022164D01*
X001584Y022271D02*
X001584Y021630D01*
X001797Y021630D02*
X001370Y021630D01*
X001370Y022057D02*
X001584Y022271D01*
X003840Y025350D02*
X003842Y025448D01*
X003850Y025546D01*
X003862Y025643D01*
X003878Y025740D01*
X003900Y025836D01*
X003926Y025931D01*
X003957Y026024D01*
X003992Y026115D01*
X004032Y026205D01*
X004076Y026293D01*
X004125Y026378D01*
X004177Y026461D01*
X004234Y026541D01*
X004294Y026619D01*
X004358Y026693D01*
X004426Y026764D01*
X004497Y026832D01*
X004571Y026896D01*
X004649Y026956D01*
X004729Y027013D01*
X004812Y027065D01*
X004897Y027114D01*
X004985Y027158D01*
X005075Y027198D01*
X005166Y027233D01*
X005259Y027264D01*
X005354Y027290D01*
X005450Y027312D01*
X005547Y027328D01*
X005644Y027340D01*
X005742Y027348D01*
X005840Y027350D01*
X005938Y027348D01*
X006036Y027340D01*
X006133Y027328D01*
X006230Y027312D01*
X006326Y027290D01*
X006421Y027264D01*
X006514Y027233D01*
X006605Y027198D01*
X006695Y027158D01*
X006783Y027114D01*
X006868Y027065D01*
X006951Y027013D01*
X007031Y026956D01*
X007109Y026896D01*
X007183Y026832D01*
X007254Y026764D01*
X007322Y026693D01*
X007386Y026619D01*
X007446Y026541D01*
X007503Y026461D01*
X007555Y026378D01*
X007604Y026293D01*
X007648Y026205D01*
X007688Y026115D01*
X007723Y026024D01*
X007754Y025931D01*
X007780Y025836D01*
X007802Y025740D01*
X007818Y025643D01*
X007830Y025546D01*
X007838Y025448D01*
X007840Y025350D01*
X007838Y025252D01*
X007830Y025154D01*
X007818Y025057D01*
X007802Y024960D01*
X007780Y024864D01*
X007754Y024769D01*
X007723Y024676D01*
X007688Y024585D01*
X007648Y024495D01*
X007604Y024407D01*
X007555Y024322D01*
X007503Y024239D01*
X007446Y024159D01*
X007386Y024081D01*
X007322Y024007D01*
X007254Y023936D01*
X007183Y023868D01*
X007109Y023804D01*
X007031Y023744D01*
X006951Y023687D01*
X006868Y023635D01*
X006783Y023586D01*
X006695Y023542D01*
X006605Y023502D01*
X006514Y023467D01*
X006421Y023436D01*
X006326Y023410D01*
X006230Y023388D01*
X006133Y023372D01*
X006036Y023360D01*
X005938Y023352D01*
X005840Y023350D01*
X005742Y023352D01*
X005644Y023360D01*
X005547Y023372D01*
X005450Y023388D01*
X005354Y023410D01*
X005259Y023436D01*
X005166Y023467D01*
X005075Y023502D01*
X004985Y023542D01*
X004897Y023586D01*
X004812Y023635D01*
X004729Y023687D01*
X004649Y023744D01*
X004571Y023804D01*
X004497Y023868D01*
X004426Y023936D01*
X004358Y024007D01*
X004294Y024081D01*
X004234Y024159D01*
X004177Y024239D01*
X004125Y024322D01*
X004076Y024407D01*
X004032Y024495D01*
X003992Y024585D01*
X003957Y024676D01*
X003926Y024769D01*
X003900Y024864D01*
X003878Y024960D01*
X003862Y025057D01*
X003850Y025154D01*
X003842Y025252D01*
X003840Y025350D01*
X006140Y026550D02*
X006440Y026550D01*
X006290Y026700D02*
X006290Y026400D01*
X018840Y017250D02*
X018840Y016500D01*
X018879Y016498D01*
X018918Y016492D01*
X018956Y016483D01*
X018993Y016470D01*
X019029Y016453D01*
X019062Y016433D01*
X019094Y016409D01*
X019123Y016383D01*
X019149Y016354D01*
X019173Y016322D01*
X019193Y016289D01*
X019210Y016253D01*
X019223Y016216D01*
X019232Y016178D01*
X019238Y016139D01*
X019240Y016100D01*
X019238Y016061D01*
X019232Y016022D01*
X019223Y015984D01*
X019210Y015947D01*
X019193Y015911D01*
X019173Y015878D01*
X019149Y015846D01*
X019123Y015817D01*
X019094Y015791D01*
X019062Y015767D01*
X019029Y015747D01*
X018993Y015730D01*
X018956Y015717D01*
X018918Y015708D01*
X018879Y015702D01*
X018840Y015700D01*
X018840Y014950D01*
X026840Y014950D01*
X026840Y017250D01*
X018840Y017250D01*
X029340Y017500D02*
X029379Y017498D01*
X029418Y017492D01*
X029456Y017483D01*
X029493Y017470D01*
X029529Y017453D01*
X029562Y017433D01*
X029594Y017409D01*
X029623Y017383D01*
X029649Y017354D01*
X029673Y017322D01*
X029693Y017289D01*
X029710Y017253D01*
X029723Y017216D01*
X029732Y017178D01*
X029738Y017139D01*
X029740Y017100D01*
X029738Y017061D01*
X029732Y017022D01*
X029723Y016984D01*
X029710Y016947D01*
X029693Y016911D01*
X029673Y016878D01*
X029649Y016846D01*
X029623Y016817D01*
X029594Y016791D01*
X029562Y016767D01*
X029529Y016747D01*
X029493Y016730D01*
X029456Y016717D01*
X029418Y016708D01*
X029379Y016702D01*
X029340Y016700D01*
X029340Y015950D01*
X036340Y015950D01*
X036340Y018250D01*
X029340Y018250D01*
X029340Y017500D01*
X029340Y021450D02*
X029340Y022200D01*
X029379Y022202D01*
X029418Y022208D01*
X029456Y022217D01*
X029493Y022230D01*
X029529Y022247D01*
X029562Y022267D01*
X029594Y022291D01*
X029623Y022317D01*
X029649Y022346D01*
X029673Y022378D01*
X029693Y022411D01*
X029710Y022447D01*
X029723Y022484D01*
X029732Y022522D01*
X029738Y022561D01*
X029740Y022600D01*
X029738Y022639D01*
X029732Y022678D01*
X029723Y022716D01*
X029710Y022753D01*
X029693Y022789D01*
X029673Y022822D01*
X029649Y022854D01*
X029623Y022883D01*
X029594Y022909D01*
X029562Y022933D01*
X029529Y022953D01*
X029493Y022970D01*
X029456Y022983D01*
X029418Y022992D01*
X029379Y022998D01*
X029340Y023000D01*
X029340Y023750D01*
X036340Y023750D01*
X036340Y021450D01*
X029340Y021450D01*
X030383Y024730D02*
X030610Y025070D01*
X030752Y024957D02*
X030865Y025070D01*
X030865Y024730D01*
X030752Y024730D02*
X030979Y024730D01*
X030610Y024730D02*
X030383Y025070D01*
X031620Y026630D02*
X031620Y027271D01*
X031620Y026950D02*
X032047Y026950D01*
X032047Y026630D02*
X032047Y027271D01*
X032265Y027271D02*
X032478Y027271D01*
X032371Y027271D02*
X032371Y026630D01*
X032265Y026630D02*
X032478Y026630D01*
X032694Y026844D02*
X032908Y026630D01*
X033121Y026844D01*
X033121Y027271D01*
X032694Y027271D02*
X032694Y026844D01*
X029340Y012500D02*
X029340Y011750D01*
X029379Y011748D01*
X029418Y011742D01*
X029456Y011733D01*
X029493Y011720D01*
X029529Y011703D01*
X029562Y011683D01*
X029594Y011659D01*
X029623Y011633D01*
X029649Y011604D01*
X029673Y011572D01*
X029693Y011539D01*
X029710Y011503D01*
X029723Y011466D01*
X029732Y011428D01*
X029738Y011389D01*
X029740Y011350D01*
X029738Y011311D01*
X029732Y011272D01*
X029723Y011234D01*
X029710Y011197D01*
X029693Y011161D01*
X029673Y011128D01*
X029649Y011096D01*
X029623Y011067D01*
X029594Y011041D01*
X029562Y011017D01*
X029529Y010997D01*
X029493Y010980D01*
X029456Y010967D01*
X029418Y010958D01*
X029379Y010952D01*
X029340Y010950D01*
X029340Y010200D01*
X036340Y010200D01*
X036340Y012500D01*
X029340Y012500D01*
X022840Y008000D02*
X022840Y005700D01*
X018840Y005700D01*
X018840Y006450D01*
X018879Y006452D01*
X018918Y006458D01*
X018956Y006467D01*
X018993Y006480D01*
X019029Y006497D01*
X019062Y006517D01*
X019094Y006541D01*
X019123Y006567D01*
X019149Y006596D01*
X019173Y006628D01*
X019193Y006661D01*
X019210Y006697D01*
X019223Y006734D01*
X019232Y006772D01*
X019238Y006811D01*
X019240Y006850D01*
X019238Y006889D01*
X019232Y006928D01*
X019223Y006966D01*
X019210Y007003D01*
X019193Y007039D01*
X019173Y007072D01*
X019149Y007104D01*
X019123Y007133D01*
X019094Y007159D01*
X019062Y007183D01*
X019029Y007203D01*
X018993Y007220D01*
X018956Y007233D01*
X018918Y007242D01*
X018879Y007248D01*
X018840Y007250D01*
X018840Y008000D01*
X022840Y008000D01*
X023190Y005750D02*
X026990Y005750D01*
X026990Y001650D01*
X023190Y001650D01*
X023190Y005750D01*
X019465Y004470D02*
X019238Y004470D01*
X019238Y004300D01*
X019352Y004357D01*
X019408Y004357D01*
X019465Y004300D01*
X019465Y004187D01*
X019408Y004130D01*
X019295Y004130D01*
X019238Y004187D01*
X019097Y004130D02*
X018870Y004470D01*
X019097Y004470D02*
X018870Y004130D01*
X016290Y005700D02*
X016290Y007000D01*
X016288Y007026D01*
X016283Y007052D01*
X016275Y007077D01*
X016263Y007100D01*
X016249Y007122D01*
X016231Y007141D01*
X016212Y007159D01*
X016190Y007173D01*
X016167Y007185D01*
X016142Y007193D01*
X016116Y007198D01*
X016090Y007200D01*
X015590Y007200D01*
X015564Y007198D01*
X015538Y007193D01*
X015513Y007185D01*
X015490Y007173D01*
X015468Y007159D01*
X015449Y007141D01*
X015431Y007122D01*
X015417Y007100D01*
X015405Y007077D01*
X015397Y007052D01*
X015392Y007026D01*
X015390Y007000D01*
X015390Y005700D01*
X015392Y005674D01*
X015397Y005648D01*
X015405Y005623D01*
X015417Y005600D01*
X015431Y005578D01*
X015449Y005559D01*
X015468Y005541D01*
X015490Y005527D01*
X015513Y005515D01*
X015538Y005507D01*
X015564Y005502D01*
X015590Y005500D01*
X016090Y005500D01*
X016116Y005502D01*
X016142Y005507D01*
X016167Y005515D01*
X016190Y005527D01*
X016212Y005541D01*
X016231Y005559D01*
X016249Y005578D01*
X016263Y005600D01*
X016275Y005623D01*
X016283Y005648D01*
X016288Y005674D01*
X016290Y005700D01*
X018927Y000970D02*
X018870Y000914D01*
X018870Y000857D01*
X018927Y000800D01*
X019040Y000800D01*
X019097Y000743D01*
X019097Y000687D01*
X019040Y000630D01*
X018927Y000630D01*
X018870Y000687D01*
X018927Y000970D02*
X019040Y000970D01*
X019097Y000914D01*
X019238Y000800D02*
X019295Y000857D01*
X019408Y000857D01*
X019465Y000800D01*
X019465Y000743D01*
X019238Y000743D01*
X019238Y000687D02*
X019238Y000800D01*
X019238Y000687D02*
X019295Y000630D01*
X019408Y000630D01*
X019607Y000687D02*
X019663Y000630D01*
X019833Y000630D01*
X019975Y000687D02*
X020032Y000630D01*
X020145Y000630D01*
X020202Y000687D01*
X020202Y000800D01*
X020145Y000857D01*
X020032Y000857D01*
X019975Y000800D01*
X019975Y000687D01*
X019833Y000857D02*
X019663Y000857D01*
X019607Y000800D01*
X019607Y000687D01*
X020343Y000630D02*
X020343Y000857D01*
X020513Y000857D01*
X020570Y000800D01*
X020570Y000630D01*
X020712Y000687D02*
X020712Y000800D01*
X020768Y000857D01*
X020938Y000857D01*
X020938Y000970D02*
X020938Y000630D01*
X020768Y000630D01*
X020712Y000687D01*
X021080Y000630D02*
X021250Y000630D01*
X021307Y000687D01*
X021250Y000743D01*
X021137Y000743D01*
X021080Y000800D01*
X021137Y000857D01*
X021307Y000857D01*
X029340Y004450D02*
X029340Y005200D01*
X029379Y005202D01*
X029418Y005208D01*
X029456Y005217D01*
X029493Y005230D01*
X029529Y005247D01*
X029562Y005267D01*
X029594Y005291D01*
X029623Y005317D01*
X029649Y005346D01*
X029673Y005378D01*
X029693Y005411D01*
X029710Y005447D01*
X029723Y005484D01*
X029732Y005522D01*
X029738Y005561D01*
X029740Y005600D01*
X029738Y005639D01*
X029732Y005678D01*
X029723Y005716D01*
X029710Y005753D01*
X029693Y005789D01*
X029673Y005822D01*
X029649Y005854D01*
X029623Y005883D01*
X029594Y005909D01*
X029562Y005933D01*
X029529Y005953D01*
X029493Y005970D01*
X029456Y005983D01*
X029418Y005992D01*
X029379Y005998D01*
X029340Y006000D01*
X029340Y006750D01*
X036340Y006750D01*
X036340Y004450D01*
X029340Y004450D01*
D12*
X013890Y000924D02*
X013828Y000985D01*
X013705Y000985D01*
X013643Y000924D01*
X013890Y000924D02*
X013890Y000862D01*
X013643Y000615D01*
X013890Y000615D01*
X013522Y000615D02*
X013275Y000615D01*
X013398Y000615D02*
X013398Y000985D01*
X013275Y000862D01*
X013153Y000924D02*
X012906Y000677D01*
X012968Y000615D01*
X013092Y000615D01*
X013153Y000677D01*
X013153Y000924D01*
X013092Y000985D01*
X012968Y000985D01*
X012906Y000924D01*
X012906Y000677D01*
X012785Y000615D02*
X012538Y000615D01*
X012785Y000862D01*
X012785Y000924D01*
X012723Y000985D01*
X012600Y000985D01*
X012538Y000924D01*
X012048Y000924D02*
X011987Y000985D01*
X011863Y000985D01*
X011802Y000924D01*
X011680Y000862D02*
X011557Y000615D01*
X011433Y000862D01*
X011802Y000615D02*
X012048Y000862D01*
X012048Y000924D01*
X012048Y000615D02*
X011802Y000615D01*
X010943Y000615D02*
X010881Y000677D01*
X010881Y000924D01*
X010819Y000862D02*
X010943Y000862D01*
X010698Y000924D02*
X010698Y000800D01*
X010636Y000738D01*
X010451Y000738D01*
X010330Y000738D02*
X010083Y000738D01*
X010083Y000677D02*
X010083Y000800D01*
X010144Y000862D01*
X010268Y000862D01*
X010330Y000800D01*
X010330Y000738D01*
X010268Y000615D02*
X010144Y000615D01*
X010083Y000677D01*
X009961Y000615D02*
X009837Y000615D01*
X009899Y000615D02*
X009899Y000862D01*
X009837Y000862D01*
X009716Y000862D02*
X009469Y000615D01*
X009347Y000615D02*
X009223Y000615D01*
X009285Y000615D02*
X009285Y000862D01*
X009223Y000862D01*
X009285Y000985D02*
X009285Y001047D01*
X009102Y000985D02*
X009102Y000615D01*
X008855Y000985D01*
X008855Y000615D01*
X009469Y000862D02*
X009716Y000615D01*
X009899Y000985D02*
X009899Y001047D01*
X010451Y000985D02*
X010451Y000615D01*
X010574Y000738D02*
X010698Y000615D01*
X010698Y000924D02*
X010636Y000985D01*
X010451Y000985D01*
D13*
X012504Y007710D02*
X012504Y008025D01*
X012610Y008130D01*
X012820Y008130D01*
X012925Y008025D01*
X012925Y007710D01*
X013135Y007710D02*
X012504Y007710D01*
X012504Y008354D02*
X012504Y008565D01*
X012504Y008459D02*
X013135Y008459D01*
X013135Y008354D02*
X013135Y008565D01*
X013030Y008784D02*
X013135Y008889D01*
X013135Y009099D01*
X013030Y009204D01*
X013135Y009429D02*
X013135Y009849D01*
X013135Y009639D02*
X012504Y009639D01*
X012715Y009429D01*
X012610Y009204D02*
X012504Y009099D01*
X012504Y008889D01*
X012610Y008784D01*
X013030Y008784D01*
X013030Y010073D02*
X012820Y010073D01*
X012820Y010388D01*
X012925Y010493D01*
X013030Y010493D01*
X013135Y010388D01*
X013135Y010178D01*
X013030Y010073D01*
X012820Y010073D02*
X012610Y010283D01*
X012504Y010493D01*
X012504Y010718D02*
X012504Y011138D01*
X012610Y011362D02*
X012504Y011467D01*
X012504Y011678D01*
X012610Y011783D01*
X012715Y011783D01*
X012820Y011678D01*
X012820Y011467D01*
X012715Y011362D01*
X012610Y011362D01*
X012820Y011467D02*
X012925Y011362D01*
X013030Y011362D01*
X013135Y011467D01*
X013135Y011678D01*
X013030Y011783D01*
X012925Y011783D01*
X012820Y011678D01*
X013030Y012007D02*
X013135Y012007D01*
X013030Y012007D02*
X012610Y012427D01*
X012504Y012427D01*
X012504Y012007D01*
X012820Y012651D02*
X012820Y012967D01*
X012925Y013072D01*
X013030Y013072D01*
X013135Y012967D01*
X013135Y012756D01*
X013030Y012651D01*
X012820Y012651D01*
X012610Y012862D01*
X012504Y013072D01*
X012610Y013296D02*
X012504Y013401D01*
X012504Y013611D01*
X012610Y013716D01*
X012820Y013611D02*
X012925Y013716D01*
X013030Y013716D01*
X013135Y013611D01*
X013135Y013401D01*
X013030Y013296D01*
X012820Y013401D02*
X012820Y013611D01*
X012820Y013401D02*
X012715Y013296D01*
X012610Y013296D01*
X012504Y013940D02*
X012504Y014256D01*
X012610Y014361D01*
X012820Y014361D01*
X012925Y014256D01*
X012925Y013940D01*
X013135Y013940D02*
X012504Y013940D01*
X012410Y015435D02*
X012620Y015435D01*
X012725Y015540D01*
X012949Y015540D02*
X013054Y015435D01*
X013265Y015435D01*
X013370Y015540D01*
X013370Y015645D01*
X013265Y015750D01*
X013159Y015750D01*
X013265Y015750D02*
X013370Y015855D01*
X013370Y015960D01*
X013265Y016066D01*
X013054Y016066D01*
X012949Y015960D01*
X012725Y015960D02*
X012620Y016066D01*
X012410Y016066D01*
X012305Y015960D01*
X012305Y015540D01*
X012410Y015435D01*
X012085Y015435D02*
X011875Y015435D01*
X011980Y015435D02*
X011980Y016066D01*
X011875Y016066D02*
X012085Y016066D01*
X012820Y010928D02*
X012820Y010718D01*
X013135Y010718D02*
X012504Y010718D01*
D14*
X012440Y019750D02*
X012440Y020250D01*
X012240Y020250D01*
X012240Y019752D01*
X012240Y019750D01*
X012240Y019752D02*
X011940Y019752D01*
X011940Y019750D02*
X011940Y021250D01*
X011740Y021250D01*
X011740Y019750D01*
X010507Y019752D01*
X010507Y027855D01*
X010540Y027900D02*
X015640Y027900D01*
X015673Y027855D02*
X015673Y019752D01*
X014440Y019750D01*
X014440Y020250D01*
X014240Y020250D01*
X014240Y019752D01*
X014240Y019750D01*
X014240Y019752D02*
X013940Y019752D01*
X013940Y021250D01*
X013740Y021250D01*
X013740Y019750D01*
X013440Y019750D01*
X013440Y020250D01*
X013240Y020250D01*
X013240Y019750D01*
X012940Y019750D01*
X012940Y021250D01*
X012740Y021250D01*
X012740Y019750D01*
X012440Y019750D01*
X013940Y019750D02*
X013940Y019752D01*
D15*
X015665Y026825D02*
X010515Y026825D01*
D16*
X010340Y026625D03*
X015840Y026625D03*
D17*
X008270Y020992D02*
X008270Y020752D01*
X008270Y020872D02*
X007910Y020872D01*
X008030Y020752D01*
X007970Y020624D02*
X007910Y020564D01*
X007910Y020383D01*
X008270Y020383D01*
X008270Y020564D01*
X008210Y020624D01*
X007970Y020624D01*
X007910Y020255D02*
X007910Y020015D01*
X008270Y020015D01*
X008270Y020255D01*
X008090Y020135D02*
X008090Y020015D01*
X008270Y019887D02*
X008270Y019647D01*
X007910Y019647D01*
D18*
X007340Y019200D03*
D19*
X006475Y019360D02*
X006400Y019285D01*
X006475Y019360D02*
X006475Y019510D01*
X006400Y019585D01*
X006325Y019585D01*
X006250Y019510D01*
X006250Y019435D01*
X006250Y019510D02*
X006175Y019585D01*
X006100Y019585D01*
X006025Y019510D01*
X006025Y019360D01*
X006100Y019285D01*
X006100Y019745D02*
X006025Y019820D01*
X006025Y019971D01*
X006100Y020046D01*
X006175Y020046D01*
X006250Y019971D01*
X006325Y020046D01*
X006400Y020046D01*
X006475Y019971D01*
X006475Y019820D01*
X006400Y019745D01*
X006250Y019896D02*
X006250Y019971D01*
X006400Y020206D02*
X006100Y020206D01*
X006025Y020281D01*
X006025Y020431D01*
X006100Y020506D01*
X006400Y020206D01*
X006475Y020281D01*
X006475Y020431D01*
X006400Y020506D01*
X006100Y020506D01*
X005105Y019971D02*
X004655Y019971D01*
X004880Y019745D01*
X004880Y020046D01*
X004880Y019585D02*
X004730Y019585D01*
X004655Y019510D01*
X004655Y019285D01*
X005105Y019285D01*
X004955Y019285D02*
X004955Y019510D01*
X004880Y019585D01*
X004955Y019435D02*
X005105Y019585D01*
X005940Y018375D02*
X005865Y018300D01*
X005865Y018000D01*
X005940Y017925D01*
X006090Y017925D01*
X006165Y018000D01*
X006165Y018300D01*
X006090Y018375D01*
X005940Y018375D01*
X006015Y018075D02*
X006165Y017925D01*
X006325Y017925D02*
X006626Y018225D01*
X006626Y018300D01*
X006551Y018375D01*
X006400Y018375D01*
X006325Y018300D01*
X006325Y017925D02*
X006626Y017925D01*
X006551Y015775D02*
X006626Y015700D01*
X006325Y015400D01*
X006400Y015325D01*
X006551Y015325D01*
X006626Y015400D01*
X006626Y015700D01*
X006551Y015775D02*
X006400Y015775D01*
X006325Y015700D01*
X006325Y015400D01*
X006165Y015325D02*
X005865Y015325D01*
X006165Y015625D01*
X006165Y015700D01*
X006090Y015775D01*
X005940Y015775D01*
X005865Y015700D01*
X006786Y015775D02*
X006786Y015325D01*
X007086Y015325D02*
X007086Y015775D01*
X006936Y015625D01*
X006786Y015775D01*
X007246Y015550D02*
X007321Y015625D01*
X007471Y015625D01*
X007546Y015550D01*
X007546Y015475D01*
X007246Y015475D01*
X007246Y015400D02*
X007246Y015550D01*
X007246Y015400D02*
X007321Y015325D01*
X007471Y015325D01*
X007707Y015400D02*
X007782Y015325D01*
X008007Y015325D01*
X008007Y015250D02*
X008007Y015625D01*
X007782Y015625D01*
X007707Y015550D01*
X007707Y015400D01*
X007857Y015175D02*
X007932Y015175D01*
X008007Y015250D01*
X007965Y013936D02*
X007890Y013936D01*
X007815Y013861D01*
X007815Y013710D01*
X007890Y013635D01*
X007890Y013475D02*
X007815Y013400D01*
X007815Y013250D01*
X007890Y013175D01*
X008190Y013175D01*
X008265Y013250D01*
X008265Y013400D01*
X008190Y013475D01*
X008265Y013635D02*
X007965Y013936D01*
X008265Y013936D02*
X008265Y013635D01*
X008412Y012875D02*
X008337Y012800D01*
X008412Y012875D02*
X008562Y012875D01*
X008638Y012800D01*
X008638Y012725D01*
X008337Y012425D01*
X008638Y012425D01*
X008798Y012425D02*
X009023Y012425D01*
X009098Y012500D01*
X009098Y012650D01*
X009023Y012725D01*
X008798Y012725D01*
X008798Y012275D01*
X008177Y012425D02*
X007877Y012425D01*
X008177Y012725D01*
X008177Y012800D01*
X008102Y012875D01*
X007952Y012875D01*
X007877Y012800D01*
X007722Y012500D02*
X007722Y012425D01*
X007647Y012425D01*
X007647Y012500D01*
X007722Y012500D01*
X007408Y012650D02*
X007258Y012650D01*
X007098Y012650D02*
X007098Y012500D01*
X007023Y012425D01*
X006798Y012425D01*
X006798Y012275D02*
X006798Y012725D01*
X007023Y012725D01*
X007098Y012650D01*
X007333Y012800D02*
X007333Y012425D01*
X006638Y012425D02*
X006337Y012425D01*
X006638Y012725D01*
X006638Y012800D01*
X006562Y012875D01*
X006412Y012875D01*
X006337Y012800D01*
X006177Y012800D02*
X006177Y012725D01*
X005877Y012425D01*
X006177Y012425D01*
X005722Y012425D02*
X005722Y012500D01*
X005647Y012500D01*
X005647Y012425D01*
X005722Y012425D01*
X005877Y012800D02*
X005952Y012875D01*
X006102Y012875D01*
X006177Y012800D01*
X006190Y013175D02*
X006265Y013250D01*
X006265Y013400D01*
X006190Y013475D01*
X006190Y013635D02*
X006265Y013710D01*
X006265Y013861D01*
X006190Y013936D01*
X006115Y013936D01*
X006040Y013861D01*
X006040Y013786D01*
X006040Y013861D02*
X005965Y013936D01*
X005890Y013936D01*
X005815Y013861D01*
X005815Y013710D01*
X005890Y013635D01*
X005890Y013475D02*
X005815Y013400D01*
X005815Y013250D01*
X005890Y013175D01*
X006190Y013175D01*
X007333Y012800D02*
X007408Y012875D01*
X007590Y011350D02*
X005590Y011350D01*
X005590Y009350D01*
X005090Y009350D01*
X005090Y005350D01*
X005590Y005350D01*
X005590Y003350D01*
X007590Y003350D01*
X007590Y011350D01*
X009333Y012425D02*
X009333Y012800D01*
X009408Y012875D01*
X009408Y012650D02*
X009258Y012650D01*
X010605Y015584D02*
X010455Y015734D01*
X010905Y015734D01*
X010905Y015584D02*
X010905Y015884D01*
X010830Y016044D02*
X010530Y016044D01*
X010455Y016119D01*
X010455Y016269D01*
X010530Y016344D01*
X010830Y016044D01*
X010905Y016119D01*
X010905Y016269D01*
X010830Y016344D01*
X010530Y016344D01*
X010455Y016505D02*
X010905Y016505D01*
X010755Y016505D02*
X010455Y016805D01*
X010680Y016580D02*
X010905Y016805D01*
X011825Y016655D02*
X012275Y016655D01*
X012275Y016505D02*
X012275Y016805D01*
X011975Y016505D02*
X011825Y016655D01*
X011900Y016344D02*
X012050Y016344D01*
X012125Y016269D01*
X012125Y016044D01*
X012275Y016044D02*
X011825Y016044D01*
X011825Y016269D01*
X011900Y016344D01*
X012125Y016194D02*
X012275Y016344D01*
X018025Y012785D02*
X018025Y012335D01*
X018025Y012485D02*
X018250Y012485D01*
X018325Y012560D01*
X018325Y012710D01*
X018250Y012785D01*
X018025Y012785D01*
X018175Y012485D02*
X018325Y012335D01*
X018485Y012335D02*
X018786Y012635D01*
X018786Y012710D01*
X018711Y012785D01*
X018560Y012785D01*
X018485Y012710D01*
X018485Y012335D02*
X018786Y012335D01*
X018485Y011415D02*
X018485Y010965D01*
X018485Y011115D02*
X018711Y010965D01*
X018485Y011115D02*
X018711Y011265D01*
X018325Y010965D02*
X018025Y010965D01*
X018175Y010965D02*
X018175Y011415D01*
X018025Y011265D01*
X020025Y011965D02*
X020325Y011965D01*
X020175Y011965D02*
X020175Y012415D01*
X020025Y012265D01*
X020485Y012115D02*
X020786Y012415D01*
X020485Y012415D02*
X020485Y011965D01*
X020560Y012190D02*
X020786Y011965D01*
X022025Y011965D02*
X022325Y011965D01*
X022175Y011965D02*
X022175Y012415D01*
X022025Y012265D01*
X022485Y012115D02*
X022786Y012415D01*
X022485Y012415D02*
X022485Y011965D01*
X022560Y012190D02*
X022786Y011965D01*
X024025Y011965D02*
X024325Y011965D01*
X024175Y011965D02*
X024175Y012415D01*
X024025Y012265D01*
X024485Y012115D02*
X024786Y012415D01*
X024485Y012415D02*
X024485Y011965D01*
X024560Y012190D02*
X024786Y011965D01*
X024485Y013335D02*
X024485Y013410D01*
X024786Y013710D01*
X024786Y013785D01*
X024485Y013785D01*
X024325Y013710D02*
X024325Y013560D01*
X024250Y013485D01*
X024025Y013485D01*
X024025Y013335D02*
X024025Y013785D01*
X024250Y013785D01*
X024325Y013710D01*
X024175Y013485D02*
X024325Y013335D01*
X022786Y013410D02*
X022786Y013485D01*
X022711Y013560D01*
X022485Y013560D01*
X022485Y013410D01*
X022560Y013335D01*
X022711Y013335D01*
X022786Y013410D01*
X022636Y013710D02*
X022485Y013560D01*
X022325Y013560D02*
X022325Y013710D01*
X022250Y013785D01*
X022025Y013785D01*
X022025Y013335D01*
X022025Y013485D02*
X022250Y013485D01*
X022325Y013560D01*
X022175Y013485D02*
X022325Y013335D01*
X022636Y013710D02*
X022786Y013785D01*
X020786Y013710D02*
X020786Y013635D01*
X020711Y013560D01*
X020786Y013485D01*
X020786Y013410D01*
X020711Y013335D01*
X020560Y013335D01*
X020485Y013410D01*
X020325Y013335D02*
X020175Y013485D01*
X020250Y013485D02*
X020025Y013485D01*
X020025Y013335D02*
X020025Y013785D01*
X020250Y013785D01*
X020325Y013710D01*
X020325Y013560D01*
X020250Y013485D01*
X020485Y013710D02*
X020560Y013785D01*
X020711Y013785D01*
X020786Y013710D01*
X020711Y013560D02*
X020636Y013560D01*
X018665Y014975D02*
X018665Y015125D01*
X018665Y015050D02*
X018215Y015050D01*
X018215Y014975D02*
X018215Y015125D01*
X018290Y015282D02*
X018590Y015282D01*
X018665Y015357D01*
X018665Y015507D01*
X018590Y015582D01*
X018440Y015742D02*
X018440Y016043D01*
X018665Y015968D02*
X018215Y015968D01*
X018440Y015742D01*
X018290Y015582D02*
X018215Y015507D01*
X018215Y015357D01*
X018290Y015282D01*
X019915Y015875D02*
X019915Y016175D01*
X020065Y016325D01*
X020215Y016175D01*
X020215Y015875D01*
X020375Y015875D02*
X020375Y016175D01*
X020601Y016175D01*
X020676Y016100D01*
X020676Y015875D01*
X020836Y015950D02*
X020911Y015875D01*
X021061Y015875D01*
X021136Y015950D01*
X021136Y016100D01*
X021061Y016175D01*
X020911Y016175D01*
X020836Y016100D01*
X020836Y015950D01*
X021296Y015950D02*
X021296Y016100D01*
X021371Y016175D01*
X021596Y016175D01*
X021596Y016325D02*
X021596Y015875D01*
X021371Y015875D01*
X021296Y015950D01*
X021757Y015950D02*
X021832Y015875D01*
X021982Y015875D01*
X022057Y016025D02*
X021757Y016025D01*
X021757Y015950D02*
X021757Y016100D01*
X021832Y016175D01*
X021982Y016175D01*
X022057Y016100D01*
X022057Y016025D01*
X022677Y015875D02*
X022903Y015875D01*
X022978Y015950D01*
X022978Y016250D01*
X022903Y016325D01*
X022677Y016325D01*
X022677Y015875D01*
X023138Y015875D02*
X023138Y016175D01*
X023138Y016025D02*
X023288Y016175D01*
X023363Y016175D01*
X023521Y016175D02*
X023596Y016175D01*
X023596Y015875D01*
X023521Y015875D02*
X023672Y015875D01*
X023978Y015875D02*
X024129Y016175D01*
X024289Y016100D02*
X024364Y016175D01*
X024514Y016175D01*
X024589Y016100D01*
X024589Y016025D01*
X024289Y016025D01*
X024289Y015950D02*
X024289Y016100D01*
X024289Y015950D02*
X024364Y015875D01*
X024514Y015875D01*
X024749Y015875D02*
X024749Y016175D01*
X024749Y016025D02*
X024899Y016175D01*
X024974Y016175D01*
X023978Y015875D02*
X023828Y016175D01*
X023596Y016325D02*
X023596Y016400D01*
X020215Y016100D02*
X019915Y016100D01*
X019830Y019584D02*
X019905Y019659D01*
X019905Y019809D01*
X019830Y019884D01*
X019755Y019884D01*
X019680Y019809D01*
X019680Y019734D01*
X019680Y019809D02*
X019605Y019884D01*
X019530Y019884D01*
X019455Y019809D01*
X019455Y019659D01*
X019530Y019584D01*
X019530Y020044D02*
X019455Y020119D01*
X019455Y020269D01*
X019530Y020344D01*
X019605Y020344D01*
X019680Y020269D01*
X019755Y020344D01*
X019830Y020344D01*
X019905Y020269D01*
X019905Y020119D01*
X019830Y020044D01*
X019680Y020194D02*
X019680Y020269D01*
X019755Y020505D02*
X019455Y020805D01*
X019455Y020505D02*
X019905Y020505D01*
X019680Y020580D02*
X019905Y020805D01*
X020825Y020730D02*
X020825Y020580D01*
X020900Y020505D01*
X020975Y020505D01*
X021050Y020580D01*
X021050Y020730D01*
X021125Y020805D01*
X021200Y020805D01*
X021275Y020730D01*
X021275Y020580D01*
X021200Y020505D01*
X021125Y020505D01*
X021050Y020580D01*
X021050Y020730D02*
X020975Y020805D01*
X020900Y020805D01*
X020825Y020730D01*
X020900Y020344D02*
X021050Y020344D01*
X021125Y020269D01*
X021125Y020044D01*
X021275Y020044D02*
X020825Y020044D01*
X020825Y020269D01*
X020900Y020344D01*
X021125Y020194D02*
X021275Y020344D01*
X021455Y020269D02*
X021455Y020119D01*
X021530Y020044D01*
X021530Y019884D02*
X021605Y019884D01*
X021680Y019809D01*
X021755Y019884D01*
X021830Y019884D01*
X021905Y019809D01*
X021905Y019659D01*
X021830Y019584D01*
X021680Y019734D02*
X021680Y019809D01*
X021530Y019884D02*
X021455Y019809D01*
X021455Y019659D01*
X021530Y019584D01*
X021830Y020044D02*
X021905Y020119D01*
X021905Y020269D01*
X021830Y020344D01*
X021755Y020344D01*
X021680Y020269D01*
X021680Y020194D01*
X021680Y020269D02*
X021605Y020344D01*
X021530Y020344D01*
X021455Y020269D01*
X021455Y020505D02*
X021905Y020505D01*
X021755Y020505D02*
X021455Y020805D01*
X021680Y020580D02*
X021905Y020805D01*
X022825Y020730D02*
X022825Y020580D01*
X022900Y020505D01*
X023200Y020505D01*
X022900Y020805D01*
X023200Y020805D01*
X023275Y020730D01*
X023275Y020580D01*
X023200Y020505D01*
X023275Y020344D02*
X023275Y020044D01*
X023275Y020194D02*
X022825Y020194D01*
X022975Y020044D01*
X023050Y019884D02*
X023125Y019809D01*
X023125Y019584D01*
X023125Y019734D02*
X023275Y019884D01*
X023455Y019809D02*
X023530Y019884D01*
X023605Y019884D01*
X023680Y019809D01*
X023755Y019884D01*
X023830Y019884D01*
X023905Y019809D01*
X023905Y019659D01*
X023830Y019584D01*
X023680Y019734D02*
X023680Y019809D01*
X023455Y019809D02*
X023455Y019659D01*
X023530Y019584D01*
X023275Y019584D02*
X022825Y019584D01*
X022825Y019809D01*
X022900Y019884D01*
X023050Y019884D01*
X023455Y020119D02*
X023455Y020269D01*
X023530Y020344D01*
X023605Y020344D01*
X023680Y020269D01*
X023755Y020344D01*
X023830Y020344D01*
X023905Y020269D01*
X023905Y020119D01*
X023830Y020044D01*
X023680Y020194D02*
X023680Y020269D01*
X023755Y020505D02*
X023455Y020805D01*
X023455Y020505D02*
X023905Y020505D01*
X023680Y020580D02*
X023905Y020805D01*
X022900Y020805D02*
X022825Y020730D01*
X023455Y020119D02*
X023530Y020044D01*
X024825Y020194D02*
X024975Y020044D01*
X024900Y019884D02*
X025050Y019884D01*
X025125Y019809D01*
X025125Y019584D01*
X025125Y019734D02*
X025275Y019884D01*
X025275Y020044D02*
X025275Y020344D01*
X025275Y020194D02*
X024825Y020194D01*
X024900Y019884D02*
X024825Y019809D01*
X024825Y019584D01*
X025275Y019584D01*
X025455Y019659D02*
X025455Y019809D01*
X025530Y019884D01*
X025605Y019884D01*
X025680Y019809D01*
X025755Y019884D01*
X025830Y019884D01*
X025905Y019809D01*
X025905Y019659D01*
X025830Y019584D01*
X025680Y019734D02*
X025680Y019809D01*
X025530Y019584D02*
X025455Y019659D01*
X025530Y020044D02*
X025455Y020119D01*
X025455Y020269D01*
X025530Y020344D01*
X025605Y020344D01*
X025680Y020269D01*
X025755Y020344D01*
X025830Y020344D01*
X025905Y020269D01*
X025905Y020119D01*
X025830Y020044D01*
X025680Y020194D02*
X025680Y020269D01*
X025755Y020505D02*
X025455Y020805D01*
X025275Y020805D02*
X025275Y020505D01*
X025275Y020655D02*
X024825Y020655D01*
X024975Y020505D01*
X025455Y020505D02*
X025905Y020505D01*
X025680Y020580D02*
X025905Y020805D01*
X026825Y020730D02*
X026825Y020580D01*
X026900Y020505D01*
X026825Y020730D02*
X026900Y020805D01*
X026975Y020805D01*
X027275Y020505D01*
X027275Y020805D01*
X027275Y020344D02*
X027275Y020044D01*
X027275Y020194D02*
X026825Y020194D01*
X026975Y020044D01*
X027050Y019884D02*
X027125Y019809D01*
X027125Y019584D01*
X027125Y019734D02*
X027275Y019884D01*
X027050Y019884D02*
X026900Y019884D01*
X026825Y019809D01*
X026825Y019584D01*
X027275Y019584D01*
X028715Y021425D02*
X029165Y021425D01*
X028940Y021425D02*
X028940Y021725D01*
X028715Y021725D02*
X029165Y021725D01*
X029165Y021885D02*
X028715Y021885D01*
X028715Y022111D01*
X028790Y022186D01*
X029090Y022186D01*
X029165Y022111D01*
X029165Y021885D01*
X029090Y022346D02*
X028790Y022346D01*
X028715Y022421D01*
X028715Y022571D01*
X028790Y022646D01*
X029090Y022346D01*
X029165Y022421D01*
X029165Y022571D01*
X029090Y022646D01*
X028790Y022646D01*
X030215Y022600D02*
X030515Y022600D01*
X030675Y022600D02*
X030976Y022600D01*
X031136Y022675D02*
X031211Y022675D01*
X031211Y022375D01*
X031136Y022375D02*
X031286Y022375D01*
X031443Y022375D02*
X031668Y022375D01*
X031743Y022450D01*
X031743Y022750D01*
X031668Y022825D01*
X031443Y022825D01*
X031443Y022375D01*
X030976Y022375D02*
X030976Y022825D01*
X031211Y022825D02*
X031211Y022900D01*
X030675Y022825D02*
X030675Y022375D01*
X030515Y022375D02*
X030515Y022825D01*
X030215Y022825D02*
X030215Y022375D01*
X030215Y017325D02*
X030215Y016875D01*
X030215Y017100D02*
X030515Y017100D01*
X030515Y017325D02*
X030515Y016875D01*
X030675Y016875D02*
X030976Y016875D01*
X031136Y016950D02*
X031211Y016875D01*
X031361Y016875D01*
X031436Y016950D01*
X031436Y017100D01*
X031361Y017175D01*
X031211Y017175D01*
X031136Y017100D01*
X031136Y016950D01*
X031596Y016875D02*
X031821Y016875D01*
X031896Y016950D01*
X031896Y017250D01*
X031821Y017325D01*
X031596Y017325D01*
X031596Y016875D01*
X030675Y016875D02*
X030675Y017325D01*
X029165Y017146D02*
X029165Y016846D01*
X029165Y016996D02*
X028715Y016996D01*
X028865Y016846D01*
X028790Y016686D02*
X028715Y016611D01*
X028715Y016385D01*
X029165Y016385D01*
X029165Y016611D01*
X029090Y016686D01*
X028790Y016686D01*
X028715Y016225D02*
X029165Y016225D01*
X028940Y016225D02*
X028940Y015925D01*
X029165Y015925D02*
X028715Y015925D01*
X031211Y011650D02*
X031211Y011575D01*
X031211Y011425D02*
X031211Y011125D01*
X031136Y011125D02*
X031286Y011125D01*
X031443Y011125D02*
X031443Y011575D01*
X031668Y011575D01*
X031743Y011500D01*
X031743Y011200D01*
X031668Y011125D01*
X031443Y011125D01*
X031211Y011425D02*
X031136Y011425D01*
X030976Y011350D02*
X030675Y011350D01*
X030675Y011125D02*
X030675Y011575D01*
X030515Y011575D02*
X030515Y011125D01*
X030215Y011125D02*
X030215Y011575D01*
X030365Y011425D01*
X030515Y011575D01*
X030976Y011575D02*
X030976Y011125D01*
X029165Y011096D02*
X028865Y011396D01*
X028790Y011396D01*
X028715Y011321D01*
X028715Y011171D01*
X028790Y011096D01*
X028790Y010936D02*
X028715Y010861D01*
X028715Y010635D01*
X029165Y010635D01*
X029165Y010861D01*
X029090Y010936D01*
X028790Y010936D01*
X029165Y011096D02*
X029165Y011396D01*
X029165Y010475D02*
X028715Y010475D01*
X028940Y010475D02*
X028940Y010175D01*
X029165Y010175D02*
X028715Y010175D01*
X024726Y006625D02*
X024726Y006175D01*
X024876Y006175D02*
X024575Y006175D01*
X024415Y006400D02*
X024340Y006325D01*
X024115Y006325D01*
X024115Y006175D02*
X024115Y006625D01*
X024340Y006625D01*
X024415Y006550D01*
X024415Y006400D01*
X024575Y006475D02*
X024726Y006625D01*
X022988Y006625D02*
X022688Y006625D01*
X022988Y006925D01*
X022988Y007000D01*
X022913Y007075D01*
X022763Y007075D01*
X022688Y007000D01*
X022528Y006850D02*
X022227Y006850D01*
X022067Y007000D02*
X021767Y006700D01*
X021767Y006625D01*
X021607Y006625D02*
X021307Y006625D01*
X021607Y006925D01*
X021607Y007000D01*
X021532Y007075D01*
X021382Y007075D01*
X021307Y007000D01*
X021146Y007075D02*
X020996Y007000D01*
X020846Y006850D01*
X021071Y006850D01*
X021146Y006775D01*
X021146Y006700D01*
X021071Y006625D01*
X020921Y006625D01*
X020846Y006700D01*
X020846Y006850D01*
X020686Y006850D02*
X020611Y006775D01*
X020386Y006775D01*
X020386Y006625D02*
X020386Y007075D01*
X020611Y007075D01*
X020686Y007000D01*
X020686Y006850D01*
X020226Y006625D02*
X019925Y006625D01*
X019925Y007075D01*
X019765Y007075D02*
X019465Y007075D01*
X019615Y007075D02*
X019615Y006625D01*
X018715Y006486D02*
X018715Y006185D01*
X018715Y006336D02*
X018265Y006336D01*
X018415Y006185D01*
X018265Y006025D02*
X018640Y006025D01*
X018715Y005950D01*
X018715Y005800D01*
X018640Y005725D01*
X018265Y005725D01*
X016865Y005750D02*
X016865Y005675D01*
X016790Y005675D01*
X016790Y005750D01*
X016865Y005750D01*
X016795Y005735D02*
X016495Y005435D01*
X016570Y005510D02*
X016795Y005285D01*
X016495Y005285D02*
X016495Y005735D01*
X016565Y005905D02*
X016415Y006055D01*
X016865Y006055D01*
X016865Y005905D02*
X016865Y006205D01*
X016790Y006366D02*
X016865Y006441D01*
X016865Y006666D01*
X016565Y006666D01*
X016640Y006826D02*
X016640Y006976D01*
X016490Y006901D02*
X016865Y006901D01*
X016940Y007175D02*
X016640Y007175D01*
X016565Y007250D01*
X016565Y007400D01*
X016640Y007475D01*
X016790Y007635D02*
X016790Y007861D01*
X016865Y007936D01*
X016940Y007936D01*
X017015Y007861D01*
X017015Y007710D01*
X016940Y007635D01*
X016790Y007635D01*
X016640Y007786D01*
X016565Y007936D01*
X016940Y007475D02*
X017015Y007400D01*
X017015Y007250D01*
X016940Y007175D01*
X016490Y006901D02*
X016415Y006976D01*
X016565Y006366D02*
X016790Y006366D01*
X016184Y005735D02*
X016184Y005285D01*
X016034Y005285D02*
X016334Y005285D01*
X016034Y005585D02*
X016184Y005735D01*
X016184Y004365D02*
X016184Y003915D01*
X016034Y003915D02*
X016334Y003915D01*
X016495Y003990D02*
X016570Y003915D01*
X016720Y003915D01*
X016795Y003990D01*
X016795Y004065D01*
X016720Y004140D01*
X016495Y004140D01*
X016495Y003990D01*
X016495Y004140D02*
X016645Y004290D01*
X016795Y004365D01*
X016184Y004365D02*
X016034Y004215D01*
X015874Y004140D02*
X015799Y004065D01*
X015574Y004065D01*
X015724Y004065D02*
X015874Y003915D01*
X015874Y004140D02*
X015874Y004290D01*
X015799Y004365D01*
X015574Y004365D01*
X015574Y003915D01*
X021767Y007075D02*
X022067Y007075D01*
X022067Y007000D01*
X028715Y005571D02*
X028790Y005646D01*
X028865Y005646D01*
X028940Y005571D01*
X029015Y005646D01*
X029090Y005646D01*
X029165Y005571D01*
X029165Y005421D01*
X029090Y005346D01*
X029090Y005186D02*
X028790Y005186D01*
X028715Y005111D01*
X028715Y004885D01*
X029165Y004885D01*
X029165Y005111D01*
X029090Y005186D01*
X028790Y005346D02*
X028715Y005421D01*
X028715Y005571D01*
X028940Y005571D02*
X028940Y005496D01*
X028940Y004725D02*
X028940Y004425D01*
X029165Y004425D02*
X028715Y004425D01*
X028715Y004725D02*
X029165Y004725D01*
X030215Y005375D02*
X030215Y005825D01*
X030365Y005675D01*
X030515Y005825D01*
X030515Y005375D01*
X030675Y005375D02*
X030976Y005375D01*
X031136Y005450D02*
X031211Y005375D01*
X031361Y005375D01*
X031436Y005450D01*
X031436Y005600D01*
X031361Y005675D01*
X031211Y005675D01*
X031136Y005600D01*
X031136Y005450D01*
X031596Y005375D02*
X031821Y005375D01*
X031896Y005450D01*
X031896Y005750D01*
X031821Y005825D01*
X031596Y005825D01*
X031596Y005375D01*
X030675Y005375D02*
X030675Y005825D01*
X009390Y023350D02*
X008240Y023400D01*
X008140Y023500D01*
X008140Y027200D01*
X008240Y027300D01*
X009390Y027350D01*
X009261Y027625D02*
X009111Y027625D01*
X009036Y027700D01*
X009336Y028000D01*
X009336Y027700D01*
X009261Y027625D01*
X009036Y027700D02*
X009036Y028000D01*
X009111Y028075D01*
X009261Y028075D01*
X009336Y028000D01*
X009496Y028075D02*
X009496Y027850D01*
X009646Y027925D01*
X009721Y027925D01*
X009796Y027850D01*
X009796Y027700D01*
X009721Y027625D01*
X009571Y027625D01*
X009496Y027700D01*
X009496Y028075D02*
X009796Y028075D01*
X008876Y028000D02*
X008876Y027925D01*
X008801Y027850D01*
X008650Y027850D01*
X008575Y027925D01*
X008575Y028000D01*
X008650Y028075D01*
X008801Y028075D01*
X008876Y028000D01*
X008801Y027850D02*
X008876Y027775D01*
X008876Y027700D01*
X008801Y027625D01*
X008650Y027625D01*
X008575Y027700D01*
X008575Y027775D01*
X008650Y027850D01*
X008415Y028000D02*
X008115Y027700D01*
X008115Y027625D01*
X008115Y028075D02*
X008415Y028075D01*
X008415Y028000D01*
X008280Y027120D02*
X008282Y027140D01*
X008288Y027158D01*
X008297Y027176D01*
X008309Y027191D01*
X008324Y027203D01*
X008342Y027212D01*
X008360Y027218D01*
X008380Y027220D01*
X008400Y027218D01*
X008418Y027212D01*
X008436Y027203D01*
X008451Y027191D01*
X008463Y027176D01*
X008472Y027158D01*
X008478Y027140D01*
X008480Y027120D01*
X008478Y027100D01*
X008472Y027082D01*
X008463Y027064D01*
X008451Y027049D01*
X008436Y027037D01*
X008418Y027028D01*
X008400Y027022D01*
X008380Y027020D01*
X008360Y027022D01*
X008342Y027028D01*
X008324Y027037D01*
X008309Y027049D01*
X008297Y027064D01*
X008288Y027082D01*
X008282Y027100D01*
X008280Y027120D01*
X007935Y027215D02*
X007935Y026915D01*
X007635Y027215D01*
X007560Y027215D01*
X007485Y027140D01*
X007485Y026990D01*
X007560Y026915D01*
X007560Y026754D02*
X007485Y026679D01*
X007485Y026529D01*
X007560Y026454D01*
X007860Y026454D01*
X007935Y026529D01*
X007935Y026679D01*
X007860Y026754D01*
X007715Y026465D02*
X008165Y026465D01*
X008165Y026315D02*
X008165Y026615D01*
X007935Y026297D02*
X007935Y026147D01*
X007935Y026222D02*
X007485Y026222D01*
X007485Y026147D02*
X007485Y026297D01*
X007715Y026465D02*
X007865Y026315D01*
X007790Y026154D02*
X007715Y026079D01*
X007715Y025929D01*
X007790Y025854D01*
X008090Y025854D01*
X008165Y025929D01*
X008165Y026079D01*
X008090Y026154D01*
X005115Y026208D02*
X005115Y025983D01*
X005040Y025908D01*
X004815Y025908D01*
X004815Y026208D02*
X005115Y026208D01*
X005115Y026443D02*
X004740Y026443D01*
X004665Y026518D01*
X004890Y026518D02*
X004890Y026368D01*
X004740Y025287D02*
X005040Y025287D01*
X005115Y025212D01*
X005115Y025062D01*
X005040Y024987D01*
X004740Y025287D01*
X004665Y025212D01*
X004665Y025062D01*
X004740Y024987D01*
X005040Y024987D01*
X005040Y024827D02*
X004740Y024827D01*
X005040Y024526D01*
X005115Y024602D01*
X005115Y024752D01*
X005040Y024827D01*
X004740Y024827D02*
X004665Y024752D01*
X004665Y024602D01*
X004740Y024526D01*
X005040Y024526D01*
X005040Y024366D02*
X004740Y024366D01*
X005040Y024066D01*
X005115Y024141D01*
X005115Y024291D01*
X005040Y024366D01*
X005040Y024066D02*
X004740Y024066D01*
X004665Y024141D01*
X004665Y024291D01*
X004740Y024366D01*
X005115Y023906D02*
X005115Y023606D01*
X005115Y023756D02*
X004665Y023756D01*
X004815Y023606D01*
X003700Y014555D02*
X003550Y014555D01*
X003475Y014480D01*
X003475Y014405D01*
X003550Y014255D01*
X003325Y014255D01*
X003325Y014555D01*
X003700Y014555D02*
X003775Y014480D01*
X003775Y014330D01*
X003700Y014255D01*
X003775Y014094D02*
X003625Y013944D01*
X003625Y014019D02*
X003625Y013794D01*
X003775Y013794D02*
X003325Y013794D01*
X003325Y014019D01*
X003400Y014094D01*
X003550Y014094D01*
X003625Y014019D01*
X002405Y014019D02*
X002405Y013869D01*
X002330Y013794D01*
X002030Y014094D01*
X002330Y014094D01*
X002405Y014019D01*
X002405Y014255D02*
X001955Y014255D01*
X002030Y014094D02*
X001955Y014019D01*
X001955Y013869D01*
X002030Y013794D01*
X002330Y013794D01*
X002405Y013634D02*
X002405Y013334D01*
X002405Y013484D02*
X001955Y013484D01*
X002105Y013334D01*
X002246Y012915D02*
X001946Y012615D01*
X002021Y012690D02*
X002246Y012465D01*
X001946Y012465D02*
X001946Y012915D01*
X001786Y012840D02*
X001485Y012540D01*
X001560Y012465D01*
X001711Y012465D01*
X001786Y012540D01*
X001786Y012840D01*
X001711Y012915D01*
X001560Y012915D01*
X001485Y012840D01*
X001485Y012540D01*
X001325Y012465D02*
X001025Y012465D01*
X001175Y012465D02*
X001175Y012915D01*
X001025Y012765D01*
X000775Y012834D02*
X000325Y012834D01*
X000325Y013059D01*
X000400Y013134D01*
X000550Y013134D01*
X000625Y013059D01*
X000625Y012834D01*
X000625Y012984D02*
X000775Y013134D01*
X000775Y013294D02*
X000775Y013594D01*
X000775Y013444D02*
X000325Y013444D01*
X000475Y013294D01*
X000400Y013755D02*
X000325Y013830D01*
X000325Y013980D01*
X000400Y014055D01*
X000475Y014055D01*
X000550Y013980D01*
X000625Y014055D01*
X000700Y014055D01*
X000775Y013980D01*
X000775Y013830D01*
X000700Y013755D01*
X000550Y013905D02*
X000550Y013980D01*
X001955Y014555D02*
X002255Y014255D01*
X002180Y014330D02*
X002405Y014555D01*
X016565Y025247D02*
X016715Y025097D01*
X016565Y025247D02*
X017015Y025247D01*
X017015Y025097D02*
X017015Y025398D01*
X016940Y025558D02*
X016715Y025558D01*
X016940Y025558D02*
X017015Y025633D01*
X017015Y025858D01*
X016715Y025858D01*
X016790Y026018D02*
X016790Y026168D01*
X016640Y026093D02*
X016565Y026168D01*
X016640Y026093D02*
X017015Y026093D01*
X018165Y026165D02*
X018165Y025865D01*
X018240Y025704D02*
X018165Y025629D01*
X018165Y025479D01*
X018240Y025404D01*
X018540Y025404D01*
X018615Y025479D01*
X018615Y025629D01*
X018540Y025704D01*
X018540Y025865D02*
X018615Y025865D01*
X018540Y025865D02*
X018240Y026165D01*
X018165Y026165D01*
X018915Y025543D02*
X018915Y025242D01*
X018915Y025392D02*
X018465Y025392D01*
X018615Y025242D01*
X018540Y025082D02*
X018465Y025007D01*
X018465Y024857D01*
X018540Y024782D01*
X018840Y024782D01*
X018915Y024857D01*
X018915Y025007D01*
X018840Y025082D01*
X018915Y024625D02*
X018915Y024475D01*
X018915Y024550D02*
X018465Y024550D01*
X018465Y024475D02*
X018465Y024625D01*
X017015Y024867D02*
X017015Y024942D01*
X016940Y024942D01*
X016940Y024867D01*
X017015Y024867D01*
X020165Y025375D02*
X020165Y025450D01*
X020465Y025750D01*
X020465Y025825D01*
X020165Y025825D01*
X020625Y025600D02*
X020926Y025600D01*
X021086Y025675D02*
X021236Y025825D01*
X021236Y025375D01*
X021086Y025375D02*
X021386Y025375D01*
X021546Y025600D02*
X021846Y025600D01*
X022007Y025675D02*
X022157Y025825D01*
X022157Y025375D01*
X022007Y025375D02*
X022307Y025375D01*
X021771Y025375D02*
X021771Y025825D01*
X021546Y025600D01*
X020851Y025375D02*
X020851Y025825D01*
X020625Y025600D01*
D20*
X009690Y025350D03*
D21*
X009440Y023625D03*
X009440Y027075D03*
D22*
X009440Y025850D03*
X009440Y024850D03*
D23*
X009040Y017700D02*
X006640Y017700D01*
X006583Y017698D01*
X006527Y017692D01*
X006471Y017683D01*
X006415Y017670D01*
X006361Y017653D01*
X006308Y017633D01*
X006257Y017609D01*
X006207Y017581D01*
X006159Y017551D01*
X006113Y017517D01*
X006070Y017480D01*
X006029Y017441D01*
X005991Y017399D01*
X005956Y017354D01*
X005924Y017307D01*
X005895Y017258D01*
X005869Y017208D01*
X005847Y017155D01*
X005828Y017102D01*
X005813Y017047D01*
X005802Y016991D01*
X005794Y016935D01*
X005790Y016878D01*
X005790Y016822D01*
X005794Y016765D01*
X005802Y016709D01*
X005813Y016653D01*
X005828Y016598D01*
X005847Y016545D01*
X005869Y016492D01*
X005895Y016442D01*
X005924Y016393D01*
X005956Y016346D01*
X005991Y016301D01*
X006029Y016259D01*
X006070Y016220D01*
X006113Y016183D01*
X006159Y016149D01*
X006207Y016119D01*
X006257Y016091D01*
X006308Y016067D01*
X006361Y016047D01*
X006415Y016030D01*
X006471Y016017D01*
X006527Y016008D01*
X006583Y016002D01*
X006640Y016000D01*
X009040Y016000D01*
X009097Y016002D01*
X009153Y016008D01*
X009209Y016017D01*
X009265Y016030D01*
X009319Y016047D01*
X009372Y016067D01*
X009423Y016091D01*
X009473Y016119D01*
X009521Y016149D01*
X009567Y016183D01*
X009610Y016220D01*
X009651Y016259D01*
X009689Y016301D01*
X009724Y016346D01*
X009756Y016393D01*
X009785Y016442D01*
X009811Y016492D01*
X009833Y016545D01*
X009852Y016598D01*
X009867Y016653D01*
X009878Y016709D01*
X009886Y016765D01*
X009890Y016822D01*
X009890Y016878D01*
X009886Y016935D01*
X009878Y016991D01*
X009867Y017047D01*
X009852Y017102D01*
X009833Y017155D01*
X009811Y017208D01*
X009785Y017258D01*
X009756Y017307D01*
X009724Y017354D01*
X009689Y017399D01*
X009651Y017441D01*
X009610Y017480D01*
X009567Y017517D01*
X009521Y017551D01*
X009473Y017581D01*
X009423Y017609D01*
X009372Y017633D01*
X009319Y017653D01*
X009265Y017670D01*
X009209Y017683D01*
X009153Y017692D01*
X009097Y017698D01*
X009040Y017700D01*
D24*
X009140Y013980D02*
X008540Y013980D01*
X008540Y013730D02*
X009140Y013730D01*
X007140Y013730D02*
X006540Y013730D01*
X006540Y013980D02*
X007140Y013980D01*
X015540Y006480D02*
X016140Y006480D01*
X016140Y006230D02*
X015540Y006230D01*
X017290Y025470D02*
X017890Y025470D01*
X017890Y025720D02*
X017290Y025720D01*
D25*
X020340Y020150D02*
X020340Y020050D01*
X022340Y020050D02*
X022340Y020150D01*
X024340Y020150D02*
X024340Y020050D01*
X026340Y020050D02*
X026340Y020150D01*
X024890Y012850D02*
X024790Y012850D01*
X022890Y012850D02*
X022790Y012850D01*
X020890Y012850D02*
X020790Y012850D01*
X018890Y011850D02*
X018790Y011850D01*
X011340Y016050D02*
X011340Y016150D01*
X005590Y020050D02*
X005590Y020150D01*
X002840Y013900D02*
X002840Y013800D01*
X001340Y013800D02*
X001340Y013900D01*
X016040Y004850D02*
X016140Y004850D01*
D26*
X008070Y000270D03*
X008070Y000260D03*
X008070Y000250D03*
X006640Y002080D03*
X005320Y000980D03*
X004940Y001590D03*
D27*
X004990Y001480D03*
X005000Y001810D03*
X005290Y001650D03*
X006150Y001690D03*
X006160Y001490D03*
X006530Y001990D03*
X006640Y002070D03*
X006750Y001990D03*
X007110Y001820D03*
X007120Y001810D03*
X007380Y001990D03*
X007760Y001990D03*
X007400Y001660D03*
X007410Y001480D03*
X006660Y001040D03*
X006420Y000870D03*
X006400Y000860D03*
X005960Y000840D03*
X008070Y000360D03*
X008070Y000330D03*
D28*
X008070Y000340D03*
X008070Y000350D03*
X007880Y001390D03*
X007390Y001470D03*
X007390Y001670D03*
X007140Y001800D03*
X007120Y002000D03*
X007240Y002080D03*
X006650Y001390D03*
X006940Y001040D03*
X005980Y000830D03*
X005260Y001670D03*
X005010Y001800D03*
X005120Y002080D03*
X005240Y002000D03*
X005010Y001470D03*
X008610Y001990D03*
D29*
X007875Y001430D03*
X006645Y001430D03*
X006645Y002030D03*
X005935Y002070D03*
X006165Y000770D03*
X008075Y000450D03*
X008075Y000420D03*
D30*
X008075Y000430D03*
X008075Y000440D03*
X007365Y001130D03*
X006805Y001080D03*
X006645Y001440D03*
X006645Y002020D03*
X005945Y001400D03*
X007875Y001440D03*
D31*
X008080Y000540D03*
X008080Y000520D03*
D32*
X008085Y000530D03*
X007375Y001080D03*
D33*
X008085Y000640D03*
X008085Y000610D03*
D34*
X008085Y000620D03*
X008085Y000630D03*
X007345Y000980D03*
D35*
X007065Y001590D03*
X007865Y002080D03*
X008075Y000930D03*
X008075Y000920D03*
X008075Y000910D03*
X008075Y000900D03*
X008075Y000890D03*
X008075Y000880D03*
X008075Y000870D03*
X008075Y000860D03*
X008075Y000850D03*
X008075Y000840D03*
X008075Y000830D03*
X008075Y000820D03*
X008075Y000810D03*
X008075Y000800D03*
X008075Y000790D03*
X008075Y000780D03*
X008075Y000770D03*
X008075Y000760D03*
X008075Y000750D03*
X008075Y000740D03*
X008075Y000730D03*
X008075Y000720D03*
X008075Y000710D03*
X008075Y000700D03*
X008075Y000690D03*
X008075Y000680D03*
X008075Y000670D03*
X008075Y000660D03*
X008075Y000650D03*
X005555Y002070D03*
D36*
X005555Y002050D03*
X005555Y002040D03*
X005555Y002030D03*
X005555Y002020D03*
X005555Y002010D03*
X005555Y002000D03*
X005555Y001990D03*
X005555Y001980D03*
X005555Y001970D03*
X005555Y001960D03*
X005555Y001950D03*
X005555Y001940D03*
X005555Y001930D03*
X005555Y001920D03*
X005555Y001910D03*
X005555Y001900D03*
X005555Y001890D03*
X005555Y001880D03*
X005555Y001870D03*
X005555Y001860D03*
X005555Y001850D03*
X005555Y001840D03*
X005555Y001830D03*
X005555Y001820D03*
X005555Y001810D03*
X005555Y001800D03*
X005555Y001790D03*
X005555Y001780D03*
X005555Y001770D03*
X005555Y001760D03*
X005555Y001750D03*
X005555Y001740D03*
X005555Y001730D03*
X005555Y001720D03*
X005555Y001710D03*
X005555Y001700D03*
X005555Y001690D03*
X005555Y001680D03*
X005555Y001670D03*
X005555Y001660D03*
X005555Y001650D03*
X005555Y001640D03*
X005555Y001630D03*
X005555Y001620D03*
X005555Y001610D03*
X005555Y001600D03*
X005555Y001590D03*
X005555Y001580D03*
X005555Y001570D03*
X005555Y001560D03*
X005555Y001550D03*
X005555Y001540D03*
X005555Y001530D03*
X005555Y001520D03*
X005555Y001510D03*
X005555Y001500D03*
X005555Y001490D03*
X005555Y001480D03*
X005555Y001470D03*
X005555Y001460D03*
X005555Y001450D03*
X005555Y001440D03*
X005555Y001430D03*
X005555Y001420D03*
X005555Y001410D03*
X005325Y001550D03*
X005325Y001560D03*
X005325Y001570D03*
X005325Y001580D03*
X005325Y001590D03*
X005305Y001920D03*
X004945Y001920D03*
X004945Y001930D03*
X004945Y001940D03*
X004945Y001910D03*
X004945Y001900D03*
X004945Y001890D03*
X004945Y001880D03*
X004935Y001560D03*
X005415Y001080D03*
X005835Y001480D03*
X005835Y001490D03*
X005835Y001500D03*
X005835Y001510D03*
X005835Y001520D03*
X005835Y001530D03*
X005835Y001540D03*
X005835Y001550D03*
X005835Y001560D03*
X005835Y001570D03*
X005835Y001580D03*
X005835Y001590D03*
X005835Y001600D03*
X005835Y001610D03*
X005835Y001620D03*
X005835Y001630D03*
X005835Y001640D03*
X005835Y001650D03*
X005835Y001660D03*
X005835Y001670D03*
X005835Y001680D03*
X005835Y001690D03*
X005835Y001790D03*
X005835Y001800D03*
X005835Y001810D03*
X005835Y001820D03*
X005835Y001830D03*
X005835Y001840D03*
X005835Y001850D03*
X005835Y001860D03*
X005835Y001870D03*
X005835Y001880D03*
X005835Y001890D03*
X005835Y001900D03*
X005835Y001910D03*
X005835Y001920D03*
X005835Y001930D03*
X005835Y001940D03*
X005835Y001950D03*
X005835Y001960D03*
X005835Y001970D03*
X005835Y001980D03*
X005835Y001990D03*
X006185Y001920D03*
X006185Y001910D03*
X006185Y001870D03*
X006185Y001860D03*
X006185Y001850D03*
X006195Y001620D03*
X006195Y001610D03*
X006195Y001600D03*
X006195Y001590D03*
X006195Y001580D03*
X006195Y001570D03*
X006195Y001560D03*
X006435Y001640D03*
X006435Y001650D03*
X006435Y001660D03*
X006435Y001670D03*
X006445Y001610D03*
X006445Y001600D03*
X006455Y001580D03*
X006435Y001790D03*
X006435Y001800D03*
X006435Y001810D03*
X006435Y001820D03*
X006445Y001850D03*
X006445Y001860D03*
X006455Y001880D03*
X006845Y001860D03*
X006855Y001820D03*
X006865Y001770D03*
X006865Y001760D03*
X006865Y001750D03*
X006865Y001740D03*
X006865Y001730D03*
X006865Y001720D03*
X006865Y001710D03*
X006865Y001700D03*
X006865Y001690D03*
X006855Y001630D03*
X006845Y001590D03*
X007065Y001560D03*
X007065Y001900D03*
X007065Y001910D03*
X007065Y001920D03*
X007065Y001930D03*
X007425Y001930D03*
X007425Y001920D03*
X007425Y001910D03*
X007665Y001830D03*
X007665Y001820D03*
X007665Y001810D03*
X007655Y001770D03*
X007655Y001760D03*
X007655Y001750D03*
X007655Y001740D03*
X007655Y001730D03*
X007655Y001720D03*
X007655Y001710D03*
X007655Y001700D03*
X007655Y001690D03*
X007665Y001650D03*
X007665Y001640D03*
X007665Y001630D03*
X007675Y001600D03*
X007685Y001570D03*
X007675Y001860D03*
X007675Y001870D03*
X007685Y001890D03*
X008065Y001880D03*
X008075Y001850D03*
X008075Y001840D03*
X008085Y001810D03*
X008085Y001800D03*
X008085Y001790D03*
X008085Y001780D03*
X008085Y001670D03*
X008085Y001660D03*
X008085Y001650D03*
X008085Y001640D03*
X008075Y001610D03*
X008075Y001600D03*
X008065Y001570D03*
X008055Y001550D03*
X008305Y001550D03*
X008305Y001560D03*
X008305Y001570D03*
X008305Y001580D03*
X008305Y001590D03*
X008305Y001600D03*
X008305Y001610D03*
X008305Y001620D03*
X008305Y001630D03*
X008305Y001640D03*
X008305Y001650D03*
X008305Y001660D03*
X008305Y001670D03*
X008305Y001680D03*
X008305Y001690D03*
X008305Y001700D03*
X008305Y001710D03*
X008305Y001810D03*
X008305Y001820D03*
X008305Y001830D03*
X008305Y001840D03*
X008305Y001850D03*
X008305Y001860D03*
X008305Y001870D03*
X008305Y001880D03*
X008305Y001890D03*
X008305Y001900D03*
X008305Y001910D03*
X008305Y001920D03*
X008305Y001930D03*
X008305Y001940D03*
X008305Y001950D03*
X008305Y001960D03*
X008305Y001970D03*
X008305Y001980D03*
X008305Y001990D03*
X008655Y001940D03*
X008655Y001930D03*
X008655Y001860D03*
X008655Y001850D03*
X008305Y001540D03*
X008305Y001530D03*
X008305Y001520D03*
X008305Y001510D03*
X008305Y001500D03*
X008305Y001490D03*
X008305Y001480D03*
X008305Y001470D03*
X008305Y001460D03*
X008305Y001450D03*
X008305Y001440D03*
X008305Y001430D03*
X008305Y001420D03*
X008305Y001410D03*
X006155Y000750D03*
D37*
X006165Y000760D03*
X007335Y001700D03*
X007315Y001710D03*
X007195Y001770D03*
D38*
X007105Y001990D03*
X007395Y001980D03*
X007415Y001650D03*
X007425Y001640D03*
X007115Y001480D03*
X007105Y001490D03*
X006775Y001480D03*
X006525Y001480D03*
X006765Y001980D03*
X006145Y001980D03*
X005255Y001990D03*
X004975Y001990D03*
X004975Y001830D03*
X004985Y001820D03*
X005285Y001480D03*
X005655Y001090D03*
X005935Y000850D03*
X006435Y000880D03*
X006445Y000890D03*
X006615Y001010D03*
X006625Y001020D03*
X006645Y001030D03*
X007355Y000760D03*
X008005Y001480D03*
X007995Y001980D03*
X007745Y001980D03*
D39*
X007865Y002050D03*
X007295Y001720D03*
X007275Y001730D03*
X007255Y001740D03*
X007235Y001750D03*
X006645Y002050D03*
X006645Y001410D03*
X006805Y001100D03*
X006305Y000820D03*
X007355Y000770D03*
X007875Y001410D03*
X005125Y001740D03*
X005105Y001750D03*
D40*
X005115Y002030D03*
X005965Y002050D03*
X006645Y002000D03*
X007245Y002030D03*
X006645Y001460D03*
X006805Y001070D03*
X006165Y000780D03*
X007875Y001460D03*
X008435Y002060D03*
D41*
X007870Y002020D03*
X007240Y002050D03*
X007360Y000780D03*
X005120Y002050D03*
D42*
X005145Y001450D03*
X005985Y001730D03*
X005985Y002020D03*
X007245Y002010D03*
X007265Y001450D03*
X007375Y001110D03*
X008455Y001750D03*
X008455Y002040D03*
X006165Y000790D03*
D43*
X007360Y000790D03*
X007370Y001120D03*
X008440Y001730D03*
D44*
X007370Y000810D03*
X006170Y000800D03*
D45*
X005990Y001440D03*
X005990Y001720D03*
X005990Y001760D03*
X005990Y001770D03*
X005990Y002010D03*
X005140Y001460D03*
X007270Y001460D03*
X007370Y000800D03*
X008460Y001760D03*
X008460Y002030D03*
D46*
X007375Y000820D03*
X006165Y000810D03*
D47*
X006020Y000820D03*
X005550Y001130D03*
X005140Y001390D03*
X005210Y001700D03*
X005070Y001770D03*
X006650Y001400D03*
X007260Y001390D03*
X007870Y002060D03*
D48*
X007355Y001690D03*
X007175Y001780D03*
X006645Y002060D03*
X007875Y001400D03*
X006695Y001050D03*
X006345Y000830D03*
X005225Y001690D03*
X005045Y001780D03*
D49*
X007370Y000830D03*
D50*
X006365Y000840D03*
X005265Y001470D03*
X007155Y001790D03*
D51*
X007375Y000840D03*
D52*
X006965Y001030D03*
X006385Y000850D03*
X005555Y001140D03*
X005275Y001660D03*
X004995Y002000D03*
X006135Y001790D03*
X006545Y001470D03*
X006755Y001470D03*
X007135Y001470D03*
X007365Y002000D03*
X007865Y002070D03*
X007975Y001990D03*
X007985Y001470D03*
X007765Y001470D03*
D53*
X007375Y000850D03*
D54*
X007420Y001490D03*
X007740Y001490D03*
X007750Y001480D03*
X008010Y001490D03*
X008010Y001970D03*
X008630Y001980D03*
X007100Y001830D03*
X007090Y001840D03*
X007090Y001980D03*
X006790Y001960D03*
X006780Y001970D03*
X006520Y001980D03*
X006510Y001970D03*
X006160Y001970D03*
X006150Y001800D03*
X006160Y001680D03*
X006170Y001500D03*
X006500Y001500D03*
X006510Y001490D03*
X006600Y001000D03*
X006580Y000990D03*
X006570Y000980D03*
X006540Y000960D03*
X006530Y000950D03*
X006500Y000930D03*
X006490Y000920D03*
X006480Y000910D03*
X006460Y000900D03*
X005920Y000860D03*
X005890Y000880D03*
X005690Y001070D03*
X005670Y001080D03*
X005300Y001490D03*
X005300Y001640D03*
X005280Y001970D03*
X005270Y001980D03*
X004960Y001510D03*
X004970Y001500D03*
X004980Y001490D03*
X007090Y001500D03*
D55*
X007375Y000860D03*
D56*
X007375Y001150D03*
X007435Y001500D03*
X007435Y001510D03*
X007445Y001610D03*
X007435Y001630D03*
X007695Y001550D03*
X007705Y001530D03*
X007715Y001520D03*
X007725Y001500D03*
X008025Y001500D03*
X008045Y001530D03*
X008045Y001920D03*
X008035Y001940D03*
X008025Y001950D03*
X008015Y001960D03*
X007735Y001970D03*
X007725Y001960D03*
X007715Y001950D03*
X007405Y001970D03*
X007085Y001970D03*
X007085Y001850D03*
X006825Y001910D03*
X006815Y001930D03*
X006805Y001940D03*
X006795Y001950D03*
X006495Y001960D03*
X006485Y001940D03*
X006175Y001950D03*
X006165Y001960D03*
X006165Y001810D03*
X006175Y001670D03*
X006185Y001650D03*
X006185Y001520D03*
X006175Y001510D03*
X006475Y001540D03*
X006485Y001520D03*
X006495Y001510D03*
X006785Y001490D03*
X006795Y001500D03*
X006805Y001510D03*
X006815Y001520D03*
X006825Y001540D03*
X007065Y001540D03*
X007075Y001520D03*
X007085Y001510D03*
X006805Y001120D03*
X006555Y000970D03*
X006515Y000940D03*
X005905Y000870D03*
X005875Y000890D03*
X005865Y000900D03*
X005855Y000910D03*
X005845Y000920D03*
X005835Y000930D03*
X005825Y000940D03*
X005815Y000950D03*
X005805Y000960D03*
X005795Y000970D03*
X005765Y001000D03*
X005755Y001010D03*
X005745Y001020D03*
X005735Y001030D03*
X005725Y001040D03*
X005705Y001060D03*
X005435Y001090D03*
X005305Y001500D03*
X005315Y001510D03*
X005315Y001620D03*
X005305Y001630D03*
X005285Y001960D03*
X004965Y001980D03*
X004955Y001970D03*
X004965Y001840D03*
X004945Y001530D03*
X004955Y001520D03*
X008635Y001810D03*
X008645Y001820D03*
D57*
X007370Y001040D03*
X007380Y000870D03*
D58*
X007380Y000880D03*
X007370Y001030D03*
D59*
X007380Y000900D03*
X007380Y000890D03*
D60*
X007380Y000910D03*
X007380Y000920D03*
D61*
X007375Y000930D03*
D62*
X007570Y000940D03*
D63*
X007565Y000950D03*
X007555Y000960D03*
D64*
X007430Y001890D03*
X005300Y001890D03*
X005310Y000960D03*
D65*
X005315Y000970D03*
D66*
X007350Y000970D03*
D67*
X007260Y001380D03*
X007440Y001520D03*
X007450Y001530D03*
X007450Y001540D03*
X007450Y001550D03*
X007450Y001560D03*
X007450Y001570D03*
X007450Y001580D03*
X007450Y001590D03*
X007450Y001600D03*
X007440Y001620D03*
X007660Y001660D03*
X007660Y001670D03*
X007660Y001680D03*
X007670Y001620D03*
X007670Y001610D03*
X007680Y001590D03*
X007680Y001580D03*
X007690Y001560D03*
X007700Y001540D03*
X007720Y001510D03*
X007660Y001780D03*
X007660Y001790D03*
X007660Y001800D03*
X007670Y001840D03*
X007670Y001850D03*
X007680Y001880D03*
X007690Y001900D03*
X007690Y001910D03*
X007700Y001920D03*
X007700Y001930D03*
X007710Y001940D03*
X007420Y001940D03*
X007420Y001950D03*
X007410Y001960D03*
X007080Y001960D03*
X007070Y001950D03*
X007070Y001940D03*
X007070Y001890D03*
X007070Y001880D03*
X007070Y001870D03*
X007080Y001860D03*
X006860Y001810D03*
X006860Y001800D03*
X006860Y001790D03*
X006860Y001780D03*
X006850Y001830D03*
X006850Y001840D03*
X006850Y001850D03*
X006840Y001870D03*
X006840Y001880D03*
X006830Y001890D03*
X006830Y001900D03*
X006820Y001920D03*
X006860Y001680D03*
X006860Y001670D03*
X006860Y001660D03*
X006860Y001650D03*
X006860Y001640D03*
X006850Y001620D03*
X006850Y001610D03*
X006850Y001600D03*
X006840Y001580D03*
X006840Y001570D03*
X006830Y001560D03*
X006830Y001550D03*
X006820Y001530D03*
X007060Y001550D03*
X007070Y001530D03*
X006480Y001530D03*
X006470Y001550D03*
X006460Y001560D03*
X006460Y001570D03*
X006450Y001590D03*
X006440Y001620D03*
X006440Y001630D03*
X006430Y001680D03*
X006430Y001690D03*
X006430Y001700D03*
X006430Y001710D03*
X006430Y001720D03*
X006430Y001730D03*
X006430Y001740D03*
X006430Y001750D03*
X006430Y001760D03*
X006430Y001770D03*
X006430Y001780D03*
X006440Y001830D03*
X006440Y001840D03*
X006450Y001870D03*
X006460Y001890D03*
X006460Y001900D03*
X006470Y001910D03*
X006470Y001920D03*
X006480Y001930D03*
X006490Y001950D03*
X006190Y001900D03*
X006190Y001890D03*
X006190Y001880D03*
X006180Y001840D03*
X006180Y001830D03*
X006170Y001820D03*
X006180Y001930D03*
X006180Y001940D03*
X006180Y001660D03*
X006190Y001640D03*
X006190Y001630D03*
X006190Y001550D03*
X006190Y001540D03*
X006190Y001530D03*
X005710Y001050D03*
X005770Y000990D03*
X005780Y000980D03*
X005320Y001520D03*
X005320Y001530D03*
X005320Y001540D03*
X005320Y001600D03*
X005320Y001610D03*
X005130Y001380D03*
X004940Y001540D03*
X004940Y001550D03*
X004960Y001850D03*
X004950Y001860D03*
X004950Y001870D03*
X004950Y001950D03*
X004950Y001960D03*
X005290Y001950D03*
X005300Y001940D03*
X005300Y001930D03*
X008040Y001930D03*
X008050Y001910D03*
X008060Y001900D03*
X008060Y001890D03*
X008070Y001870D03*
X008070Y001860D03*
X008080Y001830D03*
X008080Y001820D03*
X008090Y001770D03*
X008090Y001760D03*
X008090Y001750D03*
X008090Y001740D03*
X008090Y001730D03*
X008090Y001720D03*
X008090Y001710D03*
X008090Y001700D03*
X008090Y001690D03*
X008090Y001680D03*
X008080Y001630D03*
X008080Y001620D03*
X008070Y001590D03*
X008070Y001580D03*
X008060Y001560D03*
X008050Y001540D03*
X008040Y001520D03*
X008030Y001510D03*
X008650Y001830D03*
X008650Y001840D03*
X008660Y001870D03*
X008660Y001880D03*
X008660Y001890D03*
X008660Y001900D03*
X008660Y001910D03*
X008660Y001920D03*
X008650Y001950D03*
X008650Y001960D03*
X008640Y001970D03*
D68*
X007250Y002090D03*
X005300Y001900D03*
X005120Y002090D03*
X005340Y001000D03*
X005330Y000990D03*
D69*
X007330Y000990D03*
D70*
X007325Y001000D03*
D71*
X007065Y001580D03*
X007425Y001900D03*
X008305Y001390D03*
X005555Y001390D03*
X005555Y001400D03*
X005565Y001150D03*
X005365Y001030D03*
X005355Y001020D03*
X005345Y001010D03*
X004935Y001580D03*
D72*
X007310Y001010D03*
D73*
X007300Y001020D03*
D74*
X006650Y001380D03*
X007060Y001570D03*
X007880Y001380D03*
X008300Y001400D03*
X005550Y002060D03*
X005300Y001910D03*
X004940Y001570D03*
X005400Y001070D03*
X005390Y001060D03*
X005380Y001050D03*
X005370Y001040D03*
D75*
X005190Y001710D03*
X005170Y001720D03*
X005150Y001730D03*
X005090Y001760D03*
X005120Y002070D03*
X006900Y001050D03*
X007210Y001760D03*
X007240Y002070D03*
D76*
X007370Y001050D03*
D77*
X006810Y001060D03*
X005980Y001430D03*
X005980Y001740D03*
X005980Y001750D03*
X005980Y002030D03*
X005120Y002010D03*
X008450Y001740D03*
D78*
X007370Y001060D03*
D79*
X007375Y001070D03*
D80*
X006805Y001090D03*
X007875Y001420D03*
X007245Y002060D03*
X005115Y002060D03*
D81*
X007375Y001090D03*
D82*
X007270Y001420D03*
X007870Y002010D03*
X008420Y002070D03*
X005550Y001100D03*
X005140Y001420D03*
D83*
X007375Y001100D03*
X008475Y001800D03*
D84*
X007870Y002030D03*
X007270Y001410D03*
X005550Y001110D03*
X005140Y001410D03*
D85*
X005240Y001680D03*
X005030Y001790D03*
X006120Y001990D03*
X006130Y001480D03*
X006810Y001110D03*
X007370Y001680D03*
D86*
X007270Y001400D03*
X007360Y001140D03*
X005550Y001120D03*
X005140Y001400D03*
D87*
X005140Y001430D03*
X005960Y001410D03*
X007270Y001430D03*
X007870Y002000D03*
D88*
X008445Y002050D03*
X007245Y002020D03*
X007265Y001440D03*
X005975Y001420D03*
X005975Y002040D03*
X005115Y002020D03*
X005145Y001440D03*
D89*
X006650Y001420D03*
X006640Y002040D03*
X007870Y002040D03*
D90*
X008465Y002020D03*
X008465Y001770D03*
X005995Y001780D03*
X005995Y001710D03*
X005995Y001450D03*
X005995Y002000D03*
D91*
X005955Y002060D03*
X006645Y002010D03*
X007245Y002040D03*
X006645Y001450D03*
X007875Y001450D03*
X008425Y001720D03*
X005115Y002040D03*
D92*
X006000Y001700D03*
X006000Y001470D03*
X006000Y001460D03*
X008470Y001780D03*
X008470Y001790D03*
X008470Y002000D03*
X008470Y002010D03*
D93*
X003340Y004350D02*
X002590Y004350D01*
X002590Y007350D01*
X003340Y007350D01*
X003340Y004350D01*
X002590Y004350D02*
X000840Y004350D01*
X000840Y007350D01*
X002590Y007350D01*
X002590Y008350D02*
X002590Y011350D01*
X003340Y011350D01*
X003340Y008350D01*
X002590Y008350D01*
X000840Y008350D01*
X000840Y011350D01*
X002590Y011350D01*
X002840Y018600D02*
X001090Y018600D01*
X001090Y020600D01*
X002840Y020600D01*
X002840Y018600D01*
X003590Y018600D01*
X003590Y020600D01*
X002840Y020600D01*
X018840Y003850D02*
X018840Y003100D01*
X020840Y003100D01*
X020840Y001350D01*
X018840Y001350D01*
X018840Y003100D01*
X018840Y003850D02*
X020840Y003850D01*
X020840Y003100D01*
X029090Y025350D02*
X029090Y026100D01*
X031090Y026100D01*
X031090Y025350D01*
X029090Y025350D01*
X029090Y026100D02*
X029090Y027850D01*
X031090Y027850D01*
X031090Y026100D01*
M02*
