%
M48
M72
T01C0.0240
T02C0.0320
T03C0.0350
T04C0.0400
T05C0.0433
T06C0.1260
T07C0.1280
%
T01
X8340Y1100
X12840Y1100
X19340Y1100
X23840Y10100
X24840Y13600
X27340Y18600
X27840Y21100
X28340Y24600
X32340Y25600
X32840Y22600
X22840Y25600
X18840Y22100
X18340Y22100
X17340Y23100
X21340Y20100
X20840Y18600
X16840Y19100
X35340Y14600
T02
X34840Y15600
X33840Y15600
X32840Y15600
X31840Y15600
X30840Y15600
X29840Y15600
X29840Y12850
X30840Y12850
X31840Y12850
X32840Y12850
X33840Y12850
X34840Y12850
X35840Y12850
X35840Y15600
X35840Y18600
X34840Y18600
X33840Y18600
X32840Y18600
X31840Y18600
X30840Y18600
X29840Y18600
X29840Y21100
X30840Y21100
X31840Y21100
X32840Y21100
X33840Y21100
X34840Y21100
X35840Y21100
X35840Y24100
X34840Y24100
X33840Y24100
X32840Y24100
X31840Y24100
X30840Y24100
X29840Y24100
X26590Y24100
X25590Y24100
X24590Y24100
X23590Y24100
X22590Y24100
X21590Y24100
X20590Y24100
X19590Y24100
X17590Y25100
X17590Y26100
X19590Y27100
X20590Y27100
X21590Y27100
X22590Y27100
X23590Y27100
X24590Y27100
X25590Y27100
X26590Y27100
X26340Y20600
X26340Y19600
X24340Y19600
X24340Y20600
X22340Y20600
X22340Y19600
X20340Y19600
X20340Y20600
X20340Y17600
X21340Y17600
X22340Y17600
X23340Y17600
X24340Y17600
X25340Y17600
X26340Y17600
X26340Y14600
X25340Y14600
X24340Y14600
X23340Y14600
X22340Y14600
X21340Y14600
X20340Y14600
X19340Y14600
X20340Y12850
X21340Y12850
X22340Y12850
X23340Y12850
X24340Y12850
X25340Y12850
X29840Y9850
X30840Y9850
X31840Y9850
X32840Y9850
X33840Y9850
X34840Y9850
X35840Y9850
X35840Y7100
X34840Y7100
X33840Y7100
X32840Y7100
X31840Y7100
X30840Y7100
X29840Y7100
X29840Y4100
X30840Y4100
X31840Y4100
X32840Y4100
X33840Y4100
X34840Y4100
X35840Y4100
X26090Y3600
X25090Y2600
X24090Y3600
X22340Y5350
X21340Y5350
X20340Y5350
X19340Y5350
X16590Y4850
X15590Y4850
X15840Y5850
X15840Y6850
X14340Y6850
X14340Y7850
X14340Y8850
X14340Y9850
X14340Y10850
X14340Y11850
X14340Y12850
X14340Y13850
X14340Y14850
X11340Y14850
X11340Y15600
X11340Y16600
X8790Y16850
X6890Y16850
X6840Y14350
X6840Y13350
X8840Y13350
X8840Y14350
X11340Y13850
X11340Y12850
X11340Y11850
X11340Y10850
X11340Y9850
X11340Y8850
X11340Y7850
X11340Y6850
X11340Y5850
X11340Y4850
X11340Y3850
X11340Y2850
X11340Y1850
X14340Y1850
X14340Y2850
X14340Y3850
X14340Y4850
X14340Y5850
X19340Y8350
X20340Y8350
X21340Y8350
X22340Y8350
X19340Y11850
X18340Y11850
X19340Y17600
X7340Y19600
X7340Y20600
X5590Y20600
X5590Y19600
X5840Y24650
X5840Y26050
X2840Y14350
X2840Y13350
X1340Y13350
X1340Y14350
T03
X11840Y21600
X12840Y21600
X13840Y21600
X13340Y20600
X14340Y20600
X12340Y20600
T04
X8840Y24350
X8840Y25350
X8840Y26350
T05
X2340Y20100
X2340Y19100
X2090Y10850
X2090Y9850
X2090Y8850
X2090Y6850
X2090Y5850
X2090Y4850
X6590Y4350
X6590Y5350
X6590Y6350
X6590Y7350
X6590Y8350
X6590Y9350
X6590Y10350
X19340Y2600
X20340Y2600
X29590Y26600
X30590Y26600
T06
X2340Y2100
X2340Y26100
X34840Y26100
X34840Y2100
T07
X15090Y24100
X11090Y24100
M30
