G75*
G70*
%OFA0B0*%
%FSLAX24Y24*%
%IPPOS*%
%LPD*%
%AMOC8*
5,1,8,0,0,1.08239X$1,22.5*
%
%ADD10C,0.0000*%
%ADD11C,0.0030*%
%ADD12C,0.0060*%
%ADD13C,0.0050*%
%ADD14C,0.0040*%
%ADD15R,0.0689X0.0197*%
%ADD16C,0.0200*%
%ADD17R,0.4200X0.0300*%
%ADD18R,0.0750X0.0200*%
%ADD19R,0.1300X0.0200*%
%ADD20R,0.0250X0.0900*%
%ADD21C,0.0100*%
%ADD22C,0.0070*%
%ADD23R,0.0300X0.4200*%
%ADD24R,0.0200X0.0750*%
%ADD25R,0.0200X0.0300*%
%ADD26C,0.0080*%
D10*
X000100Y000100D02*
X000100Y018100D01*
X018100Y018100D01*
X018100Y000100D01*
X000100Y000100D01*
X001259Y001850D02*
X001261Y001898D01*
X001267Y001946D01*
X001277Y001993D01*
X001290Y002039D01*
X001308Y002084D01*
X001328Y002128D01*
X001353Y002170D01*
X001381Y002209D01*
X001411Y002246D01*
X001445Y002280D01*
X001482Y002312D01*
X001520Y002341D01*
X001561Y002366D01*
X001604Y002388D01*
X001649Y002406D01*
X001695Y002420D01*
X001742Y002431D01*
X001790Y002438D01*
X001838Y002441D01*
X001886Y002440D01*
X001934Y002435D01*
X001982Y002426D01*
X002028Y002414D01*
X002073Y002397D01*
X002117Y002377D01*
X002159Y002354D01*
X002199Y002327D01*
X002237Y002297D01*
X002272Y002264D01*
X002304Y002228D01*
X002334Y002190D01*
X002360Y002149D01*
X002382Y002106D01*
X002402Y002062D01*
X002417Y002017D01*
X002429Y001970D01*
X002437Y001922D01*
X002441Y001874D01*
X002441Y001826D01*
X002437Y001778D01*
X002429Y001730D01*
X002417Y001683D01*
X002402Y001638D01*
X002382Y001594D01*
X002360Y001551D01*
X002334Y001510D01*
X002304Y001472D01*
X002272Y001436D01*
X002237Y001403D01*
X002199Y001373D01*
X002159Y001346D01*
X002117Y001323D01*
X002073Y001303D01*
X002028Y001286D01*
X001982Y001274D01*
X001934Y001265D01*
X001886Y001260D01*
X001838Y001259D01*
X001790Y001262D01*
X001742Y001269D01*
X001695Y001280D01*
X001649Y001294D01*
X001604Y001312D01*
X001561Y001334D01*
X001520Y001359D01*
X001482Y001388D01*
X001445Y001420D01*
X001411Y001454D01*
X001381Y001491D01*
X001353Y001530D01*
X001328Y001572D01*
X001308Y001616D01*
X001290Y001661D01*
X001277Y001707D01*
X001267Y001754D01*
X001261Y001802D01*
X001259Y001850D01*
X001259Y016350D02*
X001261Y016398D01*
X001267Y016446D01*
X001277Y016493D01*
X001290Y016539D01*
X001308Y016584D01*
X001328Y016628D01*
X001353Y016670D01*
X001381Y016709D01*
X001411Y016746D01*
X001445Y016780D01*
X001482Y016812D01*
X001520Y016841D01*
X001561Y016866D01*
X001604Y016888D01*
X001649Y016906D01*
X001695Y016920D01*
X001742Y016931D01*
X001790Y016938D01*
X001838Y016941D01*
X001886Y016940D01*
X001934Y016935D01*
X001982Y016926D01*
X002028Y016914D01*
X002073Y016897D01*
X002117Y016877D01*
X002159Y016854D01*
X002199Y016827D01*
X002237Y016797D01*
X002272Y016764D01*
X002304Y016728D01*
X002334Y016690D01*
X002360Y016649D01*
X002382Y016606D01*
X002402Y016562D01*
X002417Y016517D01*
X002429Y016470D01*
X002437Y016422D01*
X002441Y016374D01*
X002441Y016326D01*
X002437Y016278D01*
X002429Y016230D01*
X002417Y016183D01*
X002402Y016138D01*
X002382Y016094D01*
X002360Y016051D01*
X002334Y016010D01*
X002304Y015972D01*
X002272Y015936D01*
X002237Y015903D01*
X002199Y015873D01*
X002159Y015846D01*
X002117Y015823D01*
X002073Y015803D01*
X002028Y015786D01*
X001982Y015774D01*
X001934Y015765D01*
X001886Y015760D01*
X001838Y015759D01*
X001790Y015762D01*
X001742Y015769D01*
X001695Y015780D01*
X001649Y015794D01*
X001604Y015812D01*
X001561Y015834D01*
X001520Y015859D01*
X001482Y015888D01*
X001445Y015920D01*
X001411Y015954D01*
X001381Y015991D01*
X001353Y016030D01*
X001328Y016072D01*
X001308Y016116D01*
X001290Y016161D01*
X001277Y016207D01*
X001267Y016254D01*
X001261Y016302D01*
X001259Y016350D01*
X015759Y016350D02*
X015761Y016398D01*
X015767Y016446D01*
X015777Y016493D01*
X015790Y016539D01*
X015808Y016584D01*
X015828Y016628D01*
X015853Y016670D01*
X015881Y016709D01*
X015911Y016746D01*
X015945Y016780D01*
X015982Y016812D01*
X016020Y016841D01*
X016061Y016866D01*
X016104Y016888D01*
X016149Y016906D01*
X016195Y016920D01*
X016242Y016931D01*
X016290Y016938D01*
X016338Y016941D01*
X016386Y016940D01*
X016434Y016935D01*
X016482Y016926D01*
X016528Y016914D01*
X016573Y016897D01*
X016617Y016877D01*
X016659Y016854D01*
X016699Y016827D01*
X016737Y016797D01*
X016772Y016764D01*
X016804Y016728D01*
X016834Y016690D01*
X016860Y016649D01*
X016882Y016606D01*
X016902Y016562D01*
X016917Y016517D01*
X016929Y016470D01*
X016937Y016422D01*
X016941Y016374D01*
X016941Y016326D01*
X016937Y016278D01*
X016929Y016230D01*
X016917Y016183D01*
X016902Y016138D01*
X016882Y016094D01*
X016860Y016051D01*
X016834Y016010D01*
X016804Y015972D01*
X016772Y015936D01*
X016737Y015903D01*
X016699Y015873D01*
X016659Y015846D01*
X016617Y015823D01*
X016573Y015803D01*
X016528Y015786D01*
X016482Y015774D01*
X016434Y015765D01*
X016386Y015760D01*
X016338Y015759D01*
X016290Y015762D01*
X016242Y015769D01*
X016195Y015780D01*
X016149Y015794D01*
X016104Y015812D01*
X016061Y015834D01*
X016020Y015859D01*
X015982Y015888D01*
X015945Y015920D01*
X015911Y015954D01*
X015881Y015991D01*
X015853Y016030D01*
X015828Y016072D01*
X015808Y016116D01*
X015790Y016161D01*
X015777Y016207D01*
X015767Y016254D01*
X015761Y016302D01*
X015759Y016350D01*
X015759Y001850D02*
X015761Y001898D01*
X015767Y001946D01*
X015777Y001993D01*
X015790Y002039D01*
X015808Y002084D01*
X015828Y002128D01*
X015853Y002170D01*
X015881Y002209D01*
X015911Y002246D01*
X015945Y002280D01*
X015982Y002312D01*
X016020Y002341D01*
X016061Y002366D01*
X016104Y002388D01*
X016149Y002406D01*
X016195Y002420D01*
X016242Y002431D01*
X016290Y002438D01*
X016338Y002441D01*
X016386Y002440D01*
X016434Y002435D01*
X016482Y002426D01*
X016528Y002414D01*
X016573Y002397D01*
X016617Y002377D01*
X016659Y002354D01*
X016699Y002327D01*
X016737Y002297D01*
X016772Y002264D01*
X016804Y002228D01*
X016834Y002190D01*
X016860Y002149D01*
X016882Y002106D01*
X016902Y002062D01*
X016917Y002017D01*
X016929Y001970D01*
X016937Y001922D01*
X016941Y001874D01*
X016941Y001826D01*
X016937Y001778D01*
X016929Y001730D01*
X016917Y001683D01*
X016902Y001638D01*
X016882Y001594D01*
X016860Y001551D01*
X016834Y001510D01*
X016804Y001472D01*
X016772Y001436D01*
X016737Y001403D01*
X016699Y001373D01*
X016659Y001346D01*
X016617Y001323D01*
X016573Y001303D01*
X016528Y001286D01*
X016482Y001274D01*
X016434Y001265D01*
X016386Y001260D01*
X016338Y001259D01*
X016290Y001262D01*
X016242Y001269D01*
X016195Y001280D01*
X016149Y001294D01*
X016104Y001312D01*
X016061Y001334D01*
X016020Y001359D01*
X015982Y001388D01*
X015945Y001420D01*
X015911Y001454D01*
X015881Y001491D01*
X015853Y001530D01*
X015828Y001572D01*
X015808Y001616D01*
X015790Y001661D01*
X015777Y001707D01*
X015767Y001754D01*
X015761Y001802D01*
X015759Y001850D01*
D11*
X011558Y001913D02*
X011510Y001865D01*
X011413Y001865D01*
X011365Y001913D01*
X011462Y002010D02*
X011510Y002010D01*
X011558Y001962D01*
X011558Y001913D01*
X011510Y002010D02*
X011558Y002058D01*
X011558Y002107D01*
X011510Y002155D01*
X011413Y002155D01*
X011365Y002107D01*
X010308Y002615D02*
X010115Y002615D01*
X010308Y002808D01*
X010308Y002857D01*
X010260Y002905D01*
X010163Y002905D01*
X010115Y002857D01*
X009462Y002155D02*
X009462Y001865D01*
X009558Y001865D02*
X009365Y001865D01*
X009365Y002058D02*
X009462Y002155D01*
X008058Y002107D02*
X008058Y002058D01*
X008010Y002010D01*
X008058Y001962D01*
X008058Y001913D01*
X008010Y001865D01*
X007913Y001865D01*
X007865Y001913D01*
X007962Y002010D02*
X008010Y002010D01*
X008058Y002107D02*
X008010Y002155D01*
X007913Y002155D01*
X007865Y002107D01*
X006808Y002615D02*
X006615Y002615D01*
X006808Y002808D01*
X006808Y002857D01*
X006760Y002905D01*
X006663Y002905D01*
X006615Y002857D01*
X005962Y002155D02*
X005962Y001865D01*
X006058Y001865D02*
X005865Y001865D01*
X005865Y002058D02*
X005962Y002155D01*
X015715Y010238D02*
X015838Y010362D01*
X016085Y010362D01*
X016085Y010483D02*
X015838Y010483D01*
X015838Y010668D01*
X015900Y010730D01*
X016085Y010730D01*
X016085Y010852D02*
X015715Y010852D01*
X015838Y011037D02*
X015962Y010852D01*
X016085Y011037D01*
X016085Y011159D02*
X016085Y011282D01*
X016085Y011220D02*
X015838Y011220D01*
X015838Y011159D01*
X015715Y011220D02*
X015653Y011220D01*
X015838Y011404D02*
X015838Y011466D01*
X015900Y011528D01*
X015838Y011589D01*
X015900Y011651D01*
X016085Y011651D01*
X016085Y011528D02*
X015900Y011528D01*
X015838Y011404D02*
X016085Y011404D01*
X016023Y011772D02*
X015900Y011772D01*
X015838Y011834D01*
X015838Y011958D01*
X015900Y012019D01*
X016023Y012019D01*
X016085Y011958D01*
X016085Y011834D01*
X016023Y011772D01*
X016085Y012509D02*
X015838Y012509D01*
X015715Y012632D01*
X015838Y012756D01*
X016085Y012756D01*
X016085Y012877D02*
X015838Y012877D01*
X015962Y012877D02*
X015838Y013001D01*
X015838Y013063D01*
X015838Y013184D02*
X015838Y013308D01*
X015776Y013246D02*
X016023Y013246D01*
X016085Y013308D01*
X016085Y013430D02*
X016085Y013615D01*
X016023Y013677D01*
X015962Y013615D01*
X015962Y013492D01*
X015900Y013430D01*
X015838Y013492D01*
X015838Y013677D01*
X015900Y012756D02*
X015900Y012509D01*
X017115Y012581D02*
X017238Y012458D01*
X017115Y012581D02*
X017485Y012581D01*
X017485Y012458D02*
X017485Y012704D01*
X017485Y012826D02*
X017423Y012826D01*
X017423Y012888D01*
X017485Y012888D01*
X017485Y012826D01*
X017423Y013010D02*
X017176Y013257D01*
X017423Y013257D01*
X017485Y013195D01*
X017485Y013072D01*
X017423Y013010D01*
X017176Y013010D01*
X017115Y013072D01*
X017115Y013195D01*
X017176Y013257D01*
X017300Y013378D02*
X017300Y013625D01*
X017300Y013747D02*
X017300Y013932D01*
X017362Y013994D01*
X017423Y013994D01*
X017485Y013932D01*
X017485Y013747D01*
X017115Y013747D01*
X017115Y013932D01*
X017176Y013994D01*
X017238Y013994D01*
X017300Y013932D01*
X017238Y011968D02*
X017485Y011844D01*
X017238Y011721D01*
X017300Y011600D02*
X017238Y011538D01*
X017238Y011414D01*
X017300Y011353D01*
X017423Y011353D01*
X017485Y011414D01*
X017485Y011538D01*
X017362Y011600D02*
X017362Y011353D01*
X017300Y011231D02*
X017176Y011231D01*
X017115Y011169D01*
X017115Y010984D01*
X017485Y010984D01*
X017362Y010984D02*
X017362Y011169D01*
X017300Y011231D01*
X017362Y011108D02*
X017485Y011231D01*
X017362Y011600D02*
X017300Y011600D01*
X017423Y010495D02*
X017115Y010495D01*
X017115Y010248D02*
X017423Y010248D01*
X017485Y010309D01*
X017485Y010433D01*
X017423Y010495D01*
X017423Y010126D02*
X017485Y010065D01*
X017485Y009941D01*
X017423Y009879D01*
X017300Y009941D02*
X017300Y010065D01*
X017362Y010126D01*
X017423Y010126D01*
X017300Y009941D02*
X017238Y009879D01*
X017176Y009879D01*
X017115Y009941D01*
X017115Y010065D01*
X017176Y010126D01*
X017176Y009758D02*
X017300Y009758D01*
X017362Y009696D01*
X017362Y009511D01*
X017485Y009511D02*
X017115Y009511D01*
X017115Y009696D01*
X017176Y009758D01*
X017300Y009390D02*
X017300Y009143D01*
X017485Y009021D02*
X017115Y009021D01*
X017115Y008774D02*
X017485Y008774D01*
X017362Y008898D01*
X017485Y009021D01*
X017423Y008653D02*
X017485Y008591D01*
X017485Y008468D01*
X017423Y008406D01*
X017300Y008468D02*
X017300Y008591D01*
X017362Y008653D01*
X017423Y008653D01*
X017300Y008468D02*
X017238Y008406D01*
X017176Y008406D01*
X017115Y008468D01*
X017115Y008591D01*
X017176Y008653D01*
X016085Y010115D02*
X015838Y010115D01*
X015715Y010238D01*
X015900Y010115D02*
X015900Y010362D01*
D12*
X015750Y009100D02*
X015000Y009100D01*
X014998Y009061D01*
X014992Y009022D01*
X014983Y008984D01*
X014970Y008947D01*
X014953Y008911D01*
X014933Y008878D01*
X014909Y008846D01*
X014883Y008817D01*
X014854Y008791D01*
X014822Y008767D01*
X014789Y008747D01*
X014753Y008730D01*
X014716Y008717D01*
X014678Y008708D01*
X014639Y008702D01*
X014600Y008700D01*
X014561Y008702D01*
X014522Y008708D01*
X014484Y008717D01*
X014447Y008730D01*
X014411Y008747D01*
X014378Y008767D01*
X014346Y008791D01*
X014317Y008817D01*
X014291Y008846D01*
X014267Y008878D01*
X014247Y008911D01*
X014230Y008947D01*
X014217Y008984D01*
X014208Y009022D01*
X014202Y009061D01*
X014200Y009100D01*
X013450Y009100D01*
X013450Y005100D01*
X015750Y005100D01*
X015750Y009100D01*
X014050Y010500D02*
X013950Y010400D01*
X010250Y010400D01*
X010150Y010500D01*
X010100Y011650D01*
X008950Y009350D02*
X007250Y009350D01*
X007233Y009348D01*
X007216Y009344D01*
X007200Y009337D01*
X007186Y009327D01*
X007173Y009314D01*
X007163Y009300D01*
X007156Y009284D01*
X007152Y009267D01*
X007150Y009250D01*
X007150Y007950D01*
X007152Y007933D01*
X007156Y007916D01*
X007163Y007900D01*
X007173Y007886D01*
X007186Y007873D01*
X007200Y007863D01*
X007216Y007856D01*
X007233Y007852D01*
X007250Y007850D01*
X008950Y007850D01*
X008967Y007852D01*
X008984Y007856D01*
X009000Y007863D01*
X009014Y007873D01*
X009027Y007886D01*
X009037Y007900D01*
X009044Y007916D01*
X009048Y007933D01*
X009050Y007950D01*
X009050Y009250D01*
X009048Y009267D01*
X009044Y009284D01*
X009037Y009300D01*
X009027Y009314D01*
X009014Y009327D01*
X009000Y009337D01*
X008984Y009344D01*
X008967Y009348D01*
X008950Y009350D01*
X008250Y008600D02*
X008200Y008600D01*
X008000Y008600D02*
X007950Y008600D01*
X006550Y007950D02*
X006550Y009250D01*
X006548Y009267D01*
X006544Y009284D01*
X006537Y009300D01*
X006527Y009314D01*
X006514Y009327D01*
X006500Y009337D01*
X006484Y009344D01*
X006467Y009348D01*
X006450Y009350D01*
X004750Y009350D01*
X004733Y009348D01*
X004716Y009344D01*
X004700Y009337D01*
X004686Y009327D01*
X004673Y009314D01*
X004663Y009300D01*
X004656Y009284D01*
X004652Y009267D01*
X004650Y009250D01*
X004650Y007950D01*
X004652Y007933D01*
X004656Y007916D01*
X004663Y007900D01*
X004673Y007886D01*
X004686Y007873D01*
X004700Y007863D01*
X004716Y007856D01*
X004733Y007852D01*
X004750Y007850D01*
X006450Y007850D01*
X006467Y007852D01*
X006484Y007856D01*
X006500Y007863D01*
X006514Y007873D01*
X006527Y007886D01*
X006537Y007900D01*
X006544Y007916D01*
X006548Y007933D01*
X006550Y007950D01*
X005750Y008600D02*
X005700Y008600D01*
X005500Y008600D02*
X005450Y008600D01*
X003700Y008450D02*
X003600Y008450D01*
X003550Y008400D01*
X002650Y008400D01*
X002600Y008450D01*
X002500Y008450D01*
X002483Y008448D01*
X002466Y008444D01*
X002450Y008437D01*
X002436Y008427D01*
X002423Y008414D01*
X002413Y008400D01*
X002406Y008384D01*
X002402Y008367D01*
X002400Y008350D01*
X002400Y007850D02*
X002402Y007833D01*
X002406Y007816D01*
X002413Y007800D01*
X002423Y007786D01*
X002436Y007773D01*
X002450Y007763D01*
X002466Y007756D01*
X002483Y007752D01*
X002500Y007750D01*
X002600Y007750D01*
X002650Y007800D01*
X003550Y007800D01*
X003600Y007750D01*
X003700Y007750D01*
X003717Y007752D01*
X003734Y007756D01*
X003750Y007763D01*
X003764Y007773D01*
X003777Y007786D01*
X003787Y007800D01*
X003794Y007816D01*
X003798Y007833D01*
X003800Y007850D01*
X003800Y008350D02*
X003798Y008367D01*
X003794Y008384D01*
X003787Y008400D01*
X003777Y008414D01*
X003764Y008427D01*
X003750Y008437D01*
X003734Y008444D01*
X003717Y008448D01*
X003700Y008450D01*
X000751Y009588D02*
X000714Y009559D01*
X000679Y009527D01*
X000646Y009492D01*
X000616Y009455D01*
X000590Y009416D01*
X000567Y009375D01*
X000546Y009331D01*
X000530Y009287D01*
X000517Y009241D01*
X000508Y009195D01*
X000502Y009147D01*
X000500Y009100D01*
X001468Y008626D02*
X001503Y008656D01*
X001536Y008687D01*
X001566Y008722D01*
X001593Y008758D01*
X001617Y008796D01*
X001639Y008836D01*
X001657Y008878D01*
X001673Y008921D01*
X001685Y008965D01*
X001693Y009009D01*
X001698Y009055D01*
X001700Y009100D01*
X000740Y008620D02*
X000704Y008649D01*
X000670Y008681D01*
X000639Y008716D01*
X000611Y008752D01*
X000586Y008791D01*
X000563Y008832D01*
X000544Y008874D01*
X000528Y008917D01*
X000516Y008962D01*
X000507Y009008D01*
X000502Y009054D01*
X000500Y009100D01*
X001468Y009574D02*
X001503Y009544D01*
X001536Y009513D01*
X001566Y009478D01*
X001593Y009442D01*
X001617Y009404D01*
X001639Y009364D01*
X001657Y009322D01*
X001673Y009279D01*
X001685Y009235D01*
X001693Y009191D01*
X001698Y009145D01*
X001700Y009100D01*
X005250Y015650D02*
X005500Y015650D01*
X005500Y016550D01*
X005250Y016550D01*
X005250Y016100D01*
X005250Y015650D01*
X005250Y016100D02*
X005150Y016100D01*
X003850Y016100D02*
X003852Y016186D01*
X003858Y016272D01*
X003869Y016357D01*
X003884Y016441D01*
X003902Y016525D01*
X003925Y016608D01*
X003952Y016690D01*
X003983Y016770D01*
X004018Y016848D01*
X004057Y016925D01*
X004099Y017000D01*
X004145Y017072D01*
X004194Y017142D01*
X004247Y017210D01*
X004303Y017275D01*
X004363Y017337D01*
X004425Y017397D01*
X004490Y017453D01*
X004558Y017506D01*
X004628Y017555D01*
X004700Y017601D01*
X004775Y017643D01*
X004852Y017682D01*
X004930Y017717D01*
X005010Y017748D01*
X005092Y017775D01*
X005175Y017798D01*
X005259Y017816D01*
X005343Y017831D01*
X005428Y017842D01*
X005514Y017848D01*
X005600Y017850D01*
X005686Y017848D01*
X005772Y017842D01*
X005857Y017831D01*
X005941Y017816D01*
X006025Y017798D01*
X006108Y017775D01*
X006190Y017748D01*
X006270Y017717D01*
X006348Y017682D01*
X006425Y017643D01*
X006500Y017601D01*
X006572Y017555D01*
X006642Y017506D01*
X006710Y017453D01*
X006775Y017397D01*
X006837Y017337D01*
X006897Y017275D01*
X006953Y017210D01*
X007006Y017142D01*
X007055Y017072D01*
X007101Y017000D01*
X007143Y016925D01*
X007182Y016848D01*
X007217Y016770D01*
X007248Y016690D01*
X007275Y016608D01*
X007298Y016525D01*
X007316Y016441D01*
X007331Y016357D01*
X007342Y016272D01*
X007348Y016186D01*
X007350Y016100D01*
X007348Y016014D01*
X007342Y015928D01*
X007331Y015843D01*
X007316Y015759D01*
X007298Y015675D01*
X007275Y015592D01*
X007248Y015510D01*
X007217Y015430D01*
X007182Y015352D01*
X007143Y015275D01*
X007101Y015200D01*
X007055Y015128D01*
X007006Y015058D01*
X006953Y014990D01*
X006897Y014925D01*
X006837Y014863D01*
X006775Y014803D01*
X006710Y014747D01*
X006642Y014694D01*
X006572Y014645D01*
X006500Y014599D01*
X006425Y014557D01*
X006348Y014518D01*
X006270Y014483D01*
X006190Y014452D01*
X006108Y014425D01*
X006025Y014402D01*
X005941Y014384D01*
X005857Y014369D01*
X005772Y014358D01*
X005686Y014352D01*
X005600Y014350D01*
X005514Y014352D01*
X005428Y014358D01*
X005343Y014369D01*
X005259Y014384D01*
X005175Y014402D01*
X005092Y014425D01*
X005010Y014452D01*
X004930Y014483D01*
X004852Y014518D01*
X004775Y014557D01*
X004700Y014599D01*
X004628Y014645D01*
X004558Y014694D01*
X004490Y014747D01*
X004425Y014803D01*
X004363Y014863D01*
X004303Y014925D01*
X004247Y014990D01*
X004194Y015058D01*
X004145Y015128D01*
X004099Y015200D01*
X004057Y015275D01*
X004018Y015352D01*
X003983Y015430D01*
X003952Y015510D01*
X003925Y015592D01*
X003902Y015675D01*
X003884Y015759D01*
X003869Y015843D01*
X003858Y015928D01*
X003852Y016014D01*
X003850Y016100D01*
X004300Y016600D02*
X004300Y016900D01*
X004150Y016750D02*
X004450Y016750D01*
X005850Y016100D02*
X006050Y016100D01*
X008150Y016750D02*
X008450Y016750D01*
X008300Y016900D02*
X008300Y016600D01*
X009250Y016550D02*
X009250Y016100D01*
X009250Y015650D01*
X009500Y015650D01*
X009500Y016550D01*
X009250Y016550D01*
X009250Y016100D02*
X009150Y016100D01*
X007850Y016100D02*
X007852Y016186D01*
X007858Y016272D01*
X007869Y016357D01*
X007884Y016441D01*
X007902Y016525D01*
X007925Y016608D01*
X007952Y016690D01*
X007983Y016770D01*
X008018Y016848D01*
X008057Y016925D01*
X008099Y017000D01*
X008145Y017072D01*
X008194Y017142D01*
X008247Y017210D01*
X008303Y017275D01*
X008363Y017337D01*
X008425Y017397D01*
X008490Y017453D01*
X008558Y017506D01*
X008628Y017555D01*
X008700Y017601D01*
X008775Y017643D01*
X008852Y017682D01*
X008930Y017717D01*
X009010Y017748D01*
X009092Y017775D01*
X009175Y017798D01*
X009259Y017816D01*
X009343Y017831D01*
X009428Y017842D01*
X009514Y017848D01*
X009600Y017850D01*
X009686Y017848D01*
X009772Y017842D01*
X009857Y017831D01*
X009941Y017816D01*
X010025Y017798D01*
X010108Y017775D01*
X010190Y017748D01*
X010270Y017717D01*
X010348Y017682D01*
X010425Y017643D01*
X010500Y017601D01*
X010572Y017555D01*
X010642Y017506D01*
X010710Y017453D01*
X010775Y017397D01*
X010837Y017337D01*
X010897Y017275D01*
X010953Y017210D01*
X011006Y017142D01*
X011055Y017072D01*
X011101Y017000D01*
X011143Y016925D01*
X011182Y016848D01*
X011217Y016770D01*
X011248Y016690D01*
X011275Y016608D01*
X011298Y016525D01*
X011316Y016441D01*
X011331Y016357D01*
X011342Y016272D01*
X011348Y016186D01*
X011350Y016100D01*
X011348Y016014D01*
X011342Y015928D01*
X011331Y015843D01*
X011316Y015759D01*
X011298Y015675D01*
X011275Y015592D01*
X011248Y015510D01*
X011217Y015430D01*
X011182Y015352D01*
X011143Y015275D01*
X011101Y015200D01*
X011055Y015128D01*
X011006Y015058D01*
X010953Y014990D01*
X010897Y014925D01*
X010837Y014863D01*
X010775Y014803D01*
X010710Y014747D01*
X010642Y014694D01*
X010572Y014645D01*
X010500Y014599D01*
X010425Y014557D01*
X010348Y014518D01*
X010270Y014483D01*
X010190Y014452D01*
X010108Y014425D01*
X010025Y014402D01*
X009941Y014384D01*
X009857Y014369D01*
X009772Y014358D01*
X009686Y014352D01*
X009600Y014350D01*
X009514Y014352D01*
X009428Y014358D01*
X009343Y014369D01*
X009259Y014384D01*
X009175Y014402D01*
X009092Y014425D01*
X009010Y014452D01*
X008930Y014483D01*
X008852Y014518D01*
X008775Y014557D01*
X008700Y014599D01*
X008628Y014645D01*
X008558Y014694D01*
X008490Y014747D01*
X008425Y014803D01*
X008363Y014863D01*
X008303Y014925D01*
X008247Y014990D01*
X008194Y015058D01*
X008145Y015128D01*
X008099Y015200D01*
X008057Y015275D01*
X008018Y015352D01*
X007983Y015430D01*
X007952Y015510D01*
X007925Y015592D01*
X007902Y015675D01*
X007884Y015759D01*
X007869Y015843D01*
X007858Y015928D01*
X007852Y016014D01*
X007850Y016100D01*
X009850Y016100D02*
X010050Y016100D01*
X014100Y011650D02*
X014050Y010500D01*
X015000Y016350D02*
X015002Y016423D01*
X015008Y016496D01*
X015018Y016568D01*
X015032Y016640D01*
X015049Y016711D01*
X015071Y016781D01*
X015096Y016850D01*
X015125Y016917D01*
X015157Y016982D01*
X015193Y017046D01*
X015233Y017108D01*
X015275Y017167D01*
X015321Y017224D01*
X015370Y017278D01*
X015422Y017330D01*
X015476Y017379D01*
X015533Y017425D01*
X015592Y017467D01*
X015654Y017507D01*
X015718Y017543D01*
X015783Y017575D01*
X015850Y017604D01*
X015919Y017629D01*
X015989Y017651D01*
X016060Y017668D01*
X016132Y017682D01*
X016204Y017692D01*
X016277Y017698D01*
X016350Y017700D01*
X016423Y017698D01*
X016496Y017692D01*
X016568Y017682D01*
X016640Y017668D01*
X016711Y017651D01*
X016781Y017629D01*
X016850Y017604D01*
X016917Y017575D01*
X016982Y017543D01*
X017046Y017507D01*
X017108Y017467D01*
X017167Y017425D01*
X017224Y017379D01*
X017278Y017330D01*
X017330Y017278D01*
X017379Y017224D01*
X017425Y017167D01*
X017467Y017108D01*
X017507Y017046D01*
X017543Y016982D01*
X017575Y016917D01*
X017604Y016850D01*
X017629Y016781D01*
X017651Y016711D01*
X017668Y016640D01*
X017682Y016568D01*
X017692Y016496D01*
X017698Y016423D01*
X017700Y016350D01*
X017698Y016277D01*
X017692Y016204D01*
X017682Y016132D01*
X017668Y016060D01*
X017651Y015989D01*
X017629Y015919D01*
X017604Y015850D01*
X017575Y015783D01*
X017543Y015718D01*
X017507Y015654D01*
X017467Y015592D01*
X017425Y015533D01*
X017379Y015476D01*
X017330Y015422D01*
X017278Y015370D01*
X017224Y015321D01*
X017167Y015275D01*
X017108Y015233D01*
X017046Y015193D01*
X016982Y015157D01*
X016917Y015125D01*
X016850Y015096D01*
X016781Y015071D01*
X016711Y015049D01*
X016640Y015032D01*
X016568Y015018D01*
X016496Y015008D01*
X016423Y015002D01*
X016350Y015000D01*
X016277Y015002D01*
X016204Y015008D01*
X016132Y015018D01*
X016060Y015032D01*
X015989Y015049D01*
X015919Y015071D01*
X015850Y015096D01*
X015783Y015125D01*
X015718Y015157D01*
X015654Y015193D01*
X015592Y015233D01*
X015533Y015275D01*
X015476Y015321D01*
X015422Y015370D01*
X015370Y015422D01*
X015321Y015476D01*
X015275Y015533D01*
X015233Y015592D01*
X015193Y015654D01*
X015157Y015718D01*
X015125Y015783D01*
X015096Y015850D01*
X015071Y015919D01*
X015049Y015989D01*
X015032Y016060D01*
X015018Y016132D01*
X015008Y016204D01*
X015002Y016277D01*
X015000Y016350D01*
X014200Y003950D02*
X014100Y003950D01*
X014050Y003900D01*
X013150Y003900D01*
X013100Y003950D01*
X013000Y003950D01*
X012983Y003948D01*
X012966Y003944D01*
X012950Y003937D01*
X012936Y003927D01*
X012923Y003914D01*
X012913Y003900D01*
X012906Y003884D01*
X012902Y003867D01*
X012900Y003850D01*
X012900Y003350D02*
X012902Y003333D01*
X012906Y003316D01*
X012913Y003300D01*
X012923Y003286D01*
X012936Y003273D01*
X012950Y003263D01*
X012966Y003256D01*
X012983Y003252D01*
X013000Y003250D01*
X013100Y003250D01*
X013150Y003300D01*
X014050Y003300D01*
X014100Y003250D01*
X014200Y003250D01*
X014217Y003252D01*
X014234Y003256D01*
X014250Y003263D01*
X014264Y003273D01*
X014277Y003286D01*
X014287Y003300D01*
X014294Y003316D01*
X014298Y003333D01*
X014300Y003350D01*
X014300Y003850D02*
X014298Y003867D01*
X014294Y003884D01*
X014287Y003900D01*
X014277Y003914D01*
X014264Y003927D01*
X014250Y003937D01*
X014234Y003944D01*
X014217Y003948D01*
X014200Y003950D01*
X015000Y001850D02*
X015002Y001923D01*
X015008Y001996D01*
X015018Y002068D01*
X015032Y002140D01*
X015049Y002211D01*
X015071Y002281D01*
X015096Y002350D01*
X015125Y002417D01*
X015157Y002482D01*
X015193Y002546D01*
X015233Y002608D01*
X015275Y002667D01*
X015321Y002724D01*
X015370Y002778D01*
X015422Y002830D01*
X015476Y002879D01*
X015533Y002925D01*
X015592Y002967D01*
X015654Y003007D01*
X015718Y003043D01*
X015783Y003075D01*
X015850Y003104D01*
X015919Y003129D01*
X015989Y003151D01*
X016060Y003168D01*
X016132Y003182D01*
X016204Y003192D01*
X016277Y003198D01*
X016350Y003200D01*
X016423Y003198D01*
X016496Y003192D01*
X016568Y003182D01*
X016640Y003168D01*
X016711Y003151D01*
X016781Y003129D01*
X016850Y003104D01*
X016917Y003075D01*
X016982Y003043D01*
X017046Y003007D01*
X017108Y002967D01*
X017167Y002925D01*
X017224Y002879D01*
X017278Y002830D01*
X017330Y002778D01*
X017379Y002724D01*
X017425Y002667D01*
X017467Y002608D01*
X017507Y002546D01*
X017543Y002482D01*
X017575Y002417D01*
X017604Y002350D01*
X017629Y002281D01*
X017651Y002211D01*
X017668Y002140D01*
X017682Y002068D01*
X017692Y001996D01*
X017698Y001923D01*
X017700Y001850D01*
X017698Y001777D01*
X017692Y001704D01*
X017682Y001632D01*
X017668Y001560D01*
X017651Y001489D01*
X017629Y001419D01*
X017604Y001350D01*
X017575Y001283D01*
X017543Y001218D01*
X017507Y001154D01*
X017467Y001092D01*
X017425Y001033D01*
X017379Y000976D01*
X017330Y000922D01*
X017278Y000870D01*
X017224Y000821D01*
X017167Y000775D01*
X017108Y000733D01*
X017046Y000693D01*
X016982Y000657D01*
X016917Y000625D01*
X016850Y000596D01*
X016781Y000571D01*
X016711Y000549D01*
X016640Y000532D01*
X016568Y000518D01*
X016496Y000508D01*
X016423Y000502D01*
X016350Y000500D01*
X016277Y000502D01*
X016204Y000508D01*
X016132Y000518D01*
X016060Y000532D01*
X015989Y000549D01*
X015919Y000571D01*
X015850Y000596D01*
X015783Y000625D01*
X015718Y000657D01*
X015654Y000693D01*
X015592Y000733D01*
X015533Y000775D01*
X015476Y000821D01*
X015422Y000870D01*
X015370Y000922D01*
X015321Y000976D01*
X015275Y001033D01*
X015233Y001092D01*
X015193Y001154D01*
X015157Y001218D01*
X015125Y001283D01*
X015096Y001350D01*
X015071Y001419D01*
X015049Y001489D01*
X015032Y001560D01*
X015018Y001632D01*
X015008Y001704D01*
X015002Y001777D01*
X015000Y001850D01*
X000500Y001850D02*
X000502Y001923D01*
X000508Y001996D01*
X000518Y002068D01*
X000532Y002140D01*
X000549Y002211D01*
X000571Y002281D01*
X000596Y002350D01*
X000625Y002417D01*
X000657Y002482D01*
X000693Y002546D01*
X000733Y002608D01*
X000775Y002667D01*
X000821Y002724D01*
X000870Y002778D01*
X000922Y002830D01*
X000976Y002879D01*
X001033Y002925D01*
X001092Y002967D01*
X001154Y003007D01*
X001218Y003043D01*
X001283Y003075D01*
X001350Y003104D01*
X001419Y003129D01*
X001489Y003151D01*
X001560Y003168D01*
X001632Y003182D01*
X001704Y003192D01*
X001777Y003198D01*
X001850Y003200D01*
X001923Y003198D01*
X001996Y003192D01*
X002068Y003182D01*
X002140Y003168D01*
X002211Y003151D01*
X002281Y003129D01*
X002350Y003104D01*
X002417Y003075D01*
X002482Y003043D01*
X002546Y003007D01*
X002608Y002967D01*
X002667Y002925D01*
X002724Y002879D01*
X002778Y002830D01*
X002830Y002778D01*
X002879Y002724D01*
X002925Y002667D01*
X002967Y002608D01*
X003007Y002546D01*
X003043Y002482D01*
X003075Y002417D01*
X003104Y002350D01*
X003129Y002281D01*
X003151Y002211D01*
X003168Y002140D01*
X003182Y002068D01*
X003192Y001996D01*
X003198Y001923D01*
X003200Y001850D01*
X003198Y001777D01*
X003192Y001704D01*
X003182Y001632D01*
X003168Y001560D01*
X003151Y001489D01*
X003129Y001419D01*
X003104Y001350D01*
X003075Y001283D01*
X003043Y001218D01*
X003007Y001154D01*
X002967Y001092D01*
X002925Y001033D01*
X002879Y000976D01*
X002830Y000922D01*
X002778Y000870D01*
X002724Y000821D01*
X002667Y000775D01*
X002608Y000733D01*
X002546Y000693D01*
X002482Y000657D01*
X002417Y000625D01*
X002350Y000596D01*
X002281Y000571D01*
X002211Y000549D01*
X002140Y000532D01*
X002068Y000518D01*
X001996Y000508D01*
X001923Y000502D01*
X001850Y000500D01*
X001777Y000502D01*
X001704Y000508D01*
X001632Y000518D01*
X001560Y000532D01*
X001489Y000549D01*
X001419Y000571D01*
X001350Y000596D01*
X001283Y000625D01*
X001218Y000657D01*
X001154Y000693D01*
X001092Y000733D01*
X001033Y000775D01*
X000976Y000821D01*
X000922Y000870D01*
X000870Y000922D01*
X000821Y000976D01*
X000775Y001033D01*
X000733Y001092D01*
X000693Y001154D01*
X000657Y001218D01*
X000625Y001283D01*
X000596Y001350D01*
X000571Y001419D01*
X000549Y001489D01*
X000532Y001560D01*
X000518Y001632D01*
X000508Y001704D01*
X000502Y001777D01*
X000500Y001850D01*
X000500Y016350D02*
X000502Y016423D01*
X000508Y016496D01*
X000518Y016568D01*
X000532Y016640D01*
X000549Y016711D01*
X000571Y016781D01*
X000596Y016850D01*
X000625Y016917D01*
X000657Y016982D01*
X000693Y017046D01*
X000733Y017108D01*
X000775Y017167D01*
X000821Y017224D01*
X000870Y017278D01*
X000922Y017330D01*
X000976Y017379D01*
X001033Y017425D01*
X001092Y017467D01*
X001154Y017507D01*
X001218Y017543D01*
X001283Y017575D01*
X001350Y017604D01*
X001419Y017629D01*
X001489Y017651D01*
X001560Y017668D01*
X001632Y017682D01*
X001704Y017692D01*
X001777Y017698D01*
X001850Y017700D01*
X001923Y017698D01*
X001996Y017692D01*
X002068Y017682D01*
X002140Y017668D01*
X002211Y017651D01*
X002281Y017629D01*
X002350Y017604D01*
X002417Y017575D01*
X002482Y017543D01*
X002546Y017507D01*
X002608Y017467D01*
X002667Y017425D01*
X002724Y017379D01*
X002778Y017330D01*
X002830Y017278D01*
X002879Y017224D01*
X002925Y017167D01*
X002967Y017108D01*
X003007Y017046D01*
X003043Y016982D01*
X003075Y016917D01*
X003104Y016850D01*
X003129Y016781D01*
X003151Y016711D01*
X003168Y016640D01*
X003182Y016568D01*
X003192Y016496D01*
X003198Y016423D01*
X003200Y016350D01*
X003198Y016277D01*
X003192Y016204D01*
X003182Y016132D01*
X003168Y016060D01*
X003151Y015989D01*
X003129Y015919D01*
X003104Y015850D01*
X003075Y015783D01*
X003043Y015718D01*
X003007Y015654D01*
X002967Y015592D01*
X002925Y015533D01*
X002879Y015476D01*
X002830Y015422D01*
X002778Y015370D01*
X002724Y015321D01*
X002667Y015275D01*
X002608Y015233D01*
X002546Y015193D01*
X002482Y015157D01*
X002417Y015125D01*
X002350Y015096D01*
X002281Y015071D01*
X002211Y015049D01*
X002140Y015032D01*
X002068Y015018D01*
X001996Y015008D01*
X001923Y015002D01*
X001850Y015000D01*
X001777Y015002D01*
X001704Y015008D01*
X001632Y015018D01*
X001560Y015032D01*
X001489Y015049D01*
X001419Y015071D01*
X001350Y015096D01*
X001283Y015125D01*
X001218Y015157D01*
X001154Y015193D01*
X001092Y015233D01*
X001033Y015275D01*
X000976Y015321D01*
X000922Y015370D01*
X000870Y015422D01*
X000821Y015476D01*
X000775Y015533D01*
X000733Y015592D01*
X000693Y015654D01*
X000657Y015718D01*
X000625Y015783D01*
X000596Y015850D01*
X000571Y015919D01*
X000549Y015989D01*
X000532Y016060D01*
X000518Y016132D01*
X000508Y016204D01*
X000502Y016277D01*
X000500Y016350D01*
D13*
X004635Y015235D02*
X004785Y015385D01*
X004785Y014935D01*
X004635Y014935D02*
X004935Y014935D01*
X005095Y015010D02*
X005396Y015310D01*
X005396Y015010D01*
X005321Y014935D01*
X005170Y014935D01*
X005095Y015010D01*
X005095Y015310D01*
X005170Y015385D01*
X005321Y015385D01*
X005396Y015310D01*
X005556Y015310D02*
X005631Y015385D01*
X005781Y015385D01*
X005856Y015310D01*
X005556Y015010D01*
X005631Y014935D01*
X005781Y014935D01*
X005856Y015010D01*
X005856Y015310D01*
X006016Y015235D02*
X006016Y015010D01*
X006091Y014935D01*
X006316Y014935D01*
X006316Y015235D01*
X006477Y015160D02*
X006627Y015160D01*
X006552Y015310D02*
X006552Y014935D01*
X006552Y015310D02*
X006627Y015385D01*
X007244Y015385D02*
X007244Y015160D01*
X007394Y015235D01*
X007469Y015235D01*
X007544Y015160D01*
X007544Y015010D01*
X007469Y014935D01*
X007319Y014935D01*
X007244Y015010D01*
X007244Y015385D02*
X007544Y015385D01*
X007704Y015310D02*
X007779Y015385D01*
X007929Y015385D01*
X008005Y015310D01*
X007704Y015010D01*
X007779Y014935D01*
X007929Y014935D01*
X008005Y015010D01*
X008005Y015310D01*
X008165Y015385D02*
X008165Y015085D01*
X008315Y014935D01*
X008465Y015085D01*
X008465Y015385D01*
X008635Y015310D02*
X008710Y015385D01*
X008860Y015385D01*
X008935Y015310D01*
X008935Y015235D01*
X008635Y014935D01*
X008935Y014935D01*
X009095Y014935D02*
X009170Y014935D01*
X009170Y015010D01*
X009095Y015010D01*
X009095Y014935D01*
X009326Y014935D02*
X009626Y015235D01*
X009626Y015310D01*
X009551Y015385D01*
X009401Y015385D01*
X009326Y015310D01*
X009326Y014935D02*
X009626Y014935D01*
X009786Y015010D02*
X009786Y015235D01*
X009786Y015010D02*
X009861Y014935D01*
X010086Y014935D01*
X010086Y015235D01*
X010246Y014935D02*
X010547Y015385D01*
X010707Y015310D02*
X010782Y015385D01*
X010932Y015385D01*
X011007Y015310D01*
X011007Y015235D01*
X010932Y015160D01*
X011007Y015085D01*
X011007Y015010D01*
X010932Y014935D01*
X010782Y014935D01*
X010707Y015010D01*
X010857Y015160D02*
X010932Y015160D01*
X011167Y015160D02*
X011167Y015385D01*
X011467Y015385D01*
X011392Y015235D02*
X011467Y015160D01*
X011467Y015010D01*
X011392Y014935D01*
X011242Y014935D01*
X011167Y015010D01*
X011167Y015160D02*
X011317Y015235D01*
X011392Y015235D01*
X011628Y015310D02*
X011628Y015010D01*
X011928Y015310D01*
X011928Y015010D01*
X011853Y014935D01*
X011703Y014935D01*
X011628Y015010D01*
X011628Y015310D02*
X011703Y015385D01*
X011853Y015385D01*
X011928Y015310D01*
X012088Y015235D02*
X012238Y014935D01*
X012388Y015235D01*
X012065Y014100D02*
X012067Y014178D01*
X012073Y014255D01*
X012083Y014332D01*
X012096Y014409D01*
X012114Y014485D01*
X012135Y014560D01*
X012161Y014633D01*
X012189Y014705D01*
X012222Y014776D01*
X012258Y014845D01*
X012297Y014912D01*
X012340Y014977D01*
X012386Y015040D01*
X012435Y015100D01*
X012487Y015158D01*
X012542Y015213D01*
X012600Y015265D01*
X012660Y015314D01*
X012723Y015360D01*
X012788Y015403D01*
X012855Y015442D01*
X012924Y015478D01*
X012995Y015511D01*
X013067Y015539D01*
X013140Y015565D01*
X013215Y015586D01*
X013291Y015604D01*
X013368Y015617D01*
X013445Y015627D01*
X013522Y015633D01*
X013600Y015635D01*
X013678Y015633D01*
X013755Y015627D01*
X013832Y015617D01*
X013909Y015604D01*
X013985Y015586D01*
X014060Y015565D01*
X014133Y015539D01*
X014205Y015511D01*
X014276Y015478D01*
X014345Y015442D01*
X014412Y015403D01*
X014477Y015360D01*
X014540Y015314D01*
X014600Y015265D01*
X014658Y015213D01*
X014713Y015158D01*
X014765Y015100D01*
X014814Y015040D01*
X014860Y014977D01*
X014903Y014912D01*
X014942Y014845D01*
X014978Y014776D01*
X015011Y014705D01*
X015039Y014633D01*
X015065Y014560D01*
X015086Y014485D01*
X015104Y014409D01*
X015117Y014332D01*
X015127Y014255D01*
X015133Y014178D01*
X015135Y014100D01*
X015133Y014022D01*
X015127Y013945D01*
X015117Y013868D01*
X015104Y013791D01*
X015086Y013715D01*
X015065Y013640D01*
X015039Y013567D01*
X015011Y013495D01*
X014978Y013424D01*
X014942Y013355D01*
X014903Y013288D01*
X014860Y013223D01*
X014814Y013160D01*
X014765Y013100D01*
X014713Y013042D01*
X014658Y012987D01*
X014600Y012935D01*
X014540Y012886D01*
X014477Y012840D01*
X014412Y012797D01*
X014345Y012758D01*
X014276Y012722D01*
X014205Y012689D01*
X014133Y012661D01*
X014060Y012635D01*
X013985Y012614D01*
X013909Y012596D01*
X013832Y012583D01*
X013755Y012573D01*
X013678Y012567D01*
X013600Y012565D01*
X013522Y012567D01*
X013445Y012573D01*
X013368Y012583D01*
X013291Y012596D01*
X013215Y012614D01*
X013140Y012635D01*
X013067Y012661D01*
X012995Y012689D01*
X012924Y012722D01*
X012855Y012758D01*
X012788Y012797D01*
X012723Y012840D01*
X012660Y012886D01*
X012600Y012935D01*
X012542Y012987D01*
X012487Y013042D01*
X012435Y013100D01*
X012386Y013160D01*
X012340Y013223D01*
X012297Y013288D01*
X012258Y013355D01*
X012222Y013424D01*
X012189Y013495D01*
X012161Y013567D01*
X012135Y013640D01*
X012114Y013715D01*
X012096Y013791D01*
X012083Y013868D01*
X012073Y013945D01*
X012067Y014022D01*
X012065Y014100D01*
X012016Y017025D02*
X011715Y017025D01*
X011866Y017025D02*
X011866Y017475D01*
X011715Y017325D01*
X011555Y017400D02*
X011480Y017475D01*
X011330Y017475D01*
X011255Y017400D01*
X011255Y017100D01*
X011330Y017025D01*
X011480Y017025D01*
X011555Y017100D01*
X008016Y017025D02*
X007715Y017025D01*
X008016Y017325D01*
X008016Y017400D01*
X007941Y017475D01*
X007790Y017475D01*
X007715Y017400D01*
X007555Y017400D02*
X007480Y017475D01*
X007330Y017475D01*
X007255Y017400D01*
X007255Y017100D01*
X007330Y017025D01*
X007480Y017025D01*
X007555Y017100D01*
X007704Y015310D02*
X007704Y015010D01*
X005556Y015010D02*
X005556Y015310D01*
X010125Y010195D02*
X010350Y010195D01*
X010425Y010120D01*
X010425Y009820D01*
X010350Y009745D01*
X010125Y009745D01*
X010125Y010195D01*
X010585Y010045D02*
X010736Y010195D01*
X010736Y009745D01*
X010886Y009745D02*
X010585Y009745D01*
X010585Y009575D02*
X010886Y009575D01*
X010736Y009575D02*
X010736Y009125D01*
X010425Y009200D02*
X010350Y009125D01*
X010200Y009125D01*
X010125Y009200D01*
X010200Y009350D02*
X010125Y009425D01*
X010125Y009500D01*
X010200Y009575D01*
X010350Y009575D01*
X010425Y009500D01*
X010350Y009350D02*
X010425Y009275D01*
X010425Y009200D01*
X010350Y009350D02*
X010200Y009350D01*
X011046Y009575D02*
X011346Y009575D01*
X011196Y009575D02*
X011196Y009125D01*
X011506Y009125D02*
X011506Y009425D01*
X011656Y009575D01*
X011806Y009425D01*
X011806Y009125D01*
X011967Y009125D02*
X012267Y009125D01*
X012117Y009125D02*
X012117Y009575D01*
X011967Y009425D01*
X011806Y009350D02*
X011506Y009350D01*
X011650Y008600D02*
X010500Y008550D01*
X010400Y008450D01*
X010400Y004750D01*
X010500Y004650D01*
X011650Y004600D01*
X010325Y004591D02*
X009875Y004591D01*
X009875Y004516D02*
X009875Y004666D01*
X009875Y004823D02*
X009875Y005048D01*
X009950Y005123D01*
X010100Y005123D01*
X010175Y005048D01*
X010175Y004823D01*
X010325Y004823D02*
X009875Y004823D01*
X010175Y004973D02*
X010325Y005123D01*
X010325Y005283D02*
X009875Y005283D01*
X009875Y005584D01*
X009950Y005744D02*
X010025Y005744D01*
X010100Y005819D01*
X010100Y005969D01*
X010175Y006044D01*
X010250Y006044D01*
X010325Y005969D01*
X010325Y005819D01*
X010250Y005744D01*
X010175Y005744D01*
X010100Y005819D01*
X010100Y005969D02*
X010025Y006044D01*
X009950Y006044D01*
X009875Y005969D01*
X009875Y005819D01*
X009950Y005744D01*
X010100Y005434D02*
X010100Y005283D01*
X010325Y004666D02*
X010325Y004516D01*
X009350Y002900D02*
X011850Y002900D01*
X011850Y000400D01*
X009350Y000400D01*
X009350Y002900D01*
X008350Y002900D02*
X005850Y002900D01*
X005850Y000400D01*
X008350Y000400D01*
X008350Y002900D01*
X007100Y002100D02*
X007100Y001600D01*
X006393Y001600D02*
X006395Y001653D01*
X006401Y001705D01*
X006411Y001757D01*
X006424Y001808D01*
X006442Y001858D01*
X006463Y001907D01*
X006488Y001954D01*
X006516Y001998D01*
X006547Y002041D01*
X006582Y002081D01*
X006619Y002118D01*
X006659Y002153D01*
X006702Y002184D01*
X006747Y002212D01*
X006793Y002237D01*
X006842Y002258D01*
X006892Y002276D01*
X006943Y002289D01*
X006995Y002299D01*
X007047Y002305D01*
X007100Y002307D01*
X007153Y002305D01*
X007205Y002299D01*
X007257Y002289D01*
X007308Y002276D01*
X007358Y002258D01*
X007407Y002237D01*
X007454Y002212D01*
X007498Y002184D01*
X007541Y002153D01*
X007581Y002118D01*
X007618Y002081D01*
X007653Y002041D01*
X007684Y001998D01*
X007712Y001953D01*
X007737Y001907D01*
X007758Y001858D01*
X007776Y001808D01*
X007789Y001757D01*
X007799Y001705D01*
X007805Y001653D01*
X007807Y001600D01*
X007805Y001547D01*
X007799Y001495D01*
X007789Y001443D01*
X007776Y001392D01*
X007758Y001342D01*
X007737Y001293D01*
X007712Y001246D01*
X007684Y001202D01*
X007653Y001159D01*
X007618Y001119D01*
X007581Y001082D01*
X007541Y001047D01*
X007498Y001016D01*
X007453Y000988D01*
X007407Y000963D01*
X007358Y000942D01*
X007308Y000924D01*
X007257Y000911D01*
X007205Y000901D01*
X007153Y000895D01*
X007100Y000893D01*
X007047Y000895D01*
X006995Y000901D01*
X006943Y000911D01*
X006892Y000924D01*
X006842Y000942D01*
X006793Y000963D01*
X006746Y000988D01*
X006702Y001016D01*
X006659Y001047D01*
X006619Y001082D01*
X006582Y001119D01*
X006547Y001159D01*
X006516Y001202D01*
X006488Y001247D01*
X006463Y001293D01*
X006442Y001342D01*
X006424Y001392D01*
X006411Y001443D01*
X006401Y001495D01*
X006395Y001547D01*
X006393Y001600D01*
X006600Y001600D02*
X007100Y001600D01*
X007100Y001100D01*
X007100Y001600D02*
X007600Y001600D01*
X007600Y001100D02*
X007850Y000850D01*
X007850Y000350D02*
X007600Y000350D01*
X006600Y000350D02*
X006350Y000350D01*
X006350Y000850D02*
X006600Y001100D01*
X009850Y000850D02*
X010100Y001100D01*
X010100Y001600D02*
X010600Y001600D01*
X009893Y001600D02*
X009895Y001653D01*
X009901Y001705D01*
X009911Y001757D01*
X009924Y001808D01*
X009942Y001858D01*
X009963Y001907D01*
X009988Y001954D01*
X010016Y001998D01*
X010047Y002041D01*
X010082Y002081D01*
X010119Y002118D01*
X010159Y002153D01*
X010202Y002184D01*
X010247Y002212D01*
X010293Y002237D01*
X010342Y002258D01*
X010392Y002276D01*
X010443Y002289D01*
X010495Y002299D01*
X010547Y002305D01*
X010600Y002307D01*
X010653Y002305D01*
X010705Y002299D01*
X010757Y002289D01*
X010808Y002276D01*
X010858Y002258D01*
X010907Y002237D01*
X010954Y002212D01*
X010998Y002184D01*
X011041Y002153D01*
X011081Y002118D01*
X011118Y002081D01*
X011153Y002041D01*
X011184Y001998D01*
X011212Y001953D01*
X011237Y001907D01*
X011258Y001858D01*
X011276Y001808D01*
X011289Y001757D01*
X011299Y001705D01*
X011305Y001653D01*
X011307Y001600D01*
X011305Y001547D01*
X011299Y001495D01*
X011289Y001443D01*
X011276Y001392D01*
X011258Y001342D01*
X011237Y001293D01*
X011212Y001246D01*
X011184Y001202D01*
X011153Y001159D01*
X011118Y001119D01*
X011081Y001082D01*
X011041Y001047D01*
X010998Y001016D01*
X010953Y000988D01*
X010907Y000963D01*
X010858Y000942D01*
X010808Y000924D01*
X010757Y000911D01*
X010705Y000901D01*
X010653Y000895D01*
X010600Y000893D01*
X010547Y000895D01*
X010495Y000901D01*
X010443Y000911D01*
X010392Y000924D01*
X010342Y000942D01*
X010293Y000963D01*
X010246Y000988D01*
X010202Y001016D01*
X010159Y001047D01*
X010119Y001082D01*
X010082Y001119D01*
X010047Y001159D01*
X010016Y001202D01*
X009988Y001247D01*
X009963Y001293D01*
X009942Y001342D01*
X009924Y001392D01*
X009911Y001443D01*
X009901Y001495D01*
X009895Y001547D01*
X009893Y001600D01*
X010600Y001600D02*
X010600Y001100D01*
X010600Y001600D02*
X011100Y001600D01*
X011100Y001100D02*
X011350Y000850D01*
X011350Y000350D02*
X011100Y000350D01*
X010100Y000350D02*
X009850Y000350D01*
X010600Y001600D02*
X010600Y002100D01*
X014375Y004842D02*
X014525Y004992D01*
X014375Y005142D01*
X014825Y005142D01*
X014750Y005302D02*
X014825Y005377D01*
X014825Y005527D01*
X014750Y005603D01*
X014750Y005763D02*
X014825Y005838D01*
X014825Y005988D01*
X014750Y006063D01*
X014675Y006063D01*
X014600Y005988D01*
X014600Y005913D01*
X014600Y005988D02*
X014525Y006063D01*
X014450Y006063D01*
X014375Y005988D01*
X014375Y005838D01*
X014450Y005763D01*
X014450Y005603D02*
X014375Y005527D01*
X014375Y005377D01*
X014450Y005302D01*
X014750Y005302D01*
X014825Y004842D02*
X014375Y004842D01*
X014600Y006223D02*
X014600Y006523D01*
X014750Y006683D02*
X014450Y006683D01*
X014375Y006758D01*
X014375Y006909D01*
X014450Y006984D01*
X014750Y006683D01*
X014825Y006758D01*
X014825Y006909D01*
X014750Y006984D01*
X014450Y006984D01*
X014600Y007144D02*
X014600Y007369D01*
X014675Y007444D01*
X014750Y007444D01*
X014825Y007369D01*
X014825Y007219D01*
X014750Y007144D01*
X014600Y007144D01*
X014450Y007294D01*
X014375Y007444D01*
X014450Y007604D02*
X014375Y007679D01*
X014375Y007829D01*
X014450Y007904D01*
X014525Y007904D01*
X014600Y007829D01*
X014675Y007904D01*
X014750Y007904D01*
X014825Y007829D01*
X014825Y007679D01*
X014750Y007604D01*
X014600Y007754D02*
X014600Y007829D01*
X014600Y008065D02*
X014600Y008365D01*
X014525Y008365D02*
X014825Y008365D01*
X014825Y008065D02*
X014525Y008065D01*
X014375Y008215D01*
X014525Y008365D01*
X014543Y009225D02*
X014242Y009225D01*
X014108Y009200D02*
X014108Y009500D01*
X014033Y009575D01*
X013808Y009575D01*
X013808Y009125D01*
X014033Y009125D01*
X014108Y009200D01*
X014082Y009300D02*
X014007Y009225D01*
X013857Y009225D01*
X013782Y009300D01*
X013782Y009600D01*
X013857Y009675D01*
X014007Y009675D01*
X014082Y009600D01*
X014242Y009525D02*
X014392Y009675D01*
X014392Y009225D01*
X013648Y009125D02*
X013348Y009125D01*
X013648Y009425D01*
X013648Y009500D01*
X013573Y009575D01*
X013423Y009575D01*
X013348Y009500D01*
X013475Y009675D02*
X013625Y009675D01*
X013550Y009675D02*
X013550Y009225D01*
X013475Y009225D02*
X013625Y009225D01*
X013188Y009125D02*
X012887Y009125D01*
X013037Y009125D02*
X013037Y009575D01*
X012887Y009425D01*
X012727Y009425D02*
X012727Y009500D01*
X012652Y009575D01*
X012502Y009575D01*
X012427Y009500D01*
X012727Y009425D02*
X012427Y009125D01*
X012727Y009125D01*
X010540Y008370D02*
X010542Y008390D01*
X010548Y008408D01*
X010557Y008426D01*
X010569Y008441D01*
X010584Y008453D01*
X010602Y008462D01*
X010620Y008468D01*
X010640Y008470D01*
X010660Y008468D01*
X010678Y008462D01*
X010696Y008453D01*
X010711Y008441D01*
X010723Y008426D01*
X010732Y008408D01*
X010738Y008390D01*
X010740Y008370D01*
X010738Y008350D01*
X010732Y008332D01*
X010723Y008314D01*
X010711Y008299D01*
X010696Y008287D01*
X010678Y008278D01*
X010660Y008272D01*
X010640Y008270D01*
X010620Y008272D01*
X010602Y008278D01*
X010584Y008287D01*
X010569Y008299D01*
X010557Y008314D01*
X010548Y008332D01*
X010542Y008350D01*
X010540Y008370D01*
X010195Y008315D02*
X009745Y008315D01*
X009895Y008165D01*
X009820Y008004D02*
X010120Y008004D01*
X010195Y007929D01*
X010195Y007779D01*
X010120Y007704D01*
X009820Y007704D01*
X009745Y007779D01*
X009745Y007929D01*
X009820Y008004D01*
X010045Y007854D02*
X010195Y008004D01*
X010195Y008165D02*
X010195Y008465D01*
X010250Y006965D02*
X009950Y006965D01*
X010250Y006665D01*
X010325Y006740D01*
X010325Y006890D01*
X010250Y006965D01*
X009950Y006965D02*
X009875Y006890D01*
X009875Y006740D01*
X009950Y006665D01*
X010250Y006665D01*
X010100Y006504D02*
X010100Y006204D01*
X009875Y006429D01*
X010325Y006429D01*
X008790Y007275D02*
X008790Y007725D01*
X008565Y007500D01*
X008865Y007500D01*
X008404Y007350D02*
X008329Y007275D01*
X008179Y007275D01*
X008104Y007350D01*
X008104Y007650D01*
X008179Y007725D01*
X008329Y007725D01*
X008404Y007650D01*
X008329Y009475D02*
X008179Y009475D01*
X008104Y009550D01*
X008404Y009850D01*
X008404Y009550D01*
X008329Y009475D01*
X008104Y009550D02*
X008104Y009850D01*
X008179Y009925D01*
X008329Y009925D01*
X008404Y009850D01*
X008565Y009775D02*
X008790Y009775D01*
X008865Y009700D01*
X008865Y009475D01*
X008565Y009475D02*
X008565Y009775D01*
X007944Y009850D02*
X007944Y009550D01*
X007869Y009475D01*
X007719Y009475D01*
X007644Y009550D01*
X007944Y009850D01*
X007869Y009925D01*
X007719Y009925D01*
X007644Y009850D01*
X007644Y009550D01*
X007484Y009475D02*
X007183Y009475D01*
X007334Y009475D02*
X007334Y009925D01*
X007183Y009775D01*
X006365Y009700D02*
X006365Y009550D01*
X006290Y009475D01*
X006065Y009475D01*
X006065Y009325D02*
X006065Y009775D01*
X006290Y009775D01*
X006365Y009700D01*
X005904Y009550D02*
X005829Y009475D01*
X005679Y009475D01*
X005604Y009550D01*
X005904Y009850D01*
X005904Y009550D01*
X005604Y009550D02*
X005604Y009850D01*
X005679Y009925D01*
X005829Y009925D01*
X005904Y009850D01*
X005444Y009850D02*
X005144Y009550D01*
X005144Y009475D01*
X004984Y009700D02*
X004683Y009700D01*
X004909Y009925D01*
X004909Y009475D01*
X005144Y009925D02*
X005444Y009925D01*
X005444Y009850D01*
X005679Y007725D02*
X005604Y007650D01*
X005604Y007350D01*
X005679Y007275D01*
X005829Y007275D01*
X005904Y007350D01*
X006065Y007350D02*
X006140Y007275D01*
X006290Y007275D01*
X006365Y007350D01*
X006365Y007425D01*
X006290Y007500D01*
X006215Y007500D01*
X006290Y007500D02*
X006365Y007575D01*
X006365Y007650D01*
X006290Y007725D01*
X006140Y007725D01*
X006065Y007650D01*
X005904Y007650D02*
X005829Y007725D01*
X005679Y007725D01*
X003215Y009725D02*
X002915Y009725D01*
X003065Y009725D02*
X003065Y010175D01*
X002915Y010025D01*
X002754Y010100D02*
X002679Y010175D01*
X002454Y010175D01*
X002454Y009725D01*
X002679Y009725D01*
X002754Y009800D01*
X002754Y010100D01*
X002294Y010175D02*
X001994Y010175D01*
X001994Y009725D01*
X002294Y009725D01*
X002144Y009950D02*
X001994Y009950D01*
X001834Y009725D02*
X001533Y009725D01*
X001533Y010175D01*
X002335Y008925D02*
X002505Y008925D01*
X002562Y008869D01*
X002562Y008755D01*
X002505Y008698D01*
X002335Y008698D01*
X002335Y008585D02*
X002335Y008925D01*
X002448Y008698D02*
X002562Y008585D01*
X002694Y008755D02*
X002921Y008755D01*
X002864Y008585D02*
X002864Y008925D01*
X002694Y008755D01*
X014375Y006448D02*
X014600Y006223D01*
X014825Y006448D02*
X014375Y006448D01*
D14*
X013364Y004430D02*
X013247Y004430D01*
X013189Y004372D01*
X013064Y004372D02*
X013064Y004255D01*
X013005Y004197D01*
X012830Y004197D01*
X012947Y004197D02*
X013064Y004080D01*
X013189Y004138D02*
X013247Y004080D01*
X013364Y004080D01*
X013423Y004138D01*
X013423Y004197D01*
X013364Y004255D01*
X013306Y004255D01*
X013364Y004255D02*
X013423Y004314D01*
X013423Y004372D01*
X013364Y004430D01*
X013064Y004372D02*
X013005Y004430D01*
X012830Y004430D01*
X012830Y004080D01*
X012838Y003060D02*
X012780Y003002D01*
X012838Y003060D02*
X012955Y003060D01*
X013014Y003002D01*
X013014Y002944D01*
X012780Y002710D01*
X013014Y002710D01*
X013139Y002768D02*
X013373Y003002D01*
X013373Y002768D01*
X013314Y002710D01*
X013197Y002710D01*
X013139Y002768D01*
X013139Y003002D01*
X013197Y003060D01*
X013314Y003060D01*
X013373Y003002D01*
X013498Y003002D02*
X013498Y002768D01*
X013732Y003002D01*
X013732Y002768D01*
X013673Y002710D01*
X013557Y002710D01*
X013498Y002768D01*
X013498Y003002D02*
X013557Y003060D01*
X013673Y003060D01*
X013732Y003002D01*
X013857Y002885D02*
X013857Y002768D01*
X013916Y002710D01*
X014032Y002710D01*
X014091Y002768D01*
X014091Y002885D01*
X014032Y002944D01*
X013916Y002944D01*
X013857Y002885D01*
X014216Y002885D02*
X014275Y002944D01*
X014392Y002944D01*
X014450Y002885D01*
X014450Y002710D01*
X014576Y002710D02*
X014576Y002944D01*
X014634Y002944D01*
X014692Y002885D01*
X014751Y002944D01*
X014809Y002885D01*
X014809Y002710D01*
X014692Y002710D02*
X014692Y002885D01*
X014216Y003060D02*
X014216Y002710D01*
X011667Y002970D02*
X011360Y002970D01*
X011513Y002970D02*
X011513Y003430D01*
X011360Y003277D01*
X011206Y003354D02*
X011206Y003200D01*
X011129Y003123D01*
X010899Y003123D01*
X010899Y002970D02*
X010899Y003430D01*
X011129Y003430D01*
X011206Y003354D01*
X011053Y003123D02*
X011206Y002970D01*
X011129Y003670D02*
X010976Y003670D01*
X010899Y003747D01*
X011206Y004054D01*
X011206Y003747D01*
X011129Y003670D01*
X011360Y003670D02*
X011360Y004130D01*
X011206Y004054D02*
X011129Y004130D01*
X010976Y004130D01*
X010899Y004054D01*
X010899Y003747D01*
X010746Y003670D02*
X010439Y003670D01*
X010592Y003670D02*
X010592Y004130D01*
X010439Y003977D01*
X011360Y003823D02*
X011667Y004130D01*
X011436Y003900D02*
X011667Y003670D01*
X009580Y004620D02*
X009580Y004927D01*
X009580Y005080D02*
X009273Y005387D01*
X009196Y005387D01*
X009120Y005311D01*
X009120Y005157D01*
X009196Y005080D01*
X009120Y004773D02*
X009580Y004773D01*
X009580Y005080D02*
X009580Y005387D01*
X009427Y005541D02*
X009580Y005694D01*
X009427Y005848D01*
X009120Y005848D01*
X009120Y005541D02*
X009427Y005541D01*
X009120Y004773D02*
X009273Y004620D01*
X008167Y004130D02*
X008167Y003670D01*
X007860Y003670D02*
X007860Y004130D01*
X008013Y003977D01*
X008167Y004130D01*
X007706Y003670D02*
X007399Y003670D01*
X007553Y003670D02*
X007553Y004130D01*
X007399Y003977D01*
X007399Y003430D02*
X007629Y003430D01*
X007706Y003354D01*
X007706Y003200D01*
X007629Y003123D01*
X007399Y003123D01*
X007399Y002970D02*
X007399Y003430D01*
X007553Y003123D02*
X007706Y002970D01*
X007860Y002970D02*
X008167Y003277D01*
X008167Y003354D01*
X008090Y003430D01*
X007936Y003430D01*
X007860Y003354D01*
X007860Y002970D02*
X008167Y002970D01*
X006080Y004697D02*
X006080Y004773D01*
X006003Y004850D01*
X005620Y004850D01*
X005620Y004773D02*
X005620Y004927D01*
X005773Y005080D02*
X005620Y005234D01*
X006080Y005234D01*
X006080Y005387D02*
X006080Y005080D01*
X006080Y004697D02*
X006003Y004620D01*
X004580Y004620D02*
X004580Y004927D01*
X004580Y005080D02*
X004273Y005387D01*
X004196Y005387D01*
X004120Y005311D01*
X004120Y005157D01*
X004196Y005080D01*
X004120Y004773D02*
X004580Y004773D01*
X004580Y005080D02*
X004580Y005387D01*
X004427Y005541D02*
X004580Y005694D01*
X004427Y005848D01*
X004120Y005848D01*
X004120Y005541D02*
X004427Y005541D01*
X004120Y004773D02*
X004273Y004620D01*
X001080Y004697D02*
X001080Y004773D01*
X001003Y004850D01*
X000620Y004850D01*
X000620Y004773D02*
X000620Y004927D01*
X000696Y005080D02*
X000620Y005157D01*
X000620Y005311D01*
X000696Y005387D01*
X000773Y005387D01*
X000850Y005311D01*
X000927Y005387D01*
X001003Y005387D01*
X001080Y005311D01*
X001080Y005157D01*
X001003Y005080D01*
X000850Y005234D02*
X000850Y005311D01*
X001080Y004697D02*
X001003Y004620D01*
X005620Y011273D02*
X005620Y011427D01*
X005620Y011350D02*
X006003Y011350D01*
X006080Y011273D01*
X006080Y011197D01*
X006003Y011120D01*
X006080Y011580D02*
X005773Y011887D01*
X005696Y011887D01*
X005620Y011811D01*
X005620Y011657D01*
X005696Y011580D01*
X006080Y011580D02*
X006080Y011887D01*
X009043Y011657D02*
X009120Y011657D01*
X009273Y011657D02*
X009580Y011657D01*
X009580Y011580D02*
X009580Y011734D01*
X009350Y011887D02*
X009350Y012194D01*
X009427Y012348D02*
X009580Y012501D01*
X009427Y012655D01*
X009120Y012655D01*
X009120Y012348D02*
X009427Y012348D01*
X009273Y011657D02*
X009273Y011580D01*
X009350Y011427D02*
X009350Y011120D01*
X009580Y011120D02*
X009120Y011120D01*
X009120Y011427D02*
X009580Y011427D01*
X012120Y011620D02*
X012427Y011620D01*
X012580Y011620D02*
X012887Y011620D01*
X012734Y011620D02*
X012734Y012080D01*
X012580Y011927D01*
X012120Y012080D02*
X012120Y011620D01*
X012273Y015870D02*
X012273Y016330D01*
X012120Y016330D02*
X012427Y016330D01*
X012580Y016330D02*
X012580Y016023D01*
X012734Y015870D01*
X012887Y016023D01*
X012887Y016330D01*
X013041Y016177D02*
X013194Y016330D01*
X013194Y015870D01*
X013041Y015870D02*
X013348Y015870D01*
X013501Y015947D02*
X013578Y015870D01*
X013731Y015870D01*
X013808Y015947D01*
X013808Y016023D01*
X013731Y016100D01*
X013655Y016100D01*
X013731Y016100D02*
X013808Y016177D01*
X013808Y016254D01*
X013731Y016330D01*
X013578Y016330D01*
X013501Y016254D01*
X013962Y016100D02*
X013962Y015947D01*
X014038Y015870D01*
X014192Y015870D01*
X014268Y015947D01*
X014268Y016023D01*
X014192Y016100D01*
X013962Y016100D01*
X014115Y016254D01*
X014268Y016330D01*
X014422Y016254D02*
X014499Y016330D01*
X014652Y016330D01*
X014729Y016254D01*
X014729Y016177D01*
X014652Y016100D01*
X014729Y016023D01*
X014729Y015947D01*
X014652Y015870D01*
X014499Y015870D01*
X014422Y015947D01*
X014575Y016100D02*
X014652Y016100D01*
X014882Y016100D02*
X015189Y016100D01*
X015343Y016100D02*
X015573Y016100D01*
X015650Y016023D01*
X015650Y015947D01*
X015573Y015870D01*
X015343Y015870D01*
X015343Y016330D01*
X015573Y016330D01*
X015650Y016254D01*
X015650Y016177D01*
X015573Y016100D01*
D15*
X013600Y014100D03*
D16*
X010330Y010640D03*
D17*
X012100Y011950D03*
D18*
X010375Y011700D03*
X013825Y011700D03*
D19*
X012100Y011700D03*
D20*
X009825Y016100D03*
X005825Y016100D03*
D21*
X000300Y009100D02*
X000302Y009046D01*
X000307Y008992D01*
X000316Y008939D01*
X000329Y008886D01*
X000345Y008835D01*
X000365Y008785D01*
X000388Y008736D01*
X000414Y008688D01*
X000443Y008643D01*
X000476Y008600D01*
X000511Y008559D01*
X000549Y008520D01*
X000589Y008484D01*
X000632Y008451D01*
X000677Y008421D01*
X000724Y008394D01*
X001497Y008405D02*
X001545Y008435D01*
X001590Y008468D01*
X001633Y008504D01*
X001674Y008542D01*
X001711Y008584D01*
X001746Y008628D01*
X001777Y008674D01*
X001806Y008723D01*
X001830Y008773D01*
X001851Y008825D01*
X001869Y008879D01*
X001882Y008933D01*
X001892Y008988D01*
X001898Y009044D01*
X001900Y009100D01*
X001898Y009153D01*
X001893Y009207D01*
X001884Y009259D01*
X001872Y009311D01*
X001856Y009362D01*
X001837Y009412D01*
X001814Y009461D01*
X001788Y009508D01*
X001760Y009553D01*
X001728Y009596D01*
X001694Y009636D01*
X001656Y009675D01*
X001617Y009711D01*
X000588Y009715D02*
X000548Y009679D01*
X000510Y009640D01*
X000475Y009599D01*
X000443Y009556D01*
X000413Y009511D01*
X000387Y009464D01*
X000365Y009415D01*
X000345Y009364D01*
X000329Y009313D01*
X000316Y009261D01*
X000307Y009207D01*
X000302Y009154D01*
X000300Y009100D01*
X005500Y008900D02*
X005500Y008600D01*
X005500Y008300D01*
X005700Y008300D02*
X005700Y008600D01*
X005700Y008900D01*
X008000Y008900D02*
X008000Y008600D01*
X008000Y008300D01*
X008200Y008300D02*
X008200Y008600D01*
X008200Y008900D01*
D22*
X008850Y011100D02*
X007100Y011100D01*
X007100Y013100D01*
X008850Y013100D01*
X008850Y011100D01*
X007100Y011100D02*
X006350Y011100D01*
X006350Y013100D01*
X007100Y013100D01*
X007100Y006600D02*
X006350Y006600D01*
X006350Y004600D01*
X007100Y004600D01*
X007100Y006600D01*
X008850Y006600D01*
X008850Y004600D01*
X007100Y004600D01*
X003850Y004600D02*
X002100Y004600D01*
X002100Y006600D01*
X003850Y006600D01*
X003850Y004600D01*
X002100Y004600D02*
X001350Y004600D01*
X001350Y006600D01*
X002100Y006600D01*
D23*
X011950Y006600D03*
D24*
X011700Y008325D03*
X011700Y004875D03*
D25*
X011700Y006100D03*
X011700Y007100D03*
D26*
X015720Y001850D02*
X015722Y001900D01*
X015728Y001950D01*
X015738Y001999D01*
X015752Y002047D01*
X015769Y002094D01*
X015790Y002139D01*
X015815Y002183D01*
X015843Y002224D01*
X015875Y002263D01*
X015909Y002300D01*
X015946Y002334D01*
X015986Y002364D01*
X016028Y002391D01*
X016072Y002415D01*
X016118Y002436D01*
X016165Y002452D01*
X016213Y002465D01*
X016263Y002474D01*
X016312Y002479D01*
X016363Y002480D01*
X016413Y002477D01*
X016462Y002470D01*
X016511Y002459D01*
X016559Y002444D01*
X016605Y002426D01*
X016650Y002404D01*
X016693Y002378D01*
X016734Y002349D01*
X016773Y002317D01*
X016809Y002282D01*
X016841Y002244D01*
X016871Y002204D01*
X016898Y002161D01*
X016921Y002117D01*
X016940Y002071D01*
X016956Y002023D01*
X016968Y001974D01*
X016976Y001925D01*
X016980Y001875D01*
X016980Y001825D01*
X016976Y001775D01*
X016968Y001726D01*
X016956Y001677D01*
X016940Y001629D01*
X016921Y001583D01*
X016898Y001539D01*
X016871Y001496D01*
X016841Y001456D01*
X016809Y001418D01*
X016773Y001383D01*
X016734Y001351D01*
X016693Y001322D01*
X016650Y001296D01*
X016605Y001274D01*
X016559Y001256D01*
X016511Y001241D01*
X016462Y001230D01*
X016413Y001223D01*
X016363Y001220D01*
X016312Y001221D01*
X016263Y001226D01*
X016213Y001235D01*
X016165Y001248D01*
X016118Y001264D01*
X016072Y001285D01*
X016028Y001309D01*
X015986Y001336D01*
X015946Y001366D01*
X015909Y001400D01*
X015875Y001437D01*
X015843Y001476D01*
X015815Y001517D01*
X015790Y001561D01*
X015769Y001606D01*
X015752Y001653D01*
X015738Y001701D01*
X015728Y001750D01*
X015722Y001800D01*
X015720Y001850D01*
X001220Y001850D02*
X001222Y001900D01*
X001228Y001950D01*
X001238Y001999D01*
X001252Y002047D01*
X001269Y002094D01*
X001290Y002139D01*
X001315Y002183D01*
X001343Y002224D01*
X001375Y002263D01*
X001409Y002300D01*
X001446Y002334D01*
X001486Y002364D01*
X001528Y002391D01*
X001572Y002415D01*
X001618Y002436D01*
X001665Y002452D01*
X001713Y002465D01*
X001763Y002474D01*
X001812Y002479D01*
X001863Y002480D01*
X001913Y002477D01*
X001962Y002470D01*
X002011Y002459D01*
X002059Y002444D01*
X002105Y002426D01*
X002150Y002404D01*
X002193Y002378D01*
X002234Y002349D01*
X002273Y002317D01*
X002309Y002282D01*
X002341Y002244D01*
X002371Y002204D01*
X002398Y002161D01*
X002421Y002117D01*
X002440Y002071D01*
X002456Y002023D01*
X002468Y001974D01*
X002476Y001925D01*
X002480Y001875D01*
X002480Y001825D01*
X002476Y001775D01*
X002468Y001726D01*
X002456Y001677D01*
X002440Y001629D01*
X002421Y001583D01*
X002398Y001539D01*
X002371Y001496D01*
X002341Y001456D01*
X002309Y001418D01*
X002273Y001383D01*
X002234Y001351D01*
X002193Y001322D01*
X002150Y001296D01*
X002105Y001274D01*
X002059Y001256D01*
X002011Y001241D01*
X001962Y001230D01*
X001913Y001223D01*
X001863Y001220D01*
X001812Y001221D01*
X001763Y001226D01*
X001713Y001235D01*
X001665Y001248D01*
X001618Y001264D01*
X001572Y001285D01*
X001528Y001309D01*
X001486Y001336D01*
X001446Y001366D01*
X001409Y001400D01*
X001375Y001437D01*
X001343Y001476D01*
X001315Y001517D01*
X001290Y001561D01*
X001269Y001606D01*
X001252Y001653D01*
X001238Y001701D01*
X001228Y001750D01*
X001222Y001800D01*
X001220Y001850D01*
X001220Y016350D02*
X001222Y016400D01*
X001228Y016450D01*
X001238Y016499D01*
X001252Y016547D01*
X001269Y016594D01*
X001290Y016639D01*
X001315Y016683D01*
X001343Y016724D01*
X001375Y016763D01*
X001409Y016800D01*
X001446Y016834D01*
X001486Y016864D01*
X001528Y016891D01*
X001572Y016915D01*
X001618Y016936D01*
X001665Y016952D01*
X001713Y016965D01*
X001763Y016974D01*
X001812Y016979D01*
X001863Y016980D01*
X001913Y016977D01*
X001962Y016970D01*
X002011Y016959D01*
X002059Y016944D01*
X002105Y016926D01*
X002150Y016904D01*
X002193Y016878D01*
X002234Y016849D01*
X002273Y016817D01*
X002309Y016782D01*
X002341Y016744D01*
X002371Y016704D01*
X002398Y016661D01*
X002421Y016617D01*
X002440Y016571D01*
X002456Y016523D01*
X002468Y016474D01*
X002476Y016425D01*
X002480Y016375D01*
X002480Y016325D01*
X002476Y016275D01*
X002468Y016226D01*
X002456Y016177D01*
X002440Y016129D01*
X002421Y016083D01*
X002398Y016039D01*
X002371Y015996D01*
X002341Y015956D01*
X002309Y015918D01*
X002273Y015883D01*
X002234Y015851D01*
X002193Y015822D01*
X002150Y015796D01*
X002105Y015774D01*
X002059Y015756D01*
X002011Y015741D01*
X001962Y015730D01*
X001913Y015723D01*
X001863Y015720D01*
X001812Y015721D01*
X001763Y015726D01*
X001713Y015735D01*
X001665Y015748D01*
X001618Y015764D01*
X001572Y015785D01*
X001528Y015809D01*
X001486Y015836D01*
X001446Y015866D01*
X001409Y015900D01*
X001375Y015937D01*
X001343Y015976D01*
X001315Y016017D01*
X001290Y016061D01*
X001269Y016106D01*
X001252Y016153D01*
X001238Y016201D01*
X001228Y016250D01*
X001222Y016300D01*
X001220Y016350D01*
X015720Y016350D02*
X015722Y016400D01*
X015728Y016450D01*
X015738Y016499D01*
X015752Y016547D01*
X015769Y016594D01*
X015790Y016639D01*
X015815Y016683D01*
X015843Y016724D01*
X015875Y016763D01*
X015909Y016800D01*
X015946Y016834D01*
X015986Y016864D01*
X016028Y016891D01*
X016072Y016915D01*
X016118Y016936D01*
X016165Y016952D01*
X016213Y016965D01*
X016263Y016974D01*
X016312Y016979D01*
X016363Y016980D01*
X016413Y016977D01*
X016462Y016970D01*
X016511Y016959D01*
X016559Y016944D01*
X016605Y016926D01*
X016650Y016904D01*
X016693Y016878D01*
X016734Y016849D01*
X016773Y016817D01*
X016809Y016782D01*
X016841Y016744D01*
X016871Y016704D01*
X016898Y016661D01*
X016921Y016617D01*
X016940Y016571D01*
X016956Y016523D01*
X016968Y016474D01*
X016976Y016425D01*
X016980Y016375D01*
X016980Y016325D01*
X016976Y016275D01*
X016968Y016226D01*
X016956Y016177D01*
X016940Y016129D01*
X016921Y016083D01*
X016898Y016039D01*
X016871Y015996D01*
X016841Y015956D01*
X016809Y015918D01*
X016773Y015883D01*
X016734Y015851D01*
X016693Y015822D01*
X016650Y015796D01*
X016605Y015774D01*
X016559Y015756D01*
X016511Y015741D01*
X016462Y015730D01*
X016413Y015723D01*
X016363Y015720D01*
X016312Y015721D01*
X016263Y015726D01*
X016213Y015735D01*
X016165Y015748D01*
X016118Y015764D01*
X016072Y015785D01*
X016028Y015809D01*
X015986Y015836D01*
X015946Y015866D01*
X015909Y015900D01*
X015875Y015937D01*
X015843Y015976D01*
X015815Y016017D01*
X015790Y016061D01*
X015769Y016106D01*
X015752Y016153D01*
X015738Y016201D01*
X015728Y016250D01*
X015722Y016300D01*
X015720Y016350D01*
M02*
