G75*
G70*
%OFA0B0*%
%FSLAX24Y24*%
%IPPOS*%
%LPD*%
%AMOC8*
5,1,8,0,0,1.08239X$1,22.5*
%
%ADD10C,0.0600*%
%ADD11C,0.1080*%
%ADD12C,0.0789*%
%ADD13C,0.0580*%
%ADD14OC8,0.1080*%
%ADD15OC8,0.0600*%
%ADD16C,0.0848*%
%ADD17C,0.0680*%
%ADD18C,0.1261*%
D10*
X012840Y005600D02*
X013360Y005600D01*
X013360Y006600D02*
X012840Y006600D01*
X012840Y007600D02*
X013360Y007600D01*
X013360Y008600D02*
X012840Y008600D01*
X015840Y008600D02*
X016360Y008600D01*
X016360Y007600D02*
X015840Y007600D01*
X015840Y006600D02*
X016360Y006600D01*
X016360Y005600D02*
X015840Y005600D01*
D11*
X014584Y014100D03*
X012616Y014100D03*
X008600Y016100D03*
X004600Y016100D03*
D12*
X011100Y011454D02*
X011100Y010746D01*
X013100Y010746D02*
X013100Y011454D01*
D13*
X010600Y002600D03*
X009600Y001600D03*
X008100Y001600D03*
X007100Y002600D03*
X006100Y001600D03*
X011600Y001600D03*
D14*
X010600Y016100D03*
X006600Y016100D03*
D15*
X001100Y009600D03*
X001100Y008600D03*
X002100Y008100D03*
X004100Y008100D03*
X005100Y008600D03*
X006100Y008600D03*
X007600Y008600D03*
X008600Y008600D03*
X012600Y003600D03*
X014600Y003600D03*
D16*
X007984Y005100D02*
X007216Y005100D01*
X007216Y006100D02*
X007984Y006100D01*
X002984Y006100D02*
X002216Y006100D01*
X002216Y005100D02*
X002984Y005100D01*
X007216Y011600D02*
X007984Y011600D01*
X007984Y012600D02*
X007216Y012600D01*
D17*
X010800Y007600D02*
X011400Y007600D01*
X011400Y006600D02*
X010800Y006600D01*
X010800Y005600D02*
X011400Y005600D01*
D18*
X001850Y001850D03*
X001850Y016350D03*
X016350Y016350D03*
X016350Y001850D03*
M02*
