%
M48
M72
T01C0.0240
T02C0.0320
T03C0.0400
T04C0.0472
T05C0.0512
T06C0.1181
%
T01
X6100Y1600
X7100Y2600
X8100Y1600
X9600Y1600
X10600Y2600
X11600Y1600
T02
X12600Y3600
X14600Y3600
X13100Y5600
X13100Y6600
X13100Y7600
X13100Y8600
X16100Y8600
X16100Y7600
X16100Y6600
X16100Y5600
X8600Y8600
X7600Y8600
X6100Y8600
X5100Y8600
X4100Y8100
X2100Y8100
X1100Y8600
X1100Y9600
T03
X4600Y16100
X6600Y16100
X8600Y16100
X10600Y16100
X11100Y7600
X11100Y6600
X11100Y5600
T04
X11100Y11100
X13100Y11100
X12616Y14100
X14584Y14100
T05
X7600Y12600
X7600Y11600
X7600Y6100
X7600Y5100
X2600Y5100
X2600Y6100
T06
X1850Y1850
X1850Y16350
X16350Y16350
X16350Y1850
M30
