%
M48
M72
T01C0.02400
T02C0.03150
T03C0.03200
%
T01
X33000Y55500
X35500Y78000
X33000Y83000
X35500Y100500
X40500Y105500
X25500Y120500
X20500Y105500
X58000Y65500
X68000Y88000
X78000Y90500
X88000Y110500
X98000Y118000
X108000Y118000
X100500Y93000
X108000Y88000
X118000Y90500
X140500Y100500
X145500Y110500
X133000Y125500
X135500Y150500
X123000Y153000
X148000Y180500
X163000Y155500
X173000Y150500
X168000Y143000
X183000Y145500
X183000Y108000
X173000Y83000
X183000Y80500
X143000Y53000
X118000Y63000
X68000Y115500
X73000Y143000
X98000Y183000
T02
X93000Y188000
X83000Y188000
X73000Y188000
X63000Y188000
X53000Y188000
X103000Y188000
X113000Y188000
X123000Y188000
X133000Y188000
X143000Y188000
X153000Y188000
X163000Y188000
X163000Y38000
X153000Y38000
X143000Y38000
X133000Y38000
X123000Y38000
X113000Y38000
X103000Y38000
X93000Y38000
X83000Y38000
X73000Y38000
X63000Y38000
X53000Y38000
T03
X23000Y45500
X23000Y55500
X23000Y65500
X23000Y75500
X23000Y85500
X23000Y95500
X43000Y128000
X53000Y128000
X63000Y128000
X73000Y128000
X83000Y128000
X93000Y128000
X103000Y128000
X113000Y128000
X128000Y133000
X138000Y133000
X148000Y133000
X158000Y133000
X168000Y133000
X178000Y133000
X188000Y133000
X198000Y133000
X195500Y118000
X195500Y108000
X195500Y98000
X195500Y88000
X195500Y78000
X195500Y68000
X195500Y58000
X195500Y48000
X165500Y48000
X165500Y58000
X165500Y68000
X165500Y78000
X165500Y88000
X165500Y98000
X165500Y108000
X165500Y118000
X133000Y103000
X123000Y103000
X113000Y103000
X103000Y103000
X93000Y103000
X83000Y103000
X73000Y103000
X63000Y103000
X53000Y103000
X53000Y73000
X63000Y73000
X73000Y73000
X83000Y73000
X93000Y73000
X103000Y73000
X113000Y73000
X123000Y73000
X133000Y73000
X133000Y53000
X123000Y53000
X113000Y53000
X103000Y53000
X93000Y53000
X83000Y53000
X73000Y53000
X63000Y53000
X63000Y23000
X73000Y23000
X83000Y23000
X93000Y23000
X103000Y23000
X113000Y23000
X123000Y23000
X133000Y23000
X23000Y133000
X23000Y143000
X23000Y153000
X23000Y163000
X23000Y173000
X23000Y183000
X43000Y158000
X53000Y158000
X63000Y158000
X73000Y158000
X83000Y158000
X93000Y158000
X103000Y158000
X113000Y158000
X113000Y173000
X103000Y173000
X93000Y173000
X93000Y203000
X103000Y203000
X113000Y203000
X123000Y203000
X133000Y203000
X143000Y203000
X153000Y203000
X163000Y203000
X163000Y173000
X153000Y173000
X148000Y163000
X143000Y173000
X138000Y163000
X128000Y163000
X123000Y173000
X133000Y173000
X158000Y163000
X168000Y163000
X178000Y163000
X188000Y163000
X198000Y163000
M30
