G75*
%MOIN*%
%OFA0B0*%
%FSLAX25Y25*%
%IPPOS*%
%LPD*%
%AMOC8*
5,1,8,0,0,1.08239X$1,22.5*
%
%ADD10C,0.00000*%
%ADD11C,0.00600*%
%ADD12C,0.00500*%
D10*
X0008000Y0013000D02*
X0008000Y0212961D01*
X0206701Y0212961D01*
X0206701Y0013000D01*
X0008000Y0013000D01*
D11*
X0058000Y0026500D02*
X0058000Y0049500D01*
X0138000Y0049500D01*
X0138000Y0042000D01*
X0137874Y0041998D01*
X0137749Y0041992D01*
X0137624Y0041982D01*
X0137499Y0041968D01*
X0137374Y0041951D01*
X0137250Y0041929D01*
X0137127Y0041904D01*
X0137005Y0041874D01*
X0136884Y0041841D01*
X0136764Y0041804D01*
X0136645Y0041764D01*
X0136528Y0041719D01*
X0136411Y0041671D01*
X0136297Y0041619D01*
X0136184Y0041564D01*
X0136073Y0041505D01*
X0135964Y0041443D01*
X0135857Y0041377D01*
X0135752Y0041308D01*
X0135649Y0041236D01*
X0135548Y0041161D01*
X0135450Y0041082D01*
X0135355Y0041000D01*
X0135262Y0040916D01*
X0135172Y0040828D01*
X0135084Y0040738D01*
X0135000Y0040645D01*
X0134918Y0040550D01*
X0134839Y0040452D01*
X0134764Y0040351D01*
X0134692Y0040248D01*
X0134623Y0040143D01*
X0134557Y0040036D01*
X0134495Y0039927D01*
X0134436Y0039816D01*
X0134381Y0039703D01*
X0134329Y0039589D01*
X0134281Y0039472D01*
X0134236Y0039355D01*
X0134196Y0039236D01*
X0134159Y0039116D01*
X0134126Y0038995D01*
X0134096Y0038873D01*
X0134071Y0038750D01*
X0134049Y0038626D01*
X0134032Y0038501D01*
X0134018Y0038376D01*
X0134008Y0038251D01*
X0134002Y0038126D01*
X0134000Y0038000D01*
X0134002Y0037874D01*
X0134008Y0037749D01*
X0134018Y0037624D01*
X0134032Y0037499D01*
X0134049Y0037374D01*
X0134071Y0037250D01*
X0134096Y0037127D01*
X0134126Y0037005D01*
X0134159Y0036884D01*
X0134196Y0036764D01*
X0134236Y0036645D01*
X0134281Y0036528D01*
X0134329Y0036411D01*
X0134381Y0036297D01*
X0134436Y0036184D01*
X0134495Y0036073D01*
X0134557Y0035964D01*
X0134623Y0035857D01*
X0134692Y0035752D01*
X0134764Y0035649D01*
X0134839Y0035548D01*
X0134918Y0035450D01*
X0135000Y0035355D01*
X0135084Y0035262D01*
X0135172Y0035172D01*
X0135262Y0035084D01*
X0135355Y0035000D01*
X0135450Y0034918D01*
X0135548Y0034839D01*
X0135649Y0034764D01*
X0135752Y0034692D01*
X0135857Y0034623D01*
X0135964Y0034557D01*
X0136073Y0034495D01*
X0136184Y0034436D01*
X0136297Y0034381D01*
X0136411Y0034329D01*
X0136528Y0034281D01*
X0136645Y0034236D01*
X0136764Y0034196D01*
X0136884Y0034159D01*
X0137005Y0034126D01*
X0137127Y0034096D01*
X0137250Y0034071D01*
X0137374Y0034049D01*
X0137499Y0034032D01*
X0137624Y0034018D01*
X0137749Y0034008D01*
X0137874Y0034002D01*
X0138000Y0034000D01*
X0138000Y0026500D01*
X0058000Y0026500D01*
D12*
X0139750Y0027501D02*
X0139750Y0029002D01*
X0140501Y0029753D01*
X0144254Y0029753D01*
X0143503Y0031354D02*
X0144254Y0032105D01*
X0144254Y0033606D01*
X0143503Y0034356D01*
X0142753Y0034356D01*
X0139750Y0031354D01*
X0139750Y0034356D01*
X0139750Y0027501D02*
X0140501Y0026750D01*
X0144254Y0026750D01*
M02*
