G75*
%MOIN*%
%OFA0B0*%
%FSLAX25Y25*%
%IPPOS*%
%LPD*%
%AMOC8*
5,1,8,0,0,1.08239X$1,22.5*
%
%ADD10R,0.05950X0.05950*%
%ADD11C,0.06000*%
%ADD12C,0.04800*%
D10*
X0053000Y0038000D03*
X0063000Y0038000D03*
X0073000Y0038000D03*
X0083000Y0038000D03*
X0093000Y0038000D03*
X0103000Y0038000D03*
X0113000Y0038000D03*
X0123000Y0038000D03*
X0133000Y0038000D03*
X0143000Y0038000D03*
X0153000Y0038000D03*
X0163000Y0038000D03*
X0163000Y0188000D03*
X0153000Y0188000D03*
X0143000Y0188000D03*
X0133000Y0188000D03*
X0123000Y0188000D03*
X0113000Y0188000D03*
X0103000Y0188000D03*
X0093000Y0188000D03*
X0083000Y0188000D03*
X0073000Y0188000D03*
X0063000Y0188000D03*
X0053000Y0188000D03*
D11*
X0025600Y0045500D02*
X0020400Y0045500D01*
X0020400Y0055500D02*
X0025600Y0055500D01*
X0025600Y0065500D02*
X0020400Y0065500D01*
X0020400Y0075500D02*
X0025600Y0075500D01*
X0025600Y0085500D02*
X0020400Y0085500D01*
X0020400Y0095500D02*
X0025600Y0095500D01*
X0053000Y0100400D02*
X0053000Y0105600D01*
X0063000Y0105600D02*
X0063000Y0100400D01*
X0073000Y0100400D02*
X0073000Y0105600D01*
X0083000Y0105600D02*
X0083000Y0100400D01*
X0093000Y0100400D02*
X0093000Y0105600D01*
X0103000Y0105600D02*
X0103000Y0100400D01*
X0113000Y0100400D02*
X0113000Y0105600D01*
X0123000Y0105600D02*
X0123000Y0100400D01*
X0133000Y0100400D02*
X0133000Y0105600D01*
X0113000Y0125400D02*
X0113000Y0130600D01*
X0103000Y0130600D02*
X0103000Y0125400D01*
X0093000Y0125400D02*
X0093000Y0130600D01*
X0083000Y0130600D02*
X0083000Y0125400D01*
X0073000Y0125400D02*
X0073000Y0130600D01*
X0063000Y0130600D02*
X0063000Y0125400D01*
X0053000Y0125400D02*
X0053000Y0130600D01*
X0043000Y0130600D02*
X0043000Y0125400D01*
X0025600Y0133000D02*
X0020400Y0133000D01*
X0020400Y0143000D02*
X0025600Y0143000D01*
X0025600Y0153000D02*
X0020400Y0153000D01*
X0020400Y0163000D02*
X0025600Y0163000D01*
X0025600Y0173000D02*
X0020400Y0173000D01*
X0020400Y0183000D02*
X0025600Y0183000D01*
X0043000Y0160600D02*
X0043000Y0155400D01*
X0053000Y0155400D02*
X0053000Y0160600D01*
X0063000Y0160600D02*
X0063000Y0155400D01*
X0073000Y0155400D02*
X0073000Y0160600D01*
X0083000Y0160600D02*
X0083000Y0155400D01*
X0093000Y0155400D02*
X0093000Y0160600D01*
X0093000Y0170400D02*
X0093000Y0175600D01*
X0103000Y0175600D02*
X0103000Y0170400D01*
X0103000Y0160600D02*
X0103000Y0155400D01*
X0113000Y0155400D02*
X0113000Y0160600D01*
X0113000Y0170400D02*
X0113000Y0175600D01*
X0123000Y0175600D02*
X0123000Y0170400D01*
X0128000Y0165600D02*
X0128000Y0160400D01*
X0138000Y0160400D02*
X0138000Y0165600D01*
X0133000Y0170400D02*
X0133000Y0175600D01*
X0143000Y0175600D02*
X0143000Y0170400D01*
X0148000Y0165600D02*
X0148000Y0160400D01*
X0153000Y0170400D02*
X0153000Y0175600D01*
X0163000Y0175600D02*
X0163000Y0170400D01*
X0158000Y0165600D02*
X0158000Y0160400D01*
X0168000Y0160400D02*
X0168000Y0165600D01*
X0178000Y0165600D02*
X0178000Y0160400D01*
X0188000Y0160400D02*
X0188000Y0165600D01*
X0198000Y0165600D02*
X0198000Y0160400D01*
X0198000Y0135600D02*
X0198000Y0130400D01*
X0188000Y0130400D02*
X0188000Y0135600D01*
X0178000Y0135600D02*
X0178000Y0130400D01*
X0168000Y0130400D02*
X0168000Y0135600D01*
X0158000Y0135600D02*
X0158000Y0130400D01*
X0148000Y0130400D02*
X0148000Y0135600D01*
X0138000Y0135600D02*
X0138000Y0130400D01*
X0128000Y0130400D02*
X0128000Y0135600D01*
X0162900Y0118000D02*
X0168100Y0118000D01*
X0168100Y0108000D02*
X0162900Y0108000D01*
X0162900Y0098000D02*
X0168100Y0098000D01*
X0168100Y0088000D02*
X0162900Y0088000D01*
X0162900Y0078000D02*
X0168100Y0078000D01*
X0168100Y0068000D02*
X0162900Y0068000D01*
X0162900Y0058000D02*
X0168100Y0058000D01*
X0168100Y0048000D02*
X0162900Y0048000D01*
X0133000Y0050400D02*
X0133000Y0055600D01*
X0123000Y0055600D02*
X0123000Y0050400D01*
X0113000Y0050400D02*
X0113000Y0055600D01*
X0103000Y0055600D02*
X0103000Y0050400D01*
X0093000Y0050400D02*
X0093000Y0055600D01*
X0083000Y0055600D02*
X0083000Y0050400D01*
X0073000Y0050400D02*
X0073000Y0055600D01*
X0063000Y0055600D02*
X0063000Y0050400D01*
X0063000Y0070400D02*
X0063000Y0075600D01*
X0073000Y0075600D02*
X0073000Y0070400D01*
X0083000Y0070400D02*
X0083000Y0075600D01*
X0093000Y0075600D02*
X0093000Y0070400D01*
X0103000Y0070400D02*
X0103000Y0075600D01*
X0113000Y0075600D02*
X0113000Y0070400D01*
X0123000Y0070400D02*
X0123000Y0075600D01*
X0133000Y0075600D02*
X0133000Y0070400D01*
X0133000Y0025600D02*
X0133000Y0020400D01*
X0123000Y0020400D02*
X0123000Y0025600D01*
X0113000Y0025600D02*
X0113000Y0020400D01*
X0103000Y0020400D02*
X0103000Y0025600D01*
X0093000Y0025600D02*
X0093000Y0020400D01*
X0083000Y0020400D02*
X0083000Y0025600D01*
X0073000Y0025600D02*
X0073000Y0020400D01*
X0063000Y0020400D02*
X0063000Y0025600D01*
X0053000Y0070400D02*
X0053000Y0075600D01*
X0093000Y0200400D02*
X0093000Y0205600D01*
X0103000Y0205600D02*
X0103000Y0200400D01*
X0113000Y0200400D02*
X0113000Y0205600D01*
X0123000Y0205600D02*
X0123000Y0200400D01*
X0133000Y0200400D02*
X0133000Y0205600D01*
X0143000Y0205600D02*
X0143000Y0200400D01*
X0153000Y0200400D02*
X0153000Y0205600D01*
X0163000Y0205600D02*
X0163000Y0200400D01*
X0192900Y0118000D02*
X0198100Y0118000D01*
X0198100Y0108000D02*
X0192900Y0108000D01*
X0192900Y0098000D02*
X0198100Y0098000D01*
X0198100Y0088000D02*
X0192900Y0088000D01*
X0192900Y0078000D02*
X0198100Y0078000D01*
X0198100Y0068000D02*
X0192900Y0068000D01*
X0192900Y0058000D02*
X0198100Y0058000D01*
X0198100Y0048000D02*
X0192900Y0048000D01*
D12*
X0183000Y0080500D03*
X0173000Y0083000D03*
X0183000Y0108000D03*
X0168000Y0143000D03*
X0173000Y0150500D03*
X0183000Y0145500D03*
X0163000Y0155500D03*
X0148000Y0180500D03*
X0123000Y0153000D03*
X0135500Y0150500D03*
X0133000Y0125500D03*
X0145500Y0110500D03*
X0140500Y0100500D03*
X0118000Y0090500D03*
X0108000Y0088000D03*
X0100500Y0093000D03*
X0088000Y0110500D03*
X0098000Y0118000D03*
X0108000Y0118000D03*
X0078000Y0090500D03*
X0068000Y0088000D03*
X0058000Y0065500D03*
X0035500Y0078000D03*
X0033000Y0083000D03*
X0035500Y0100500D03*
X0040500Y0105500D03*
X0025500Y0120500D03*
X0020500Y0105500D03*
X0033000Y0055500D03*
X0068000Y0115500D03*
X0073000Y0143000D03*
X0098000Y0183000D03*
X0118000Y0063000D03*
X0143000Y0053000D03*
M02*
