G75*
%MOIN*%
%OFA0B0*%
%FSLAX25Y25*%
%IPPOS*%
%LPD*%
%AMOC8*
5,1,8,0,0,1.08239X$1,22.5*
%
%ADD10C,0.00000*%
%ADD11C,0.00800*%
%ADD12C,0.00400*%
%ADD13C,0.00600*%
%ADD14C,0.00500*%
%ADD15C,0.01000*%
D10*
X0001400Y0001400D02*
X0001400Y0201361D01*
X0200101Y0201361D01*
X0200101Y0001400D01*
X0001400Y0001400D01*
D11*
X0201400Y0001400D01*
X0201400Y0201400D01*
X0001400Y0201400D01*
X0001400Y0001400D01*
D12*
X0101600Y0100833D02*
X0104669Y0100833D01*
D13*
X0111400Y0119900D02*
X0111400Y0142900D01*
X0031400Y0142900D01*
X0031400Y0135400D01*
X0031526Y0135398D01*
X0031651Y0135392D01*
X0031776Y0135382D01*
X0031901Y0135368D01*
X0032026Y0135351D01*
X0032150Y0135329D01*
X0032273Y0135304D01*
X0032395Y0135274D01*
X0032516Y0135241D01*
X0032636Y0135204D01*
X0032755Y0135164D01*
X0032872Y0135119D01*
X0032989Y0135071D01*
X0033103Y0135019D01*
X0033216Y0134964D01*
X0033327Y0134905D01*
X0033436Y0134843D01*
X0033543Y0134777D01*
X0033648Y0134708D01*
X0033751Y0134636D01*
X0033852Y0134561D01*
X0033950Y0134482D01*
X0034045Y0134400D01*
X0034138Y0134316D01*
X0034228Y0134228D01*
X0034316Y0134138D01*
X0034400Y0134045D01*
X0034482Y0133950D01*
X0034561Y0133852D01*
X0034636Y0133751D01*
X0034708Y0133648D01*
X0034777Y0133543D01*
X0034843Y0133436D01*
X0034905Y0133327D01*
X0034964Y0133216D01*
X0035019Y0133103D01*
X0035071Y0132989D01*
X0035119Y0132872D01*
X0035164Y0132755D01*
X0035204Y0132636D01*
X0035241Y0132516D01*
X0035274Y0132395D01*
X0035304Y0132273D01*
X0035329Y0132150D01*
X0035351Y0132026D01*
X0035368Y0131901D01*
X0035382Y0131776D01*
X0035392Y0131651D01*
X0035398Y0131526D01*
X0035400Y0131400D01*
X0035398Y0131274D01*
X0035392Y0131149D01*
X0035382Y0131024D01*
X0035368Y0130899D01*
X0035351Y0130774D01*
X0035329Y0130650D01*
X0035304Y0130527D01*
X0035274Y0130405D01*
X0035241Y0130284D01*
X0035204Y0130164D01*
X0035164Y0130045D01*
X0035119Y0129928D01*
X0035071Y0129811D01*
X0035019Y0129697D01*
X0034964Y0129584D01*
X0034905Y0129473D01*
X0034843Y0129364D01*
X0034777Y0129257D01*
X0034708Y0129152D01*
X0034636Y0129049D01*
X0034561Y0128948D01*
X0034482Y0128850D01*
X0034400Y0128755D01*
X0034316Y0128662D01*
X0034228Y0128572D01*
X0034138Y0128484D01*
X0034045Y0128400D01*
X0033950Y0128318D01*
X0033852Y0128239D01*
X0033751Y0128164D01*
X0033648Y0128092D01*
X0033543Y0128023D01*
X0033436Y0127957D01*
X0033327Y0127895D01*
X0033216Y0127836D01*
X0033103Y0127781D01*
X0032989Y0127729D01*
X0032872Y0127681D01*
X0032755Y0127636D01*
X0032636Y0127596D01*
X0032516Y0127559D01*
X0032395Y0127526D01*
X0032273Y0127496D01*
X0032150Y0127471D01*
X0032026Y0127449D01*
X0031901Y0127432D01*
X0031776Y0127418D01*
X0031651Y0127408D01*
X0031526Y0127402D01*
X0031400Y0127400D01*
X0031400Y0119900D01*
X0111400Y0119900D01*
X0116400Y0124900D02*
X0116400Y0132400D01*
X0116526Y0132402D01*
X0116651Y0132408D01*
X0116776Y0132418D01*
X0116901Y0132432D01*
X0117026Y0132449D01*
X0117150Y0132471D01*
X0117273Y0132496D01*
X0117395Y0132526D01*
X0117516Y0132559D01*
X0117636Y0132596D01*
X0117755Y0132636D01*
X0117872Y0132681D01*
X0117989Y0132729D01*
X0118103Y0132781D01*
X0118216Y0132836D01*
X0118327Y0132895D01*
X0118436Y0132957D01*
X0118543Y0133023D01*
X0118648Y0133092D01*
X0118751Y0133164D01*
X0118852Y0133239D01*
X0118950Y0133318D01*
X0119045Y0133400D01*
X0119138Y0133484D01*
X0119228Y0133572D01*
X0119316Y0133662D01*
X0119400Y0133755D01*
X0119482Y0133850D01*
X0119561Y0133948D01*
X0119636Y0134049D01*
X0119708Y0134152D01*
X0119777Y0134257D01*
X0119843Y0134364D01*
X0119905Y0134473D01*
X0119964Y0134584D01*
X0120019Y0134697D01*
X0120071Y0134811D01*
X0120119Y0134928D01*
X0120164Y0135045D01*
X0120204Y0135164D01*
X0120241Y0135284D01*
X0120274Y0135405D01*
X0120304Y0135527D01*
X0120329Y0135650D01*
X0120351Y0135774D01*
X0120368Y0135899D01*
X0120382Y0136024D01*
X0120392Y0136149D01*
X0120398Y0136274D01*
X0120400Y0136400D01*
X0120398Y0136526D01*
X0120392Y0136651D01*
X0120382Y0136776D01*
X0120368Y0136901D01*
X0120351Y0137026D01*
X0120329Y0137150D01*
X0120304Y0137273D01*
X0120274Y0137395D01*
X0120241Y0137516D01*
X0120204Y0137636D01*
X0120164Y0137755D01*
X0120119Y0137872D01*
X0120071Y0137989D01*
X0120019Y0138103D01*
X0119964Y0138216D01*
X0119905Y0138327D01*
X0119843Y0138436D01*
X0119777Y0138543D01*
X0119708Y0138648D01*
X0119636Y0138751D01*
X0119561Y0138852D01*
X0119482Y0138950D01*
X0119400Y0139045D01*
X0119316Y0139138D01*
X0119228Y0139228D01*
X0119138Y0139316D01*
X0119045Y0139400D01*
X0118950Y0139482D01*
X0118852Y0139561D01*
X0118751Y0139636D01*
X0118648Y0139708D01*
X0118543Y0139777D01*
X0118436Y0139843D01*
X0118327Y0139905D01*
X0118216Y0139964D01*
X0118103Y0140019D01*
X0117989Y0140071D01*
X0117872Y0140119D01*
X0117755Y0140164D01*
X0117636Y0140204D01*
X0117516Y0140241D01*
X0117395Y0140274D01*
X0117273Y0140304D01*
X0117150Y0140329D01*
X0117026Y0140351D01*
X0116901Y0140368D01*
X0116776Y0140382D01*
X0116651Y0140392D01*
X0116526Y0140398D01*
X0116400Y0140400D01*
X0116400Y0147900D01*
X0196400Y0147900D01*
X0196400Y0124900D01*
X0116400Y0124900D01*
X0131400Y0087900D02*
X0131400Y0064900D01*
X0041400Y0064900D01*
X0041400Y0072400D01*
X0041526Y0072402D01*
X0041651Y0072408D01*
X0041776Y0072418D01*
X0041901Y0072432D01*
X0042026Y0072449D01*
X0042150Y0072471D01*
X0042273Y0072496D01*
X0042395Y0072526D01*
X0042516Y0072559D01*
X0042636Y0072596D01*
X0042755Y0072636D01*
X0042872Y0072681D01*
X0042989Y0072729D01*
X0043103Y0072781D01*
X0043216Y0072836D01*
X0043327Y0072895D01*
X0043436Y0072957D01*
X0043543Y0073023D01*
X0043648Y0073092D01*
X0043751Y0073164D01*
X0043852Y0073239D01*
X0043950Y0073318D01*
X0044045Y0073400D01*
X0044138Y0073484D01*
X0044228Y0073572D01*
X0044316Y0073662D01*
X0044400Y0073755D01*
X0044482Y0073850D01*
X0044561Y0073948D01*
X0044636Y0074049D01*
X0044708Y0074152D01*
X0044777Y0074257D01*
X0044843Y0074364D01*
X0044905Y0074473D01*
X0044964Y0074584D01*
X0045019Y0074697D01*
X0045071Y0074811D01*
X0045119Y0074928D01*
X0045164Y0075045D01*
X0045204Y0075164D01*
X0045241Y0075284D01*
X0045274Y0075405D01*
X0045304Y0075527D01*
X0045329Y0075650D01*
X0045351Y0075774D01*
X0045368Y0075899D01*
X0045382Y0076024D01*
X0045392Y0076149D01*
X0045398Y0076274D01*
X0045400Y0076400D01*
X0045398Y0076526D01*
X0045392Y0076651D01*
X0045382Y0076776D01*
X0045368Y0076901D01*
X0045351Y0077026D01*
X0045329Y0077150D01*
X0045304Y0077273D01*
X0045274Y0077395D01*
X0045241Y0077516D01*
X0045204Y0077636D01*
X0045164Y0077755D01*
X0045119Y0077872D01*
X0045071Y0077989D01*
X0045019Y0078103D01*
X0044964Y0078216D01*
X0044905Y0078327D01*
X0044843Y0078436D01*
X0044777Y0078543D01*
X0044708Y0078648D01*
X0044636Y0078751D01*
X0044561Y0078852D01*
X0044482Y0078950D01*
X0044400Y0079045D01*
X0044316Y0079138D01*
X0044228Y0079228D01*
X0044138Y0079316D01*
X0044045Y0079400D01*
X0043950Y0079482D01*
X0043852Y0079561D01*
X0043751Y0079636D01*
X0043648Y0079708D01*
X0043543Y0079777D01*
X0043436Y0079843D01*
X0043327Y0079905D01*
X0043216Y0079964D01*
X0043103Y0080019D01*
X0042989Y0080071D01*
X0042872Y0080119D01*
X0042755Y0080164D01*
X0042636Y0080204D01*
X0042516Y0080241D01*
X0042395Y0080274D01*
X0042273Y0080304D01*
X0042150Y0080329D01*
X0042026Y0080351D01*
X0041901Y0080368D01*
X0041776Y0080382D01*
X0041651Y0080392D01*
X0041526Y0080398D01*
X0041400Y0080400D01*
X0041400Y0087900D01*
X0131400Y0087900D01*
X0162400Y0111400D02*
X0169900Y0111400D01*
X0169902Y0111274D01*
X0169908Y0111149D01*
X0169918Y0111024D01*
X0169932Y0110899D01*
X0169949Y0110774D01*
X0169971Y0110650D01*
X0169996Y0110527D01*
X0170026Y0110405D01*
X0170059Y0110284D01*
X0170096Y0110164D01*
X0170136Y0110045D01*
X0170181Y0109928D01*
X0170229Y0109811D01*
X0170281Y0109697D01*
X0170336Y0109584D01*
X0170395Y0109473D01*
X0170457Y0109364D01*
X0170523Y0109257D01*
X0170592Y0109152D01*
X0170664Y0109049D01*
X0170739Y0108948D01*
X0170818Y0108850D01*
X0170900Y0108755D01*
X0170984Y0108662D01*
X0171072Y0108572D01*
X0171162Y0108484D01*
X0171255Y0108400D01*
X0171350Y0108318D01*
X0171448Y0108239D01*
X0171549Y0108164D01*
X0171652Y0108092D01*
X0171757Y0108023D01*
X0171864Y0107957D01*
X0171973Y0107895D01*
X0172084Y0107836D01*
X0172197Y0107781D01*
X0172311Y0107729D01*
X0172428Y0107681D01*
X0172545Y0107636D01*
X0172664Y0107596D01*
X0172784Y0107559D01*
X0172905Y0107526D01*
X0173027Y0107496D01*
X0173150Y0107471D01*
X0173274Y0107449D01*
X0173399Y0107432D01*
X0173524Y0107418D01*
X0173649Y0107408D01*
X0173774Y0107402D01*
X0173900Y0107400D01*
X0174026Y0107402D01*
X0174151Y0107408D01*
X0174276Y0107418D01*
X0174401Y0107432D01*
X0174526Y0107449D01*
X0174650Y0107471D01*
X0174773Y0107496D01*
X0174895Y0107526D01*
X0175016Y0107559D01*
X0175136Y0107596D01*
X0175255Y0107636D01*
X0175372Y0107681D01*
X0175489Y0107729D01*
X0175603Y0107781D01*
X0175716Y0107836D01*
X0175827Y0107895D01*
X0175936Y0107957D01*
X0176043Y0108023D01*
X0176148Y0108092D01*
X0176251Y0108164D01*
X0176352Y0108239D01*
X0176450Y0108318D01*
X0176545Y0108400D01*
X0176638Y0108484D01*
X0176728Y0108572D01*
X0176816Y0108662D01*
X0176900Y0108755D01*
X0176982Y0108850D01*
X0177061Y0108948D01*
X0177136Y0109049D01*
X0177208Y0109152D01*
X0177277Y0109257D01*
X0177343Y0109364D01*
X0177405Y0109473D01*
X0177464Y0109584D01*
X0177519Y0109697D01*
X0177571Y0109811D01*
X0177619Y0109928D01*
X0177664Y0110045D01*
X0177704Y0110164D01*
X0177741Y0110284D01*
X0177774Y0110405D01*
X0177804Y0110527D01*
X0177829Y0110650D01*
X0177851Y0110774D01*
X0177868Y0110899D01*
X0177882Y0111024D01*
X0177892Y0111149D01*
X0177898Y0111274D01*
X0177900Y0111400D01*
X0185400Y0111400D01*
X0185400Y0031400D01*
X0162400Y0031400D01*
X0162400Y0111400D01*
X0161400Y0164900D02*
X0161400Y0187900D01*
X0081400Y0187900D01*
X0081400Y0180400D01*
X0081526Y0180398D01*
X0081651Y0180392D01*
X0081776Y0180382D01*
X0081901Y0180368D01*
X0082026Y0180351D01*
X0082150Y0180329D01*
X0082273Y0180304D01*
X0082395Y0180274D01*
X0082516Y0180241D01*
X0082636Y0180204D01*
X0082755Y0180164D01*
X0082872Y0180119D01*
X0082989Y0180071D01*
X0083103Y0180019D01*
X0083216Y0179964D01*
X0083327Y0179905D01*
X0083436Y0179843D01*
X0083543Y0179777D01*
X0083648Y0179708D01*
X0083751Y0179636D01*
X0083852Y0179561D01*
X0083950Y0179482D01*
X0084045Y0179400D01*
X0084138Y0179316D01*
X0084228Y0179228D01*
X0084316Y0179138D01*
X0084400Y0179045D01*
X0084482Y0178950D01*
X0084561Y0178852D01*
X0084636Y0178751D01*
X0084708Y0178648D01*
X0084777Y0178543D01*
X0084843Y0178436D01*
X0084905Y0178327D01*
X0084964Y0178216D01*
X0085019Y0178103D01*
X0085071Y0177989D01*
X0085119Y0177872D01*
X0085164Y0177755D01*
X0085204Y0177636D01*
X0085241Y0177516D01*
X0085274Y0177395D01*
X0085304Y0177273D01*
X0085329Y0177150D01*
X0085351Y0177026D01*
X0085368Y0176901D01*
X0085382Y0176776D01*
X0085392Y0176651D01*
X0085398Y0176526D01*
X0085400Y0176400D01*
X0085398Y0176274D01*
X0085392Y0176149D01*
X0085382Y0176024D01*
X0085368Y0175899D01*
X0085351Y0175774D01*
X0085329Y0175650D01*
X0085304Y0175527D01*
X0085274Y0175405D01*
X0085241Y0175284D01*
X0085204Y0175164D01*
X0085164Y0175045D01*
X0085119Y0174928D01*
X0085071Y0174811D01*
X0085019Y0174697D01*
X0084964Y0174584D01*
X0084905Y0174473D01*
X0084843Y0174364D01*
X0084777Y0174257D01*
X0084708Y0174152D01*
X0084636Y0174049D01*
X0084561Y0173948D01*
X0084482Y0173850D01*
X0084400Y0173755D01*
X0084316Y0173662D01*
X0084228Y0173572D01*
X0084138Y0173484D01*
X0084045Y0173400D01*
X0083950Y0173318D01*
X0083852Y0173239D01*
X0083751Y0173164D01*
X0083648Y0173092D01*
X0083543Y0173023D01*
X0083436Y0172957D01*
X0083327Y0172895D01*
X0083216Y0172836D01*
X0083103Y0172781D01*
X0082989Y0172729D01*
X0082872Y0172681D01*
X0082755Y0172636D01*
X0082636Y0172596D01*
X0082516Y0172559D01*
X0082395Y0172526D01*
X0082273Y0172496D01*
X0082150Y0172471D01*
X0082026Y0172449D01*
X0081901Y0172432D01*
X0081776Y0172418D01*
X0081651Y0172408D01*
X0081526Y0172402D01*
X0081400Y0172400D01*
X0081400Y0164900D01*
X0161400Y0164900D01*
X0035100Y0169334D02*
X0031697Y0171602D01*
X0032831Y0173017D02*
X0031697Y0174151D01*
X0035100Y0174151D01*
X0035100Y0173017D02*
X0035100Y0175285D01*
X0035100Y0171602D02*
X0031697Y0169334D01*
X0021339Y0181700D02*
X0021339Y0185103D01*
X0020205Y0185103D02*
X0022473Y0185103D01*
X0018790Y0185103D02*
X0018790Y0182267D01*
X0018223Y0181700D01*
X0017089Y0181700D01*
X0016522Y0182267D01*
X0016522Y0185103D01*
X0015107Y0184536D02*
X0015107Y0183401D01*
X0014540Y0182834D01*
X0012839Y0182834D01*
X0012839Y0181700D02*
X0012839Y0185103D01*
X0014540Y0185103D01*
X0015107Y0184536D01*
X0011424Y0185103D02*
X0011424Y0181700D01*
X0009155Y0185103D01*
X0009155Y0181700D01*
X0007834Y0181700D02*
X0006700Y0181700D01*
X0007267Y0181700D02*
X0007267Y0185103D01*
X0006700Y0185103D02*
X0007834Y0185103D01*
X0009767Y0100103D02*
X0009200Y0099536D01*
X0009200Y0097267D01*
X0009767Y0096700D01*
X0010901Y0096700D01*
X0011469Y0097267D01*
X0011469Y0099536D01*
X0010901Y0100103D01*
X0009767Y0100103D01*
X0012883Y0100103D02*
X0012883Y0097267D01*
X0013450Y0096700D01*
X0014585Y0096700D01*
X0015152Y0097267D01*
X0015152Y0100103D01*
X0016566Y0100103D02*
X0018835Y0100103D01*
X0017701Y0100103D02*
X0017701Y0096700D01*
X0020249Y0096700D02*
X0020249Y0100103D01*
X0021951Y0100103D01*
X0022518Y0099536D01*
X0022518Y0098401D01*
X0021951Y0097834D01*
X0020249Y0097834D01*
X0023933Y0097267D02*
X0024500Y0096700D01*
X0025634Y0096700D01*
X0026201Y0097267D01*
X0026201Y0100103D01*
X0027616Y0100103D02*
X0029884Y0100103D01*
X0028750Y0100103D02*
X0028750Y0096700D01*
X0023933Y0097267D02*
X0023933Y0100103D01*
X0032264Y0087785D02*
X0031697Y0087218D01*
X0031697Y0086084D01*
X0032264Y0085517D01*
X0031697Y0084102D02*
X0035100Y0081834D01*
X0035100Y0084102D02*
X0031697Y0081834D01*
X0035100Y0085517D02*
X0032831Y0087785D01*
X0032264Y0087785D01*
X0035100Y0087785D02*
X0035100Y0085517D01*
D14*
X0037898Y0075326D02*
X0037898Y0072323D01*
X0035646Y0074575D01*
X0040150Y0074575D01*
X0039399Y0070722D02*
X0040150Y0069971D01*
X0040150Y0068470D01*
X0039399Y0067719D01*
X0036397Y0067719D01*
X0035646Y0068470D01*
X0035646Y0069971D01*
X0036397Y0070722D01*
X0035646Y0066151D02*
X0035646Y0064650D01*
X0035646Y0065401D02*
X0040150Y0065401D01*
X0040150Y0066151D02*
X0040150Y0064650D01*
X0049901Y0074150D02*
X0051402Y0074150D01*
X0052153Y0074901D01*
X0052153Y0078654D01*
X0053754Y0078654D02*
X0053754Y0074150D01*
X0056756Y0074150D01*
X0058358Y0074150D02*
X0058358Y0078654D01*
X0061360Y0074150D01*
X0061360Y0078654D01*
X0062962Y0077903D02*
X0063712Y0078654D01*
X0065214Y0078654D01*
X0065964Y0077903D01*
X0065964Y0077153D01*
X0062962Y0074150D01*
X0065964Y0074150D01*
X0067566Y0074901D02*
X0067566Y0075651D01*
X0068316Y0076402D01*
X0069818Y0076402D01*
X0070568Y0075651D01*
X0070568Y0074901D01*
X0069818Y0074150D01*
X0068316Y0074150D01*
X0067566Y0074901D01*
X0068316Y0076402D02*
X0067566Y0077153D01*
X0067566Y0077903D01*
X0068316Y0078654D01*
X0069818Y0078654D01*
X0070568Y0077903D01*
X0070568Y0077153D01*
X0069818Y0076402D01*
X0072170Y0074901D02*
X0072170Y0077903D01*
X0072920Y0078654D01*
X0074422Y0078654D01*
X0075172Y0077903D01*
X0072170Y0074901D01*
X0072920Y0074150D01*
X0074422Y0074150D01*
X0075172Y0074901D01*
X0075172Y0077903D01*
X0076774Y0077903D02*
X0077524Y0078654D01*
X0079025Y0078654D01*
X0079776Y0077903D01*
X0079776Y0077153D01*
X0079025Y0076402D01*
X0079776Y0075651D01*
X0079776Y0074901D01*
X0079025Y0074150D01*
X0077524Y0074150D01*
X0076774Y0074901D01*
X0078275Y0076402D02*
X0079025Y0076402D01*
X0049901Y0074150D02*
X0049150Y0074901D01*
X0049150Y0078654D01*
X0029650Y0120150D02*
X0029650Y0121651D01*
X0029650Y0120901D02*
X0025146Y0120901D01*
X0025146Y0121651D02*
X0025146Y0120150D01*
X0025897Y0123219D02*
X0028899Y0123219D01*
X0029650Y0123970D01*
X0029650Y0125471D01*
X0028899Y0126222D01*
X0028899Y0127823D02*
X0029650Y0128574D01*
X0029650Y0130075D01*
X0028899Y0130826D01*
X0028149Y0130826D01*
X0027398Y0130075D01*
X0027398Y0129324D01*
X0027398Y0130075D02*
X0026647Y0130826D01*
X0025897Y0130826D01*
X0025146Y0130075D01*
X0025146Y0128574D01*
X0025897Y0127823D01*
X0025897Y0126222D02*
X0025146Y0125471D01*
X0025146Y0123970D01*
X0025897Y0123219D01*
X0042150Y0129150D02*
X0042150Y0129901D01*
X0045153Y0132903D01*
X0045153Y0133654D01*
X0042150Y0133654D01*
X0046754Y0131402D02*
X0049756Y0131402D01*
X0051358Y0131402D02*
X0054360Y0131402D01*
X0055962Y0132903D02*
X0055962Y0129901D01*
X0056712Y0129150D01*
X0058214Y0129150D01*
X0058964Y0129901D01*
X0060566Y0129901D02*
X0061316Y0129150D01*
X0062818Y0129150D01*
X0063568Y0129901D01*
X0063568Y0131402D01*
X0062818Y0132153D01*
X0062067Y0132153D01*
X0060566Y0131402D01*
X0060566Y0133654D01*
X0063568Y0133654D01*
X0065170Y0132903D02*
X0065170Y0132153D01*
X0065920Y0131402D01*
X0068172Y0131402D01*
X0068172Y0129901D02*
X0068172Y0132903D01*
X0067422Y0133654D01*
X0065920Y0133654D01*
X0065170Y0132903D01*
X0065170Y0129901D02*
X0065920Y0129150D01*
X0067422Y0129150D01*
X0068172Y0129901D01*
X0069774Y0129901D02*
X0070524Y0129150D01*
X0072025Y0129150D01*
X0072776Y0129901D01*
X0072776Y0131402D01*
X0072025Y0132153D01*
X0071275Y0132153D01*
X0069774Y0131402D01*
X0069774Y0133654D01*
X0072776Y0133654D01*
X0074377Y0133654D02*
X0077380Y0129150D01*
X0077380Y0133654D01*
X0074377Y0133654D02*
X0074377Y0129150D01*
X0058964Y0132903D02*
X0058214Y0133654D01*
X0056712Y0133654D01*
X0055962Y0132903D01*
X0054360Y0133654D02*
X0054360Y0129150D01*
X0051358Y0129150D02*
X0051358Y0133654D01*
X0049006Y0133654D02*
X0046754Y0131402D01*
X0049006Y0129150D02*
X0049006Y0133654D01*
X0075146Y0165150D02*
X0078899Y0165150D01*
X0079650Y0165901D01*
X0079650Y0167402D01*
X0078899Y0168153D01*
X0075146Y0168153D01*
X0076647Y0169754D02*
X0075146Y0171255D01*
X0079650Y0171255D01*
X0079650Y0169754D02*
X0079650Y0172756D01*
X0092150Y0174150D02*
X0092150Y0178654D01*
X0094402Y0178654D01*
X0095153Y0177903D01*
X0095153Y0176402D01*
X0094402Y0175651D01*
X0092150Y0175651D01*
X0093651Y0175651D02*
X0095153Y0174150D01*
X0096754Y0174150D02*
X0096754Y0178654D01*
X0099756Y0174150D01*
X0099756Y0178654D01*
X0101358Y0178654D02*
X0101358Y0174150D01*
X0104360Y0174150D01*
X0102859Y0176402D02*
X0101358Y0176402D01*
X0101358Y0178654D02*
X0104360Y0178654D01*
X0105962Y0178654D02*
X0108964Y0178654D01*
X0107463Y0178654D02*
X0107463Y0174150D01*
X0127150Y0138654D02*
X0130153Y0138654D01*
X0130153Y0137903D01*
X0127150Y0134901D01*
X0127150Y0134150D01*
X0131754Y0136402D02*
X0134756Y0136402D01*
X0136358Y0136402D02*
X0139360Y0136402D01*
X0140962Y0137903D02*
X0140962Y0134901D01*
X0141712Y0134150D01*
X0143214Y0134150D01*
X0143964Y0134901D01*
X0145566Y0134901D02*
X0146316Y0134150D01*
X0147818Y0134150D01*
X0148568Y0134901D01*
X0148568Y0136402D01*
X0147818Y0137153D01*
X0147067Y0137153D01*
X0145566Y0136402D01*
X0145566Y0138654D01*
X0148568Y0138654D01*
X0150170Y0137903D02*
X0150170Y0137153D01*
X0150920Y0136402D01*
X0153172Y0136402D01*
X0153172Y0137903D02*
X0152422Y0138654D01*
X0150920Y0138654D01*
X0150170Y0137903D01*
X0153172Y0137903D02*
X0153172Y0134901D01*
X0152422Y0134150D01*
X0150920Y0134150D01*
X0150170Y0134901D01*
X0154774Y0134901D02*
X0155524Y0134150D01*
X0157025Y0134150D01*
X0157776Y0134901D01*
X0157776Y0136402D01*
X0157025Y0137153D01*
X0156275Y0137153D01*
X0154774Y0136402D01*
X0154774Y0138654D01*
X0157776Y0138654D01*
X0159377Y0138654D02*
X0162380Y0134150D01*
X0162380Y0138654D01*
X0159377Y0138654D02*
X0159377Y0134150D01*
X0143964Y0137903D02*
X0143214Y0138654D01*
X0141712Y0138654D01*
X0140962Y0137903D01*
X0139360Y0138654D02*
X0139360Y0134150D01*
X0136358Y0134150D02*
X0136358Y0138654D01*
X0134006Y0138654D02*
X0131754Y0136402D01*
X0134006Y0134150D02*
X0134006Y0138654D01*
X0114650Y0135826D02*
X0114650Y0132823D01*
X0114650Y0134324D02*
X0110146Y0134324D01*
X0111647Y0132823D01*
X0110897Y0131222D02*
X0110146Y0130471D01*
X0110146Y0128970D01*
X0110897Y0128219D01*
X0113899Y0128219D01*
X0114650Y0128970D01*
X0114650Y0130471D01*
X0113899Y0131222D01*
X0114650Y0126651D02*
X0114650Y0125150D01*
X0114650Y0125901D02*
X0110146Y0125901D01*
X0110146Y0126651D02*
X0110146Y0125150D01*
X0162650Y0117654D02*
X0164151Y0117654D01*
X0163401Y0117654D02*
X0163401Y0113150D01*
X0164151Y0113150D02*
X0162650Y0113150D01*
X0165719Y0113901D02*
X0166470Y0113150D01*
X0167971Y0113150D01*
X0168722Y0113901D01*
X0170323Y0113150D02*
X0173326Y0116153D01*
X0173326Y0116903D01*
X0172575Y0117654D01*
X0171074Y0117654D01*
X0170323Y0116903D01*
X0168722Y0116903D02*
X0167971Y0117654D01*
X0166470Y0117654D01*
X0165719Y0116903D01*
X0165719Y0113901D01*
X0170323Y0113150D02*
X0173326Y0113150D01*
X0171646Y0099549D02*
X0176150Y0099549D01*
X0171646Y0096546D01*
X0176150Y0096546D01*
X0175399Y0094945D02*
X0173898Y0094945D01*
X0173147Y0094194D01*
X0173147Y0093443D01*
X0173898Y0091942D01*
X0171646Y0091942D01*
X0171646Y0094945D01*
X0175399Y0094945D02*
X0176150Y0094194D01*
X0176150Y0092693D01*
X0175399Y0091942D01*
X0175399Y0090341D02*
X0172397Y0090341D01*
X0171646Y0089590D01*
X0171646Y0088089D01*
X0172397Y0087338D01*
X0173147Y0087338D01*
X0173898Y0088089D01*
X0173898Y0090341D01*
X0175399Y0090341D02*
X0176150Y0089590D01*
X0176150Y0088089D01*
X0175399Y0087338D01*
X0175399Y0085737D02*
X0173898Y0085737D01*
X0173147Y0084986D01*
X0173147Y0084236D01*
X0173898Y0082734D01*
X0171646Y0082734D01*
X0171646Y0085737D01*
X0175399Y0085737D02*
X0176150Y0084986D01*
X0176150Y0083485D01*
X0175399Y0082734D01*
X0175399Y0081133D02*
X0176150Y0080382D01*
X0176150Y0078881D01*
X0175399Y0078130D01*
X0172397Y0078130D01*
X0171646Y0078881D01*
X0171646Y0080382D01*
X0172397Y0081133D01*
X0171646Y0076529D02*
X0176150Y0076529D01*
X0173898Y0076529D02*
X0173898Y0073526D01*
X0173898Y0071925D02*
X0173898Y0068922D01*
X0171646Y0071174D01*
X0176150Y0071174D01*
X0176150Y0073526D02*
X0171646Y0073526D01*
X0171646Y0067321D02*
X0172397Y0067321D01*
X0175399Y0064319D01*
X0176150Y0064319D01*
X0171646Y0064319D02*
X0171646Y0067321D01*
X0117964Y0028654D02*
X0114962Y0028654D01*
X0116463Y0028654D02*
X0116463Y0024150D01*
X0113360Y0024150D02*
X0110358Y0024150D01*
X0110358Y0028654D01*
X0113360Y0028654D01*
X0111859Y0026402D02*
X0110358Y0026402D01*
X0108756Y0024150D02*
X0108756Y0028654D01*
X0105754Y0028654D02*
X0108756Y0024150D01*
X0105754Y0024150D02*
X0105754Y0028654D01*
X0104153Y0027903D02*
X0104153Y0026402D01*
X0103402Y0025651D01*
X0101150Y0025651D01*
X0101150Y0024150D02*
X0101150Y0028654D01*
X0103402Y0028654D01*
X0104153Y0027903D01*
X0102651Y0025651D02*
X0104153Y0024150D01*
D15*
X0028900Y0028900D02*
X0021400Y0028900D01*
X0021400Y0088900D01*
X0028900Y0088900D01*
X0028900Y0028900D01*
X0021400Y0028900D02*
X0003900Y0028900D01*
X0003900Y0088900D01*
X0021400Y0088900D01*
X0021400Y0116400D02*
X0003900Y0116400D01*
X0003900Y0176400D01*
X0021400Y0176400D01*
X0021400Y0116400D01*
X0028900Y0116400D01*
X0028900Y0176400D01*
X0021400Y0176400D01*
M02*
