%
M48
M72
T01C0.02400
T02C0.03150
T03C0.03200
%
T01
X26400Y43900
X28900Y66400
X26400Y71400
X28900Y88900
X33900Y93900
X18900Y108900
X13900Y93900
X51400Y53900
X61400Y76400
X71400Y78900
X81400Y98900
X91400Y106400
X101400Y106400
X93900Y81400
X101400Y76400
X111400Y78900
X133900Y88900
X138900Y98900
X126400Y113900
X128900Y138900
X116400Y141400
X141400Y168900
X156400Y143900
X166400Y138900
X161400Y131400
X176400Y133900
X176400Y96400
X166400Y71400
X176400Y68900
X136400Y41400
X111400Y51400
X61400Y103900
X66400Y131400
X91400Y171400
T02
X96400Y176400
X86400Y176400
X76400Y176400
X66400Y176400
X56400Y176400
X46400Y176400
X106400Y176400
X116400Y176400
X126400Y176400
X136400Y176400
X146400Y176400
X156400Y176400
X156400Y26400
X146400Y26400
X136400Y26400
X126400Y26400
X116400Y26400
X106400Y26400
X96400Y26400
X86400Y26400
X76400Y26400
X66400Y26400
X56400Y26400
X46400Y26400
T03
X16400Y33900
X16400Y43900
X16400Y53900
X16400Y63900
X16400Y73900
X16400Y83900
X46400Y91400
X56400Y91400
X66400Y91400
X76400Y91400
X86400Y91400
X96400Y91400
X106400Y91400
X116400Y91400
X126400Y91400
X106400Y116400
X96400Y116400
X86400Y116400
X76400Y116400
X66400Y116400
X56400Y116400
X46400Y116400
X36400Y116400
X16400Y121400
X16400Y131400
X16400Y141400
X16400Y151400
X16400Y161400
X16400Y171400
X36400Y146400
X46400Y146400
X56400Y146400
X66400Y146400
X76400Y146400
X86400Y146400
X96400Y146400
X106400Y146400
X106400Y161400
X96400Y161400
X86400Y161400
X86400Y191400
X96400Y191400
X106400Y191400
X116400Y191400
X126400Y191400
X136400Y191400
X146400Y191400
X156400Y191400
X156400Y161400
X146400Y161400
X136400Y161400
X126400Y161400
X116400Y161400
X121400Y151400
X131400Y151400
X141400Y151400
X151400Y151400
X161400Y151400
X171400Y151400
X181400Y151400
X191400Y151400
X191400Y121400
X181400Y121400
X171400Y121400
X161400Y121400
X151400Y121400
X141400Y121400
X131400Y121400
X121400Y121400
X158900Y106400
X158900Y96400
X158900Y86400
X158900Y76400
X158900Y66400
X158900Y56400
X158900Y46400
X158900Y36400
X188900Y36400
X188900Y46400
X188900Y56400
X188900Y66400
X188900Y76400
X188900Y86400
X188900Y96400
X188900Y106400
X126400Y61400
X116400Y61400
X106400Y61400
X96400Y61400
X86400Y61400
X76400Y61400
X66400Y61400
X56400Y61400
X46400Y61400
X56400Y41400
X66400Y41400
X76400Y41400
X86400Y41400
X96400Y41400
X106400Y41400
X116400Y41400
X126400Y41400
X126400Y11400
X116400Y11400
X106400Y11400
X96400Y11400
X86400Y11400
X76400Y11400
X66400Y11400
X56400Y11400
M30
