%
M48
M72
T01C0.03200
T02C0.04000
T03C0.04331
T04C0.12598
%
T01
X131000Y29000
X131000Y43000
T02
X103500Y16000
X93500Y16000
X83500Y16000
T03
X61000Y16000
X51000Y16000
X41000Y16000
X36000Y41000
X46000Y41000
X56000Y41000
X66000Y41000
X76000Y41000
X86000Y41000
X96000Y41000
X91000Y66000
X81000Y66000
X71000Y66000
X61000Y66000
X51000Y66000
X41000Y66000
X31000Y66000
X21000Y66000
X21000Y126000
X31000Y126000
X41000Y126000
X51000Y126000
X61000Y126000
X71000Y126000
X81000Y126000
X91000Y126000
X101000Y126000
X111000Y126000
X121000Y126000
X131000Y126000
X171000Y121000
X171000Y111000
X171000Y86000
X171000Y76000
X171000Y53500
X171000Y43500
X131000Y66000
X121000Y66000
X111000Y66000
X101000Y66000
T04
X18500Y18500
X18500Y148500
X171000Y148500
X171000Y18500
M30
