G75*
%MOIN*%
%OFA0B0*%
%FSLAX25Y25*%
%IPPOS*%
%LPD*%
%AMOC8*
5,1,8,0,0,1.08239X$1,22.5*
%
%ADD10C,0.06496*%
%ADD11C,0.25400*%
%ADD12C,0.06000*%
%ADD13OC8,0.06300*%
%ADD14C,0.06300*%
%ADD15C,0.01000*%
D10*
X0041000Y0012752D02*
X0041000Y0019248D01*
X0051000Y0019248D02*
X0051000Y0012752D01*
X0061000Y0012752D02*
X0061000Y0019248D01*
X0056000Y0037752D02*
X0056000Y0044248D01*
X0046000Y0044248D02*
X0046000Y0037752D01*
X0036000Y0037752D02*
X0036000Y0044248D01*
X0031000Y0062752D02*
X0031000Y0069248D01*
X0021000Y0069248D02*
X0021000Y0062752D01*
X0041000Y0062752D02*
X0041000Y0069248D01*
X0051000Y0069248D02*
X0051000Y0062752D01*
X0061000Y0062752D02*
X0061000Y0069248D01*
X0071000Y0069248D02*
X0071000Y0062752D01*
X0081000Y0062752D02*
X0081000Y0069248D01*
X0091000Y0069248D02*
X0091000Y0062752D01*
X0101000Y0062752D02*
X0101000Y0069248D01*
X0111000Y0069248D02*
X0111000Y0062752D01*
X0121000Y0062752D02*
X0121000Y0069248D01*
X0131000Y0069248D02*
X0131000Y0062752D01*
X0096000Y0044248D02*
X0096000Y0037752D01*
X0086000Y0037752D02*
X0086000Y0044248D01*
X0076000Y0044248D02*
X0076000Y0037752D01*
X0066000Y0037752D02*
X0066000Y0044248D01*
X0061000Y0122752D02*
X0061000Y0129248D01*
X0051000Y0129248D02*
X0051000Y0122752D01*
X0041000Y0122752D02*
X0041000Y0129248D01*
X0031000Y0129248D02*
X0031000Y0122752D01*
X0021000Y0122752D02*
X0021000Y0129248D01*
X0071000Y0129248D02*
X0071000Y0122752D01*
X0081000Y0122752D02*
X0081000Y0129248D01*
X0091000Y0129248D02*
X0091000Y0122752D01*
X0101000Y0122752D02*
X0101000Y0129248D01*
X0111000Y0129248D02*
X0111000Y0122752D01*
X0121000Y0122752D02*
X0121000Y0129248D01*
X0131000Y0129248D02*
X0131000Y0122752D01*
X0167752Y0121000D02*
X0174248Y0121000D01*
X0174248Y0111000D02*
X0167752Y0111000D01*
X0167752Y0086000D02*
X0174248Y0086000D01*
X0174248Y0076000D02*
X0167752Y0076000D01*
X0167752Y0053500D02*
X0174248Y0053500D01*
X0174248Y0043500D02*
X0167752Y0043500D01*
D11*
X0018500Y0018500D03*
X0018500Y0148500D03*
X0171000Y0148500D03*
X0171000Y0018500D03*
D12*
X0103500Y0019000D02*
X0103500Y0013000D01*
X0093500Y0013000D02*
X0093500Y0019000D01*
X0083500Y0019000D02*
X0083500Y0013000D01*
D13*
X0131000Y0043000D03*
D14*
X0131000Y0029000D03*
D15*
X0131500Y0029800D01*
X0145000Y0043300D01*
X0170200Y0043300D01*
X0171000Y0043500D01*
X0171000Y0053500D02*
X0170200Y0054100D01*
X0163000Y0054100D01*
X0163000Y0078400D01*
X0170200Y0085600D01*
X0171000Y0086000D01*
X0170200Y0086500D01*
X0163000Y0093700D01*
X0163000Y0113500D01*
X0170200Y0120700D01*
X0171000Y0121000D01*
X0171100Y0121600D01*
X0120700Y0066700D02*
X0121000Y0066000D01*
X0120700Y0065800D01*
X0130600Y0055900D01*
X0130600Y0054100D01*
X0163000Y0054100D01*
X0130600Y0054100D02*
X0130600Y0043300D01*
X0131000Y0043000D01*
X0130600Y0042400D01*
X0129700Y0041500D01*
X0096400Y0041500D01*
X0096000Y0041000D01*
X0095500Y0040600D01*
X0093700Y0038800D01*
X0093700Y0016300D01*
X0093500Y0016000D01*
X0092800Y0015400D01*
X0085600Y0008200D01*
X0048700Y0008200D01*
X0041500Y0015400D01*
X0041000Y0016000D01*
X0051000Y0016000D02*
X0051400Y0016300D01*
X0059500Y0024400D01*
X0083800Y0024400D01*
X0083800Y0016300D01*
X0083500Y0016000D01*
X0083800Y0024400D02*
X0083800Y0038800D01*
X0086000Y0041000D01*
X0100900Y0055900D01*
X0100900Y0065800D01*
X0101000Y0066000D01*
X0101800Y0085600D02*
X0120700Y0066700D01*
X0101800Y0085600D02*
X0101800Y0125200D01*
X0101000Y0126000D01*
X0091000Y0126000D02*
X0091000Y0125200D01*
X0075700Y0109900D01*
X0075700Y0041500D01*
X0076000Y0041000D01*
X0066000Y0041000D02*
X0065800Y0041500D01*
X0051400Y0055900D01*
X0051400Y0065800D01*
X0051000Y0066000D01*
X0041500Y0065800D02*
X0041000Y0066000D01*
X0041500Y0065800D02*
X0041500Y0055900D01*
X0055900Y0041500D01*
X0056000Y0041000D01*
X0046000Y0041000D02*
X0046000Y0041500D01*
X0031600Y0055900D01*
X0031600Y0065800D01*
X0031000Y0066000D01*
X0103600Y0016300D02*
X0103500Y0016000D01*
X0103600Y0016300D02*
X0118000Y0016300D01*
X0130600Y0028900D01*
X0131000Y0029000D01*
M02*
