G75*
%MOIN*%
%OFA0B0*%
%FSLAX25Y25*%
%IPPOS*%
%LPD*%
%AMOC8*
5,1,8,0,0,1.08239X$1,22.5*
%
%ADD10C,0.00000*%
%ADD11C,0.00400*%
%ADD12C,0.00600*%
%ADD13C,0.00700*%
%ADD14C,0.00500*%
%ADD15R,0.42000X0.03000*%
%ADD16R,0.07500X0.02000*%
%ADD17R,0.03000X0.02000*%
%ADD18C,0.01000*%
%ADD19R,0.00300X0.00100*%
%ADD20R,0.01300X0.00100*%
%ADD21R,0.01500X0.00100*%
%ADD22R,0.02800X0.00100*%
%ADD23R,0.03000X0.00100*%
%ADD24R,0.04700X0.00100*%
%ADD25R,0.04800X0.00100*%
%ADD26R,0.06800X0.00100*%
%ADD27R,0.07000X0.00100*%
%ADD28R,0.00400X0.00100*%
%ADD29R,0.00800X0.00100*%
%ADD30R,0.02000X0.00100*%
%ADD31R,0.01200X0.00100*%
%ADD32R,0.02200X0.00100*%
%ADD33R,0.03400X0.00100*%
%ADD34R,0.02900X0.00100*%
%ADD35R,0.03800X0.00100*%
%ADD36R,0.03500X0.00100*%
%ADD37R,0.04300X0.00100*%
%ADD38R,0.03900X0.00100*%
%ADD39R,0.04600X0.00100*%
%ADD40R,0.01900X0.00100*%
%ADD41R,0.01800X0.00100*%
%ADD42R,0.04900X0.00100*%
%ADD43R,0.01600X0.00100*%
%ADD44R,0.05200X0.00100*%
%ADD45R,0.01400X0.00100*%
%ADD46R,0.05400X0.00100*%
%ADD47R,0.01100X0.00100*%
%ADD48R,0.05600X0.00100*%
%ADD49R,0.01000X0.00100*%
%ADD50R,0.05700X0.00100*%
%ADD51R,0.05900X0.00100*%
%ADD52R,0.06100X0.00100*%
%ADD53R,0.06300X0.00100*%
%ADD54R,0.06400X0.00100*%
%ADD55R,0.10500X0.00100*%
%ADD56R,0.10600X0.00100*%
%ADD57R,0.00100X0.00100*%
%ADD58R,0.00200X0.00100*%
%ADD59R,0.06900X0.00100*%
%ADD60R,0.00900X0.00100*%
%ADD61R,0.00500X0.00100*%
%ADD62R,0.07100X0.00100*%
%ADD63R,0.07200X0.00100*%
%ADD64R,0.00600X0.00100*%
%ADD65R,0.07300X0.00100*%
%ADD66R,0.07500X0.00100*%
%ADD67R,0.00700X0.00100*%
%ADD68R,0.02100X0.00100*%
%ADD69R,0.05500X0.00100*%
%ADD70R,0.03700X0.00100*%
%ADD71R,0.05300X0.00100*%
%ADD72R,0.05000X0.00100*%
%ADD73R,0.02600X0.00100*%
%ADD74R,0.04400X0.00100*%
%ADD75R,0.03100X0.00100*%
%ADD76R,0.04200X0.00100*%
%ADD77R,0.02700X0.00100*%
%ADD78R,0.01700X0.00100*%
%ADD79R,0.02300X0.00100*%
%ADD80R,0.03300X0.00100*%
%ADD81R,0.03600X0.00100*%
%ADD82R,0.02500X0.00100*%
%ADD83R,0.04000X0.00100*%
%ADD84R,0.03200X0.00100*%
%ADD85R,0.04100X0.00100*%
D10*
X0001000Y0001000D02*
X0001000Y0165961D01*
X0189701Y0165961D01*
X0189701Y0001000D01*
X0001000Y0001000D01*
D11*
X0096200Y0146200D02*
X0099670Y0146200D01*
X0097935Y0146200D02*
X0097935Y0151404D01*
X0096200Y0149670D01*
X0101356Y0150537D02*
X0101356Y0147067D01*
X0104826Y0150537D01*
X0104826Y0147067D01*
X0103959Y0146200D01*
X0102224Y0146200D01*
X0101356Y0147067D01*
X0101356Y0150537D02*
X0102224Y0151404D01*
X0103959Y0151404D01*
X0104826Y0150537D01*
X0106513Y0148802D02*
X0109982Y0148802D01*
X0111669Y0149670D02*
X0113404Y0151404D01*
X0113404Y0146200D01*
X0111669Y0146200D02*
X0115139Y0146200D01*
X0116826Y0147067D02*
X0117693Y0146200D01*
X0119428Y0146200D01*
X0120295Y0147067D01*
X0120295Y0147935D01*
X0119428Y0148802D01*
X0116826Y0148802D01*
X0116826Y0147067D01*
X0116826Y0148802D02*
X0118560Y0150537D01*
X0120295Y0151404D01*
X0121982Y0148802D02*
X0125452Y0148802D01*
X0127138Y0150537D02*
X0128006Y0151404D01*
X0129741Y0151404D01*
X0130608Y0150537D01*
X0130608Y0149670D01*
X0127138Y0146200D01*
X0130608Y0146200D01*
X0132295Y0147067D02*
X0135764Y0150537D01*
X0135764Y0147067D01*
X0134897Y0146200D01*
X0133162Y0146200D01*
X0132295Y0147067D01*
X0132295Y0150537D01*
X0133162Y0151404D01*
X0134897Y0151404D01*
X0135764Y0150537D01*
X0137451Y0149670D02*
X0139186Y0151404D01*
X0139186Y0146200D01*
X0137451Y0146200D02*
X0140921Y0146200D01*
X0142608Y0147067D02*
X0143475Y0146200D01*
X0145210Y0146200D01*
X0146077Y0147067D01*
X0146077Y0148802D01*
X0145210Y0149670D01*
X0144342Y0149670D01*
X0142608Y0148802D01*
X0142608Y0151404D01*
X0146077Y0151404D01*
D12*
X0160998Y0130703D02*
X0160998Y0127300D01*
X0160998Y0129001D02*
X0163267Y0129001D01*
X0164681Y0129001D02*
X0164681Y0127867D01*
X0165248Y0127300D01*
X0166383Y0127300D01*
X0166950Y0127867D01*
X0166950Y0129001D01*
X0166383Y0129569D01*
X0165248Y0129569D01*
X0164681Y0129001D01*
X0163267Y0127300D02*
X0163267Y0130703D01*
X0168364Y0129569D02*
X0168364Y0127867D01*
X0168932Y0127300D01*
X0170633Y0127300D01*
X0170633Y0129569D01*
X0172048Y0129569D02*
X0172048Y0127300D01*
X0172048Y0128434D02*
X0173182Y0129569D01*
X0173749Y0129569D01*
X0175117Y0129001D02*
X0175684Y0129569D01*
X0177385Y0129569D01*
X0176818Y0128434D02*
X0175684Y0128434D01*
X0175117Y0129001D01*
X0175117Y0127300D02*
X0176818Y0127300D01*
X0177385Y0127867D01*
X0176818Y0128434D01*
X0155700Y0111685D02*
X0155700Y0110550D01*
X0155133Y0109983D01*
X0153999Y0109983D02*
X0153431Y0111117D01*
X0153431Y0111685D01*
X0153999Y0112252D01*
X0155133Y0112252D01*
X0155700Y0111685D01*
X0153999Y0109983D02*
X0152297Y0109983D01*
X0152297Y0112252D01*
X0152297Y0108569D02*
X0155700Y0106300D01*
X0155700Y0108569D02*
X0152297Y0106300D01*
X0157973Y0095703D02*
X0159108Y0094569D01*
X0160242Y0095703D01*
X0160242Y0092300D01*
X0161657Y0092300D02*
X0162791Y0092300D01*
X0162224Y0092300D02*
X0162224Y0094569D01*
X0161657Y0094569D01*
X0162224Y0095703D02*
X0162224Y0096270D01*
X0164112Y0094569D02*
X0165813Y0094569D01*
X0166381Y0094001D01*
X0166381Y0092300D01*
X0167795Y0092867D02*
X0168362Y0092300D01*
X0170064Y0092300D01*
X0170064Y0094569D01*
X0171478Y0094569D02*
X0172613Y0094569D01*
X0172045Y0095136D02*
X0172045Y0092867D01*
X0172613Y0092300D01*
X0173934Y0092867D02*
X0173934Y0094001D01*
X0174501Y0094569D01*
X0175635Y0094569D01*
X0176202Y0094001D01*
X0176202Y0093434D01*
X0173934Y0093434D01*
X0173934Y0092867D02*
X0174501Y0092300D01*
X0175635Y0092300D01*
X0177617Y0092300D02*
X0179318Y0092300D01*
X0179885Y0092867D01*
X0179318Y0093434D01*
X0178184Y0093434D01*
X0177617Y0094001D01*
X0178184Y0094569D01*
X0179885Y0094569D01*
X0167795Y0094569D02*
X0167795Y0092867D01*
X0164112Y0092300D02*
X0164112Y0094569D01*
X0157973Y0095703D02*
X0157973Y0092300D01*
X0153999Y0077252D02*
X0153999Y0074983D01*
X0152297Y0076685D01*
X0155700Y0076685D01*
X0155700Y0073569D02*
X0152297Y0071300D01*
X0152297Y0073569D02*
X0155700Y0071300D01*
X0158498Y0063203D02*
X0160200Y0063203D01*
X0160767Y0062636D01*
X0160767Y0061501D01*
X0160200Y0060934D01*
X0158498Y0060934D01*
X0158498Y0059800D02*
X0158498Y0063203D01*
X0162181Y0061501D02*
X0162181Y0060367D01*
X0162748Y0059800D01*
X0163883Y0059800D01*
X0164450Y0060367D01*
X0164450Y0061501D01*
X0163883Y0062069D01*
X0162748Y0062069D01*
X0162181Y0061501D01*
X0165864Y0062069D02*
X0165864Y0060367D01*
X0166432Y0059800D01*
X0166999Y0060367D01*
X0167566Y0059800D01*
X0168133Y0060367D01*
X0168133Y0062069D01*
X0169548Y0061501D02*
X0170115Y0062069D01*
X0171249Y0062069D01*
X0171816Y0061501D01*
X0171816Y0060934D01*
X0169548Y0060934D01*
X0169548Y0060367D02*
X0169548Y0061501D01*
X0169548Y0060367D02*
X0170115Y0059800D01*
X0171249Y0059800D01*
X0173231Y0059800D02*
X0173231Y0062069D01*
X0174365Y0062069D02*
X0173231Y0060934D01*
X0174365Y0062069D02*
X0174932Y0062069D01*
X0155700Y0044752D02*
X0155700Y0042483D01*
X0153431Y0044752D01*
X0152864Y0044752D01*
X0152297Y0044185D01*
X0152297Y0043050D01*
X0152864Y0042483D01*
X0152297Y0041069D02*
X0155700Y0038800D01*
X0155700Y0041069D02*
X0152297Y0038800D01*
X0111000Y0036000D02*
X0111006Y0036491D01*
X0111024Y0036981D01*
X0111054Y0037471D01*
X0111096Y0037960D01*
X0111150Y0038448D01*
X0111216Y0038935D01*
X0111294Y0039419D01*
X0111384Y0039902D01*
X0111486Y0040382D01*
X0111599Y0040860D01*
X0111724Y0041334D01*
X0111861Y0041806D01*
X0112009Y0042274D01*
X0112169Y0042738D01*
X0112340Y0043198D01*
X0112522Y0043654D01*
X0112716Y0044105D01*
X0112920Y0044551D01*
X0113136Y0044992D01*
X0113362Y0045428D01*
X0113598Y0045858D01*
X0113845Y0046282D01*
X0114103Y0046700D01*
X0114371Y0047111D01*
X0114648Y0047516D01*
X0114936Y0047914D01*
X0115233Y0048305D01*
X0115540Y0048688D01*
X0115856Y0049063D01*
X0116181Y0049431D01*
X0116515Y0049791D01*
X0116858Y0050142D01*
X0117209Y0050485D01*
X0117569Y0050819D01*
X0117937Y0051144D01*
X0118312Y0051460D01*
X0118695Y0051767D01*
X0119086Y0052064D01*
X0119484Y0052352D01*
X0119889Y0052629D01*
X0120300Y0052897D01*
X0120718Y0053155D01*
X0121142Y0053402D01*
X0121572Y0053638D01*
X0122008Y0053864D01*
X0122449Y0054080D01*
X0122895Y0054284D01*
X0123346Y0054478D01*
X0123802Y0054660D01*
X0124262Y0054831D01*
X0124726Y0054991D01*
X0125194Y0055139D01*
X0125666Y0055276D01*
X0126140Y0055401D01*
X0126618Y0055514D01*
X0127098Y0055616D01*
X0127581Y0055706D01*
X0128065Y0055784D01*
X0128552Y0055850D01*
X0129040Y0055904D01*
X0129529Y0055946D01*
X0130019Y0055976D01*
X0130509Y0055994D01*
X0131000Y0056000D01*
X0131491Y0055994D01*
X0131981Y0055976D01*
X0132471Y0055946D01*
X0132960Y0055904D01*
X0133448Y0055850D01*
X0133935Y0055784D01*
X0134419Y0055706D01*
X0134902Y0055616D01*
X0135382Y0055514D01*
X0135860Y0055401D01*
X0136334Y0055276D01*
X0136806Y0055139D01*
X0137274Y0054991D01*
X0137738Y0054831D01*
X0138198Y0054660D01*
X0138654Y0054478D01*
X0139105Y0054284D01*
X0139551Y0054080D01*
X0139992Y0053864D01*
X0140428Y0053638D01*
X0140858Y0053402D01*
X0141282Y0053155D01*
X0141700Y0052897D01*
X0142111Y0052629D01*
X0142516Y0052352D01*
X0142914Y0052064D01*
X0143305Y0051767D01*
X0143688Y0051460D01*
X0144063Y0051144D01*
X0144431Y0050819D01*
X0144791Y0050485D01*
X0145142Y0050142D01*
X0145485Y0049791D01*
X0145819Y0049431D01*
X0146144Y0049063D01*
X0146460Y0048688D01*
X0146767Y0048305D01*
X0147064Y0047914D01*
X0147352Y0047516D01*
X0147629Y0047111D01*
X0147897Y0046700D01*
X0148155Y0046282D01*
X0148402Y0045858D01*
X0148638Y0045428D01*
X0148864Y0044992D01*
X0149080Y0044551D01*
X0149284Y0044105D01*
X0149478Y0043654D01*
X0149660Y0043198D01*
X0149831Y0042738D01*
X0149991Y0042274D01*
X0150139Y0041806D01*
X0150276Y0041334D01*
X0150401Y0040860D01*
X0150514Y0040382D01*
X0150616Y0039902D01*
X0150706Y0039419D01*
X0150784Y0038935D01*
X0150850Y0038448D01*
X0150904Y0037960D01*
X0150946Y0037471D01*
X0150976Y0036981D01*
X0150994Y0036491D01*
X0151000Y0036000D01*
X0150994Y0035509D01*
X0150976Y0035019D01*
X0150946Y0034529D01*
X0150904Y0034040D01*
X0150850Y0033552D01*
X0150784Y0033065D01*
X0150706Y0032581D01*
X0150616Y0032098D01*
X0150514Y0031618D01*
X0150401Y0031140D01*
X0150276Y0030666D01*
X0150139Y0030194D01*
X0149991Y0029726D01*
X0149831Y0029262D01*
X0149660Y0028802D01*
X0149478Y0028346D01*
X0149284Y0027895D01*
X0149080Y0027449D01*
X0148864Y0027008D01*
X0148638Y0026572D01*
X0148402Y0026142D01*
X0148155Y0025718D01*
X0147897Y0025300D01*
X0147629Y0024889D01*
X0147352Y0024484D01*
X0147064Y0024086D01*
X0146767Y0023695D01*
X0146460Y0023312D01*
X0146144Y0022937D01*
X0145819Y0022569D01*
X0145485Y0022209D01*
X0145142Y0021858D01*
X0144791Y0021515D01*
X0144431Y0021181D01*
X0144063Y0020856D01*
X0143688Y0020540D01*
X0143305Y0020233D01*
X0142914Y0019936D01*
X0142516Y0019648D01*
X0142111Y0019371D01*
X0141700Y0019103D01*
X0141282Y0018845D01*
X0140858Y0018598D01*
X0140428Y0018362D01*
X0139992Y0018136D01*
X0139551Y0017920D01*
X0139105Y0017716D01*
X0138654Y0017522D01*
X0138198Y0017340D01*
X0137738Y0017169D01*
X0137274Y0017009D01*
X0136806Y0016861D01*
X0136334Y0016724D01*
X0135860Y0016599D01*
X0135382Y0016486D01*
X0134902Y0016384D01*
X0134419Y0016294D01*
X0133935Y0016216D01*
X0133448Y0016150D01*
X0132960Y0016096D01*
X0132471Y0016054D01*
X0131981Y0016024D01*
X0131491Y0016006D01*
X0131000Y0016000D01*
X0130509Y0016006D01*
X0130019Y0016024D01*
X0129529Y0016054D01*
X0129040Y0016096D01*
X0128552Y0016150D01*
X0128065Y0016216D01*
X0127581Y0016294D01*
X0127098Y0016384D01*
X0126618Y0016486D01*
X0126140Y0016599D01*
X0125666Y0016724D01*
X0125194Y0016861D01*
X0124726Y0017009D01*
X0124262Y0017169D01*
X0123802Y0017340D01*
X0123346Y0017522D01*
X0122895Y0017716D01*
X0122449Y0017920D01*
X0122008Y0018136D01*
X0121572Y0018362D01*
X0121142Y0018598D01*
X0120718Y0018845D01*
X0120300Y0019103D01*
X0119889Y0019371D01*
X0119484Y0019648D01*
X0119086Y0019936D01*
X0118695Y0020233D01*
X0118312Y0020540D01*
X0117937Y0020856D01*
X0117569Y0021181D01*
X0117209Y0021515D01*
X0116858Y0021858D01*
X0116515Y0022209D01*
X0116181Y0022569D01*
X0115856Y0022937D01*
X0115540Y0023312D01*
X0115233Y0023695D01*
X0114936Y0024086D01*
X0114648Y0024484D01*
X0114371Y0024889D01*
X0114103Y0025300D01*
X0113845Y0025718D01*
X0113598Y0026142D01*
X0113362Y0026572D01*
X0113136Y0027008D01*
X0112920Y0027449D01*
X0112716Y0027895D01*
X0112522Y0028346D01*
X0112340Y0028802D01*
X0112169Y0029262D01*
X0112009Y0029726D01*
X0111861Y0030194D01*
X0111724Y0030666D01*
X0111599Y0031140D01*
X0111486Y0031618D01*
X0111384Y0032098D01*
X0111294Y0032581D01*
X0111216Y0033065D01*
X0111150Y0033552D01*
X0111096Y0034040D01*
X0111054Y0034529D01*
X0111024Y0035019D01*
X0111006Y0035509D01*
X0111000Y0036000D01*
X0125000Y0024000D02*
X0128000Y0024000D01*
X0126500Y0022500D02*
X0126500Y0025500D01*
X0135500Y0070000D02*
X0006500Y0070000D01*
X0006500Y0122000D01*
X0135500Y0122000D01*
X0135500Y0101000D01*
X0135360Y0100998D01*
X0135220Y0100992D01*
X0135080Y0100982D01*
X0134940Y0100969D01*
X0134801Y0100951D01*
X0134662Y0100929D01*
X0134525Y0100904D01*
X0134387Y0100875D01*
X0134251Y0100842D01*
X0134116Y0100805D01*
X0133982Y0100764D01*
X0133849Y0100719D01*
X0133717Y0100671D01*
X0133587Y0100619D01*
X0133458Y0100564D01*
X0133331Y0100505D01*
X0133205Y0100442D01*
X0133081Y0100376D01*
X0132960Y0100307D01*
X0132840Y0100234D01*
X0132722Y0100157D01*
X0132607Y0100078D01*
X0132493Y0099995D01*
X0132383Y0099909D01*
X0132274Y0099820D01*
X0132168Y0099728D01*
X0132065Y0099633D01*
X0131964Y0099536D01*
X0131867Y0099435D01*
X0131772Y0099332D01*
X0131680Y0099226D01*
X0131591Y0099117D01*
X0131505Y0099007D01*
X0131422Y0098893D01*
X0131343Y0098778D01*
X0131266Y0098660D01*
X0131193Y0098540D01*
X0131124Y0098419D01*
X0131058Y0098295D01*
X0130995Y0098169D01*
X0130936Y0098042D01*
X0130881Y0097913D01*
X0130829Y0097783D01*
X0130781Y0097651D01*
X0130736Y0097518D01*
X0130695Y0097384D01*
X0130658Y0097249D01*
X0130625Y0097113D01*
X0130596Y0096975D01*
X0130571Y0096838D01*
X0130549Y0096699D01*
X0130531Y0096560D01*
X0130518Y0096420D01*
X0130508Y0096280D01*
X0130502Y0096140D01*
X0130500Y0096000D01*
X0130502Y0095860D01*
X0130508Y0095720D01*
X0130518Y0095580D01*
X0130531Y0095440D01*
X0130549Y0095301D01*
X0130571Y0095162D01*
X0130596Y0095025D01*
X0130625Y0094887D01*
X0130658Y0094751D01*
X0130695Y0094616D01*
X0130736Y0094482D01*
X0130781Y0094349D01*
X0130829Y0094217D01*
X0130881Y0094087D01*
X0130936Y0093958D01*
X0130995Y0093831D01*
X0131058Y0093705D01*
X0131124Y0093581D01*
X0131193Y0093460D01*
X0131266Y0093340D01*
X0131343Y0093222D01*
X0131422Y0093107D01*
X0131505Y0092993D01*
X0131591Y0092883D01*
X0131680Y0092774D01*
X0131772Y0092668D01*
X0131867Y0092565D01*
X0131964Y0092464D01*
X0132065Y0092367D01*
X0132168Y0092272D01*
X0132274Y0092180D01*
X0132383Y0092091D01*
X0132493Y0092005D01*
X0132607Y0091922D01*
X0132722Y0091843D01*
X0132840Y0091766D01*
X0132960Y0091693D01*
X0133081Y0091624D01*
X0133205Y0091558D01*
X0133331Y0091495D01*
X0133458Y0091436D01*
X0133587Y0091381D01*
X0133717Y0091329D01*
X0133849Y0091281D01*
X0133982Y0091236D01*
X0134116Y0091195D01*
X0134251Y0091158D01*
X0134387Y0091125D01*
X0134525Y0091096D01*
X0134662Y0091071D01*
X0134801Y0091049D01*
X0134940Y0091031D01*
X0135080Y0091018D01*
X0135220Y0091008D01*
X0135360Y0091002D01*
X0135500Y0091000D01*
X0135500Y0070000D01*
X0042252Y0031300D02*
X0039983Y0031300D01*
X0041117Y0031300D02*
X0041117Y0034703D01*
X0039983Y0033569D01*
X0038569Y0034703D02*
X0036300Y0031300D01*
X0038569Y0031300D02*
X0036300Y0034703D01*
D13*
X0137845Y0104162D02*
X0137845Y0106264D01*
X0137845Y0105213D02*
X0144150Y0105213D01*
X0144150Y0104162D02*
X0144150Y0106264D01*
X0143099Y0108459D02*
X0144150Y0109510D01*
X0144150Y0111612D01*
X0143099Y0112663D01*
X0144150Y0114904D02*
X0144150Y0119108D01*
X0144150Y0117006D02*
X0137845Y0117006D01*
X0139946Y0114904D01*
X0138896Y0112663D02*
X0137845Y0111612D01*
X0137845Y0109510D01*
X0138896Y0108459D01*
X0143099Y0108459D01*
D14*
X0117250Y0059856D02*
X0117250Y0056854D01*
X0117250Y0058355D02*
X0112746Y0058355D01*
X0114247Y0056854D01*
X0113497Y0055253D02*
X0112746Y0054502D01*
X0112746Y0053001D01*
X0113497Y0052250D01*
X0116499Y0052250D01*
X0117250Y0053001D01*
X0117250Y0054502D01*
X0116499Y0055253D01*
X0106000Y0051000D02*
X0106000Y0031000D01*
X0026000Y0031000D01*
X0026000Y0051000D01*
X0046000Y0051000D01*
X0046000Y0056000D01*
X0086000Y0056000D01*
X0086000Y0051000D01*
X0106000Y0051000D01*
X0105293Y0035754D02*
X0106794Y0035754D01*
X0107545Y0035003D01*
X0104542Y0032001D01*
X0105293Y0031250D01*
X0106794Y0031250D01*
X0107545Y0032001D01*
X0107545Y0035003D01*
X0109146Y0035754D02*
X0109146Y0033502D01*
X0110647Y0034253D01*
X0111398Y0034253D01*
X0112149Y0033502D01*
X0112149Y0032001D01*
X0111398Y0031250D01*
X0109897Y0031250D01*
X0109146Y0032001D01*
X0109897Y0029554D02*
X0111398Y0029554D01*
X0112149Y0028803D01*
X0112149Y0028053D01*
X0111398Y0027302D01*
X0112149Y0026551D01*
X0112149Y0025801D01*
X0111398Y0025050D01*
X0109897Y0025050D01*
X0109146Y0025801D01*
X0107545Y0025801D02*
X0106794Y0025050D01*
X0105293Y0025050D01*
X0104542Y0025801D01*
X0104542Y0028803D01*
X0105293Y0029554D01*
X0106794Y0029554D01*
X0107545Y0028803D01*
X0109146Y0028803D02*
X0109897Y0029554D01*
X0110647Y0027302D02*
X0111398Y0027302D01*
X0112000Y0023000D02*
X0113000Y0022000D01*
X0113500Y0010500D01*
X0110200Y0020600D02*
X0110202Y0020663D01*
X0110208Y0020725D01*
X0110218Y0020787D01*
X0110231Y0020849D01*
X0110249Y0020909D01*
X0110270Y0020968D01*
X0110295Y0021026D01*
X0110324Y0021082D01*
X0110356Y0021136D01*
X0110391Y0021188D01*
X0110429Y0021237D01*
X0110471Y0021285D01*
X0110515Y0021329D01*
X0110563Y0021371D01*
X0110612Y0021409D01*
X0110664Y0021444D01*
X0110718Y0021476D01*
X0110774Y0021505D01*
X0110832Y0021530D01*
X0110891Y0021551D01*
X0110951Y0021569D01*
X0111013Y0021582D01*
X0111075Y0021592D01*
X0111137Y0021598D01*
X0111200Y0021600D01*
X0111263Y0021598D01*
X0111325Y0021592D01*
X0111387Y0021582D01*
X0111449Y0021569D01*
X0111509Y0021551D01*
X0111568Y0021530D01*
X0111626Y0021505D01*
X0111682Y0021476D01*
X0111736Y0021444D01*
X0111788Y0021409D01*
X0111837Y0021371D01*
X0111885Y0021329D01*
X0111929Y0021285D01*
X0111971Y0021237D01*
X0112009Y0021188D01*
X0112044Y0021136D01*
X0112076Y0021082D01*
X0112105Y0021026D01*
X0112130Y0020968D01*
X0112151Y0020909D01*
X0112169Y0020849D01*
X0112182Y0020787D01*
X0112192Y0020725D01*
X0112198Y0020663D01*
X0112200Y0020600D01*
X0112198Y0020537D01*
X0112192Y0020475D01*
X0112182Y0020413D01*
X0112169Y0020351D01*
X0112151Y0020291D01*
X0112130Y0020232D01*
X0112105Y0020174D01*
X0112076Y0020118D01*
X0112044Y0020064D01*
X0112009Y0020012D01*
X0111971Y0019963D01*
X0111929Y0019915D01*
X0111885Y0019871D01*
X0111837Y0019829D01*
X0111788Y0019791D01*
X0111736Y0019756D01*
X0111682Y0019724D01*
X0111626Y0019695D01*
X0111568Y0019670D01*
X0111509Y0019649D01*
X0111449Y0019631D01*
X0111387Y0019618D01*
X0111325Y0019608D01*
X0111263Y0019602D01*
X0111200Y0019600D01*
X0111137Y0019602D01*
X0111075Y0019608D01*
X0111013Y0019618D01*
X0110951Y0019631D01*
X0110891Y0019649D01*
X0110832Y0019670D01*
X0110774Y0019695D01*
X0110718Y0019724D01*
X0110664Y0019756D01*
X0110612Y0019791D01*
X0110563Y0019829D01*
X0110515Y0019871D01*
X0110471Y0019915D01*
X0110429Y0019963D01*
X0110391Y0020012D01*
X0110356Y0020064D01*
X0110324Y0020118D01*
X0110295Y0020174D01*
X0110270Y0020232D01*
X0110249Y0020291D01*
X0110231Y0020351D01*
X0110218Y0020413D01*
X0110208Y0020475D01*
X0110202Y0020537D01*
X0110200Y0020600D01*
X0112000Y0023000D02*
X0075000Y0023000D01*
X0074000Y0022000D01*
X0073500Y0010500D01*
X0095334Y0031250D02*
X0095334Y0032001D01*
X0098337Y0035003D01*
X0098337Y0035754D01*
X0095334Y0035754D01*
X0099938Y0035003D02*
X0099938Y0034253D01*
X0100689Y0033502D01*
X0102190Y0033502D01*
X0102941Y0032751D01*
X0102941Y0032001D01*
X0102190Y0031250D01*
X0100689Y0031250D01*
X0099938Y0032001D01*
X0099938Y0032751D01*
X0100689Y0033502D01*
X0102190Y0033502D02*
X0102941Y0034253D01*
X0102941Y0035003D01*
X0102190Y0035754D01*
X0100689Y0035754D01*
X0099938Y0035003D01*
X0104542Y0035003D02*
X0104542Y0032001D01*
X0104542Y0035003D02*
X0105293Y0035754D01*
X0109146Y0035754D02*
X0112149Y0035754D01*
X0102974Y0029554D02*
X0101473Y0029554D01*
X0102223Y0029554D02*
X0102223Y0025050D01*
X0101473Y0025050D02*
X0102974Y0025050D01*
X0138246Y0024751D02*
X0142750Y0024751D01*
X0142750Y0023250D02*
X0142750Y0026253D01*
X0141999Y0027854D02*
X0138997Y0030856D01*
X0141999Y0030856D01*
X0142750Y0030106D01*
X0142750Y0028605D01*
X0141999Y0027854D01*
X0138997Y0027854D01*
X0138246Y0028605D01*
X0138246Y0030106D01*
X0138997Y0030856D01*
X0138997Y0032458D02*
X0138246Y0033208D01*
X0138246Y0034710D01*
X0138997Y0035460D01*
X0141999Y0032458D01*
X0142750Y0033208D01*
X0142750Y0034710D01*
X0141999Y0035460D01*
X0138997Y0035460D01*
X0138997Y0037062D02*
X0138246Y0037812D01*
X0138246Y0039314D01*
X0138997Y0040064D01*
X0141999Y0037062D01*
X0142750Y0037812D01*
X0142750Y0039314D01*
X0141999Y0040064D01*
X0138997Y0040064D01*
X0138997Y0037062D02*
X0141999Y0037062D01*
X0141999Y0032458D02*
X0138997Y0032458D01*
X0138246Y0024751D02*
X0139747Y0023250D01*
X0139747Y0046270D02*
X0141999Y0046270D01*
X0142750Y0047020D01*
X0142750Y0049272D01*
X0139747Y0049272D01*
X0140498Y0050874D02*
X0140498Y0052375D01*
X0138997Y0051624D02*
X0138246Y0052375D01*
X0138997Y0051624D02*
X0142750Y0051624D01*
D15*
X0093500Y0007500D03*
D16*
X0110750Y0010000D03*
X0076250Y0010000D03*
D17*
X0088500Y0010000D03*
X0098500Y0010000D03*
D18*
X0066000Y0003500D02*
X0036000Y0003500D01*
X0036000Y0021000D01*
X0066000Y0021000D01*
X0066000Y0003500D01*
X0066000Y0021000D02*
X0066000Y0028500D01*
X0036000Y0028500D01*
X0036000Y0021000D01*
X0158500Y0038500D02*
X0166000Y0038500D01*
X0166000Y0058500D01*
X0183500Y0058500D01*
X0183500Y0038500D01*
X0166000Y0038500D01*
X0158500Y0038500D02*
X0158500Y0058500D01*
X0166000Y0058500D01*
X0166000Y0071000D02*
X0158500Y0071000D01*
X0158500Y0091000D01*
X0166000Y0091000D01*
X0166000Y0071000D01*
X0183500Y0071000D01*
X0183500Y0091000D01*
X0166000Y0091000D01*
X0166000Y0106000D02*
X0158500Y0106000D01*
X0158500Y0126000D01*
X0166000Y0126000D01*
X0166000Y0106000D01*
X0183500Y0106000D01*
X0183500Y0126000D01*
X0166000Y0126000D01*
D19*
X0075800Y0137500D03*
X0075800Y0137600D03*
X0075800Y0137700D03*
X0061500Y0155800D03*
X0048300Y0144800D03*
X0044500Y0150900D03*
D20*
X0045000Y0149800D03*
X0045100Y0153100D03*
X0048000Y0151500D03*
X0056600Y0151900D03*
X0056700Y0149900D03*
X0060400Y0154900D03*
X0061500Y0155700D03*
X0062600Y0154900D03*
X0066200Y0153200D03*
X0066300Y0153100D03*
X0068900Y0154900D03*
X0069100Y0151600D03*
X0069200Y0149800D03*
X0072700Y0154900D03*
X0061700Y0145400D03*
X0059300Y0143700D03*
X0059100Y0143600D03*
X0054700Y0143400D03*
X0075800Y0138600D03*
X0075800Y0138300D03*
D21*
X0075800Y0138400D03*
X0075800Y0138500D03*
X0064500Y0145400D03*
X0061600Y0148900D03*
X0066500Y0153000D03*
X0066300Y0155000D03*
X0067500Y0155800D03*
X0069000Y0151700D03*
X0069000Y0149700D03*
X0073900Y0148900D03*
X0081200Y0154900D03*
X0054900Y0143300D03*
X0047700Y0151700D03*
X0045200Y0153000D03*
X0047500Y0155000D03*
X0046300Y0155800D03*
X0045200Y0149700D03*
D22*
X0054450Y0155700D03*
X0061550Y0155300D03*
X0061550Y0149300D03*
X0056750Y0142700D03*
X0073850Y0149300D03*
X0075850Y0139500D03*
X0075850Y0139200D03*
D23*
X0075850Y0139300D03*
X0075850Y0139400D03*
X0068750Y0146300D03*
X0073850Y0149400D03*
X0063150Y0145800D03*
X0061550Y0149400D03*
X0061550Y0155200D03*
X0054550Y0149000D03*
D24*
X0075900Y0140400D03*
X0075900Y0140200D03*
D25*
X0075950Y0140300D03*
X0068850Y0145800D03*
D26*
X0075950Y0141400D03*
X0075950Y0141100D03*
D27*
X0075950Y0141200D03*
X0075950Y0141300D03*
X0068550Y0144800D03*
D28*
X0065750Y0150900D03*
X0073750Y0155800D03*
X0075850Y0144300D03*
X0075850Y0144200D03*
X0075850Y0144100D03*
X0075850Y0144000D03*
X0075850Y0143900D03*
X0075850Y0143800D03*
X0075850Y0143700D03*
X0075850Y0143600D03*
X0075850Y0143500D03*
X0075850Y0143400D03*
X0075850Y0143300D03*
X0075850Y0143200D03*
X0075850Y0143100D03*
X0075850Y0143000D03*
X0075850Y0142900D03*
X0075850Y0142800D03*
X0075850Y0142700D03*
X0075850Y0142600D03*
X0075850Y0142500D03*
X0075850Y0142400D03*
X0075850Y0142300D03*
X0075850Y0142200D03*
X0075850Y0142100D03*
X0075850Y0142000D03*
X0075850Y0141900D03*
X0075850Y0141800D03*
X0075850Y0141700D03*
X0075850Y0141600D03*
X0075850Y0141500D03*
X0050650Y0155700D03*
D29*
X0050650Y0155500D03*
X0050650Y0155400D03*
X0050650Y0155300D03*
X0050650Y0155200D03*
X0050650Y0155100D03*
X0050650Y0155000D03*
X0050650Y0154900D03*
X0050650Y0154800D03*
X0050650Y0154700D03*
X0050650Y0154600D03*
X0050650Y0154500D03*
X0050650Y0154400D03*
X0050650Y0154300D03*
X0050650Y0154200D03*
X0050650Y0154100D03*
X0050650Y0154000D03*
X0050650Y0153900D03*
X0050650Y0153800D03*
X0050650Y0153700D03*
X0050650Y0153600D03*
X0050650Y0153500D03*
X0050650Y0153400D03*
X0050650Y0153300D03*
X0050650Y0153200D03*
X0050650Y0153100D03*
X0050650Y0153000D03*
X0050650Y0152900D03*
X0050650Y0152800D03*
X0050650Y0152700D03*
X0050650Y0152600D03*
X0050650Y0152500D03*
X0050650Y0152400D03*
X0050650Y0152300D03*
X0050650Y0152200D03*
X0050650Y0152100D03*
X0050650Y0152000D03*
X0050650Y0151900D03*
X0050650Y0151800D03*
X0050650Y0151700D03*
X0050650Y0151600D03*
X0050650Y0151500D03*
X0050650Y0151400D03*
X0050650Y0151300D03*
X0050650Y0151200D03*
X0050650Y0151100D03*
X0050650Y0151000D03*
X0050650Y0150900D03*
X0050650Y0150800D03*
X0050650Y0150700D03*
X0050650Y0150600D03*
X0050650Y0150500D03*
X0050650Y0150400D03*
X0050650Y0150300D03*
X0050650Y0150200D03*
X0050650Y0150100D03*
X0050650Y0150000D03*
X0050650Y0149900D03*
X0050650Y0149800D03*
X0050650Y0149700D03*
X0050650Y0149600D03*
X0050650Y0149500D03*
X0050650Y0149400D03*
X0050650Y0149300D03*
X0050650Y0149200D03*
X0050650Y0149100D03*
X0048350Y0150500D03*
X0048350Y0150600D03*
X0048350Y0150700D03*
X0048350Y0150800D03*
X0048350Y0150900D03*
X0048150Y0154200D03*
X0044550Y0154200D03*
X0044550Y0154300D03*
X0044550Y0154400D03*
X0044550Y0154100D03*
X0044550Y0154000D03*
X0044550Y0153900D03*
X0044550Y0153800D03*
X0044450Y0150600D03*
X0049250Y0145800D03*
X0053450Y0149800D03*
X0053450Y0149900D03*
X0053450Y0150000D03*
X0053450Y0150100D03*
X0053450Y0150200D03*
X0053450Y0150300D03*
X0053450Y0150400D03*
X0053450Y0150500D03*
X0053450Y0150600D03*
X0053450Y0150700D03*
X0053450Y0150800D03*
X0053450Y0150900D03*
X0053450Y0151000D03*
X0053450Y0151100D03*
X0053450Y0151200D03*
X0053450Y0151300D03*
X0053450Y0151400D03*
X0053450Y0151500D03*
X0053450Y0151600D03*
X0053450Y0151700D03*
X0053450Y0151800D03*
X0053450Y0151900D03*
X0053450Y0152900D03*
X0053450Y0153000D03*
X0053450Y0153100D03*
X0053450Y0153200D03*
X0053450Y0153300D03*
X0053450Y0153400D03*
X0053450Y0153500D03*
X0053450Y0153600D03*
X0053450Y0153700D03*
X0053450Y0153800D03*
X0053450Y0153900D03*
X0053450Y0154000D03*
X0053450Y0154100D03*
X0053450Y0154200D03*
X0053450Y0154300D03*
X0053450Y0154400D03*
X0053450Y0154500D03*
X0053450Y0154600D03*
X0053450Y0154700D03*
X0053450Y0154800D03*
X0053450Y0154900D03*
X0056950Y0154200D03*
X0056950Y0154100D03*
X0056950Y0153700D03*
X0056950Y0153600D03*
X0056950Y0153500D03*
X0057050Y0151200D03*
X0057050Y0151100D03*
X0057050Y0151000D03*
X0057050Y0150900D03*
X0057050Y0150800D03*
X0057050Y0150700D03*
X0057050Y0150600D03*
X0059450Y0151400D03*
X0059450Y0151500D03*
X0059450Y0151600D03*
X0059450Y0151700D03*
X0059550Y0151100D03*
X0059550Y0151000D03*
X0059650Y0150800D03*
X0059450Y0152900D03*
X0059450Y0153000D03*
X0059450Y0153100D03*
X0059450Y0153200D03*
X0059550Y0153500D03*
X0059550Y0153600D03*
X0059650Y0153800D03*
X0063550Y0153600D03*
X0063650Y0153200D03*
X0063750Y0152700D03*
X0063750Y0152600D03*
X0063750Y0152500D03*
X0063750Y0152400D03*
X0063750Y0152300D03*
X0063750Y0152200D03*
X0063750Y0152100D03*
X0063750Y0152000D03*
X0063750Y0151900D03*
X0063650Y0151300D03*
X0063550Y0150900D03*
X0065750Y0150600D03*
X0065750Y0154000D03*
X0065750Y0154100D03*
X0065750Y0154200D03*
X0065750Y0154300D03*
X0069350Y0154300D03*
X0069350Y0154200D03*
X0069350Y0154100D03*
X0071750Y0153300D03*
X0071750Y0153200D03*
X0071750Y0153100D03*
X0071650Y0152700D03*
X0071650Y0152600D03*
X0071650Y0152500D03*
X0071650Y0152400D03*
X0071650Y0152300D03*
X0071650Y0152200D03*
X0071650Y0152100D03*
X0071650Y0152000D03*
X0071650Y0151900D03*
X0071750Y0151500D03*
X0071750Y0151400D03*
X0071750Y0151300D03*
X0071850Y0151000D03*
X0071950Y0150700D03*
X0071850Y0153600D03*
X0071850Y0153700D03*
X0071950Y0153900D03*
X0075750Y0153800D03*
X0075850Y0153500D03*
X0075850Y0153400D03*
X0075950Y0153100D03*
X0075950Y0153000D03*
X0075950Y0152900D03*
X0075950Y0152800D03*
X0075950Y0151700D03*
X0075950Y0151600D03*
X0075950Y0151500D03*
X0075950Y0151400D03*
X0075850Y0151100D03*
X0075850Y0151000D03*
X0075750Y0150700D03*
X0075650Y0150500D03*
X0078150Y0150500D03*
X0078150Y0150600D03*
X0078150Y0150700D03*
X0078150Y0150800D03*
X0078150Y0150900D03*
X0078150Y0151000D03*
X0078150Y0151100D03*
X0078150Y0151200D03*
X0078150Y0151300D03*
X0078150Y0151400D03*
X0078150Y0151500D03*
X0078150Y0151600D03*
X0078150Y0151700D03*
X0078150Y0151800D03*
X0078150Y0151900D03*
X0078150Y0152000D03*
X0078150Y0152100D03*
X0078150Y0153100D03*
X0078150Y0153200D03*
X0078150Y0153300D03*
X0078150Y0153400D03*
X0078150Y0153500D03*
X0078150Y0153600D03*
X0078150Y0153700D03*
X0078150Y0153800D03*
X0078150Y0153900D03*
X0078150Y0154000D03*
X0078150Y0154100D03*
X0078150Y0154200D03*
X0078150Y0154300D03*
X0078150Y0154400D03*
X0078150Y0154500D03*
X0078150Y0154600D03*
X0078150Y0154700D03*
X0078150Y0154800D03*
X0078150Y0154900D03*
X0081650Y0154400D03*
X0081650Y0154300D03*
X0081650Y0153600D03*
X0081650Y0153500D03*
X0078150Y0150400D03*
X0078150Y0150300D03*
X0078150Y0150200D03*
X0078150Y0150100D03*
X0078150Y0150000D03*
X0078150Y0149900D03*
X0078150Y0149800D03*
X0078150Y0149700D03*
X0078150Y0149600D03*
X0078150Y0149500D03*
X0078150Y0149400D03*
X0078150Y0149300D03*
X0078150Y0149200D03*
X0078150Y0149100D03*
X0056650Y0142500D03*
D30*
X0056750Y0142600D03*
X0067050Y0152700D03*
X0068250Y0152100D03*
X0068450Y0152000D03*
D31*
X0069250Y0151500D03*
X0069350Y0151400D03*
X0069050Y0154800D03*
X0066150Y0154900D03*
X0062750Y0154800D03*
X0062850Y0149800D03*
X0060350Y0149800D03*
X0061550Y0145300D03*
X0061350Y0145200D03*
X0061250Y0145100D03*
X0059550Y0143900D03*
X0059450Y0143800D03*
X0054450Y0143500D03*
X0051650Y0145900D03*
X0047950Y0149800D03*
X0044950Y0153200D03*
X0044850Y0153300D03*
X0044850Y0154900D03*
X0047650Y0154900D03*
X0056550Y0154800D03*
X0066150Y0149900D03*
X0066250Y0149800D03*
X0068650Y0142600D03*
X0075150Y0149800D03*
X0075050Y0154800D03*
X0072550Y0154800D03*
D32*
X0073750Y0155500D03*
X0068050Y0152200D03*
X0067850Y0152300D03*
X0067650Y0152400D03*
X0067450Y0152500D03*
X0061550Y0155500D03*
X0061550Y0149100D03*
X0063150Y0146000D03*
X0068650Y0142700D03*
X0073850Y0149100D03*
X0058150Y0143200D03*
X0046350Y0152400D03*
X0046150Y0152500D03*
D33*
X0046250Y0155300D03*
X0054750Y0155500D03*
X0061550Y0155000D03*
X0061550Y0149600D03*
X0063150Y0145700D03*
X0056750Y0142800D03*
X0067550Y0155300D03*
X0073850Y0149600D03*
X0079450Y0155600D03*
D34*
X0073800Y0155200D03*
X0067500Y0155500D03*
X0068700Y0142800D03*
X0046300Y0155500D03*
D35*
X0046550Y0149500D03*
X0054950Y0152300D03*
X0054950Y0155200D03*
X0056750Y0142900D03*
X0067750Y0149500D03*
X0068850Y0146100D03*
X0067550Y0155100D03*
X0079650Y0155400D03*
X0079650Y0152500D03*
D36*
X0079500Y0152300D03*
X0068800Y0146200D03*
X0068700Y0142900D03*
D37*
X0068800Y0143100D03*
X0056800Y0143000D03*
D38*
X0055000Y0149400D03*
X0055000Y0152200D03*
X0055000Y0152600D03*
X0055000Y0152700D03*
X0055000Y0155100D03*
X0046500Y0149600D03*
X0067800Y0149600D03*
X0068800Y0143000D03*
X0079700Y0152600D03*
X0079700Y0155300D03*
D39*
X0068850Y0143200D03*
X0056750Y0143100D03*
D40*
X0055300Y0143200D03*
X0050600Y0146300D03*
X0046500Y0148900D03*
X0047200Y0152000D03*
X0045800Y0152700D03*
X0061600Y0149000D03*
X0067700Y0148900D03*
X0073800Y0155600D03*
D41*
X0068650Y0151900D03*
X0066850Y0152800D03*
X0061550Y0155600D03*
X0062050Y0145500D03*
X0058550Y0143300D03*
X0047350Y0151900D03*
X0045550Y0152800D03*
X0073850Y0149000D03*
D42*
X0068800Y0143300D03*
D43*
X0066650Y0152900D03*
X0058750Y0143400D03*
X0047750Y0149700D03*
D44*
X0068850Y0143400D03*
D45*
X0064750Y0145300D03*
X0066450Y0149700D03*
X0062650Y0149700D03*
X0060550Y0149700D03*
X0056450Y0152900D03*
X0047850Y0151600D03*
X0045050Y0155000D03*
X0050650Y0146400D03*
X0058950Y0143500D03*
X0068750Y0155000D03*
X0073750Y0155700D03*
X0074850Y0154900D03*
X0074950Y0149700D03*
X0072750Y0149700D03*
D46*
X0068850Y0143500D03*
D47*
X0069300Y0149900D03*
X0072500Y0149900D03*
X0072600Y0149800D03*
X0075200Y0149900D03*
X0075200Y0154700D03*
X0081400Y0154800D03*
X0066100Y0153300D03*
X0066000Y0153400D03*
X0066000Y0154800D03*
X0063000Y0154600D03*
X0062900Y0154700D03*
X0060300Y0154800D03*
X0060200Y0154700D03*
X0056700Y0154700D03*
X0056600Y0153000D03*
X0056700Y0151800D03*
X0056800Y0150000D03*
X0060100Y0150000D03*
X0060200Y0149900D03*
X0061100Y0145000D03*
X0060900Y0144900D03*
X0060800Y0144800D03*
X0060500Y0144600D03*
X0060400Y0144500D03*
X0060100Y0144300D03*
X0060000Y0144200D03*
X0059900Y0144100D03*
X0059700Y0144000D03*
X0054300Y0143600D03*
X0054000Y0143800D03*
X0052000Y0145700D03*
X0051800Y0145800D03*
X0048100Y0149900D03*
X0048100Y0151400D03*
X0047900Y0154700D03*
X0047800Y0154800D03*
X0044700Y0150100D03*
X0044800Y0150000D03*
X0044900Y0149900D03*
X0066000Y0150000D03*
D48*
X0068850Y0143600D03*
D49*
X0068850Y0146500D03*
X0069450Y0150000D03*
X0069450Y0150100D03*
X0069550Y0151100D03*
X0069450Y0151300D03*
X0072050Y0150500D03*
X0072150Y0150300D03*
X0072250Y0150200D03*
X0072350Y0150000D03*
X0075350Y0150000D03*
X0075550Y0150300D03*
X0075550Y0154200D03*
X0075450Y0154400D03*
X0075350Y0154500D03*
X0075250Y0154600D03*
X0072450Y0154700D03*
X0072350Y0154600D03*
X0072250Y0154500D03*
X0069150Y0154700D03*
X0065950Y0154700D03*
X0065950Y0153500D03*
X0063350Y0154100D03*
X0063250Y0154300D03*
X0063150Y0154400D03*
X0063050Y0154500D03*
X0060050Y0154600D03*
X0059950Y0154400D03*
X0056850Y0154500D03*
X0056750Y0154600D03*
X0056750Y0153100D03*
X0056850Y0151700D03*
X0056950Y0151500D03*
X0056950Y0150200D03*
X0056850Y0150100D03*
X0059850Y0150400D03*
X0059950Y0150200D03*
X0060050Y0150100D03*
X0062950Y0149900D03*
X0063050Y0150000D03*
X0063150Y0150100D03*
X0063250Y0150200D03*
X0063350Y0150400D03*
X0065750Y0150400D03*
X0065850Y0150200D03*
X0065950Y0150100D03*
X0063150Y0146200D03*
X0060650Y0144700D03*
X0060250Y0144400D03*
X0054150Y0143700D03*
X0053850Y0143900D03*
X0053750Y0144000D03*
X0053650Y0144100D03*
X0053550Y0144200D03*
X0053450Y0144300D03*
X0053350Y0144400D03*
X0053250Y0144500D03*
X0053150Y0144600D03*
X0053050Y0144700D03*
X0052750Y0145000D03*
X0052650Y0145100D03*
X0052550Y0145200D03*
X0052450Y0145300D03*
X0052350Y0145400D03*
X0052150Y0145600D03*
X0049450Y0145900D03*
X0048150Y0150000D03*
X0048250Y0150100D03*
X0048250Y0151200D03*
X0048150Y0151300D03*
X0047950Y0154600D03*
X0044750Y0154800D03*
X0044650Y0154700D03*
X0044750Y0153400D03*
X0044550Y0150300D03*
X0044650Y0150200D03*
X0081450Y0153100D03*
X0081550Y0153200D03*
D50*
X0068800Y0145400D03*
X0068900Y0143700D03*
D51*
X0068900Y0143800D03*
X0068800Y0145300D03*
D52*
X0068900Y0144000D03*
X0068900Y0143900D03*
D53*
X0068900Y0144100D03*
X0068900Y0144200D03*
D54*
X0068850Y0144300D03*
D55*
X0070800Y0144400D03*
D56*
X0070750Y0144500D03*
X0070650Y0144600D03*
D57*
X0069400Y0153900D03*
X0048100Y0153900D03*
X0048200Y0144600D03*
D58*
X0048250Y0144700D03*
D59*
X0068600Y0144700D03*
D60*
X0067700Y0148800D03*
X0069500Y0150200D03*
X0069600Y0150300D03*
X0069600Y0150400D03*
X0069600Y0150500D03*
X0069600Y0150600D03*
X0069600Y0150700D03*
X0069600Y0150800D03*
X0069600Y0150900D03*
X0069600Y0151000D03*
X0069500Y0151200D03*
X0071700Y0151600D03*
X0071700Y0151700D03*
X0071700Y0151800D03*
X0071800Y0151200D03*
X0071800Y0151100D03*
X0071900Y0150900D03*
X0071900Y0150800D03*
X0072000Y0150600D03*
X0072100Y0150400D03*
X0072300Y0150100D03*
X0071700Y0152800D03*
X0071700Y0152900D03*
X0071700Y0153000D03*
X0071800Y0153400D03*
X0071800Y0153500D03*
X0071900Y0153800D03*
X0072000Y0154000D03*
X0072000Y0154100D03*
X0072100Y0154200D03*
X0072100Y0154300D03*
X0072200Y0154400D03*
X0069300Y0154400D03*
X0069300Y0154500D03*
X0069200Y0154600D03*
X0065900Y0154600D03*
X0065800Y0154500D03*
X0065800Y0154400D03*
X0065800Y0153900D03*
X0065800Y0153800D03*
X0065800Y0153700D03*
X0065900Y0153600D03*
X0063700Y0153100D03*
X0063700Y0153000D03*
X0063700Y0152900D03*
X0063700Y0152800D03*
X0063600Y0153300D03*
X0063600Y0153400D03*
X0063600Y0153500D03*
X0063500Y0153700D03*
X0063500Y0153800D03*
X0063400Y0153900D03*
X0063400Y0154000D03*
X0063300Y0154200D03*
X0063700Y0151800D03*
X0063700Y0151700D03*
X0063700Y0151600D03*
X0063700Y0151500D03*
X0063700Y0151400D03*
X0063600Y0151200D03*
X0063600Y0151100D03*
X0063600Y0151000D03*
X0063500Y0150800D03*
X0063500Y0150700D03*
X0063400Y0150600D03*
X0063400Y0150500D03*
X0063300Y0150300D03*
X0065700Y0150500D03*
X0065800Y0150300D03*
X0059900Y0150300D03*
X0059800Y0150500D03*
X0059700Y0150600D03*
X0059700Y0150700D03*
X0059600Y0150900D03*
X0059500Y0151200D03*
X0059500Y0151300D03*
X0059400Y0151800D03*
X0059400Y0151900D03*
X0059400Y0152000D03*
X0059400Y0152100D03*
X0059400Y0152200D03*
X0059400Y0152300D03*
X0059400Y0152400D03*
X0059400Y0152500D03*
X0059400Y0152600D03*
X0059400Y0152700D03*
X0059400Y0152800D03*
X0059500Y0153300D03*
X0059500Y0153400D03*
X0059600Y0153700D03*
X0059700Y0153900D03*
X0059700Y0154000D03*
X0059800Y0154100D03*
X0059800Y0154200D03*
X0059900Y0154300D03*
X0060000Y0154500D03*
X0057000Y0154000D03*
X0057000Y0153900D03*
X0057000Y0153800D03*
X0056900Y0153400D03*
X0056900Y0153300D03*
X0056800Y0153200D03*
X0056900Y0154300D03*
X0056900Y0154400D03*
X0056900Y0151600D03*
X0057000Y0151400D03*
X0057000Y0151300D03*
X0057000Y0150500D03*
X0057000Y0150400D03*
X0057000Y0150300D03*
X0052200Y0145500D03*
X0052800Y0144900D03*
X0052900Y0144800D03*
X0048300Y0150200D03*
X0048300Y0150300D03*
X0048300Y0150400D03*
X0048300Y0151000D03*
X0048300Y0151100D03*
X0046400Y0148800D03*
X0044500Y0150400D03*
X0044500Y0150500D03*
X0044700Y0153500D03*
X0044600Y0153600D03*
X0044600Y0153700D03*
X0044600Y0154500D03*
X0044600Y0154600D03*
X0048000Y0154500D03*
X0048100Y0154400D03*
X0048100Y0154300D03*
X0075500Y0154300D03*
X0075600Y0154100D03*
X0075700Y0154000D03*
X0075700Y0153900D03*
X0075800Y0153700D03*
X0075800Y0153600D03*
X0075900Y0153300D03*
X0075900Y0153200D03*
X0076000Y0152700D03*
X0076000Y0152600D03*
X0076000Y0152500D03*
X0076000Y0152400D03*
X0076000Y0152300D03*
X0076000Y0152200D03*
X0076000Y0152100D03*
X0076000Y0152000D03*
X0076000Y0151900D03*
X0076000Y0151800D03*
X0075900Y0151300D03*
X0075900Y0151200D03*
X0075800Y0150900D03*
X0075800Y0150800D03*
X0075700Y0150600D03*
X0075600Y0150400D03*
X0075500Y0150200D03*
X0075400Y0150100D03*
X0081600Y0153300D03*
X0081600Y0153400D03*
X0081700Y0153700D03*
X0081700Y0153800D03*
X0081700Y0153900D03*
X0081700Y0154000D03*
X0081700Y0154100D03*
X0081700Y0154200D03*
X0081600Y0154500D03*
X0081600Y0154600D03*
X0081500Y0154700D03*
D61*
X0067600Y0155900D03*
X0048100Y0154000D03*
X0046300Y0155900D03*
X0048500Y0145000D03*
X0048400Y0144900D03*
D62*
X0068400Y0144900D03*
D63*
X0068350Y0145000D03*
D64*
X0065750Y0150800D03*
X0069350Y0154000D03*
X0078150Y0148900D03*
X0050650Y0148900D03*
X0050650Y0149000D03*
X0050750Y0146500D03*
X0048750Y0145300D03*
X0048650Y0145200D03*
X0048550Y0145100D03*
X0044450Y0150800D03*
D65*
X0068200Y0145100D03*
D66*
X0068100Y0145200D03*
D67*
X0073900Y0148800D03*
X0078100Y0149000D03*
X0065700Y0150700D03*
X0061600Y0148800D03*
X0050600Y0155600D03*
X0048100Y0154100D03*
X0044500Y0150700D03*
X0049100Y0145700D03*
X0049000Y0145600D03*
X0048900Y0145500D03*
X0048800Y0145400D03*
D68*
X0047000Y0152100D03*
X0046800Y0152200D03*
X0046600Y0152300D03*
X0046000Y0152600D03*
X0046300Y0155700D03*
X0064100Y0145500D03*
X0067200Y0152600D03*
X0067500Y0155700D03*
D69*
X0068800Y0145500D03*
D70*
X0063200Y0145600D03*
X0054900Y0149300D03*
X0054900Y0152400D03*
X0054900Y0152500D03*
X0054900Y0155300D03*
X0046300Y0155100D03*
X0079600Y0152400D03*
D71*
X0068800Y0145600D03*
D72*
X0068850Y0145700D03*
D73*
X0073850Y0149200D03*
X0067550Y0155600D03*
X0063150Y0145900D03*
X0046250Y0155600D03*
D74*
X0068850Y0145900D03*
D75*
X0067800Y0149200D03*
X0073800Y0155100D03*
X0079300Y0155700D03*
X0050600Y0146000D03*
X0046500Y0149200D03*
D76*
X0068850Y0146000D03*
X0079850Y0153000D03*
D77*
X0073800Y0155300D03*
X0067800Y0149100D03*
X0050600Y0146100D03*
X0046500Y0149100D03*
D78*
X0047500Y0151800D03*
X0045400Y0152900D03*
X0056300Y0154900D03*
X0056400Y0149800D03*
X0063200Y0146100D03*
X0068800Y0151800D03*
D79*
X0067800Y0149000D03*
X0068700Y0146400D03*
X0050600Y0146200D03*
X0046500Y0149000D03*
D80*
X0046500Y0149300D03*
X0054700Y0149100D03*
X0067800Y0149300D03*
X0073800Y0155000D03*
D81*
X0079550Y0155500D03*
X0067550Y0155200D03*
X0067750Y0149400D03*
X0054850Y0149200D03*
X0054850Y0155400D03*
X0046250Y0155200D03*
X0046550Y0149400D03*
D82*
X0061600Y0149200D03*
X0061500Y0155400D03*
X0073800Y0155400D03*
D83*
X0079750Y0155200D03*
X0079750Y0152700D03*
X0055050Y0152800D03*
X0055050Y0152100D03*
X0055050Y0155000D03*
X0055050Y0149500D03*
D84*
X0054650Y0155600D03*
X0061550Y0155100D03*
X0061550Y0149500D03*
X0067550Y0155400D03*
X0073850Y0149500D03*
X0079350Y0152200D03*
X0046250Y0155400D03*
D85*
X0055100Y0152000D03*
X0055100Y0149700D03*
X0055100Y0149600D03*
X0079800Y0152800D03*
X0079800Y0152900D03*
X0079800Y0155000D03*
X0079800Y0155100D03*
M02*
